G04                                                      *
G04 Greetings!                                           *
G04 This Gerber was generated by PCBmodE, an open source *
G04 PCB design software. Get it here:                    *
G04                                                      *
G04   http://pcbmode.com                                 *
G04                                                      *
G04 Also visit                                           *
G04                                                      *
G04   http://boldport.com                                *
G04                                                      *
G04 and follow @boldport / @pcbmode for updates!         *
G04                                                      *

G04 leading zeros omitted (L); absolute data (A); 6 integer digits and 6 fractional digits *
%FSLAX66Y66*%

G04 mode (MO): millimeters (MM) *
%MOMM*%

G04 Aperture definitions *
%ADD10C,0.001X*%
%ADD11C,0.001X*%

%LPD*%
G36*
G01X47295764Y-58220215D02*
G01X47295764Y-58220215D01*
G01X47289214Y-58164719D01*
G01X47283969Y-58102582D01*
G01X47279884Y-58036746D01*
G01X47276815Y-57970149D01*
G01X47274615Y-57905731D01*
G01X47273141Y-57846434D01*
G01X47272247Y-57795196D01*
G01X47271787Y-57754957D01*
G01X47271618Y-57728658D01*
G01X47271594Y-57719238D01*
G01X47271594Y-57719238D01*
G01X47271594Y-57719238D01*
G01X47272510Y-57617838D01*
G01X47274909Y-57531163D01*
G01X47278271Y-57459009D01*
G01X47282075Y-57401176D01*
G01X47285798Y-57357459D01*
G01X47288919Y-57327656D01*
G01X47290918Y-57311565D01*
G01X47291369Y-57308350D01*
G01X47291369Y-57308350D01*
G01X47220026Y-57299113D01*
G01X47153013Y-57293859D01*
G01X47099128Y-57291463D01*
G01X47067167Y-57290802D01*
G01X47062121Y-57290772D01*
G01X47052600Y-57290772D01*
G01X47052600Y-57290772D01*
G01X46966268Y-57296452D01*
G01X46894674Y-57310198D01*
G01X46839626Y-57327066D01*
G01X46802933Y-57342113D01*
G01X46786404Y-57350395D01*
G01X46785632Y-57350830D01*
G01X46785632Y-57350830D01*
G01X46731176Y-57399449D01*
G01X46700195Y-57456856D01*
G01X46686068Y-57509295D01*
G01X46682174Y-57543008D01*
G01X46681994Y-57548584D01*
G01X46681994Y-57548584D01*
G01X46695553Y-57627949D01*
G01X46727885Y-57686924D01*
G01X46766475Y-57727090D01*
G01X46798807Y-57750029D01*
G01X46812366Y-57757324D01*
G01X46812366Y-57757324D01*
G01X46812366Y-57757324D01*
G01X46744649Y-57798726D01*
G01X46698383Y-57850486D01*
G01X46669483Y-57905190D01*
G01X46653863Y-57955420D01*
G01X46647436Y-57993762D01*
G01X46646116Y-58012798D01*
G01X46646106Y-58013672D01*
G01X46646106Y-58013672D01*
G01X46656606Y-58095077D01*
G01X46681269Y-58158768D01*
G01X46709838Y-58203888D01*
G01X46732059Y-58229584D01*
G01X46738391Y-58235596D01*
G01X46738391Y-58235596D01*
G01X46800343Y-58275697D01*
G01X46863461Y-58299264D01*
G01X46918060Y-58310691D01*
G01X46954453Y-58314373D01*
G01X46963977Y-58314697D01*
G01X46963977Y-58314697D01*
G01X47054857Y-58308958D01*
G01X47131573Y-58294289D01*
G01X47193903Y-58274519D01*
G01X47241623Y-58253473D01*
G01X47274512Y-58234978D01*
G01X47292347Y-58222861D01*
G01X47295764Y-58220215D01*
G37*
%LPC*%
G36*
G01X47180041Y-58169678D02*
G01X47180041Y-58169678D01*
G01X47122718Y-58199365D01*
G01X47096911Y-58208130D01*
G01X47096911Y-58208130D01*
G01X47027139Y-58221533D01*
G01X46991620Y-58223874D01*
G01X46991076Y-58223877D01*
G01X46991076Y-58223877D01*
G01X46915113Y-58212697D01*
G01X46860080Y-58189876D01*
G01X46831013Y-58171489D01*
G01X46827746Y-58168945D01*
G01X46827746Y-58168945D01*
G01X46784438Y-58112447D01*
G01X46766047Y-58056305D01*
G01X46761894Y-58022232D01*
G01X46761828Y-58019531D01*
G01X46761828Y-58019531D01*
G01X46775979Y-57943239D01*
G01X46805442Y-57890899D01*
G01X46830728Y-57863379D01*
G01X46835803Y-57859131D01*
G01X46835803Y-57859131D01*
G01X46897974Y-57826023D01*
G01X46959046Y-57809623D01*
G01X47003957Y-57804060D01*
G01X47018176Y-57803467D01*
G01X47018176Y-57803467D01*
G01X47103254Y-57805631D01*
G01X47149581Y-57809390D01*
G01X47160266Y-57810791D01*
G01X47160266Y-57810791D01*
G01X47161320Y-57867236D01*
G01X47164049Y-57931751D01*
G01X47167801Y-57998449D01*
G01X47171925Y-58061447D01*
G01X47175770Y-58114861D01*
G01X47178685Y-58152804D01*
G01X47180018Y-58169394D01*
G01X47180041Y-58169678D01*
G37*
G36*
G01X47165393Y-57388184D02*
G01X47165393Y-57388184D01*
G01X47163087Y-57449654D01*
G01X47161385Y-57516671D01*
G01X47160197Y-57583214D01*
G01X47159434Y-57643260D01*
G01X47159007Y-57690788D01*
G01X47158827Y-57719777D01*
G01X47158801Y-57725830D01*
G01X47158801Y-57725830D01*
G01X47091014Y-57728586D01*
G01X47076770Y-57728760D01*
G01X47076770Y-57728760D01*
G01X46975210Y-57719623D01*
G01X46901873Y-57695974D01*
G01X46852164Y-57663457D01*
G01X46821488Y-57627716D01*
G01X46805252Y-57594393D01*
G01X46798860Y-57569132D01*
G01X46797719Y-57557576D01*
G01X46797717Y-57557373D01*
G01X46797717Y-57557373D01*
G01X46813824Y-57489826D01*
G01X46854987Y-57442366D01*
G01X46910467Y-57411448D01*
G01X46969526Y-57393527D01*
G01X47021426Y-57385060D01*
G01X47055430Y-57382499D01*
G01X47062854Y-57382324D01*
G01X47062854Y-57382324D01*
G01X47126307Y-57385166D01*
G01X47165314Y-57388177D01*
G01X47165393Y-57388184D01*
G37*
%LPD*%
G36*
G01X46488635Y-57610108D02*
G01X46488635Y-57610108D01*
G01X46432124Y-57598437D01*
G01X46430041Y-57598389D01*
G01X46430041Y-57598389D01*
G01X46375351Y-57614420D01*
G01X46374011Y-57615601D01*
G01X46374011Y-57615601D01*
G01X46356937Y-57670081D01*
G01X46356799Y-57674561D01*
G01X46356799Y-57674561D01*
G01X46357486Y-57729641D01*
G01X46358996Y-57797974D01*
G01X46360507Y-57856144D01*
G01X46361194Y-57880737D01*
G01X46361194Y-57880737D01*
G01X46361194Y-57880737D01*
G01X46363948Y-57981734D01*
G01X46365214Y-58037473D01*
G01X46365570Y-58060062D01*
G01X46365588Y-58062744D01*
G01X46365588Y-58062744D01*
G01X46352795Y-58138763D01*
G01X46331778Y-58180173D01*
G01X46326037Y-58187622D01*
G01X46326037Y-58187622D01*
G01X46267580Y-58223548D01*
G01X46226070Y-58231126D01*
G01X46223498Y-58231201D01*
G01X46223498Y-58231201D01*
G01X46152192Y-58220081D01*
G01X46090879Y-58194775D01*
G01X46045602Y-58167367D01*
G01X46022403Y-58149942D01*
G01X46020618Y-58148438D01*
G01X46020618Y-58148438D01*
G01X46021489Y-58088000D01*
G01X46021920Y-58021242D01*
G01X46022067Y-57969170D01*
G01X46022082Y-57952149D01*
G01X46022082Y-57952149D01*
G01X46022750Y-57859724D01*
G01X46024455Y-57780109D01*
G01X46026754Y-57714149D01*
G01X46029201Y-57662690D01*
G01X46031352Y-57626576D01*
G01X46032761Y-57606653D01*
G01X46033069Y-57602783D01*
G01X46033069Y-57602783D01*
G01X45981831Y-57598389D01*
G01X45981799Y-57598389D01*
G01X45981799Y-57598389D01*
G01X45922344Y-57627433D01*
G01X45914416Y-57654785D01*
G01X45914416Y-57654785D01*
G01X45915533Y-57703595D01*
G01X45917145Y-57768404D01*
G01X45917346Y-57776367D01*
G01X45917346Y-57776367D01*
G01X45918938Y-57853135D01*
G01X45919814Y-57919321D01*
G01X45920188Y-57968294D01*
G01X45920274Y-57993425D01*
G01X45920276Y-57995361D01*
G01X45920276Y-57995361D01*
G01X45918080Y-58085384D01*
G01X45912615Y-58160048D01*
G01X45905565Y-58218727D01*
G01X45898614Y-58260796D01*
G01X45893447Y-58285628D01*
G01X45891711Y-58292725D01*
G01X45891711Y-58292725D01*
G01X45946305Y-58304423D01*
G01X45947375Y-58304444D01*
G01X45947375Y-58304444D01*
G01X46004132Y-58273781D01*
G01X46016104Y-58232706D01*
G01X46016223Y-58229736D01*
G01X46016223Y-58229736D01*
G01X46081889Y-58271197D01*
G01X46145692Y-58296346D01*
G01X46200319Y-58309260D01*
G01X46238457Y-58314018D01*
G01X46252795Y-58314697D01*
G01X46252795Y-58314697D01*
G01X46254993Y-58314697D01*
G01X46254993Y-58314697D01*
G01X46336953Y-58301972D01*
G01X46394541Y-58269451D01*
G01X46432056Y-58225619D01*
G01X46453801Y-58178959D01*
G01X46464076Y-58137955D01*
G01X46467182Y-58111090D01*
G01X46467395Y-58105225D01*
G01X46467395Y-58105225D01*
G01X46466428Y-58054029D01*
G01X46465238Y-57996176D01*
G01X46465198Y-57994263D01*
G01X46465198Y-57994263D01*
G01X46463691Y-57909464D01*
G01X46463103Y-57856912D01*
G01X46463000Y-57836679D01*
G01X46463000Y-57836426D01*
G01X46463000Y-57836426D01*
G01X46466177Y-57753682D01*
G01X46473522Y-57687145D01*
G01X46481760Y-57639623D01*
G01X46487616Y-57613923D01*
G01X46488635Y-57610108D01*
G37*
G36*
G01X45712268Y-57189697D02*
G01X45712268Y-57189697D01*
G01X45659744Y-57185303D01*
G01X45659534Y-57185303D01*
G01X45659534Y-57185303D01*
G01X45599292Y-57213867D01*
G01X45590686Y-57242432D01*
G01X45590686Y-57242432D01*
G01X45590686Y-57242432D01*
G01X45592203Y-57299335D01*
G01X45592883Y-57322632D01*
G01X45592883Y-57322632D01*
G01X45594743Y-57387354D01*
G01X45596584Y-57453576D01*
G01X45597945Y-57503340D01*
G01X45598376Y-57519287D01*
G01X45598376Y-57519287D01*
G01X45600047Y-57595129D01*
G01X45601029Y-57664062D01*
G01X45601505Y-57719371D01*
G01X45601659Y-57754341D01*
G01X45601672Y-57763184D01*
G01X45601672Y-57996826D01*
G01X45601672Y-57996826D01*
G01X45599476Y-58089567D01*
G01X45594011Y-58164699D01*
G01X45586962Y-58222397D01*
G01X45580011Y-58262833D01*
G01X45574843Y-58286179D01*
G01X45573108Y-58292725D01*
G01X45573108Y-58292725D01*
G01X45628088Y-58304418D01*
G01X45629504Y-58304444D01*
G01X45629504Y-58304444D01*
G01X45685555Y-58288196D01*
G01X45687366Y-58286499D01*
G01X45687366Y-58286499D01*
G01X45703350Y-58231292D01*
G01X45703479Y-58226807D01*
G01X45703479Y-58226807D01*
G01X45703216Y-58178996D01*
G01X45702659Y-58109190D01*
G01X45702153Y-58051294D01*
G01X45702014Y-58036011D01*
G01X45702014Y-58036011D01*
G01X45701271Y-57946251D01*
G01X45700835Y-57877651D01*
G01X45700623Y-57830150D01*
G01X45700555Y-57803687D01*
G01X45700549Y-57797608D01*
G01X45700549Y-57623291D01*
G01X45700549Y-57623291D01*
G01X45701015Y-57507436D01*
G01X45702250Y-57413235D01*
G01X45704012Y-57338677D01*
G01X45706057Y-57281750D01*
G01X45708143Y-57240440D01*
G01X45710026Y-57212735D01*
G01X45711464Y-57196624D01*
G01X45712213Y-57190093D01*
G01X45712268Y-57189697D01*
G37*
G36*
G01X45392932Y-57189697D02*
G01X45392932Y-57189697D01*
G01X45339394Y-57185305D01*
G01X45338733Y-57185303D01*
G01X45338733Y-57185303D01*
G01X45279277Y-57214724D01*
G01X45271350Y-57242432D01*
G01X45271350Y-57242432D01*
G01X45271596Y-57284093D01*
G01X45272126Y-57354540D01*
G01X45272633Y-57418244D01*
G01X45272815Y-57440552D01*
G01X45272815Y-57440552D01*
G01X45273611Y-57543972D01*
G01X45274049Y-57612089D01*
G01X45274236Y-57650867D01*
G01X45274279Y-57666267D01*
G01X45274280Y-57667236D01*
G01X45274280Y-57667236D01*
G01X45204667Y-57626764D01*
G01X45139247Y-57602979D01*
G01X45085510Y-57591446D01*
G01X45050944Y-57587730D01*
G01X45042102Y-57587403D01*
G01X45042102Y-57587403D01*
G01X44965779Y-57599735D01*
G01X44907139Y-57627336D01*
G01X44868552Y-57656111D01*
G01X44852386Y-57671967D01*
G01X44852038Y-57672363D01*
G01X44852038Y-57672363D01*
G01X44817892Y-57728036D01*
G01X44796531Y-57791327D01*
G01X44784957Y-57851928D01*
G01X44780170Y-57899529D01*
G01X44779172Y-57923822D01*
G01X44779162Y-57925049D01*
G01X44779162Y-57925049D01*
G01X44786116Y-58008598D01*
G01X44803185Y-58079865D01*
G01X44824679Y-58136748D01*
G01X44844909Y-58177146D01*
G01X44858185Y-58198958D01*
G01X44860461Y-58202271D01*
G01X44860461Y-58202271D01*
G01X44913033Y-58254949D01*
G01X44971898Y-58287903D01*
G01X45027802Y-58305759D01*
G01X45071493Y-58313143D01*
G01X45093716Y-58314683D01*
G01X45094836Y-58314697D01*
G01X45094836Y-58314697D01*
G01X45174637Y-58306871D01*
G01X45244468Y-58287394D01*
G01X45302103Y-58262267D01*
G01X45345320Y-58237494D01*
G01X45371895Y-58219076D01*
G01X45379748Y-58212891D01*
G01X45379748Y-58212891D01*
G01X45375522Y-58160269D01*
G01X45372542Y-58095020D01*
G01X45370592Y-58026343D01*
G01X45369457Y-57963434D01*
G01X45368920Y-57915492D01*
G01X45368766Y-57891716D01*
G01X45368762Y-57890625D01*
G01X45368762Y-57890625D01*
G01X45369118Y-57833284D01*
G01X45370051Y-57768549D01*
G01X45371359Y-57701393D01*
G01X45372838Y-57636788D01*
G01X45374286Y-57579707D01*
G01X45375500Y-57535121D01*
G01X45376277Y-57508003D01*
G01X45376452Y-57502075D01*
G01X45376452Y-57502075D01*
G01X45380188Y-57394194D01*
G01X45383849Y-57313279D01*
G01X45387193Y-57255865D01*
G01X45389976Y-57218487D01*
G01X45391956Y-57197681D01*
G01X45392890Y-57189981D01*
G01X45392932Y-57189697D01*
G37*
%LPC*%
G36*
G01X45275744Y-58152832D02*
G01X45275744Y-58152832D01*
G01X45210609Y-58196495D01*
G01X45149666Y-58219897D01*
G01X45103182Y-58229357D01*
G01X45081422Y-58231193D01*
G01X45080920Y-58231201D01*
G01X45080920Y-58231201D01*
G01X45009632Y-58214668D01*
G01X44961750Y-58180247D01*
G01X44937084Y-58150705D01*
G01X44933337Y-58144776D01*
G01X44933337Y-58144776D01*
G01X44906012Y-58079066D01*
G01X44891480Y-58014733D01*
G01X44885700Y-57964292D01*
G01X44884634Y-57940257D01*
G01X44884631Y-57939697D01*
G01X44884631Y-57939697D01*
G01X44892445Y-57854416D01*
G01X44909934Y-57792554D01*
G01X44928166Y-57753990D01*
G01X44938213Y-57738601D01*
G01X44938464Y-57738281D01*
G01X44938464Y-57738281D01*
G01X44996823Y-57691677D01*
G01X45049676Y-57674251D01*
G01X45073572Y-57671631D01*
G01X45073596Y-57671631D01*
G01X45075793Y-57671631D01*
G01X45075793Y-57671631D01*
G01X45148557Y-57683113D01*
G01X45209749Y-57708810D01*
G01X45253110Y-57735601D01*
G01X45272384Y-57750363D01*
G01X45272815Y-57750733D01*
G01X45272815Y-57750733D01*
G01X45272427Y-57808358D01*
G01X45272082Y-57847046D01*
G01X45272082Y-57847046D01*
G01X45271508Y-57925216D01*
G01X45271356Y-57967737D01*
G01X45271350Y-57973389D01*
G01X45271350Y-57973389D01*
G01X45272191Y-58060021D01*
G01X45273941Y-58118251D01*
G01X45275443Y-58148270D01*
G01X45275744Y-58152832D01*
G37*
%LPD*%
G36*
G01X44681018Y-58469238D02*
G01X44681018Y-58469238D01*
G01X44679553Y-58451660D01*
G01X44671496Y-58451660D01*
G01X44671496Y-58451660D01*
G01X44608922Y-58430286D01*
G01X44592029Y-58415405D01*
G01X44592029Y-58415405D01*
G01X44563552Y-58355035D01*
G01X44560901Y-58333008D01*
G01X44560901Y-58333008D01*
G01X44587741Y-58269172D01*
G01X44627878Y-58246128D01*
G01X44634143Y-58244385D01*
G01X44634143Y-58244385D01*
G01X44649521Y-58195379D01*
G01X44649524Y-58195313D01*
G01X44649524Y-58195313D01*
G01X44625860Y-58143690D01*
G01X44623889Y-58141846D01*
G01X44623889Y-58141846D01*
G01X44567929Y-58120177D01*
G01X44562366Y-58119873D01*
G01X44562366Y-58119873D01*
G01X44505221Y-58144598D01*
G01X44495715Y-58154297D01*
G01X44495715Y-58154297D01*
G01X44472514Y-58213828D01*
G01X44467911Y-58259166D01*
G01X44467883Y-58261231D01*
G01X44467883Y-58261231D01*
G01X44477761Y-58335650D01*
G01X44498326Y-58394516D01*
G01X44515976Y-58429342D01*
G01X44519519Y-58435181D01*
G01X44519519Y-58435181D01*
G01X44575167Y-58491802D01*
G01X44622783Y-58512045D01*
G01X44641467Y-58514649D01*
G01X44641467Y-58514649D01*
G01X44680297Y-58476334D01*
G01X44681018Y-58469238D01*
G37*
G36*
G01X43937610Y-57308350D02*
G01X43937610Y-57308350D01*
G01X43861989Y-57298488D01*
G01X43795107Y-57293243D01*
G01X43745954Y-57291158D01*
G01X43723520Y-57290773D01*
G01X43723010Y-57290772D01*
G01X43714221Y-57290772D01*
G01X43714221Y-57290772D01*
G01X43615132Y-57297581D01*
G01X43533826Y-57316270D01*
G01X43468545Y-57344230D01*
G01X43417529Y-57378855D01*
G01X43379021Y-57417537D01*
G01X43351260Y-57457667D01*
G01X43332489Y-57496638D01*
G01X43320948Y-57531843D01*
G01X43314879Y-57560673D01*
G01X43312524Y-57580521D01*
G01X43312122Y-57588779D01*
G01X43312121Y-57588867D01*
G01X43312121Y-57588867D01*
G01X43321902Y-57668903D01*
G01X43343792Y-57730243D01*
G01X43366614Y-57770517D01*
G01X43379189Y-57787358D01*
G01X43379504Y-57787720D01*
G01X43379504Y-57787720D01*
G01X43435855Y-57834864D01*
G01X43494128Y-57864670D01*
G01X43539767Y-57880263D01*
G01X43558215Y-57884766D01*
G01X43558215Y-57884766D01*
G01X43558215Y-57884766D01*
G01X43534551Y-57935918D01*
G01X43532580Y-57940064D01*
G01X43532580Y-57940064D01*
G01X43501416Y-58003562D01*
G01X43497058Y-58011841D01*
G01X43497058Y-58011841D01*
G01X43469463Y-58064286D01*
G01X43466296Y-58070435D01*
G01X43466296Y-58070435D01*
G01X43434165Y-58128081D01*
G01X43429675Y-58135254D01*
G01X43429675Y-58135254D01*
G01X43399280Y-58174072D01*
G01X43399280Y-58174072D01*
G01X43340244Y-58210852D01*
G01X43303933Y-58217276D01*
G01X43303332Y-58217285D01*
G01X43303332Y-58217285D01*
G01X43262317Y-58212891D01*
G01X43262317Y-58212891D01*
G01X43249133Y-58258301D01*
G01X43249133Y-58258301D01*
G01X43284432Y-58301257D01*
G01X43342423Y-58313918D01*
G01X43358264Y-58314697D01*
G01X43361194Y-58314697D01*
G01X43361194Y-58314697D01*
G01X43416491Y-58302315D01*
G01X43418323Y-58301514D01*
G01X43418323Y-58301514D01*
G01X43467613Y-58263768D01*
G01X43475451Y-58255371D01*
G01X43475451Y-58255371D01*
G01X43517633Y-58204948D01*
G01X43524158Y-58196778D01*
G01X43524158Y-58196778D01*
G01X43558741Y-58143293D01*
G01X43573596Y-58116944D01*
G01X43573596Y-58116944D01*
G01X43608203Y-58052479D01*
G01X43614978Y-58039673D01*
G01X43614978Y-58039673D01*
G01X43641374Y-57985071D01*
G01X43655627Y-57954346D01*
G01X43655627Y-57954346D01*
G01X43685955Y-57888803D01*
G01X43688586Y-57883301D01*
G01X43688586Y-57883301D01*
G01X43730243Y-57851610D01*
G01X43730334Y-57850342D01*
G01X43730334Y-57850342D01*
G01X43723010Y-57809326D01*
G01X43723010Y-57809326D01*
G01X43659529Y-57817055D01*
G01X43652698Y-57817383D01*
G01X43652698Y-57817383D01*
G01X43574433Y-57804569D01*
G01X43521758Y-57778940D01*
G01X43496927Y-57759718D01*
G01X43495227Y-57758057D01*
G01X43495227Y-57758057D01*
G01X43458545Y-57699095D01*
G01X43442331Y-57639657D01*
G01X43438223Y-57601070D01*
G01X43438098Y-57596192D01*
G01X43438098Y-57596192D01*
G01X43450147Y-57511941D01*
G01X43475234Y-57458670D01*
G01X43496765Y-57432907D01*
G01X43501086Y-57429199D01*
G01X43501086Y-57429199D01*
G01X43557872Y-57402100D01*
G01X43621387Y-57388184D01*
G01X43673091Y-57383057D01*
G01X43694446Y-57382324D01*
G01X43694446Y-57382324D01*
G01X43694446Y-57382324D01*
G01X43761075Y-57384643D01*
G01X43807830Y-57387871D01*
G01X43811633Y-57388184D01*
G01X43811633Y-57388184D01*
G01X43809124Y-57442341D01*
G01X43807458Y-57509017D01*
G01X43806463Y-57577869D01*
G01X43805966Y-57638557D01*
G01X43805794Y-57680738D01*
G01X43805774Y-57694336D01*
G01X43805774Y-57995361D01*
G01X43805774Y-57995361D01*
G01X43803578Y-58089244D01*
G01X43798113Y-58164929D01*
G01X43791063Y-58222763D01*
G01X43784112Y-58263091D01*
G01X43778945Y-58286258D01*
G01X43777209Y-58292725D01*
G01X43777209Y-58292725D01*
G01X43837456Y-58304127D01*
G01X43847522Y-58304444D01*
G01X43847522Y-58304444D01*
G01X43903842Y-58287053D01*
G01X43905749Y-58285034D01*
G01X43905749Y-58285034D01*
G01X43920468Y-58227538D01*
G01X43920764Y-58218750D01*
G01X43920764Y-58218750D01*
G01X43920184Y-58161816D01*
G01X43919377Y-58105548D01*
G01X43919299Y-58100464D01*
G01X43919299Y-58100464D01*
G01X43918237Y-58017337D01*
G01X43917874Y-57967545D01*
G01X43917834Y-57953613D01*
G01X43917834Y-57653320D01*
G01X43917834Y-57653320D01*
G01X43919036Y-57564973D01*
G01X43922106Y-57487398D01*
G01X43926244Y-57421976D01*
G01X43930649Y-57370084D01*
G01X43934520Y-57333103D01*
G01X43937056Y-57312413D01*
G01X43937610Y-57308350D01*
G37*
G36*
G01X43174426Y-57955078D02*
G01X43174426Y-57955078D01*
G01X43166741Y-57871860D01*
G01X43147613Y-57803254D01*
G01X43122939Y-57749650D01*
G01X43098611Y-57711435D01*
G01X43080524Y-57689000D01*
G01X43074451Y-57682617D01*
G01X43074451Y-57682617D01*
G01X43011647Y-57636153D01*
G01X42948632Y-57607969D01*
G01X42893545Y-57593496D01*
G01X42854525Y-57588164D01*
G01X42839709Y-57587403D01*
G01X42839709Y-57587403D01*
G01X42839709Y-57587403D01*
G01X42761596Y-57598751D01*
G01X42705464Y-57622379D01*
G01X42674689Y-57642658D01*
G01X42669787Y-57646729D01*
G01X42669787Y-57646729D01*
G01X42625098Y-57706694D01*
G01X42607643Y-57759531D01*
G01X42604606Y-57785512D01*
G01X42604602Y-57785889D01*
G01X42604602Y-57785889D01*
G01X42615039Y-57856568D01*
G01X42625476Y-57883301D01*
G01X42625476Y-57883301D01*
G01X42625476Y-57883301D01*
G01X42667427Y-57934613D01*
G01X42680041Y-57944458D01*
G01X42680041Y-57944458D01*
G01X42740168Y-57969695D01*
G01X42777378Y-57978868D01*
G01X42777453Y-57978882D01*
G01X42777453Y-57978882D01*
G01X42849067Y-57989388D01*
G01X42895789Y-57993495D01*
G01X42902698Y-57993897D01*
G01X42902698Y-57993897D01*
G01X42966960Y-57995864D01*
G01X43028731Y-57996666D01*
G01X43063136Y-57996825D01*
G01X43064563Y-57996826D01*
G01X43064563Y-57996826D01*
G01X43047060Y-58076426D01*
G01X43022536Y-58132673D01*
G01X43003435Y-58163059D01*
G01X42999743Y-58167847D01*
G01X42999743Y-58167847D01*
G01X42942477Y-58210389D01*
G01X42885635Y-58227725D01*
G01X42853503Y-58231180D01*
G01X42852160Y-58231201D01*
G01X42852160Y-58231201D01*
G01X42773575Y-58217147D01*
G01X42723098Y-58187325D01*
G01X42697443Y-58160245D01*
G01X42692492Y-58152832D01*
G01X42692492Y-58152832D01*
G01X42638328Y-58197111D01*
G01X42633166Y-58215820D01*
G01X42633166Y-58215820D01*
G01X42665182Y-58266953D01*
G01X42700963Y-58287468D01*
G01X42701282Y-58287598D01*
G01X42701282Y-58287598D01*
G01X42770374Y-58306547D01*
G01X42828359Y-58313632D01*
G01X42853600Y-58314697D01*
G01X42853625Y-58314697D01*
G01X42853625Y-58314697D01*
G01X42931939Y-58305443D01*
G01X42996032Y-58283373D01*
G01X43044075Y-58257032D01*
G01X43074242Y-58234963D01*
G01X43084704Y-58225708D01*
G01X43084704Y-58225708D01*
G01X43084704Y-58225708D01*
G01X43124956Y-58170248D01*
G01X43150906Y-58106374D01*
G01X43165693Y-58043685D01*
G01X43172457Y-57991779D01*
G01X43174336Y-57960253D01*
G01X43174426Y-57955078D01*
G37*
%LPC*%
G36*
G01X43066028Y-57922119D02*
G01X43066028Y-57922119D01*
G01X42990926Y-57921453D01*
G01X42958809Y-57920670D01*
G01X42958362Y-57920654D01*
G01X42958362Y-57920654D01*
G01X42892211Y-57915151D01*
G01X42863879Y-57911499D01*
G01X42863879Y-57911499D01*
G01X42795755Y-57895754D01*
G01X42781116Y-57890259D01*
G01X42781116Y-57890259D01*
G01X42732748Y-57855001D01*
G01X42729480Y-57851441D01*
G01X42729480Y-57851441D01*
G01X42708211Y-57795050D01*
G01X42707873Y-57788819D01*
G01X42707873Y-57788819D01*
G01X42729426Y-57726339D01*
G01X42747424Y-57705322D01*
G01X42747424Y-57705322D01*
G01X42808954Y-57675109D01*
G01X42845292Y-57670168D01*
G01X42845569Y-57670166D01*
G01X42845569Y-57670166D01*
G01X42918520Y-57683455D01*
G01X42971182Y-57710033D01*
G01X42997503Y-57729967D01*
G01X42999377Y-57731690D01*
G01X42999377Y-57731690D01*
G01X43036674Y-57787399D01*
G01X43056598Y-57849976D01*
G01X43064574Y-57901016D01*
G01X43066028Y-57922119D01*
G01X43066028Y-57922119D01*
G37*
%LPD*%
G36*
G01X42541614Y-57635742D02*
G01X42541614Y-57635742D01*
G01X42480623Y-57599380D01*
G01X42459582Y-57595459D01*
G01X42458850Y-57594727D01*
G01X42458850Y-57594727D01*
G01X42409649Y-57628899D01*
G01X42399524Y-57647461D01*
G01X42399524Y-57647461D01*
G01X42378948Y-57697719D01*
G01X42355635Y-57758989D01*
G01X42333354Y-57819759D01*
G01X42315872Y-57868512D01*
G01X42306956Y-57893736D01*
G01X42306506Y-57895020D01*
G01X42306506Y-57895020D01*
G01X42277853Y-57979638D01*
G01X42254617Y-58052872D01*
G01X42236756Y-58112735D01*
G01X42224226Y-58157241D01*
G01X42216985Y-58184404D01*
G01X42214953Y-58192383D01*
G01X42214953Y-58192383D01*
G01X42182027Y-58141813D01*
G01X42151162Y-58082510D01*
G01X42124563Y-58023750D01*
G01X42104434Y-57974812D01*
G01X42092979Y-57944973D01*
G01X42091174Y-57940064D01*
G01X42091174Y-57940064D01*
G01X42064515Y-57856519D01*
G01X42046817Y-57783381D01*
G01X42036243Y-57722993D01*
G01X42030958Y-57677698D01*
G01X42029128Y-57649837D01*
G01X42028918Y-57641602D01*
G01X42028918Y-57641602D01*
G01X42033313Y-57594727D01*
G01X42033313Y-57594727D01*
G01X41984973Y-57587403D01*
G01X41984973Y-57587403D01*
G01X41934177Y-57621926D01*
G01X41930041Y-57644531D01*
G01X41930041Y-57644531D01*
G01X41935117Y-57699941D01*
G01X41947918Y-57763444D01*
G01X41964811Y-57827553D01*
G01X41982157Y-57884778D01*
G01X41996323Y-57927633D01*
G01X42003670Y-57948629D01*
G01X42004016Y-57949585D01*
G01X42004016Y-57949585D01*
G01X42037322Y-58033664D01*
G01X42069545Y-58103210D01*
G01X42099010Y-58158573D01*
G01X42124039Y-58200100D01*
G01X42142959Y-58228140D01*
G01X42154091Y-58243042D01*
G01X42156360Y-58245850D01*
G01X42156360Y-58245850D01*
G01X42200854Y-58289932D01*
G01X42204333Y-58292359D01*
G01X42204333Y-58292359D01*
G01X42253736Y-58304443D01*
G01X42253772Y-58304444D01*
G01X42253772Y-58304444D01*
G01X42292590Y-58300049D01*
G01X42292590Y-58300049D01*
G01X42308026Y-58230931D01*
G01X42326387Y-58160711D01*
G01X42346034Y-58092856D01*
G01X42365324Y-58030832D01*
G01X42382616Y-57978105D01*
G01X42396269Y-57938141D01*
G01X42404641Y-57914405D01*
G01X42406482Y-57909302D01*
G01X42406482Y-57909302D01*
G01X42444790Y-57811717D01*
G01X42478032Y-57739122D01*
G01X42505267Y-57688375D01*
G01X42525558Y-57656334D01*
G01X42537964Y-57639859D01*
G01X42541614Y-57635742D01*
G37*
G36*
G01X41804065Y-58220581D02*
G01X41804065Y-58220581D01*
G01X41783871Y-58160653D01*
G01X41776965Y-58152100D01*
G01X41776965Y-58152100D01*
G01X41721025Y-58125019D01*
G01X41712146Y-58124268D01*
G01X41712146Y-58124268D01*
G01X41654637Y-58146435D01*
G01X41648425Y-58152100D01*
G01X41648425Y-58152100D01*
G01X41623359Y-58209223D01*
G01X41622424Y-58220581D01*
G01X41622424Y-58220581D01*
G01X41642142Y-58280172D01*
G01X41648425Y-58287964D01*
G01X41648425Y-58287964D01*
G01X41703835Y-58314045D01*
G01X41712146Y-58314697D01*
G01X41712146Y-58314697D01*
G01X41770093Y-58293738D01*
G01X41776965Y-58287964D01*
G01X41776965Y-58287964D01*
G01X41803177Y-58231281D01*
G01X41804065Y-58220581D01*
G37*
G36*
G01X41013049Y-57379395D02*
G01X41013049Y-57379395D01*
G01X40981518Y-57323807D01*
G01X40955188Y-57314209D01*
G01X40955188Y-57314209D01*
G01X40854628Y-57299956D01*
G01X40796223Y-57293100D01*
G01X40769545Y-57290938D01*
G01X40764026Y-57290772D01*
G01X40764026Y-57290772D01*
G01X40721179Y-57304321D01*
G01X40721179Y-57304321D01*
G01X40702502Y-57347901D01*
G01X40702502Y-57347901D01*
G01X40704542Y-57405220D01*
G01X40705798Y-57434693D01*
G01X40705798Y-57434693D01*
G01X40708337Y-57500592D01*
G01X40710414Y-57564993D01*
G01X40711724Y-57610381D01*
G01X40712024Y-57621460D01*
G01X40712024Y-57621460D01*
G01X40713667Y-57698688D01*
G01X40714542Y-57764612D01*
G01X40714889Y-57811849D01*
G01X40714953Y-57833020D01*
G01X40714953Y-57833496D01*
G01X40714953Y-57926514D01*
G01X40714953Y-57926514D01*
G01X40714076Y-58022782D01*
G01X40711924Y-58099698D01*
G01X40709213Y-58157415D01*
G01X40706661Y-58196087D01*
G01X40704987Y-58215867D01*
G01X40704700Y-58218750D01*
G01X40704700Y-58218750D01*
G01X40619050Y-58217257D01*
G01X40566896Y-58214462D01*
G01X40548710Y-58212893D01*
G01X40548694Y-58212891D01*
G01X40548694Y-58212891D01*
G01X40542102Y-58245850D01*
G01X40542102Y-58245850D01*
G01X40575779Y-58297773D01*
G01X40600696Y-58302979D01*
G01X40600696Y-58302979D01*
G01X40657163Y-58302137D01*
G01X40692981Y-58301514D01*
G01X40692981Y-58301514D01*
G01X40769107Y-58300470D01*
G01X40822312Y-58300097D01*
G01X40840930Y-58300049D01*
G01X40840930Y-58300049D01*
G01X40930413Y-58300403D01*
G01X40982365Y-58301081D01*
G01X41001108Y-58301507D01*
G01X41001330Y-58301514D01*
G01X41001330Y-58301514D01*
G01X41008655Y-58265625D01*
G01X41008655Y-58265625D01*
G01X40970616Y-58222429D01*
G01X40923800Y-58214382D01*
G01X40922229Y-58214356D01*
G01X40819690Y-58214356D01*
G01X40819690Y-58214356D01*
G01X40819410Y-58167660D01*
G01X40818826Y-58099487D01*
G01X40818325Y-58045722D01*
G01X40818225Y-58035278D01*
G01X40818225Y-58035278D01*
G01X40817539Y-57953809D01*
G01X40817109Y-57883206D01*
G01X40816877Y-57826800D01*
G01X40816780Y-57787921D01*
G01X40816760Y-57769901D01*
G01X40816760Y-57769043D01*
G01X40816760Y-57769043D01*
G01X40816994Y-57683143D01*
G01X40817601Y-57604574D01*
G01X40818435Y-57535324D01*
G01X40819351Y-57477383D01*
G01X40820205Y-57432741D01*
G01X40820853Y-57403387D01*
G01X40821149Y-57391312D01*
G01X40821155Y-57391113D01*
G01X40821155Y-57391113D01*
G01X40924649Y-57402194D01*
G01X40981617Y-57408780D01*
G01X41005120Y-57411822D01*
G01X41008655Y-57412354D01*
G01X41008655Y-57412354D01*
G01X41013049Y-57379395D01*
G37*
G36*
G01X47337512Y-59729737D02*
G01X47337512Y-59729737D01*
G01X47336047Y-59709961D01*
G01X47336047Y-59709961D01*
G01X47258461Y-59637543D01*
G01X47190678Y-59573181D01*
G01X47132181Y-59516618D01*
G01X47082449Y-59467597D01*
G01X47040964Y-59425863D01*
G01X47007207Y-59391159D01*
G01X46980658Y-59363229D01*
G01X46960800Y-59341816D01*
G01X46947112Y-59326665D01*
G01X46939076Y-59317518D01*
G01X46936173Y-59314121D01*
G01X46936145Y-59314087D01*
G01X46936145Y-59314087D01*
G01X46888617Y-59244758D01*
G01X46860687Y-59182294D01*
G01X46847144Y-59132494D01*
G01X46842779Y-59101159D01*
G01X46842395Y-59093262D01*
G01X46842395Y-59093262D01*
G01X46854102Y-59016843D01*
G01X46877516Y-58964827D01*
G01X46895077Y-58940062D01*
G01X46896594Y-58938355D01*
G01X46896594Y-58938355D01*
G01X46956033Y-58897389D01*
G01X47007892Y-58882744D01*
G01X47028430Y-58880860D01*
G01X47028430Y-58880860D01*
G01X47096780Y-58892231D01*
G01X47144393Y-58910913D01*
G01X47154407Y-58916016D01*
G01X47154407Y-58916016D01*
G01X47213655Y-58960057D01*
G01X47248598Y-58998106D01*
G01X47256213Y-59008301D01*
G01X47256213Y-59008301D01*
G01X47309953Y-58973275D01*
G01X47313342Y-58958496D01*
G01X47313342Y-58958496D01*
G01X47289452Y-58903621D01*
G01X47244735Y-58862274D01*
G01X47219620Y-58845353D01*
G01X47219592Y-58845337D01*
G01X47219592Y-58845337D01*
G01X47151156Y-58814725D01*
G01X47087731Y-58798444D01*
G01X47039646Y-58791969D01*
G01X47017227Y-58790775D01*
G01X47016711Y-58790772D01*
G01X47016711Y-58790772D01*
G01X46941657Y-58800416D01*
G01X46880744Y-58822363D01*
G01X46837769Y-58846132D01*
G01X46816527Y-58861244D01*
G01X46814929Y-58862549D01*
G01X46814929Y-58862549D01*
G01X46768955Y-58919075D01*
G01X46743655Y-58980404D01*
G01X46732854Y-59032741D01*
G01X46730378Y-59062291D01*
G01X46730334Y-59064697D01*
G01X46730334Y-59064697D01*
G01X46737041Y-59139689D01*
G01X46748996Y-59192205D01*
G01X46754138Y-59208618D01*
G01X46754138Y-59208618D01*
G01X46783541Y-59269016D01*
G01X46817709Y-59321206D01*
G01X46839854Y-59350655D01*
G01X46841662Y-59352905D01*
G01X46841662Y-59352905D01*
G01X46889159Y-59407670D01*
G01X46934463Y-59455570D01*
G01X46969435Y-59490500D01*
G01X46985934Y-59506355D01*
G01X46986316Y-59506714D01*
G01X46986316Y-59506714D01*
G01X47032289Y-59548634D01*
G01X47083463Y-59593726D01*
G01X47133543Y-59636970D01*
G01X47176236Y-59673347D01*
G01X47205249Y-59697836D01*
G01X47214465Y-59705567D01*
G01X47214465Y-59705567D01*
G01X47149355Y-59707798D01*
G01X47095032Y-59708456D01*
G01X47082629Y-59708496D01*
G01X47082629Y-59708496D01*
G01X46989996Y-59707589D01*
G01X46921394Y-59705490D01*
G01X46876073Y-59703136D01*
G01X46853285Y-59701463D01*
G01X46850085Y-59701172D01*
G01X46850085Y-59701172D01*
G01X46777996Y-59688686D01*
G01X46723347Y-59673537D01*
G01X46703235Y-59666748D01*
G01X46703235Y-59666748D01*
G01X46682368Y-59726002D01*
G01X46681994Y-59731201D01*
G01X46681994Y-59731201D01*
G01X46713511Y-59779095D01*
G01X46719348Y-59781738D01*
G01X46719348Y-59781738D01*
G01X46769477Y-59792506D01*
G01X46836214Y-59798834D01*
G01X46902060Y-59801903D01*
G01X46949515Y-59802892D01*
G01X46962512Y-59802979D01*
G01X46962512Y-59802979D01*
G01X47062474Y-59802753D01*
G01X47141271Y-59802193D01*
G01X47200090Y-59801470D01*
G01X47240119Y-59800757D01*
G01X47262546Y-59800227D01*
G01X47268664Y-59800049D01*
G01X47268664Y-59800049D01*
G01X47326671Y-59769103D01*
G01X47337477Y-59731015D01*
G01X47337512Y-59729737D01*
G37*
G36*
G01X46552356Y-59303467D02*
G01X46552356Y-59303467D01*
G01X46547896Y-59216518D01*
G01X46536209Y-59139988D01*
G01X46519834Y-59074417D01*
G01X46501311Y-59020345D01*
G01X46483179Y-58978313D01*
G01X46467976Y-58948862D01*
G01X46458242Y-58932533D01*
G01X46456042Y-58929199D01*
G01X46456042Y-58929199D01*
G01X46402244Y-58869923D01*
G01X46343615Y-58830569D01*
G01X46286945Y-58807058D01*
G01X46239026Y-58795308D01*
G01X46206646Y-58791239D01*
G01X46196399Y-58790772D01*
G01X46196399Y-58790772D01*
G01X46119027Y-58801441D01*
G01X46054097Y-58827995D01*
G01X46002494Y-58862250D01*
G01X45965105Y-58896024D01*
G01X45942814Y-58921134D01*
G01X45936389Y-58929566D01*
G01X45936389Y-58929566D01*
G01X45903373Y-58987850D01*
G01X45878886Y-59051532D01*
G01X45861654Y-59116243D01*
G01X45850401Y-59177613D01*
G01X45843854Y-59231275D01*
G01X45840739Y-59272858D01*
G01X45839780Y-59297995D01*
G01X45839709Y-59303467D01*
G01X45839709Y-59303467D01*
G01X45844186Y-59389216D01*
G01X45855917Y-59464952D01*
G01X45872354Y-59530058D01*
G01X45890948Y-59583914D01*
G01X45909149Y-59625905D01*
G01X45924410Y-59655411D01*
G01X45934181Y-59671815D01*
G01X45936389Y-59675171D01*
G01X45936389Y-59675171D01*
G01X45990344Y-59734918D01*
G01X46049077Y-59774584D01*
G01X46105809Y-59798282D01*
G01X46153760Y-59810125D01*
G01X46186150Y-59814227D01*
G01X46196399Y-59814697D01*
G01X46196399Y-59814697D01*
G01X46273743Y-59804056D01*
G01X46338603Y-59777572D01*
G01X46390114Y-59743407D01*
G01X46427415Y-59709723D01*
G01X46449640Y-59684679D01*
G01X46456042Y-59676270D01*
G01X46456042Y-59676270D01*
G01X46488933Y-59618144D01*
G01X46513327Y-59554644D01*
G01X46530494Y-59490123D01*
G01X46541704Y-59428936D01*
G01X46548226Y-59375437D01*
G01X46551330Y-59333981D01*
G01X46552286Y-59308922D01*
G01X46552356Y-59303467D01*
G37*
%LPC*%
G36*
G01X46439563Y-59257324D02*
G01X46439563Y-59257324D01*
G01X46436118Y-59334888D01*
G01X46428280Y-59401512D01*
G01X46419791Y-59450672D01*
G01X46414394Y-59475846D01*
G01X46413928Y-59477783D01*
G01X46413928Y-59477783D01*
G01X46389288Y-59551424D01*
G01X46361433Y-59608257D01*
G01X46339478Y-59643802D01*
G01X46332263Y-59653931D01*
G01X46332263Y-59653931D01*
G01X46274911Y-59703892D01*
G01X46223635Y-59723407D01*
G01X46198233Y-59726802D01*
G01X46197864Y-59726807D01*
G01X46197864Y-59726807D01*
G01X46129201Y-59711454D01*
G01X46075965Y-59676519D01*
G01X46039867Y-59638682D01*
G01X46022618Y-59614626D01*
G01X46021350Y-59612549D01*
G01X46021350Y-59612549D01*
G01X45991448Y-59546818D01*
G01X45972172Y-59478250D01*
G01X45961187Y-59414688D01*
G01X45956163Y-59363975D01*
G01X45954766Y-59333953D01*
G01X45954700Y-59329102D01*
G01X45954700Y-59329102D01*
G01X45958420Y-59254187D01*
G01X45966748Y-59189584D01*
G01X45975430Y-59142949D01*
G01X45980215Y-59121934D01*
G01X45980334Y-59121460D01*
G01X45980334Y-59121460D01*
G01X46006111Y-59047636D01*
G01X46035049Y-58991440D01*
G01X46056856Y-58957845D01*
G01X46062366Y-58950440D01*
G01X46062366Y-58950440D01*
G01X46119791Y-58901733D01*
G01X46170827Y-58882709D01*
G01X46196032Y-58879399D01*
G01X46196399Y-58879395D01*
G01X46196399Y-58879395D01*
G01X46265205Y-58895288D01*
G01X46318940Y-58930860D01*
G01X46354809Y-58967945D01*
G01X46370019Y-58988380D01*
G01X46370349Y-58988892D01*
G01X46370349Y-58988892D01*
G01X46401401Y-59051610D01*
G01X46421419Y-59116648D01*
G01X46432826Y-59176714D01*
G01X46438043Y-59224517D01*
G01X46439494Y-59252765D01*
G01X46439563Y-59257324D01*
G37*
%LPD*%
G36*
G01X45620715Y-58879395D02*
G01X45620715Y-58879395D01*
G01X45589184Y-58823807D01*
G01X45562854Y-58814209D01*
G01X45562854Y-58814209D01*
G01X45462294Y-58799956D01*
G01X45403889Y-58793100D01*
G01X45377211Y-58790938D01*
G01X45371692Y-58790772D01*
G01X45371692Y-58790772D01*
G01X45328845Y-58804321D01*
G01X45328845Y-58804321D01*
G01X45310168Y-58847901D01*
G01X45310168Y-58847901D01*
G01X45312208Y-58905220D01*
G01X45313464Y-58934693D01*
G01X45313464Y-58934693D01*
G01X45316003Y-59000592D01*
G01X45318080Y-59064993D01*
G01X45319390Y-59110381D01*
G01X45319690Y-59121460D01*
G01X45319690Y-59121460D01*
G01X45321333Y-59198688D01*
G01X45322208Y-59264612D01*
G01X45322555Y-59311849D01*
G01X45322619Y-59333020D01*
G01X45322619Y-59333496D01*
G01X45322619Y-59426514D01*
G01X45322619Y-59426514D01*
G01X45321742Y-59522782D01*
G01X45319590Y-59599698D01*
G01X45316879Y-59657415D01*
G01X45314327Y-59696087D01*
G01X45312653Y-59715867D01*
G01X45312366Y-59718750D01*
G01X45312366Y-59718750D01*
G01X45226716Y-59717257D01*
G01X45174562Y-59714462D01*
G01X45156376Y-59712893D01*
G01X45156360Y-59712891D01*
G01X45156360Y-59712891D01*
G01X45149768Y-59745850D01*
G01X45149768Y-59745850D01*
G01X45183445Y-59797773D01*
G01X45208362Y-59802979D01*
G01X45208362Y-59802979D01*
G01X45264829Y-59802137D01*
G01X45300647Y-59801514D01*
G01X45300647Y-59801514D01*
G01X45376773Y-59800470D01*
G01X45429978Y-59800097D01*
G01X45448596Y-59800049D01*
G01X45448596Y-59800049D01*
G01X45538079Y-59800403D01*
G01X45590031Y-59801081D01*
G01X45608774Y-59801507D01*
G01X45608996Y-59801514D01*
G01X45608996Y-59801514D01*
G01X45616321Y-59765625D01*
G01X45616321Y-59765625D01*
G01X45578282Y-59722429D01*
G01X45531466Y-59714382D01*
G01X45529895Y-59714356D01*
G01X45427356Y-59714356D01*
G01X45427356Y-59714356D01*
G01X45427076Y-59667660D01*
G01X45426492Y-59599487D01*
G01X45425991Y-59545722D01*
G01X45425891Y-59535278D01*
G01X45425891Y-59535278D01*
G01X45425205Y-59453809D01*
G01X45424775Y-59383206D01*
G01X45424543Y-59326800D01*
G01X45424446Y-59287921D01*
G01X45424426Y-59269901D01*
G01X45424426Y-59269043D01*
G01X45424426Y-59269043D01*
G01X45424660Y-59183143D01*
G01X45425267Y-59104574D01*
G01X45426101Y-59035324D01*
G01X45427017Y-58977383D01*
G01X45427871Y-58932741D01*
G01X45428519Y-58903387D01*
G01X45428815Y-58891312D01*
G01X45428821Y-58891113D01*
G01X45428821Y-58891113D01*
G01X45532315Y-58902194D01*
G01X45589283Y-58908780D01*
G01X45612786Y-58911822D01*
G01X45616321Y-58912354D01*
G01X45616321Y-58912354D01*
G01X45620715Y-58879395D01*
G37*
G36*
G01X44913196Y-58845703D02*
G01X44913196Y-58845703D01*
G01X44898653Y-58795381D01*
G01X44898547Y-58795166D01*
G01X44898547Y-58795166D01*
G01X44830019Y-58802865D01*
G01X44768768Y-58806135D01*
G01X44733541Y-58806873D01*
G01X44730823Y-58806885D01*
G01X44730823Y-58806885D01*
G01X44616735Y-58806786D01*
G01X44522711Y-58806522D01*
G01X44446963Y-58806138D01*
G01X44387699Y-58805683D01*
G01X44343131Y-58805201D01*
G01X44311468Y-58804741D01*
G01X44290920Y-58804349D01*
G01X44279698Y-58804072D01*
G01X44276012Y-58803956D01*
G01X44275989Y-58803955D01*
G01X44275989Y-58803955D01*
G01X44264290Y-58858326D01*
G01X44264270Y-58859619D01*
G01X44264270Y-58859619D01*
G01X44272652Y-58915427D01*
G01X44273059Y-58916748D01*
G01X44273059Y-58916748D01*
G01X44284901Y-58948868D01*
G01X44302458Y-58990190D01*
G01X44324880Y-59039239D01*
G01X44351315Y-59094539D01*
G01X44380914Y-59154613D01*
G01X44412826Y-59217986D01*
G01X44446200Y-59283181D01*
G01X44480186Y-59348723D01*
G01X44513934Y-59413135D01*
G01X44546592Y-59474942D01*
G01X44577311Y-59532666D01*
G01X44605240Y-59584834D01*
G01X44629528Y-59629967D01*
G01X44649325Y-59666591D01*
G01X44663781Y-59693229D01*
G01X44672045Y-59708405D01*
G01X44673694Y-59711426D01*
G01X44673694Y-59711426D01*
G01X44713178Y-59774283D01*
G01X44726794Y-59790894D01*
G01X44726794Y-59790894D01*
G01X44774898Y-59814680D01*
G01X44775500Y-59814697D01*
G01X44775500Y-59814697D01*
G01X44832768Y-59790949D01*
G01X44869277Y-59759136D01*
G01X44871448Y-59756836D01*
G01X44871448Y-59756836D01*
G01X44828724Y-59708343D01*
G01X44785608Y-59653034D01*
G01X44743515Y-59594197D01*
G01X44703860Y-59535118D01*
G01X44668060Y-59479085D01*
G01X44637529Y-59429385D01*
G01X44613683Y-59389306D01*
G01X44597937Y-59362133D01*
G01X44591708Y-59351156D01*
G01X44591662Y-59351074D01*
G01X44591662Y-59351074D01*
G01X44544598Y-59264826D01*
G01X44503809Y-59186312D01*
G01X44469087Y-59116139D01*
G01X44440220Y-59054917D01*
G01X44416998Y-59003253D01*
G01X44399211Y-58961756D01*
G01X44386647Y-58931034D01*
G01X44379097Y-58911696D01*
G01X44376349Y-58904349D01*
G01X44376330Y-58904297D01*
G01X44376330Y-58904297D01*
G01X44457066Y-58906659D01*
G01X44533117Y-58908512D01*
G01X44602834Y-58909918D01*
G01X44664571Y-58910936D01*
G01X44716678Y-58911627D01*
G01X44757509Y-58912053D01*
G01X44785415Y-58912273D01*
G01X44798749Y-58912350D01*
G01X44799670Y-58912354D01*
G01X44799670Y-58912354D01*
G01X44882344Y-58893575D01*
G01X44910269Y-58860100D01*
G01X44913196Y-58845703D01*
G37*
G36*
G01X44153674Y-59417725D02*
G01X44153674Y-59417725D01*
G01X44140857Y-59376343D01*
G01X44140857Y-59376343D01*
G01X44099475Y-59359131D01*
G01X44099475Y-59359131D01*
G01X44053699Y-59362061D01*
G01X44053699Y-59362061D01*
G01X43987202Y-59364854D01*
G01X43974963Y-59364990D01*
G01X43974963Y-59364990D01*
G01X43899124Y-59360933D01*
G01X43860468Y-59355283D01*
G01X43857776Y-59354737D01*
G01X43857776Y-59354737D01*
G01X43853381Y-59399414D01*
G01X43853381Y-59399414D01*
G01X43868396Y-59441528D01*
G01X43868396Y-59441528D01*
G01X43907580Y-59458008D01*
G01X43907580Y-59458008D01*
G01X43954822Y-59454346D01*
G01X43954822Y-59454346D01*
G01X44017161Y-59450756D01*
G01X44023303Y-59450684D01*
G01X44023303Y-59450684D01*
G01X44098022Y-59454809D01*
G01X44142928Y-59461184D01*
G01X44149280Y-59462403D01*
G01X44149280Y-59462403D01*
G01X44153674Y-59417725D01*
G37*
G36*
G01X43671741Y-58879395D02*
G01X43671741Y-58879395D01*
G01X43640209Y-58823807D01*
G01X43613879Y-58814209D01*
G01X43613879Y-58814209D01*
G01X43513320Y-58799956D01*
G01X43454915Y-58793100D01*
G01X43428237Y-58790938D01*
G01X43422717Y-58790772D01*
G01X43422717Y-58790772D01*
G01X43379870Y-58804321D01*
G01X43379870Y-58804321D01*
G01X43361194Y-58847901D01*
G01X43361194Y-58847901D01*
G01X43363234Y-58905220D01*
G01X43364490Y-58934693D01*
G01X43364490Y-58934693D01*
G01X43367029Y-59000592D01*
G01X43369105Y-59064993D01*
G01X43370415Y-59110381D01*
G01X43370715Y-59121460D01*
G01X43370715Y-59121460D01*
G01X43372359Y-59198688D01*
G01X43373233Y-59264612D01*
G01X43373581Y-59311849D01*
G01X43373645Y-59333020D01*
G01X43373645Y-59333496D01*
G01X43373645Y-59426514D01*
G01X43373645Y-59426514D01*
G01X43372768Y-59522782D01*
G01X43370615Y-59599698D01*
G01X43367904Y-59657415D01*
G01X43365352Y-59696087D01*
G01X43363678Y-59715867D01*
G01X43363391Y-59718750D01*
G01X43363391Y-59718750D01*
G01X43277742Y-59717257D01*
G01X43225587Y-59714462D01*
G01X43207401Y-59712893D01*
G01X43207385Y-59712891D01*
G01X43207385Y-59712891D01*
G01X43200793Y-59745850D01*
G01X43200793Y-59745850D01*
G01X43234470Y-59797773D01*
G01X43259387Y-59802979D01*
G01X43259387Y-59802979D01*
G01X43315854Y-59802137D01*
G01X43351672Y-59801514D01*
G01X43351672Y-59801514D01*
G01X43427798Y-59800470D01*
G01X43481003Y-59800097D01*
G01X43499621Y-59800049D01*
G01X43499621Y-59800049D01*
G01X43589104Y-59800403D01*
G01X43641056Y-59801081D01*
G01X43659799Y-59801507D01*
G01X43660022Y-59801514D01*
G01X43660022Y-59801514D01*
G01X43667346Y-59765625D01*
G01X43667346Y-59765625D01*
G01X43629308Y-59722429D01*
G01X43582491Y-59714382D01*
G01X43580920Y-59714356D01*
G01X43478381Y-59714356D01*
G01X43478381Y-59714356D01*
G01X43478101Y-59667660D01*
G01X43477518Y-59599487D01*
G01X43477017Y-59545722D01*
G01X43476916Y-59535278D01*
G01X43476916Y-59535278D01*
G01X43476230Y-59453809D01*
G01X43475801Y-59383206D01*
G01X43475568Y-59326800D01*
G01X43475472Y-59287921D01*
G01X43475452Y-59269901D01*
G01X43475452Y-59269043D01*
G01X43475452Y-59269043D01*
G01X43475686Y-59183143D01*
G01X43476292Y-59104574D01*
G01X43477126Y-59035324D01*
G01X43478042Y-58977383D01*
G01X43478897Y-58932741D01*
G01X43479545Y-58903387D01*
G01X43479841Y-58891312D01*
G01X43479846Y-58891113D01*
G01X43479846Y-58891113D01*
G01X43583340Y-58902194D01*
G01X43640308Y-58908780D01*
G01X43663811Y-58911822D01*
G01X43667346Y-58912354D01*
G01X43667346Y-58912354D01*
G01X43671741Y-58879395D01*
G37*
G36*
G01X42999377Y-59303467D02*
G01X42999377Y-59303467D01*
G01X42994917Y-59216518D01*
G01X42983231Y-59139988D01*
G01X42966856Y-59074417D01*
G01X42948333Y-59020345D01*
G01X42930200Y-58978313D01*
G01X42914997Y-58948862D01*
G01X42905264Y-58932533D01*
G01X42903064Y-58929199D01*
G01X42903064Y-58929199D01*
G01X42849265Y-58869923D01*
G01X42790636Y-58830569D01*
G01X42733967Y-58807058D01*
G01X42686047Y-58795308D01*
G01X42653668Y-58791239D01*
G01X42643420Y-58790772D01*
G01X42643420Y-58790772D01*
G01X42566048Y-58801441D01*
G01X42501118Y-58827995D01*
G01X42449516Y-58862250D01*
G01X42412126Y-58896024D01*
G01X42389835Y-58921134D01*
G01X42383410Y-58929566D01*
G01X42383410Y-58929566D01*
G01X42350395Y-58987850D01*
G01X42325908Y-59051532D01*
G01X42308675Y-59116243D01*
G01X42297423Y-59177613D01*
G01X42290876Y-59231275D01*
G01X42287760Y-59272858D01*
G01X42286801Y-59297995D01*
G01X42286731Y-59303467D01*
G01X42286731Y-59303467D01*
G01X42291208Y-59389216D01*
G01X42302939Y-59464952D01*
G01X42319376Y-59530058D01*
G01X42337969Y-59583914D01*
G01X42356171Y-59625905D01*
G01X42371431Y-59655411D01*
G01X42381202Y-59671815D01*
G01X42383410Y-59675171D01*
G01X42383410Y-59675171D01*
G01X42437366Y-59734918D01*
G01X42496099Y-59774584D01*
G01X42552831Y-59798282D01*
G01X42600781Y-59810125D01*
G01X42633172Y-59814227D01*
G01X42643420Y-59814697D01*
G01X42643420Y-59814697D01*
G01X42720764Y-59804056D01*
G01X42785624Y-59777572D01*
G01X42837136Y-59743407D01*
G01X42874436Y-59709723D01*
G01X42896662Y-59684679D01*
G01X42903064Y-59676270D01*
G01X42903064Y-59676270D01*
G01X42935955Y-59618144D01*
G01X42960349Y-59554644D01*
G01X42977516Y-59490123D01*
G01X42988726Y-59428936D01*
G01X42995248Y-59375437D01*
G01X42998352Y-59333981D01*
G01X42999307Y-59308921D01*
G01X42999377Y-59303467D01*
G37*
%LPC*%
G36*
G01X42886584Y-59257324D02*
G01X42886584Y-59257324D01*
G01X42883140Y-59334888D01*
G01X42875302Y-59401512D01*
G01X42866813Y-59450672D01*
G01X42861415Y-59475846D01*
G01X42860950Y-59477783D01*
G01X42860950Y-59477783D01*
G01X42836309Y-59551424D01*
G01X42808455Y-59608257D01*
G01X42786500Y-59643802D01*
G01X42779285Y-59653931D01*
G01X42779285Y-59653931D01*
G01X42721933Y-59703892D01*
G01X42670656Y-59723407D01*
G01X42645255Y-59726802D01*
G01X42644885Y-59726807D01*
G01X42644885Y-59726807D01*
G01X42576222Y-59711454D01*
G01X42522987Y-59676519D01*
G01X42486888Y-59638682D01*
G01X42469639Y-59614626D01*
G01X42468371Y-59612549D01*
G01X42468371Y-59612549D01*
G01X42438470Y-59546818D01*
G01X42419193Y-59478250D01*
G01X42408209Y-59414688D01*
G01X42403184Y-59363975D01*
G01X42401788Y-59333953D01*
G01X42401721Y-59329102D01*
G01X42401721Y-59329102D01*
G01X42405442Y-59254187D01*
G01X42413770Y-59189584D01*
G01X42422452Y-59142949D01*
G01X42427236Y-59121934D01*
G01X42427356Y-59121460D01*
G01X42427356Y-59121460D01*
G01X42453132Y-59047636D01*
G01X42482070Y-58991440D01*
G01X42503877Y-58957845D01*
G01X42509387Y-58950440D01*
G01X42509387Y-58950440D01*
G01X42566813Y-58901733D01*
G01X42617848Y-58882709D01*
G01X42643054Y-58879399D01*
G01X42643420Y-58879395D01*
G01X42643420Y-58879395D01*
G01X42712226Y-58895288D01*
G01X42765961Y-58930860D01*
G01X42801831Y-58967945D01*
G01X42817040Y-58988380D01*
G01X42817370Y-58988892D01*
G01X42817370Y-58988892D01*
G01X42848422Y-59051610D01*
G01X42868440Y-59116648D01*
G01X42879847Y-59176714D01*
G01X42885065Y-59224517D01*
G01X42886515Y-59252765D01*
G01X42886584Y-59257324D01*
G37*
%LPD*%
G36*
G01X47300159Y-60311279D02*
G01X47300159Y-60311279D01*
G01X47232204Y-60300492D01*
G01X47213000Y-60299561D01*
G01X47213000Y-60299561D01*
G01X47151046Y-60322778D01*
G01X47113942Y-60360919D01*
G01X47106799Y-60371338D01*
G01X47106799Y-60371338D01*
G01X47073664Y-60432965D01*
G01X47042744Y-60496499D01*
G01X47016570Y-60554016D01*
G01X46997674Y-60597585D01*
G01X46988590Y-60619281D01*
G01X46988147Y-60620362D01*
G01X46988147Y-60620362D01*
G01X46956819Y-60698901D01*
G01X46931504Y-60765185D01*
G01X46912503Y-60816954D01*
G01X46900117Y-60851946D01*
G01X46894649Y-60867901D01*
G01X46894397Y-60868653D01*
G01X46894397Y-60868653D01*
G01X46875240Y-60926742D01*
G01X46853891Y-60992329D01*
G01X46832985Y-61057038D01*
G01X46815154Y-61112491D01*
G01X46803033Y-61150310D01*
G01X46799182Y-61162354D01*
G01X46799182Y-61162354D01*
G01X46781340Y-61094509D01*
G01X46761813Y-61026621D01*
G01X46741762Y-60961242D01*
G01X46722348Y-60900923D01*
G01X46704735Y-60848215D01*
G01X46690083Y-60805670D01*
G01X46679554Y-60775840D01*
G01X46674310Y-60761275D01*
G01X46673938Y-60760254D01*
G01X46673938Y-60760254D01*
G01X46644870Y-60684562D01*
G01X46615420Y-60613947D01*
G01X46586788Y-60549754D01*
G01X46560173Y-60493327D01*
G01X46536776Y-60446010D01*
G01X46517795Y-60409147D01*
G01X46504431Y-60384082D01*
G01X46497884Y-60372159D01*
G01X46497424Y-60371338D01*
G01X46497424Y-60371338D01*
G01X46445913Y-60317508D01*
G01X46400543Y-60300822D01*
G01X46388293Y-60299561D01*
G01X46388293Y-60299561D01*
G01X46319676Y-60306985D01*
G01X46304065Y-60311279D01*
G01X46304065Y-60311279D01*
G01X46314522Y-60360903D01*
G01X46321869Y-60423307D01*
G01X46326656Y-60490407D01*
G01X46329430Y-60554121D01*
G01X46330741Y-60606365D01*
G01X46331137Y-60639057D01*
G01X46331164Y-60645996D01*
G01X46331164Y-60995362D01*
G01X46331164Y-60995362D01*
G01X46328969Y-61089244D01*
G01X46323504Y-61164929D01*
G01X46316454Y-61222763D01*
G01X46309503Y-61263091D01*
G01X46304335Y-61286258D01*
G01X46302600Y-61292725D01*
G01X46302600Y-61292725D01*
G01X46363134Y-61304127D01*
G01X46373279Y-61304444D01*
G01X46373279Y-61304444D01*
G01X46429760Y-61287243D01*
G01X46431872Y-61285034D01*
G01X46431872Y-61285034D01*
G01X46446592Y-61227538D01*
G01X46446887Y-61218750D01*
G01X46446887Y-61218750D01*
G01X46446371Y-61165530D01*
G01X46445794Y-61114456D01*
G01X46445788Y-61114014D01*
G01X46445788Y-61114014D01*
G01X46445204Y-61053221D01*
G01X46444715Y-60985547D01*
G01X46444335Y-60921480D01*
G01X46444079Y-60871510D01*
G01X46443963Y-60846127D01*
G01X46443957Y-60844849D01*
G01X46443957Y-60844849D01*
G01X46443691Y-60770224D01*
G01X46443498Y-60695715D01*
G01X46443368Y-60625272D01*
G01X46443287Y-60562843D01*
G01X46443245Y-60512379D01*
G01X46443228Y-60477827D01*
G01X46443225Y-60463138D01*
G01X46443225Y-60462891D01*
G01X46443225Y-60462891D01*
G01X46468254Y-60515690D01*
G01X46493605Y-60573433D01*
G01X46519033Y-60635038D01*
G01X46544289Y-60699422D01*
G01X46569128Y-60765500D01*
G01X46593303Y-60832191D01*
G01X46616566Y-60898411D01*
G01X46638671Y-60963078D01*
G01X46659372Y-61025107D01*
G01X46678420Y-61083416D01*
G01X46695571Y-61136922D01*
G01X46710576Y-61184543D01*
G01X46723189Y-61225194D01*
G01X46733163Y-61257792D01*
G01X46740251Y-61281256D01*
G01X46744207Y-61294501D01*
G01X46744983Y-61297119D01*
G01X46744983Y-61297119D01*
G01X46785266Y-61302979D01*
G01X46785266Y-61302979D01*
G01X46849381Y-61279520D01*
G01X46860705Y-61264160D01*
G01X46860705Y-61264160D01*
G01X46877574Y-61223441D01*
G01X46898750Y-61168900D01*
G01X46922082Y-61106842D01*
G01X46945416Y-61043571D01*
G01X46966600Y-60985391D01*
G01X46983479Y-60938609D01*
G01X46993902Y-60909526D01*
G01X46996203Y-60903076D01*
G01X46996203Y-60903076D01*
G01X47028228Y-60815234D01*
G01X47058253Y-60736553D01*
G01X47085825Y-60667313D01*
G01X47110485Y-60607795D01*
G01X47131779Y-60558280D01*
G01X47149249Y-60519050D01*
G01X47162440Y-60490383D01*
G01X47170895Y-60472562D01*
G01X47174159Y-60465868D01*
G01X47174182Y-60465820D01*
G01X47174182Y-60995362D01*
G01X47174182Y-60995362D01*
G01X47171986Y-61089244D01*
G01X47166521Y-61164929D01*
G01X47159471Y-61222763D01*
G01X47152521Y-61263091D01*
G01X47147353Y-61286258D01*
G01X47145618Y-61292725D01*
G01X47145618Y-61292725D01*
G01X47200100Y-61304423D01*
G01X47201282Y-61304444D01*
G01X47201282Y-61304444D01*
G01X47257602Y-61287053D01*
G01X47259509Y-61285034D01*
G01X47259509Y-61285034D01*
G01X47274228Y-61227538D01*
G01X47274524Y-61218750D01*
G01X47274524Y-61218750D01*
G01X47273944Y-61161816D01*
G01X47273137Y-61105548D01*
G01X47273059Y-61100464D01*
G01X47273059Y-61100464D01*
G01X47271996Y-61017337D01*
G01X47271634Y-60967545D01*
G01X47271594Y-60953613D01*
G01X47271594Y-60575684D01*
G01X47271594Y-60575684D01*
G01X47274296Y-60487951D01*
G01X47280833Y-60416661D01*
G01X47288856Y-60362870D01*
G01X47296012Y-60327631D01*
G01X47299951Y-60312001D01*
G01X47300159Y-60311279D01*
G37*
G36*
G01X46136340Y-61103760D02*
G01X46136340Y-61103760D01*
G01X46122666Y-61028636D01*
G01X46102914Y-60994133D01*
G01X46100451Y-60991333D01*
G01X46100451Y-60991333D01*
G01X46045013Y-60953930D01*
G01X46004140Y-60937558D01*
G01X46001575Y-60936768D01*
G01X46001575Y-60936768D01*
G01X45936187Y-60922419D01*
G01X45867274Y-60911581D01*
G01X45802986Y-60903921D01*
G01X45751472Y-60899105D01*
G01X45720883Y-60896802D01*
G01X45715930Y-60896485D01*
G01X45715930Y-60896485D01*
G01X45721955Y-60807293D01*
G01X45734498Y-60751184D01*
G01X45745263Y-60724201D01*
G01X45747424Y-60720337D01*
G01X45747424Y-60720337D01*
G01X45797364Y-60685634D01*
G01X45855645Y-60673227D01*
G01X45881457Y-60671631D01*
G01X45881457Y-60671631D01*
G01X45945290Y-60686996D01*
G01X45968249Y-60698364D01*
G01X45968249Y-60698364D01*
G01X46017632Y-60745436D01*
G01X46035889Y-60776126D01*
G01X46035998Y-60776367D01*
G01X46035998Y-60776367D01*
G01X46096746Y-60740594D01*
G01X46104846Y-60716309D01*
G01X46104846Y-60716309D01*
G01X46078408Y-60656866D01*
G01X46038873Y-60625908D01*
G01X46032702Y-60622559D01*
G01X46032702Y-60622559D01*
G01X45966853Y-60599985D01*
G01X45906515Y-60590007D01*
G01X45869213Y-60587480D01*
G01X45864612Y-60587403D01*
G01X45864612Y-60587403D01*
G01X45777873Y-60596366D01*
G01X45718131Y-60615739D01*
G01X45684461Y-60634245D01*
G01X45675647Y-60640869D01*
G01X45675647Y-60640869D01*
G01X45640925Y-60693295D01*
G01X45623096Y-60756500D01*
G01X45616527Y-60809681D01*
G01X45615588Y-60832031D01*
G01X45615588Y-60832031D01*
G01X45615588Y-60832031D01*
G01X45616473Y-60889072D01*
G01X45617053Y-60920288D01*
G01X45617053Y-60920288D01*
G01X45618261Y-60999017D01*
G01X45618515Y-61033266D01*
G01X45618518Y-61034912D01*
G01X45618518Y-61034912D01*
G01X45615547Y-61128100D01*
G01X45608463Y-61200334D01*
G01X45600008Y-61251756D01*
G01X45592924Y-61282506D01*
G01X45589953Y-61292725D01*
G01X45589953Y-61292725D01*
G01X45589953Y-61292725D01*
G01X45646086Y-61304396D01*
G01X45648547Y-61304444D01*
G01X45648547Y-61304444D01*
G01X45695056Y-61288696D01*
G01X45695056Y-61288696D01*
G01X45695056Y-61288696D01*
G01X45712934Y-61239013D01*
G01X45713000Y-61238526D01*
G01X45713000Y-61238526D01*
G01X45779538Y-61281260D01*
G01X45839413Y-61303987D01*
G01X45883938Y-61313025D01*
G01X45904427Y-61314693D01*
G01X45904895Y-61314697D01*
G01X45904895Y-61314697D01*
G01X45993966Y-61301883D01*
G01X46056631Y-61269135D01*
G01X46097534Y-61224996D01*
G01X46121317Y-61178010D01*
G01X46132621Y-61136719D01*
G01X46136089Y-61109666D01*
G01X46136340Y-61103760D01*
G37*
%LPC*%
G36*
G01X46030871Y-61103760D02*
G01X46030871Y-61103760D01*
G01X46013786Y-61174716D01*
G01X45992759Y-61202749D01*
G01X45992053Y-61203369D01*
G01X45992053Y-61203369D01*
G01X45930464Y-61231065D01*
G01X45893459Y-61235594D01*
G01X45893176Y-61235596D01*
G01X45893176Y-61235596D01*
G01X45818365Y-61223512D01*
G01X45761913Y-61197870D01*
G01X45728406Y-61174586D01*
G01X45721057Y-61168213D01*
G01X45721057Y-61168213D01*
G01X45722490Y-61107754D01*
G01X45722522Y-61097901D01*
G01X45722522Y-61097901D01*
G01X45720329Y-61025930D01*
G01X45717775Y-60979135D01*
G01X45717395Y-60973389D01*
G01X45717395Y-60973389D01*
G01X45779102Y-60980266D01*
G01X45782580Y-60980713D01*
G01X45782580Y-60980713D01*
G01X45839219Y-60987760D01*
G01X45841540Y-60988037D01*
G01X45841540Y-60988037D01*
G01X45895933Y-60996699D01*
G01X45896472Y-60996826D01*
G01X45896472Y-60996826D01*
G01X45940417Y-61008911D01*
G01X45940417Y-61008911D01*
G01X45979236Y-61025757D01*
G01X45979236Y-61025757D01*
G01X46006335Y-61045899D01*
G01X46006335Y-61045899D01*
G01X46025744Y-61071167D01*
G01X46025744Y-61071167D01*
G01X46030871Y-61103760D01*
G37*
%LPD*%
G36*
G01X45507922Y-60656250D02*
G01X45507922Y-60656250D01*
G01X45485642Y-60612331D01*
G01X45485583Y-60612305D01*
G01X45485583Y-60612305D01*
G01X45425274Y-60603192D01*
G01X45409045Y-60602783D01*
G01X45366565Y-60602783D01*
G01X45366565Y-60602783D01*
G01X45369913Y-60522146D01*
G01X45373578Y-60464725D01*
G01X45375899Y-60436334D01*
G01X45376086Y-60434326D01*
G01X45376086Y-60434326D01*
G01X45326282Y-60429932D01*
G01X45326282Y-60429932D01*
G01X45326282Y-60429932D01*
G01X45264026Y-60457639D01*
G01X45254505Y-60486993D01*
G01X45254504Y-60487061D01*
G01X45254504Y-60487061D01*
G01X45256823Y-60542332D01*
G01X45260051Y-60599075D01*
G01X45260364Y-60604248D01*
G01X45260364Y-60604248D01*
G01X45161035Y-60603410D01*
G01X45089410Y-60601412D01*
G01X45042254Y-60599028D01*
G01X45016332Y-60597029D01*
G01X45008410Y-60596192D01*
G01X45008410Y-60596192D01*
G01X45008410Y-60596192D01*
G01X45002551Y-60631348D01*
G01X45002551Y-60631348D01*
G01X45018298Y-60671631D01*
G01X45018298Y-60671631D01*
G01X45068378Y-60683346D01*
G01X45068469Y-60683350D01*
G01X45068469Y-60683350D01*
G01X45123030Y-60684221D01*
G01X45190150Y-60684653D01*
G01X45244960Y-60684799D01*
G01X45263293Y-60684815D01*
G01X45263293Y-60684815D01*
G01X45264424Y-60758131D01*
G01X45265218Y-60829762D01*
G01X45265736Y-60895746D01*
G01X45266035Y-60952125D01*
G01X45266177Y-60994938D01*
G01X45266220Y-61020225D01*
G01X45266223Y-61025391D01*
G01X45266223Y-61025391D01*
G01X45260260Y-61116433D01*
G01X45248089Y-61169908D01*
G01X45238283Y-61192781D01*
G01X45236926Y-61194946D01*
G01X45236926Y-61194946D01*
G01X45181328Y-61229544D01*
G01X45140951Y-61235587D01*
G01X45140246Y-61235596D01*
G01X45140246Y-61235596D01*
G01X45072525Y-61218294D01*
G01X45035904Y-61193301D01*
G01X45032580Y-61190186D01*
G01X45032580Y-61190186D01*
G01X45005667Y-61241764D01*
G01X45005481Y-61244385D01*
G01X45005481Y-61244385D01*
G01X45038234Y-61291763D01*
G01X45044299Y-61295288D01*
G01X45044299Y-61295288D01*
G01X45108326Y-61312551D01*
G01X45138782Y-61314697D01*
G01X45138782Y-61314697D01*
G01X45221495Y-61302664D01*
G01X45276889Y-61276657D01*
G01X45307205Y-61251814D01*
G01X45314929Y-61242920D01*
G01X45314929Y-61242920D01*
G01X45342991Y-61184721D01*
G01X45358434Y-61119585D01*
G01X45365026Y-61063125D01*
G01X45366538Y-61030953D01*
G01X45366565Y-61028320D01*
G01X45366565Y-61028320D01*
G01X45365434Y-60919018D01*
G01X45364640Y-60833975D01*
G01X45364122Y-60770655D01*
G01X45363823Y-60726522D01*
G01X45363681Y-60699040D01*
G01X45363638Y-60685672D01*
G01X45363635Y-60683350D01*
G01X45363635Y-60683350D01*
G01X45406916Y-60686596D01*
G01X45477511Y-60692234D01*
G01X45503528Y-60694336D01*
G01X45503528Y-60694336D01*
G01X45507922Y-60656250D01*
G37*
G36*
G01X44980578Y-60656250D02*
G01X44980578Y-60656250D01*
G01X44958299Y-60612331D01*
G01X44958240Y-60612305D01*
G01X44958240Y-60612305D01*
G01X44897930Y-60603192D01*
G01X44881701Y-60602783D01*
G01X44839221Y-60602783D01*
G01X44839221Y-60602783D01*
G01X44842570Y-60522146D01*
G01X44846235Y-60464725D01*
G01X44848555Y-60436334D01*
G01X44848743Y-60434326D01*
G01X44848743Y-60434326D01*
G01X44798938Y-60429932D01*
G01X44798938Y-60429932D01*
G01X44798938Y-60429932D01*
G01X44736682Y-60457639D01*
G01X44727161Y-60486993D01*
G01X44727160Y-60487061D01*
G01X44727160Y-60487061D01*
G01X44729479Y-60542332D01*
G01X44732707Y-60599075D01*
G01X44733020Y-60604248D01*
G01X44733020Y-60604248D01*
G01X44633692Y-60603410D01*
G01X44562067Y-60601412D01*
G01X44514910Y-60599028D01*
G01X44488989Y-60597029D01*
G01X44481067Y-60596192D01*
G01X44481067Y-60596192D01*
G01X44481067Y-60596192D01*
G01X44475207Y-60631348D01*
G01X44475207Y-60631348D01*
G01X44490954Y-60671631D01*
G01X44490954Y-60671631D01*
G01X44541034Y-60683346D01*
G01X44541125Y-60683350D01*
G01X44541125Y-60683350D01*
G01X44595686Y-60684221D01*
G01X44662807Y-60684653D01*
G01X44717617Y-60684799D01*
G01X44735950Y-60684815D01*
G01X44735950Y-60684815D01*
G01X44737080Y-60758131D01*
G01X44737874Y-60829762D01*
G01X44738392Y-60895746D01*
G01X44738692Y-60952125D01*
G01X44738833Y-60994938D01*
G01X44738876Y-61020225D01*
G01X44738879Y-61025391D01*
G01X44738879Y-61025391D01*
G01X44732917Y-61116433D01*
G01X44720745Y-61169908D01*
G01X44710939Y-61192781D01*
G01X44709582Y-61194946D01*
G01X44709582Y-61194946D01*
G01X44653984Y-61229544D01*
G01X44613608Y-61235587D01*
G01X44612903Y-61235596D01*
G01X44612903Y-61235596D01*
G01X44545181Y-61218294D01*
G01X44508560Y-61193301D01*
G01X44505237Y-61190186D01*
G01X44505237Y-61190186D01*
G01X44478323Y-61241764D01*
G01X44478137Y-61244385D01*
G01X44478137Y-61244385D01*
G01X44510890Y-61291763D01*
G01X44516955Y-61295288D01*
G01X44516955Y-61295288D01*
G01X44580982Y-61312551D01*
G01X44611438Y-61314697D01*
G01X44611438Y-61314697D01*
G01X44694151Y-61302664D01*
G01X44749546Y-61276657D01*
G01X44779862Y-61251814D01*
G01X44787585Y-61242920D01*
G01X44787585Y-61242920D01*
G01X44815648Y-61184721D01*
G01X44831090Y-61119585D01*
G01X44837683Y-61063125D01*
G01X44839195Y-61030953D01*
G01X44839221Y-61028320D01*
G01X44839221Y-61028320D01*
G01X44838091Y-60919018D01*
G01X44837296Y-60833975D01*
G01X44836779Y-60770655D01*
G01X44836479Y-60726522D01*
G01X44836337Y-60699040D01*
G01X44836294Y-60685672D01*
G01X44836291Y-60683350D01*
G01X44836291Y-60683350D01*
G01X44879572Y-60686596D01*
G01X44950167Y-60692234D01*
G01X44976184Y-60694336D01*
G01X44976184Y-60694336D01*
G01X44980578Y-60656250D01*
G37*
G36*
G01X44363147Y-61245850D02*
G01X44363147Y-61245850D01*
G01X44361910Y-61196479D01*
G01X44359938Y-61129663D01*
G01X44359485Y-61114746D01*
G01X44359485Y-61114746D01*
G01X44357529Y-61046683D01*
G01X44355700Y-60976556D01*
G01X44354129Y-60912052D01*
G01X44352941Y-60860862D01*
G01X44352267Y-60830673D01*
G01X44352160Y-60825806D01*
G01X44352160Y-60825806D01*
G01X44350592Y-60742953D01*
G01X44349551Y-60669247D01*
G01X44348929Y-60607549D01*
G01X44348618Y-60560719D01*
G01X44348511Y-60531620D01*
G01X44348498Y-60522949D01*
G01X44348498Y-60522949D01*
G01X44349210Y-60425074D01*
G01X44351030Y-60345670D01*
G01X44353482Y-60283726D01*
G01X44356092Y-60238236D01*
G01X44358386Y-60208191D01*
G01X44359889Y-60192582D01*
G01X44360217Y-60189697D01*
G01X44360217Y-60189697D01*
G01X44306576Y-60185305D01*
G01X44306018Y-60185303D01*
G01X44306018Y-60185303D01*
G01X44246563Y-60214724D01*
G01X44238635Y-60242432D01*
G01X44238635Y-60242432D01*
G01X44239043Y-60274541D01*
G01X44240123Y-60327937D01*
G01X44241665Y-60395180D01*
G01X44243455Y-60468827D01*
G01X44245280Y-60541436D01*
G01X44246927Y-60605565D01*
G01X44248185Y-60653773D01*
G01X44248841Y-60678617D01*
G01X44248889Y-60680420D01*
G01X44248889Y-60680420D01*
G01X44182485Y-60635028D01*
G01X44117557Y-60607494D01*
G01X44061735Y-60593356D01*
G01X44022647Y-60588147D01*
G01X44007922Y-60587403D01*
G01X44007922Y-60587403D01*
G01X44007922Y-60587403D01*
G01X43929874Y-60601641D01*
G01X43874952Y-60638028D01*
G01X43839095Y-60687070D01*
G01X43818237Y-60739278D01*
G01X43808314Y-60785156D01*
G01X43805264Y-60815215D01*
G01X43805041Y-60821778D01*
G01X43805041Y-60821778D01*
G01X43806594Y-60874984D01*
G01X43807971Y-60919190D01*
G01X43807971Y-60919190D01*
G01X43810058Y-61000001D01*
G01X43810805Y-61050260D01*
G01X43810901Y-61066406D01*
G01X43810901Y-61066406D01*
G01X43807815Y-61149739D01*
G01X43800680Y-61216294D01*
G01X43792677Y-61263545D01*
G01X43786988Y-61288965D01*
G01X43785998Y-61292725D01*
G01X43785998Y-61292725D01*
G01X43842509Y-61304396D01*
G01X43844592Y-61304444D01*
G01X43844592Y-61304444D01*
G01X43899283Y-61288412D01*
G01X43900622Y-61287232D01*
G01X43900622Y-61287232D01*
G01X43917697Y-61232751D01*
G01X43917834Y-61228272D01*
G01X43917834Y-61228272D01*
G01X43917196Y-61174688D01*
G01X43915769Y-61106647D01*
G01X43914280Y-61046138D01*
G01X43913460Y-61015154D01*
G01X43913440Y-61014404D01*
G01X43913440Y-61014404D01*
G01X43910755Y-60911465D01*
G01X43909473Y-60853465D01*
G01X43909075Y-60828643D01*
G01X43909045Y-60824707D01*
G01X43909045Y-60824707D01*
G01X43924394Y-60754146D01*
G01X43946565Y-60717693D01*
G01X43949328Y-60714478D01*
G01X43949328Y-60714478D01*
G01X44008734Y-60677656D01*
G01X44042097Y-60671634D01*
G01X44042346Y-60671631D01*
G01X44042346Y-60671631D01*
G01X44107067Y-60683881D01*
G01X44147406Y-60698957D01*
G01X44148547Y-60699463D01*
G01X44148547Y-60699463D01*
G01X44211660Y-60737415D01*
G01X44245210Y-60766649D01*
G01X44248889Y-60770508D01*
G01X44248889Y-60770508D01*
G01X44251580Y-60871891D01*
G01X44253429Y-60947682D01*
G01X44254588Y-61000623D01*
G01X44255212Y-61033457D01*
G01X44255454Y-61048926D01*
G01X44255481Y-61051026D01*
G01X44255481Y-61051026D01*
G01X44254231Y-61129300D01*
G01X44251295Y-61199369D01*
G01X44247894Y-61254965D01*
G01X44245248Y-61289821D01*
G01X44244494Y-61298584D01*
G01X44244494Y-61298584D01*
G01X44295732Y-61302979D01*
G01X44295764Y-61302979D01*
G01X44295764Y-61302979D01*
G01X44355219Y-61273557D01*
G01X44363147Y-61245850D01*
G37*
G36*
G01X43628528Y-60955078D02*
G01X43628528Y-60955078D01*
G01X43620842Y-60871860D01*
G01X43601715Y-60803254D01*
G01X43577040Y-60749650D01*
G01X43552713Y-60711435D01*
G01X43534626Y-60689000D01*
G01X43528552Y-60682617D01*
G01X43528552Y-60682617D01*
G01X43465748Y-60636153D01*
G01X43402734Y-60607969D01*
G01X43347647Y-60593496D01*
G01X43308626Y-60588164D01*
G01X43293811Y-60587403D01*
G01X43293811Y-60587403D01*
G01X43293811Y-60587403D01*
G01X43215697Y-60598751D01*
G01X43159565Y-60622379D01*
G01X43128790Y-60642658D01*
G01X43123889Y-60646729D01*
G01X43123889Y-60646729D01*
G01X43079200Y-60706694D01*
G01X43061745Y-60759531D01*
G01X43058708Y-60785512D01*
G01X43058703Y-60785889D01*
G01X43058703Y-60785889D01*
G01X43069140Y-60856568D01*
G01X43079577Y-60883301D01*
G01X43079577Y-60883301D01*
G01X43079577Y-60883301D01*
G01X43121528Y-60934613D01*
G01X43134143Y-60944458D01*
G01X43134143Y-60944458D01*
G01X43194270Y-60969695D01*
G01X43231479Y-60978868D01*
G01X43231555Y-60978882D01*
G01X43231555Y-60978882D01*
G01X43303168Y-60989388D01*
G01X43349891Y-60993495D01*
G01X43356799Y-60993897D01*
G01X43356799Y-60993897D01*
G01X43421062Y-60995864D01*
G01X43482832Y-60996666D01*
G01X43517237Y-60996825D01*
G01X43518664Y-60996826D01*
G01X43518664Y-60996826D01*
G01X43501162Y-61076426D01*
G01X43476637Y-61132673D01*
G01X43457536Y-61163059D01*
G01X43453845Y-61167847D01*
G01X43453845Y-61167847D01*
G01X43396579Y-61210389D01*
G01X43339737Y-61227725D01*
G01X43307604Y-61231180D01*
G01X43306262Y-61231201D01*
G01X43306262Y-61231201D01*
G01X43227677Y-61217147D01*
G01X43177200Y-61187325D01*
G01X43151544Y-61160245D01*
G01X43146594Y-61152832D01*
G01X43146594Y-61152832D01*
G01X43092429Y-61197111D01*
G01X43087268Y-61215820D01*
G01X43087268Y-61215820D01*
G01X43119283Y-61266953D01*
G01X43155065Y-61287468D01*
G01X43155383Y-61287598D01*
G01X43155383Y-61287598D01*
G01X43224475Y-61306547D01*
G01X43282460Y-61313632D01*
G01X43307702Y-61314697D01*
G01X43307727Y-61314697D01*
G01X43307727Y-61314697D01*
G01X43386040Y-61305443D01*
G01X43450133Y-61283373D01*
G01X43498177Y-61257032D01*
G01X43528344Y-61234963D01*
G01X43538806Y-61225708D01*
G01X43538806Y-61225708D01*
G01X43538806Y-61225708D01*
G01X43579058Y-61170248D01*
G01X43605008Y-61106374D01*
G01X43619794Y-61043685D01*
G01X43626558Y-60991779D01*
G01X43628438Y-60960253D01*
G01X43628528Y-60955078D01*
G37*
%LPC*%
G36*
G01X43520129Y-60922119D02*
G01X43520129Y-60922119D01*
G01X43445027Y-60921453D01*
G01X43412910Y-60920670D01*
G01X43412463Y-60920654D01*
G01X43412463Y-60920654D01*
G01X43346312Y-60915151D01*
G01X43317981Y-60911499D01*
G01X43317981Y-60911499D01*
G01X43249856Y-60895754D01*
G01X43235217Y-60890259D01*
G01X43235217Y-60890259D01*
G01X43186850Y-60855001D01*
G01X43183581Y-60851441D01*
G01X43183581Y-60851441D01*
G01X43162313Y-60795050D01*
G01X43161975Y-60788819D01*
G01X43161975Y-60788819D01*
G01X43183528Y-60726339D01*
G01X43201526Y-60705322D01*
G01X43201526Y-60705322D01*
G01X43263055Y-60675109D01*
G01X43299394Y-60670168D01*
G01X43299670Y-60670166D01*
G01X43299670Y-60670166D01*
G01X43372622Y-60683455D01*
G01X43425284Y-60710033D01*
G01X43451605Y-60729967D01*
G01X43453479Y-60731690D01*
G01X43453479Y-60731690D01*
G01X43490775Y-60787399D01*
G01X43510699Y-60849976D01*
G01X43518676Y-60901016D01*
G01X43520129Y-60922119D01*
G01X43520129Y-60922119D01*
G37*
%LPD*%
G36*
G01X42995715Y-60635742D02*
G01X42995715Y-60635742D01*
G01X42934724Y-60599380D01*
G01X42913684Y-60595459D01*
G01X42912951Y-60594727D01*
G01X42912951Y-60594727D01*
G01X42863750Y-60628899D01*
G01X42853625Y-60647461D01*
G01X42853625Y-60647461D01*
G01X42834764Y-60698778D01*
G01X42813301Y-60762680D01*
G01X42793139Y-60825387D01*
G01X42778180Y-60873117D01*
G01X42772326Y-60892090D01*
G01X42772326Y-60892090D01*
G01X42772326Y-60892090D01*
G01X42747034Y-60977448D01*
G01X42726441Y-61051379D01*
G01X42710548Y-61111852D01*
G01X42699353Y-61156839D01*
G01X42692857Y-61184310D01*
G01X42691028Y-61192383D01*
G01X42691028Y-61192383D01*
G01X42659577Y-61138662D01*
G01X42630270Y-61075784D01*
G01X42605487Y-61014661D01*
G01X42587610Y-60966204D01*
G01X42579019Y-60941324D01*
G01X42578601Y-60940064D01*
G01X42578601Y-60940064D01*
G01X42554294Y-60856631D01*
G01X42538157Y-60783774D01*
G01X42528516Y-60723748D01*
G01X42523698Y-60678809D01*
G01X42522030Y-60651213D01*
G01X42521838Y-60643067D01*
G01X42521838Y-60643067D01*
G01X42526233Y-60594727D01*
G01X42526233Y-60594727D01*
G01X42478625Y-60587403D01*
G01X42478625Y-60587403D01*
G01X42427085Y-60620951D01*
G01X42422961Y-60641602D01*
G01X42422961Y-60641602D01*
G01X42424033Y-60712433D01*
G01X42424426Y-60717774D01*
G01X42424426Y-60717774D01*
G01X42398575Y-60770502D01*
G01X42373671Y-60833826D01*
G01X42354331Y-60888853D01*
G01X42345171Y-60916689D01*
G01X42344958Y-60917359D01*
G01X42344958Y-60917359D01*
G01X42322307Y-60992608D01*
G01X42303282Y-61061643D01*
G01X42288306Y-61120170D01*
G01X42277803Y-61163896D01*
G01X42272195Y-61188529D01*
G01X42271350Y-61192383D01*
G01X42271350Y-61192383D01*
G01X42239899Y-61138662D01*
G01X42210592Y-61075784D01*
G01X42185809Y-61014661D01*
G01X42167932Y-60966204D01*
G01X42159342Y-60941324D01*
G01X42158923Y-60940064D01*
G01X42158923Y-60940064D01*
G01X42134617Y-60856631D01*
G01X42118480Y-60783774D01*
G01X42108839Y-60723748D01*
G01X42104020Y-60678809D01*
G01X42102352Y-60651213D01*
G01X42102160Y-60643067D01*
G01X42102160Y-60643067D01*
G01X42106555Y-60594727D01*
G01X42106555Y-60594727D01*
G01X42058215Y-60587403D01*
G01X42058215Y-60587403D01*
G01X42007293Y-60621948D01*
G01X42002551Y-60645996D01*
G01X42002551Y-60645996D01*
G01X42008923Y-60706752D01*
G01X42021127Y-60767994D01*
G01X42028795Y-60800058D01*
G01X42028918Y-60800537D01*
G01X42028918Y-60800537D01*
G01X42049133Y-60872005D01*
G01X42069135Y-60934503D01*
G01X42084915Y-60980071D01*
G01X42092463Y-61000752D01*
G01X42092639Y-61001221D01*
G01X42092639Y-61001221D01*
G01X42130440Y-61088179D01*
G01X42164031Y-61155131D01*
G01X42191422Y-61203011D01*
G01X42210624Y-61232753D01*
G01X42219647Y-61245292D01*
G01X42220080Y-61245850D01*
G01X42220080Y-61245850D01*
G01X42263197Y-61290316D01*
G01X42265857Y-61292359D01*
G01X42265857Y-61292359D01*
G01X42311633Y-61304444D01*
G01X42311633Y-61304444D01*
G01X42348987Y-61300049D01*
G01X42348987Y-61300049D01*
G01X42364524Y-61227860D01*
G01X42382353Y-61155510D01*
G01X42401219Y-61085746D01*
G01X42419870Y-61021318D01*
G01X42437053Y-60964975D01*
G01X42451515Y-60919465D01*
G01X42462003Y-60887539D01*
G01X42467264Y-60871944D01*
G01X42467639Y-60870850D01*
G01X42467639Y-60870850D01*
G01X42492337Y-60944744D01*
G01X42509063Y-60990796D01*
G01X42513049Y-61001221D01*
G01X42513049Y-61001221D01*
G01X42550850Y-61088179D01*
G01X42584441Y-61155131D01*
G01X42611832Y-61203011D01*
G01X42631034Y-61232753D01*
G01X42640057Y-61245292D01*
G01X42640491Y-61245850D01*
G01X42640491Y-61245850D01*
G01X42683607Y-61290316D01*
G01X42686267Y-61292359D01*
G01X42686267Y-61292359D01*
G01X42732043Y-61304444D01*
G01X42732043Y-61304444D01*
G01X42769397Y-61300049D01*
G01X42769397Y-61300049D01*
G01X42783993Y-61230880D01*
G01X42801095Y-61160527D01*
G01X42819235Y-61092485D01*
G01X42836946Y-61030250D01*
G01X42852760Y-60977316D01*
G01X42865210Y-60937178D01*
G01X42872827Y-60913332D01*
G01X42874499Y-60908203D01*
G01X42874499Y-60908203D01*
G01X42909165Y-60810317D01*
G01X42939063Y-60737830D01*
G01X42963427Y-60687438D01*
G01X42981492Y-60655839D01*
G01X42992491Y-60639730D01*
G01X42995715Y-60635742D01*
G37*
G36*
G01X41508166Y-60308350D02*
G01X41508166Y-60308350D01*
G01X41432546Y-60298488D01*
G01X41365664Y-60293243D01*
G01X41316510Y-60291158D01*
G01X41294077Y-60290773D01*
G01X41293567Y-60290772D01*
G01X41284778Y-60290772D01*
G01X41284778Y-60290772D01*
G01X41185689Y-60298166D01*
G01X41104383Y-60318462D01*
G01X41039102Y-60348828D01*
G01X40988086Y-60386430D01*
G01X40949577Y-60428438D01*
G01X40921817Y-60472019D01*
G01X40903046Y-60514342D01*
G01X40891505Y-60552574D01*
G01X40885436Y-60583883D01*
G01X40883080Y-60605438D01*
G01X40882678Y-60614406D01*
G01X40882678Y-60614502D01*
G01X40882678Y-60614502D01*
G01X40892428Y-60699202D01*
G01X40915678Y-60765815D01*
G01X40943428Y-60813917D01*
G01X40966678Y-60843088D01*
G01X40976428Y-60852905D01*
G01X40976428Y-60852905D01*
G01X40976428Y-60852905D01*
G01X41038289Y-60894678D01*
G01X41099886Y-60919226D01*
G01X41152430Y-60931129D01*
G01X41187128Y-60934965D01*
G01X41196155Y-60935303D01*
G01X41196155Y-60935303D01*
G01X41274308Y-60926765D01*
G01X41333435Y-60908649D01*
G01X41368605Y-60892198D01*
G01X41376330Y-60887695D01*
G01X41376330Y-60995362D01*
G01X41376330Y-60995362D01*
G01X41374135Y-61089244D01*
G01X41368670Y-61164929D01*
G01X41361620Y-61222763D01*
G01X41354669Y-61263091D01*
G01X41349501Y-61286258D01*
G01X41347766Y-61292725D01*
G01X41347766Y-61292725D01*
G01X41408013Y-61304127D01*
G01X41418078Y-61304444D01*
G01X41418078Y-61304444D01*
G01X41474399Y-61287053D01*
G01X41476306Y-61285034D01*
G01X41476306Y-61285034D01*
G01X41491025Y-61227538D01*
G01X41491321Y-61218750D01*
G01X41491321Y-61218750D01*
G01X41490741Y-61161816D01*
G01X41489934Y-61105548D01*
G01X41489856Y-61100464D01*
G01X41489856Y-61100464D01*
G01X41488793Y-61017337D01*
G01X41488431Y-60967545D01*
G01X41488391Y-60953613D01*
G01X41488391Y-60653320D01*
G01X41488391Y-60653320D01*
G01X41489592Y-60564973D01*
G01X41492662Y-60487398D01*
G01X41496800Y-60421976D01*
G01X41501205Y-60370084D01*
G01X41505076Y-60333103D01*
G01X41507613Y-60312413D01*
G01X41508166Y-60308350D01*
G37*
%LPC*%
G36*
G01X41382190Y-60388184D02*
G01X41382190Y-60388184D01*
G01X41379681Y-60442341D01*
G01X41378015Y-60509017D01*
G01X41377020Y-60577869D01*
G01X41376522Y-60638557D01*
G01X41376350Y-60680738D01*
G01X41376330Y-60694336D01*
G01X41376330Y-60806397D01*
G01X41376330Y-60806397D01*
G01X41308774Y-60832516D01*
G01X41251364Y-60842282D01*
G01X41226209Y-60843750D01*
G01X41226184Y-60843750D01*
G01X41226184Y-60843750D01*
G01X41149039Y-60831751D01*
G01X41096105Y-60807255D01*
G01X41069419Y-60787520D01*
G01X41066516Y-60784790D01*
G01X41066516Y-60784790D01*
G01X41029364Y-60726362D01*
G01X41012941Y-60667636D01*
G01X41008782Y-60629566D01*
G01X41008655Y-60624756D01*
G01X41008655Y-60624756D01*
G01X41018725Y-60536968D01*
G01X41040881Y-60478089D01*
G01X41063037Y-60445027D01*
G01X41073108Y-60434693D01*
G01X41073108Y-60434693D01*
G01X41073108Y-60434693D01*
G01X41129042Y-60405313D01*
G01X41192529Y-60389688D01*
G01X41246316Y-60383474D01*
G01X41273151Y-60382328D01*
G01X41273791Y-60382324D01*
G01X41273791Y-60382324D01*
G01X41338493Y-60384991D01*
G01X41381460Y-60388123D01*
G01X41382190Y-60388184D01*
G37*
%LPD*%
G36*
G01X40783801Y-60955078D02*
G01X40783801Y-60955078D01*
G01X40776116Y-60871860D01*
G01X40756988Y-60803254D01*
G01X40732314Y-60749650D01*
G01X40707986Y-60711435D01*
G01X40689899Y-60689000D01*
G01X40683826Y-60682617D01*
G01X40683826Y-60682617D01*
G01X40621022Y-60636153D01*
G01X40558007Y-60607969D01*
G01X40502920Y-60593496D01*
G01X40463900Y-60588164D01*
G01X40449084Y-60587403D01*
G01X40449084Y-60587403D01*
G01X40449084Y-60587403D01*
G01X40370971Y-60598751D01*
G01X40314839Y-60622379D01*
G01X40284064Y-60642658D01*
G01X40279162Y-60646729D01*
G01X40279162Y-60646729D01*
G01X40234473Y-60706694D01*
G01X40217018Y-60759531D01*
G01X40213981Y-60785512D01*
G01X40213977Y-60785889D01*
G01X40213977Y-60785889D01*
G01X40224414Y-60856568D01*
G01X40234851Y-60883301D01*
G01X40234851Y-60883301D01*
G01X40234851Y-60883301D01*
G01X40276802Y-60934613D01*
G01X40289416Y-60944458D01*
G01X40289416Y-60944458D01*
G01X40349543Y-60969695D01*
G01X40386753Y-60978868D01*
G01X40386828Y-60978882D01*
G01X40386828Y-60978882D01*
G01X40458442Y-60989388D01*
G01X40505164Y-60993495D01*
G01X40512073Y-60993897D01*
G01X40512073Y-60993897D01*
G01X40576335Y-60995864D01*
G01X40638106Y-60996666D01*
G01X40672511Y-60996825D01*
G01X40673938Y-60996826D01*
G01X40673938Y-60996826D01*
G01X40656435Y-61076426D01*
G01X40631911Y-61132673D01*
G01X40612810Y-61163059D01*
G01X40609118Y-61167847D01*
G01X40609118Y-61167847D01*
G01X40551852Y-61210389D01*
G01X40495010Y-61227725D01*
G01X40462878Y-61231180D01*
G01X40461535Y-61231201D01*
G01X40461535Y-61231201D01*
G01X40382950Y-61217147D01*
G01X40332473Y-61187325D01*
G01X40306818Y-61160245D01*
G01X40301867Y-61152832D01*
G01X40301867Y-61152832D01*
G01X40247703Y-61197111D01*
G01X40242541Y-61215820D01*
G01X40242541Y-61215820D01*
G01X40274557Y-61266953D01*
G01X40310338Y-61287468D01*
G01X40310657Y-61287598D01*
G01X40310657Y-61287598D01*
G01X40379749Y-61306547D01*
G01X40437734Y-61313632D01*
G01X40462975Y-61314697D01*
G01X40463000Y-61314697D01*
G01X40463000Y-61314697D01*
G01X40541314Y-61305443D01*
G01X40605407Y-61283373D01*
G01X40653450Y-61257032D01*
G01X40683617Y-61234963D01*
G01X40694079Y-61225708D01*
G01X40694079Y-61225708D01*
G01X40694079Y-61225708D01*
G01X40734331Y-61170248D01*
G01X40760281Y-61106374D01*
G01X40775068Y-61043685D01*
G01X40781832Y-60991779D01*
G01X40783711Y-60960253D01*
G01X40783801Y-60955078D01*
G37*
%LPC*%
G36*
G01X40675403Y-60922119D02*
G01X40675403Y-60922119D01*
G01X40600301Y-60921453D01*
G01X40568184Y-60920670D01*
G01X40567737Y-60920654D01*
G01X40567737Y-60920654D01*
G01X40501586Y-60915151D01*
G01X40473254Y-60911499D01*
G01X40473254Y-60911499D01*
G01X40405130Y-60895754D01*
G01X40390491Y-60890259D01*
G01X40390491Y-60890259D01*
G01X40342123Y-60855001D01*
G01X40338855Y-60851441D01*
G01X40338855Y-60851441D01*
G01X40317586Y-60795050D01*
G01X40317248Y-60788819D01*
G01X40317248Y-60788819D01*
G01X40338801Y-60726339D01*
G01X40356799Y-60705322D01*
G01X40356799Y-60705322D01*
G01X40418329Y-60675109D01*
G01X40454667Y-60670168D01*
G01X40454944Y-60670166D01*
G01X40454944Y-60670166D01*
G01X40527895Y-60683455D01*
G01X40580557Y-60710033D01*
G01X40606878Y-60729967D01*
G01X40608752Y-60731690D01*
G01X40608752Y-60731690D01*
G01X40646049Y-60787399D01*
G01X40665973Y-60849976D01*
G01X40673949Y-60901016D01*
G01X40675403Y-60922119D01*
G01X40675403Y-60922119D01*
G37*
%LPD*%
G36*
G01X40146594Y-60656250D02*
G01X40146594Y-60656250D01*
G01X40124314Y-60612331D01*
G01X40124255Y-60612305D01*
G01X40124255Y-60612305D01*
G01X40063946Y-60603192D01*
G01X40047717Y-60602783D01*
G01X40005237Y-60602783D01*
G01X40005237Y-60602783D01*
G01X40008585Y-60522146D01*
G01X40012250Y-60464725D01*
G01X40014571Y-60436334D01*
G01X40014758Y-60434326D01*
G01X40014758Y-60434326D01*
G01X39964953Y-60429932D01*
G01X39964953Y-60429932D01*
G01X39964953Y-60429932D01*
G01X39902697Y-60457639D01*
G01X39893177Y-60486993D01*
G01X39893176Y-60487061D01*
G01X39893176Y-60487061D01*
G01X39895495Y-60542332D01*
G01X39898723Y-60599075D01*
G01X39899035Y-60604248D01*
G01X39899035Y-60604248D01*
G01X39799707Y-60603410D01*
G01X39728082Y-60601412D01*
G01X39680926Y-60599028D01*
G01X39655004Y-60597029D01*
G01X39647082Y-60596192D01*
G01X39647082Y-60596192D01*
G01X39647082Y-60596192D01*
G01X39641223Y-60631348D01*
G01X39641223Y-60631348D01*
G01X39656970Y-60671631D01*
G01X39656970Y-60671631D01*
G01X39707049Y-60683346D01*
G01X39707141Y-60683350D01*
G01X39707141Y-60683350D01*
G01X39761701Y-60684221D01*
G01X39828822Y-60684653D01*
G01X39883632Y-60684799D01*
G01X39901965Y-60684815D01*
G01X39901965Y-60684815D01*
G01X39903096Y-60758131D01*
G01X39903890Y-60829762D01*
G01X39904407Y-60895746D01*
G01X39904707Y-60952125D01*
G01X39904849Y-60994938D01*
G01X39904892Y-61020225D01*
G01X39904895Y-61025391D01*
G01X39904895Y-61025391D01*
G01X39898932Y-61116433D01*
G01X39886761Y-61169908D01*
G01X39876955Y-61192781D01*
G01X39875598Y-61194946D01*
G01X39875598Y-61194946D01*
G01X39820000Y-61229544D01*
G01X39779623Y-61235587D01*
G01X39778918Y-61235596D01*
G01X39778918Y-61235596D01*
G01X39711196Y-61218294D01*
G01X39674576Y-61193301D01*
G01X39671252Y-61190186D01*
G01X39671252Y-61190186D01*
G01X39644339Y-61241764D01*
G01X39644153Y-61244385D01*
G01X39644153Y-61244385D01*
G01X39676906Y-61291763D01*
G01X39682971Y-61295288D01*
G01X39682971Y-61295288D01*
G01X39746997Y-61312551D01*
G01X39777453Y-61314697D01*
G01X39777453Y-61314697D01*
G01X39860167Y-61302664D01*
G01X39915561Y-61276657D01*
G01X39945877Y-61251814D01*
G01X39953601Y-61242920D01*
G01X39953601Y-61242920D01*
G01X39981663Y-61184721D01*
G01X39997106Y-61119585D01*
G01X40003698Y-61063125D01*
G01X40005210Y-61030953D01*
G01X40005237Y-61028320D01*
G01X40005237Y-61028320D01*
G01X40004106Y-60919018D01*
G01X40003312Y-60833975D01*
G01X40002794Y-60770655D01*
G01X40002494Y-60726522D01*
G01X40002353Y-60699040D01*
G01X40002310Y-60685672D01*
G01X40002307Y-60683350D01*
G01X40002307Y-60683350D01*
G01X40045588Y-60686596D01*
G01X40116183Y-60692234D01*
G01X40142200Y-60694336D01*
G01X40142200Y-60694336D01*
G01X40146594Y-60656250D01*
G37*
G36*
G01X39529162Y-60602783D02*
G01X39529162Y-60602783D01*
G01X39477925Y-60598389D01*
G01X39477893Y-60598389D01*
G01X39477893Y-60598389D01*
G01X39420131Y-60629122D01*
G01X39413440Y-60654785D01*
G01X39413440Y-60654785D01*
G01X39414172Y-60675293D01*
G01X39414172Y-60675293D01*
G01X39414905Y-60707520D01*
G01X39414905Y-60707520D01*
G01X39369557Y-60654300D01*
G01X39336750Y-60625940D01*
G01X39334704Y-60624390D01*
G01X39334704Y-60624390D01*
G01X39269672Y-60592909D01*
G01X39235981Y-60587411D01*
G01X39235461Y-60587403D01*
G01X39235461Y-60587403D01*
G01X39182107Y-60602524D01*
G01X39181262Y-60603150D01*
G01X39181262Y-60603150D01*
G01X39161487Y-60645996D01*
G01X39161487Y-60645996D01*
G01X39183864Y-60702461D01*
G01X39191516Y-60713379D01*
G01X39191516Y-60713379D01*
G01X39250119Y-60686262D01*
G01X39264026Y-60684815D01*
G01X39264026Y-60684815D01*
G01X39326175Y-60703758D01*
G01X39347888Y-60717774D01*
G01X39347888Y-60717774D01*
G01X39395143Y-60768297D01*
G01X39417725Y-60803381D01*
G01X39418567Y-60804932D01*
G01X39418567Y-60804932D01*
G01X39419462Y-60861213D01*
G01X39419889Y-60929123D01*
G01X39420022Y-60981848D01*
G01X39420032Y-60995362D01*
G01X39420032Y-60995362D01*
G01X39417836Y-61089244D01*
G01X39412371Y-61164929D01*
G01X39405321Y-61222763D01*
G01X39398370Y-61263091D01*
G01X39393202Y-61286258D01*
G01X39391467Y-61292725D01*
G01X39391467Y-61292725D01*
G01X39446921Y-61304411D01*
G01X39448596Y-61304444D01*
G01X39448596Y-61304444D01*
G01X39504916Y-61287053D01*
G01X39506824Y-61285034D01*
G01X39506824Y-61285034D01*
G01X39521543Y-61227538D01*
G01X39521838Y-61218750D01*
G01X39521838Y-61218750D01*
G01X39521259Y-61161816D01*
G01X39520451Y-61105548D01*
G01X39520373Y-61100464D01*
G01X39520373Y-61100464D01*
G01X39519311Y-61017337D01*
G01X39518948Y-60967545D01*
G01X39518909Y-60953613D01*
G01X39518909Y-60953613D01*
G01X39519531Y-60862529D01*
G01X39521123Y-60783196D01*
G01X39523269Y-60716786D01*
G01X39525553Y-60664471D01*
G01X39527560Y-60627423D01*
G01X39528875Y-60606812D01*
G01X39529162Y-60602783D01*
G37*
G36*
G01X39079455Y-60952149D02*
G01X39079455Y-60952149D01*
G01X39071750Y-60869665D01*
G01X39052836Y-60801012D01*
G01X39029018Y-60747421D01*
G01X39006601Y-60710121D01*
G01X38991890Y-60690342D01*
G01X38989368Y-60687378D01*
G01X38989368Y-60687378D01*
G01X38930246Y-60638590D01*
G01X38867434Y-60608997D01*
G01X38810598Y-60593801D01*
G01X38769407Y-60588202D01*
G01X38753528Y-60587403D01*
G01X38753528Y-60587403D01*
G01X38753528Y-60587403D01*
G01X38676062Y-60596858D01*
G01X38612376Y-60619740D01*
G01X38563796Y-60647819D01*
G01X38531648Y-60672866D01*
G01X38517258Y-60686653D01*
G01X38516589Y-60687378D01*
G01X38516589Y-60687378D01*
G01X38476337Y-60746326D01*
G01X38450388Y-60809841D01*
G01X38435601Y-60869887D01*
G01X38428837Y-60918429D01*
G01X38426957Y-60947434D01*
G01X38426868Y-60952149D01*
G01X38426868Y-60952149D01*
G01X38434542Y-61034538D01*
G01X38453379Y-61102960D01*
G01X38477100Y-61156261D01*
G01X38499426Y-61193288D01*
G01X38514077Y-61212887D01*
G01X38516589Y-61215820D01*
G01X38516589Y-61215820D01*
G01X38572553Y-61262150D01*
G01X38632546Y-61291132D01*
G01X38688143Y-61306836D01*
G01X38730919Y-61313331D01*
G01X38752449Y-61314685D01*
G01X38753528Y-61314697D01*
G01X38753528Y-61314697D01*
G01X38834024Y-61304414D01*
G01X38899508Y-61279893D01*
G01X38948328Y-61250625D01*
G01X38978832Y-61226104D01*
G01X38989368Y-61215820D01*
G01X38989368Y-61215820D01*
G01X38989368Y-61215820D01*
G01X39029784Y-61157365D01*
G01X39055839Y-61094169D01*
G01X39070687Y-61034304D01*
G01X39077478Y-60985844D01*
G01X39079365Y-60956862D01*
G01X39079455Y-60952149D01*
G37*
%LPC*%
G36*
G01X38973987Y-60930908D02*
G01X38973987Y-60930908D01*
G01X38966163Y-61012479D01*
G01X38948359Y-61077233D01*
G01X38929077Y-61122068D01*
G01X38916817Y-61143884D01*
G01X38915759Y-61145508D01*
G01X38915759Y-61145508D01*
G01X38861532Y-61197865D01*
G01X38804970Y-61222860D01*
G01X38763764Y-61230614D01*
G01X38753528Y-61231201D01*
G01X38753528Y-61231201D01*
G01X38676675Y-61217751D01*
G01X38623168Y-61189747D01*
G01X38594647Y-61165713D01*
G01X38590198Y-61160889D01*
G01X38590198Y-61160889D01*
G01X38555347Y-61099422D01*
G01X38538084Y-61036245D01*
G01X38532228Y-60988658D01*
G01X38531604Y-60973389D01*
G01X38531604Y-60973389D01*
G01X38539674Y-60891720D01*
G01X38558037Y-60826742D01*
G01X38577926Y-60781664D01*
G01X38590571Y-60759694D01*
G01X38591662Y-60758057D01*
G01X38591662Y-60758057D01*
G01X38646615Y-60705252D01*
G01X38702874Y-60680043D01*
G01X38743487Y-60672224D01*
G01X38753528Y-60671631D01*
G01X38753528Y-60671631D01*
G01X38830240Y-60685222D01*
G01X38883455Y-60713517D01*
G01X38911727Y-60737802D01*
G01X38916125Y-60742676D01*
G01X38916125Y-60742676D01*
G01X38949576Y-60802059D01*
G01X38966754Y-60863434D01*
G01X38973083Y-60911488D01*
G01X38973987Y-60930908D01*
G01X38973987Y-60930908D01*
G37*
%LPD*%
G36*
G01X38352160Y-60653320D02*
G01X38352160Y-60653320D01*
G01X38313719Y-60609641D01*
G01X38296496Y-60605713D01*
G01X38296496Y-60605713D01*
G01X38235818Y-60602824D01*
G01X38230578Y-60602783D01*
G01X38230578Y-60602783D01*
G01X38228625Y-60527555D01*
G01X38225803Y-60485784D01*
G01X38225452Y-60481934D01*
G01X38225452Y-60481934D01*
G01X38213988Y-60413663D01*
G01X38205380Y-60379999D01*
G01X38205310Y-60379761D01*
G01X38205310Y-60379761D01*
G01X38176509Y-60316061D01*
G01X38163928Y-60298096D01*
G01X38163928Y-60298096D01*
G01X38111994Y-60257377D01*
G01X38091785Y-60247193D01*
G01X38091785Y-60247193D01*
G01X38026138Y-60230840D01*
G01X37985626Y-60227793D01*
G01X37984485Y-60227783D01*
G01X37984485Y-60227783D01*
G01X37914759Y-60236764D01*
G01X37891467Y-60244263D01*
G01X37891467Y-60244263D01*
G01X37852875Y-60285428D01*
G01X37852649Y-60287842D01*
G01X37852649Y-60287842D01*
G01X37874217Y-60345517D01*
G01X37882678Y-60358154D01*
G01X37882678Y-60358154D01*
G01X37943881Y-60323891D01*
G01X37996792Y-60312432D01*
G01X38013049Y-60311279D01*
G01X38013049Y-60311279D01*
G01X38080934Y-60332923D01*
G01X38106449Y-60361918D01*
G01X38107532Y-60364014D01*
G01X38107532Y-60364014D01*
G01X38123411Y-60423498D01*
G01X38130155Y-60487887D01*
G01X38131677Y-60528466D01*
G01X38131702Y-60531738D01*
G01X38131702Y-60602783D01*
G01X38131702Y-60602783D01*
G01X38038283Y-60601753D01*
G01X37974872Y-60599487D01*
G01X37938788Y-60597222D01*
G01X37927356Y-60596192D01*
G01X37927356Y-60596192D01*
G01X37927356Y-60596192D01*
G01X37921496Y-60631348D01*
G01X37921496Y-60631348D01*
G01X37937244Y-60671631D01*
G01X37937244Y-60671631D01*
G01X37987323Y-60683346D01*
G01X37987414Y-60683350D01*
G01X37987414Y-60683350D01*
G01X38049512Y-60684412D01*
G01X38109672Y-60684775D01*
G01X38131702Y-60684815D01*
G01X38131702Y-60996826D01*
G01X38131702Y-60996826D01*
G01X38129506Y-61089567D01*
G01X38124041Y-61164699D01*
G01X38116991Y-61222397D01*
G01X38110040Y-61262833D01*
G01X38104872Y-61286179D01*
G01X38103137Y-61292725D01*
G01X38103137Y-61292725D01*
G01X38158591Y-61304411D01*
G01X38160266Y-61304444D01*
G01X38160266Y-61304444D01*
G01X38216171Y-61288034D01*
G01X38217761Y-61286499D01*
G01X38217761Y-61286499D01*
G01X38233382Y-61231292D01*
G01X38233508Y-61226807D01*
G01X38233508Y-61226807D01*
G01X38233279Y-61187039D01*
G01X38232776Y-61117401D01*
G01X38232272Y-61051197D01*
G01X38232043Y-61021729D01*
G01X38232043Y-61021729D01*
G01X38232043Y-61021729D01*
G01X38231478Y-60940627D01*
G01X38231081Y-60866907D01*
G01X38230822Y-60802808D01*
G01X38230672Y-60750569D01*
G01X38230601Y-60712429D01*
G01X38230580Y-60690629D01*
G01X38230578Y-60686279D01*
G01X38230578Y-60686279D01*
G01X38297822Y-60689467D01*
G01X38344037Y-60693907D01*
G01X38347766Y-60694336D01*
G01X38347766Y-60694336D01*
G01X38352161Y-60653320D01*
G37*
G36*
G01X37898059Y-60653320D02*
G01X37898059Y-60653320D01*
G01X37859617Y-60609641D01*
G01X37842395Y-60605713D01*
G01X37842395Y-60605713D01*
G01X37781717Y-60602824D01*
G01X37776477Y-60602783D01*
G01X37776477Y-60602783D01*
G01X37774523Y-60527555D01*
G01X37771702Y-60485784D01*
G01X37771350Y-60481934D01*
G01X37771350Y-60481934D01*
G01X37759887Y-60413663D01*
G01X37751279Y-60379999D01*
G01X37751208Y-60379761D01*
G01X37751208Y-60379761D01*
G01X37722407Y-60316061D01*
G01X37709827Y-60298096D01*
G01X37709827Y-60298096D01*
G01X37657892Y-60257377D01*
G01X37637683Y-60247193D01*
G01X37637683Y-60247193D01*
G01X37572037Y-60230840D01*
G01X37531525Y-60227793D01*
G01X37530383Y-60227783D01*
G01X37530383Y-60227783D01*
G01X37460657Y-60236764D01*
G01X37437366Y-60244263D01*
G01X37437366Y-60244263D01*
G01X37398774Y-60285428D01*
G01X37398547Y-60287842D01*
G01X37398547Y-60287842D01*
G01X37420116Y-60345517D01*
G01X37428577Y-60358154D01*
G01X37428577Y-60358154D01*
G01X37489780Y-60323891D01*
G01X37542690Y-60312432D01*
G01X37558948Y-60311279D01*
G01X37558948Y-60311279D01*
G01X37626832Y-60332923D01*
G01X37652348Y-60361918D01*
G01X37653430Y-60364014D01*
G01X37653430Y-60364014D01*
G01X37669310Y-60423498D01*
G01X37676053Y-60487887D01*
G01X37677576Y-60528466D01*
G01X37677600Y-60531738D01*
G01X37677600Y-60602783D01*
G01X37677600Y-60602783D01*
G01X37584182Y-60601753D01*
G01X37520770Y-60599487D01*
G01X37484687Y-60597222D01*
G01X37473254Y-60596192D01*
G01X37473254Y-60596192D01*
G01X37473254Y-60596192D01*
G01X37467395Y-60631348D01*
G01X37467395Y-60631348D01*
G01X37483142Y-60671631D01*
G01X37483142Y-60671631D01*
G01X37533221Y-60683346D01*
G01X37533313Y-60683350D01*
G01X37533313Y-60683350D01*
G01X37595410Y-60684412D01*
G01X37655570Y-60684775D01*
G01X37677600Y-60684815D01*
G01X37677600Y-60996826D01*
G01X37677600Y-60996826D01*
G01X37675404Y-61089567D01*
G01X37669939Y-61164699D01*
G01X37662889Y-61222397D01*
G01X37655938Y-61262833D01*
G01X37650771Y-61286179D01*
G01X37649035Y-61292725D01*
G01X37649035Y-61292725D01*
G01X37704489Y-61304411D01*
G01X37706164Y-61304444D01*
G01X37706164Y-61304444D01*
G01X37762069Y-61288034D01*
G01X37763660Y-61286499D01*
G01X37763660Y-61286499D01*
G01X37779281Y-61231292D01*
G01X37779407Y-61226807D01*
G01X37779407Y-61226807D01*
G01X37779178Y-61187039D01*
G01X37778674Y-61117401D01*
G01X37778171Y-61051197D01*
G01X37777942Y-61021729D01*
G01X37777942Y-61021729D01*
G01X37777942Y-61021729D01*
G01X37777377Y-60940627D01*
G01X37776979Y-60866907D01*
G01X37776721Y-60802808D01*
G01X37776571Y-60750569D01*
G01X37776500Y-60712429D01*
G01X37776478Y-60690629D01*
G01X37776477Y-60686279D01*
G01X37776477Y-60686279D01*
G01X37843721Y-60689467D01*
G01X37889935Y-60693907D01*
G01X37893664Y-60694336D01*
G01X37893664Y-60694336D01*
G01X37898059Y-60653320D01*
G37*
G36*
G01X36971545Y-60900879D02*
G01X36971545Y-60900879D01*
G01X36968346Y-60826406D01*
G01X36960717Y-60756856D01*
G01X36951612Y-60698906D01*
G01X36943983Y-60659238D01*
G01X36940784Y-60644531D01*
G01X36940784Y-60644531D01*
G01X36940784Y-60644531D01*
G01X36919402Y-60563642D01*
G01X36898139Y-60497370D01*
G01X36880411Y-60449270D01*
G01X36869635Y-60422899D01*
G01X36867908Y-60418945D01*
G01X36867908Y-60418945D01*
G01X36831699Y-60346377D01*
G01X36801032Y-60294513D01*
G01X36782928Y-60267425D01*
G01X36780749Y-60264404D01*
G01X36780749Y-60264404D01*
G01X36725540Y-60210765D01*
G01X36705676Y-60203613D01*
G01X36705676Y-60203613D01*
G01X36658996Y-60234781D01*
G01X36656604Y-60238037D01*
G01X36656604Y-60238037D01*
G01X36698384Y-60293510D01*
G01X36734091Y-60354976D01*
G01X36763222Y-60415831D01*
G01X36785272Y-60469467D01*
G01X36799737Y-60509279D01*
G01X36806113Y-60528662D01*
G01X36806384Y-60529541D01*
G01X36806384Y-60529541D01*
G01X36827043Y-60607354D01*
G01X36841960Y-60681906D01*
G01X36852072Y-60750194D01*
G01X36858312Y-60809216D01*
G01X36861614Y-60855969D01*
G01X36862914Y-60887451D01*
G01X36863146Y-60900659D01*
G01X36863147Y-60900879D01*
G01X36863147Y-60900879D01*
G01X36860434Y-60978323D01*
G01X36853324Y-61051564D01*
G01X36843362Y-61118477D01*
G01X36832093Y-61176938D01*
G01X36821062Y-61224824D01*
G01X36811813Y-61260010D01*
G01X36805891Y-61280372D01*
G01X36804553Y-61284668D01*
G01X36804553Y-61284668D01*
G01X36774558Y-61365785D01*
G01X36742789Y-61434329D01*
G01X36712200Y-61489652D01*
G01X36685741Y-61531106D01*
G01X36666366Y-61558043D01*
G01X36657025Y-61569815D01*
G01X36656604Y-61570313D01*
G01X36656604Y-61570313D01*
G01X36703155Y-61604500D01*
G01X36705676Y-61604736D01*
G01X36705676Y-61604736D01*
G01X36754566Y-61573295D01*
G01X36778552Y-61545410D01*
G01X36778552Y-61545410D01*
G01X36815873Y-61488387D01*
G01X36846555Y-61432904D01*
G01X36864327Y-61397504D01*
G01X36866443Y-61393067D01*
G01X36866443Y-61393067D01*
G01X36892036Y-61330619D01*
G01X36913240Y-61266988D01*
G01X36929059Y-61211944D01*
G01X36938495Y-61175251D01*
G01X36940784Y-61165650D01*
G01X36940784Y-61165650D01*
G01X36955197Y-61090345D01*
G01X36964214Y-61021112D01*
G01X36969099Y-60963151D01*
G01X36971120Y-60921661D01*
G01X36971541Y-60901841D01*
G01X36971545Y-60900879D01*
G37*
G36*
G01X36502063Y-61245850D02*
G01X36502063Y-61245850D01*
G01X36500826Y-61196479D01*
G01X36498854Y-61129663D01*
G01X36498401Y-61114746D01*
G01X36498401Y-61114746D01*
G01X36496445Y-61046683D01*
G01X36494617Y-60976556D01*
G01X36493045Y-60912052D01*
G01X36491857Y-60860862D01*
G01X36491183Y-60830673D01*
G01X36491077Y-60825806D01*
G01X36491077Y-60825806D01*
G01X36489508Y-60742953D01*
G01X36488467Y-60669247D01*
G01X36487845Y-60607549D01*
G01X36487534Y-60560719D01*
G01X36487427Y-60531620D01*
G01X36487414Y-60522949D01*
G01X36487414Y-60522949D01*
G01X36488126Y-60425074D01*
G01X36489946Y-60345670D01*
G01X36492398Y-60283726D01*
G01X36495008Y-60238236D01*
G01X36497302Y-60208191D01*
G01X36498805Y-60192582D01*
G01X36499133Y-60189697D01*
G01X36499133Y-60189697D01*
G01X36445492Y-60185305D01*
G01X36444934Y-60185303D01*
G01X36444934Y-60185303D01*
G01X36385479Y-60214724D01*
G01X36377551Y-60242432D01*
G01X36377551Y-60242432D01*
G01X36377959Y-60274541D01*
G01X36379039Y-60327937D01*
G01X36380581Y-60395180D01*
G01X36382371Y-60468827D01*
G01X36384196Y-60541436D01*
G01X36385844Y-60605565D01*
G01X36387102Y-60653773D01*
G01X36387757Y-60678617D01*
G01X36387805Y-60680420D01*
G01X36387805Y-60680420D01*
G01X36321401Y-60635028D01*
G01X36256473Y-60607494D01*
G01X36200651Y-60593356D01*
G01X36161563Y-60588147D01*
G01X36146838Y-60587403D01*
G01X36146838Y-60587403D01*
G01X36146838Y-60587403D01*
G01X36068790Y-60601641D01*
G01X36013869Y-60638028D01*
G01X35978011Y-60687070D01*
G01X35957153Y-60739278D01*
G01X35947230Y-60785156D01*
G01X35944180Y-60815215D01*
G01X35943957Y-60821778D01*
G01X35943957Y-60821778D01*
G01X35945510Y-60874984D01*
G01X35946887Y-60919190D01*
G01X35946887Y-60919190D01*
G01X35948974Y-61000001D01*
G01X35949721Y-61050260D01*
G01X35949817Y-61066406D01*
G01X35949817Y-61066406D01*
G01X35946731Y-61149739D01*
G01X35939596Y-61216294D01*
G01X35931593Y-61263545D01*
G01X35925904Y-61288965D01*
G01X35924914Y-61292725D01*
G01X35924914Y-61292725D01*
G01X35981425Y-61304396D01*
G01X35983508Y-61304444D01*
G01X35983508Y-61304444D01*
G01X36038199Y-61288412D01*
G01X36039538Y-61287232D01*
G01X36039538Y-61287232D01*
G01X36056613Y-61232751D01*
G01X36056750Y-61228272D01*
G01X36056750Y-61228272D01*
G01X36056112Y-61174688D01*
G01X36054685Y-61106647D01*
G01X36053196Y-61046138D01*
G01X36052376Y-61015154D01*
G01X36052356Y-61014404D01*
G01X36052356Y-61014404D01*
G01X36049671Y-60911465D01*
G01X36048389Y-60853465D01*
G01X36047991Y-60828643D01*
G01X36047961Y-60824707D01*
G01X36047961Y-60824707D01*
G01X36063310Y-60754146D01*
G01X36085481Y-60717693D01*
G01X36088244Y-60714478D01*
G01X36088244Y-60714478D01*
G01X36147650Y-60677656D01*
G01X36181013Y-60671634D01*
G01X36181262Y-60671631D01*
G01X36181262Y-60671631D01*
G01X36245983Y-60683881D01*
G01X36286322Y-60698957D01*
G01X36287463Y-60699463D01*
G01X36287463Y-60699463D01*
G01X36350576Y-60737415D01*
G01X36384126Y-60766649D01*
G01X36387805Y-60770508D01*
G01X36387805Y-60770508D01*
G01X36390496Y-60871891D01*
G01X36392345Y-60947682D01*
G01X36393504Y-61000623D01*
G01X36394128Y-61033457D01*
G01X36394370Y-61048926D01*
G01X36394397Y-61051026D01*
G01X36394397Y-61051026D01*
G01X36393147Y-61129300D01*
G01X36390211Y-61199369D01*
G01X36386810Y-61254965D01*
G01X36384164Y-61289821D01*
G01X36383410Y-61298584D01*
G01X36383410Y-61298584D01*
G01X36434648Y-61302979D01*
G01X36434680Y-61302979D01*
G01X36434680Y-61302979D01*
G01X36494135Y-61273557D01*
G01X36502063Y-61245850D01*
G37*
G36*
G01X35834827Y-60656250D02*
G01X35834827Y-60656250D01*
G01X35812547Y-60612331D01*
G01X35812488Y-60612305D01*
G01X35812488Y-60612305D01*
G01X35752178Y-60603192D01*
G01X35735950Y-60602783D01*
G01X35693469Y-60602783D01*
G01X35693469Y-60602783D01*
G01X35696818Y-60522146D01*
G01X35700483Y-60464725D01*
G01X35702803Y-60436334D01*
G01X35702991Y-60434326D01*
G01X35702991Y-60434326D01*
G01X35653186Y-60429932D01*
G01X35653186Y-60429932D01*
G01X35653186Y-60429932D01*
G01X35590930Y-60457639D01*
G01X35581409Y-60486993D01*
G01X35581409Y-60487061D01*
G01X35581409Y-60487061D01*
G01X35583727Y-60542332D01*
G01X35586956Y-60599075D01*
G01X35587268Y-60604248D01*
G01X35587268Y-60604248D01*
G01X35487940Y-60603410D01*
G01X35416315Y-60601412D01*
G01X35369159Y-60599028D01*
G01X35343237Y-60597029D01*
G01X35335315Y-60596192D01*
G01X35335315Y-60596192D01*
G01X35335315Y-60596192D01*
G01X35329455Y-60631348D01*
G01X35329455Y-60631348D01*
G01X35345202Y-60671631D01*
G01X35345202Y-60671631D01*
G01X35395282Y-60683346D01*
G01X35395373Y-60683350D01*
G01X35395373Y-60683350D01*
G01X35449934Y-60684221D01*
G01X35517055Y-60684653D01*
G01X35571865Y-60684799D01*
G01X35590198Y-60684815D01*
G01X35590198Y-60684815D01*
G01X35591328Y-60758131D01*
G01X35592122Y-60829762D01*
G01X35592640Y-60895746D01*
G01X35592940Y-60952125D01*
G01X35593081Y-60994938D01*
G01X35593124Y-61020225D01*
G01X35593127Y-61025391D01*
G01X35593127Y-61025391D01*
G01X35587165Y-61116433D01*
G01X35574993Y-61169908D01*
G01X35565187Y-61192781D01*
G01X35563830Y-61194946D01*
G01X35563830Y-61194946D01*
G01X35508232Y-61229544D01*
G01X35467856Y-61235587D01*
G01X35467151Y-61235596D01*
G01X35467151Y-61235596D01*
G01X35399429Y-61218294D01*
G01X35362808Y-61193301D01*
G01X35359485Y-61190186D01*
G01X35359485Y-61190186D01*
G01X35332571Y-61241764D01*
G01X35332385Y-61244385D01*
G01X35332385Y-61244385D01*
G01X35365138Y-61291763D01*
G01X35371203Y-61295288D01*
G01X35371203Y-61295288D01*
G01X35435230Y-61312551D01*
G01X35465686Y-61314697D01*
G01X35465686Y-61314697D01*
G01X35548399Y-61302664D01*
G01X35603794Y-61276657D01*
G01X35634110Y-61251814D01*
G01X35641833Y-61242920D01*
G01X35641833Y-61242920D01*
G01X35669896Y-61184721D01*
G01X35685338Y-61119585D01*
G01X35691931Y-61063125D01*
G01X35693443Y-61030953D01*
G01X35693469Y-61028320D01*
G01X35693469Y-61028320D01*
G01X35692339Y-60919018D01*
G01X35691544Y-60833975D01*
G01X35691027Y-60770655D01*
G01X35690727Y-60726522D01*
G01X35690585Y-60699040D01*
G01X35690542Y-60685672D01*
G01X35690539Y-60683350D01*
G01X35690539Y-60683350D01*
G01X35733820Y-60686596D01*
G01X35804415Y-60692234D01*
G01X35830432Y-60694336D01*
G01X35830432Y-60694336D01*
G01X35834826Y-60656250D01*
G37*
G36*
G01X35307483Y-60656250D02*
G01X35307483Y-60656250D01*
G01X35285203Y-60612331D01*
G01X35285144Y-60612305D01*
G01X35285144Y-60612305D01*
G01X35224834Y-60603192D01*
G01X35208606Y-60602783D01*
G01X35166125Y-60602783D01*
G01X35166125Y-60602783D01*
G01X35169474Y-60522146D01*
G01X35173139Y-60464725D01*
G01X35175459Y-60436334D01*
G01X35175647Y-60434326D01*
G01X35175647Y-60434326D01*
G01X35125842Y-60429932D01*
G01X35125842Y-60429932D01*
G01X35125842Y-60429932D01*
G01X35063586Y-60457639D01*
G01X35054065Y-60486993D01*
G01X35054065Y-60487061D01*
G01X35054065Y-60487061D01*
G01X35056383Y-60542332D01*
G01X35059612Y-60599075D01*
G01X35059924Y-60604248D01*
G01X35059924Y-60604248D01*
G01X34960596Y-60603410D01*
G01X34888971Y-60601412D01*
G01X34841815Y-60599028D01*
G01X34815893Y-60597029D01*
G01X34807971Y-60596192D01*
G01X34807971Y-60596192D01*
G01X34807971Y-60596192D01*
G01X34802112Y-60631348D01*
G01X34802112Y-60631348D01*
G01X34817859Y-60671631D01*
G01X34817859Y-60671631D01*
G01X34867938Y-60683346D01*
G01X34868030Y-60683350D01*
G01X34868030Y-60683350D01*
G01X34922590Y-60684221D01*
G01X34989711Y-60684653D01*
G01X35044521Y-60684799D01*
G01X35062854Y-60684815D01*
G01X35062854Y-60684815D01*
G01X35063984Y-60758131D01*
G01X35064779Y-60829762D01*
G01X35065296Y-60895746D01*
G01X35065596Y-60952125D01*
G01X35065738Y-60994938D01*
G01X35065781Y-61020225D01*
G01X35065784Y-61025391D01*
G01X35065784Y-61025391D01*
G01X35059821Y-61116433D01*
G01X35047649Y-61169908D01*
G01X35037843Y-61192781D01*
G01X35036487Y-61194946D01*
G01X35036487Y-61194946D01*
G01X34980889Y-61229544D01*
G01X34940512Y-61235587D01*
G01X34939807Y-61235596D01*
G01X34939807Y-61235596D01*
G01X34872085Y-61218294D01*
G01X34835464Y-61193301D01*
G01X34832141Y-61190186D01*
G01X34832141Y-61190186D01*
G01X34805227Y-61241764D01*
G01X34805041Y-61244385D01*
G01X34805041Y-61244385D01*
G01X34837794Y-61291763D01*
G01X34843860Y-61295288D01*
G01X34843860Y-61295288D01*
G01X34907886Y-61312551D01*
G01X34938342Y-61314697D01*
G01X34938342Y-61314697D01*
G01X35021055Y-61302664D01*
G01X35076450Y-61276657D01*
G01X35106766Y-61251814D01*
G01X35114490Y-61242920D01*
G01X35114490Y-61242920D01*
G01X35142552Y-61184721D01*
G01X35157995Y-61119585D01*
G01X35164587Y-61063125D01*
G01X35166099Y-61030953D01*
G01X35166125Y-61028320D01*
G01X35166125Y-61028320D01*
G01X35164995Y-60919018D01*
G01X35164200Y-60833975D01*
G01X35163683Y-60770655D01*
G01X35163383Y-60726522D01*
G01X35163241Y-60699040D01*
G01X35163199Y-60685672D01*
G01X35163196Y-60683350D01*
G01X35163196Y-60683350D01*
G01X35206476Y-60686596D01*
G01X35277071Y-60692234D01*
G01X35303088Y-60694336D01*
G01X35303088Y-60694336D01*
G01X35307483Y-60656250D01*
G37*
G36*
G01X34690051Y-60610108D02*
G01X34690051Y-60610108D01*
G01X34633729Y-60598437D01*
G01X34631457Y-60598389D01*
G01X34631457Y-60598389D01*
G01X34577153Y-60631270D01*
G01X34567037Y-60671738D01*
G01X34567004Y-60673096D01*
G01X34567004Y-60673096D01*
G01X34498526Y-60631278D01*
G01X34434371Y-60605912D01*
G01X34380799Y-60592887D01*
G01X34344067Y-60588088D01*
G01X34330432Y-60587403D01*
G01X34330432Y-60587403D01*
G01X34330432Y-60587403D01*
G01X34253837Y-60599934D01*
G01X34195300Y-60627503D01*
G01X34157912Y-60655071D01*
G01X34144763Y-60667603D01*
G01X34144763Y-60667603D01*
G01X34144763Y-60667603D01*
G01X34109200Y-60723803D01*
G01X34087628Y-60788230D01*
G01X34076551Y-60848983D01*
G01X34072470Y-60894161D01*
G01X34071887Y-60911865D01*
G01X34071887Y-60911865D01*
G01X34071887Y-60911865D01*
G01X34077209Y-60988072D01*
G01X34088916Y-61050751D01*
G01X34100623Y-61093243D01*
G01X34105945Y-61108887D01*
G01X34105945Y-61108887D01*
G01X34105945Y-61108887D01*
G01X34140151Y-61173924D01*
G01X34178514Y-61222145D01*
G01X34207410Y-61250350D01*
G01X34214709Y-61256470D01*
G01X34214709Y-61256470D01*
G01X34276825Y-61291102D01*
G01X34337051Y-61308258D01*
G01X34381022Y-61314077D01*
G01X34394885Y-61314697D01*
G01X34394885Y-61314697D01*
G01X34467888Y-61304412D01*
G01X34525904Y-61283416D01*
G01X34558752Y-61266500D01*
G01X34562610Y-61264160D01*
G01X34562610Y-61264160D01*
G01X34562094Y-61321453D01*
G01X34561877Y-61342896D01*
G01X34561877Y-61342896D01*
G01X34560838Y-61419801D01*
G01X34560412Y-61439575D01*
G01X34560412Y-61439575D01*
G01X34557650Y-61501333D01*
G01X34556750Y-61518311D01*
G01X34556750Y-61518311D01*
G01X34550291Y-61588329D01*
G01X34547595Y-61606201D01*
G01X34547595Y-61606201D01*
G01X34533638Y-61664323D01*
G01X34532580Y-61667725D01*
G01X34532580Y-61667725D01*
G01X34589662Y-61679375D01*
G01X34592639Y-61679444D01*
G01X34592639Y-61679444D01*
G01X34648959Y-61662053D01*
G01X34650867Y-61660034D01*
G01X34650867Y-61660034D01*
G01X34665586Y-61602538D01*
G01X34665881Y-61593750D01*
G01X34665881Y-61593750D01*
G01X34665764Y-61528594D01*
G01X34665461Y-61459939D01*
G01X34665044Y-61392513D01*
G01X34664586Y-61331041D01*
G01X34664159Y-61280252D01*
G01X34663835Y-61244872D01*
G01X34663687Y-61229629D01*
G01X34663684Y-61229370D01*
G01X34663684Y-61229370D01*
G01X34662743Y-61129791D01*
G01X34662118Y-61051658D01*
G01X34661745Y-60993624D01*
G01X34661559Y-60954339D01*
G01X34661494Y-60932453D01*
G01X34661487Y-60926514D01*
G01X34661487Y-60926514D01*
G01X34663446Y-60824682D01*
G01X34668390Y-60745034D01*
G01X34674912Y-60685682D01*
G01X34681611Y-60644735D01*
G01X34687080Y-60620303D01*
G01X34689918Y-60610496D01*
G01X34690051Y-60610108D01*
G37*
%LPC*%
G36*
G01X34562610Y-60754395D02*
G01X34562610Y-60754395D01*
G01X34561677Y-60863425D01*
G01X34560966Y-60954080D01*
G01X34560448Y-61027667D01*
G01X34560092Y-61085492D01*
G01X34559868Y-61128861D01*
G01X34559744Y-61159081D01*
G01X34559692Y-61177456D01*
G01X34559680Y-61185294D01*
G01X34559680Y-61185791D01*
G01X34559680Y-61185791D01*
G01X34497650Y-61213220D01*
G01X34435204Y-61226530D01*
G01X34390506Y-61230826D01*
G01X34379504Y-61231201D01*
G01X34379504Y-61231201D01*
G01X34310047Y-61215088D01*
G01X34270332Y-61190186D01*
G01X34264880Y-61185425D01*
G01X34264880Y-61185425D01*
G01X34221808Y-61128028D01*
G01X34201138Y-61083027D01*
G01X34198230Y-61074463D01*
G01X34198230Y-61074463D01*
G01X34183909Y-61004074D01*
G01X34179247Y-60949700D01*
G01X34178821Y-60933838D01*
G01X34178821Y-60933838D01*
G01X34186889Y-60845970D01*
G01X34204639Y-60784058D01*
G01X34222388Y-60747414D01*
G01X34230456Y-60735352D01*
G01X34230456Y-60735352D01*
G01X34230456Y-60735352D01*
G01X34287279Y-60690796D01*
G01X34339558Y-60674136D01*
G01X34363367Y-60671631D01*
G01X34363391Y-60671631D01*
G01X34363391Y-60671631D01*
G01X34431808Y-60682752D01*
G01X34492041Y-60708058D01*
G01X34537297Y-60735465D01*
G01X34560787Y-60752890D01*
G01X34562610Y-60754395D01*
G37*
%LPD*%
G36*
G01X33945178Y-61195313D02*
G01X33945178Y-61195313D01*
G01X33910476Y-61146999D01*
G01X33877795Y-61132324D01*
G01X33877795Y-61132324D01*
G01X33837672Y-61185744D01*
G01X33806640Y-61205812D01*
G01X33806384Y-61205933D01*
G01X33806384Y-61205933D01*
G01X33739406Y-61226012D01*
G01X33693197Y-61231054D01*
G01X33687366Y-61231201D01*
G01X33687366Y-61231201D01*
G01X33615493Y-61218629D01*
G01X33583754Y-61203156D01*
G01X33582995Y-61202637D01*
G01X33582995Y-61202637D01*
G01X33548068Y-61147614D01*
G01X33543078Y-61114014D01*
G01X33543078Y-61114014D01*
G01X33543078Y-61114014D01*
G01X33569517Y-61055978D01*
G01X33582995Y-61045166D01*
G01X33582995Y-61045166D01*
G01X33645147Y-61017986D01*
G01X33679608Y-61008194D01*
G01X33679675Y-61008179D01*
G01X33679675Y-61008179D01*
G01X33748531Y-60990925D01*
G01X33790365Y-60979102D01*
G01X33793567Y-60978150D01*
G01X33793567Y-60978150D01*
G01X33855910Y-60945143D01*
G01X33888328Y-60915569D01*
G01X33890613Y-60912964D01*
G01X33890613Y-60912964D01*
G01X33920549Y-60852513D01*
G01X33929828Y-60799993D01*
G01X33930530Y-60785889D01*
G01X33930530Y-60785889D01*
G01X33913839Y-60716602D01*
G01X33880458Y-60668238D01*
G01X33855423Y-60644712D01*
G01X33853259Y-60643067D01*
G01X33853259Y-60643067D01*
G01X33788579Y-60609057D01*
G01X33728972Y-60592821D01*
G01X33688320Y-60587784D01*
G01X33678577Y-60587403D01*
G01X33678577Y-60587403D01*
G01X33606677Y-60596709D01*
G01X33555019Y-60612872D01*
G01X33540515Y-60618897D01*
G01X33540515Y-60618897D01*
G01X33484664Y-60667706D01*
G01X33472883Y-60703788D01*
G01X33472766Y-60706055D01*
G01X33472766Y-60706055D01*
G01X33507468Y-60755444D01*
G01X33540149Y-60769043D01*
G01X33540149Y-60769043D01*
G01X33581228Y-60716958D01*
G01X33607898Y-60698731D01*
G01X33607898Y-60698731D01*
G01X33675285Y-60675898D01*
G01X33713427Y-60671645D01*
G01X33714465Y-60671631D01*
G01X33714465Y-60671631D01*
G01X33781658Y-60687213D01*
G01X33803088Y-60699463D01*
G01X33803088Y-60699463D01*
G01X33837260Y-60754719D01*
G01X33840442Y-60777832D01*
G01X33840442Y-60777832D01*
G01X33814576Y-60836262D01*
G01X33800525Y-60848145D01*
G01X33800525Y-60848145D01*
G01X33739541Y-60876544D01*
G01X33704113Y-60887264D01*
G01X33703845Y-60887329D01*
G01X33703845Y-60887329D01*
G01X33634989Y-60905180D01*
G01X33593155Y-60917136D01*
G01X33589953Y-60918091D01*
G01X33589953Y-60918091D01*
G01X33527610Y-60949939D01*
G01X33495192Y-60977898D01*
G01X33492908Y-60980347D01*
G01X33492908Y-60980347D01*
G01X33461613Y-61041185D01*
G01X33453310Y-61089999D01*
G01X33452991Y-61097901D01*
G01X33452991Y-61097901D01*
G01X33467632Y-61175041D01*
G01X33498115Y-61227657D01*
G01X33524278Y-61255171D01*
G01X33529529Y-61259400D01*
G01X33529529Y-61259400D01*
G01X33592733Y-61292289D01*
G01X33653499Y-61308582D01*
G01X33697653Y-61314109D01*
G01X33711536Y-61314697D01*
G01X33711536Y-61314697D01*
G01X33787031Y-61307262D01*
G01X33843266Y-61292391D01*
G01X33872052Y-61281237D01*
G01X33874133Y-61280274D01*
G01X33874133Y-61280274D01*
G01X33932701Y-61231153D01*
G01X33945055Y-61197381D01*
G01X33945178Y-61195313D01*
G37*
G36*
G01X33317493Y-61220581D02*
G01X33317493Y-61220581D01*
G01X33297299Y-61160653D01*
G01X33290393Y-61152100D01*
G01X33290393Y-61152100D01*
G01X33234453Y-61125019D01*
G01X33225574Y-61124268D01*
G01X33225574Y-61124268D01*
G01X33168065Y-61146435D01*
G01X33161853Y-61152100D01*
G01X33161853Y-61152100D01*
G01X33136786Y-61209222D01*
G01X33135852Y-61220581D01*
G01X33135852Y-61220581D01*
G01X33155569Y-61280172D01*
G01X33161853Y-61287964D01*
G01X33161853Y-61287964D01*
G01X33217263Y-61314045D01*
G01X33225574Y-61314697D01*
G01X33225574Y-61314697D01*
G01X33283521Y-61293738D01*
G01X33290393Y-61287964D01*
G01X33290393Y-61287964D01*
G01X33316605Y-61231281D01*
G01X33317493Y-61220581D01*
G37*
G36*
G01X33317493Y-60678955D02*
G01X33317493Y-60678955D01*
G01X33297299Y-60619380D01*
G01X33290393Y-60610840D01*
G01X33290393Y-60610840D01*
G01X33234453Y-60583759D01*
G01X33225574Y-60583008D01*
G01X33225574Y-60583008D01*
G01X33168065Y-60605176D01*
G01X33161853Y-60610840D01*
G01X33161853Y-60610840D01*
G01X33136704Y-60668308D01*
G01X33135852Y-60678955D01*
G01X33135852Y-60678955D01*
G01X33155569Y-60738469D01*
G01X33161853Y-60746338D01*
G01X33161853Y-60746338D01*
G01X33217263Y-60772777D01*
G01X33225574Y-60773438D01*
G01X33225574Y-60773438D01*
G01X33283521Y-60752192D01*
G01X33290393Y-60746338D01*
G01X33290393Y-60746338D01*
G01X33316605Y-60689578D01*
G01X33317493Y-60678955D01*
G37*
G36*
G01X32982776Y-61441406D02*
G01X32982776Y-61441406D01*
G01X32981310Y-61430428D01*
G01X32977158Y-61402714D01*
G01X32970685Y-61360563D01*
G01X32962257Y-61306271D01*
G01X32952243Y-61242136D01*
G01X32941006Y-61170455D01*
G01X32928915Y-61093525D01*
G01X32916335Y-61013642D01*
G01X32903634Y-60933105D01*
G01X32891176Y-60854209D01*
G01X32879329Y-60779253D01*
G01X32868459Y-60710533D01*
G01X32858933Y-60650347D01*
G01X32851117Y-60600991D01*
G01X32845376Y-60564763D01*
G01X32842079Y-60543960D01*
G01X32841418Y-60539795D01*
G01X32841418Y-60539795D01*
G01X32827988Y-60447460D01*
G01X32817233Y-60368072D01*
G01X32808959Y-60302419D01*
G01X32802975Y-60251285D01*
G01X32799087Y-60215458D01*
G01X32797102Y-60195723D01*
G01X32796741Y-60191895D01*
G01X32796741Y-60191895D01*
G01X32765246Y-60186768D01*
G01X32765246Y-60186768D01*
G01X32713177Y-60216783D01*
G01X32711047Y-60227783D01*
G01X32852405Y-61130860D01*
G01X32852405Y-61130860D01*
G01X32865835Y-61223195D01*
G01X32876590Y-61302582D01*
G01X32884863Y-61368236D01*
G01X32890848Y-61419369D01*
G01X32894736Y-61455197D01*
G01X32896721Y-61474932D01*
G01X32897082Y-61478760D01*
G01X32897082Y-61478760D01*
G01X32932971Y-61483154D01*
G01X32932971Y-61483154D01*
G01X32981292Y-61450955D01*
G01X32982776Y-61441406D01*
G37*
G36*
G01X32596057Y-61441406D02*
G01X32596057Y-61441406D01*
G01X32594591Y-61430428D01*
G01X32590439Y-61402714D01*
G01X32583966Y-61360563D01*
G01X32575539Y-61306271D01*
G01X32565524Y-61242136D01*
G01X32554288Y-61170455D01*
G01X32542196Y-61093525D01*
G01X32529617Y-61013642D01*
G01X32516915Y-60933105D01*
G01X32504457Y-60854209D01*
G01X32492610Y-60779253D01*
G01X32481741Y-60710533D01*
G01X32472214Y-60650347D01*
G01X32464398Y-60600991D01*
G01X32458658Y-60564763D01*
G01X32455360Y-60543960D01*
G01X32454700Y-60539795D01*
G01X32454700Y-60539795D01*
G01X32441270Y-60447460D01*
G01X32430514Y-60368072D01*
G01X32422241Y-60302419D01*
G01X32416256Y-60251285D01*
G01X32412368Y-60215458D01*
G01X32410383Y-60195723D01*
G01X32410022Y-60191895D01*
G01X32410022Y-60191895D01*
G01X32378528Y-60186768D01*
G01X32378528Y-60186768D01*
G01X32326459Y-60216783D01*
G01X32324328Y-60227783D01*
G01X32465686Y-61130860D01*
G01X32465686Y-61130860D01*
G01X32479116Y-61223195D01*
G01X32489871Y-61302582D01*
G01X32498145Y-61368236D01*
G01X32504129Y-61419369D01*
G01X32508018Y-61455197D01*
G01X32510003Y-61474932D01*
G01X32510364Y-61478760D01*
G01X32510364Y-61478760D01*
G01X32546252Y-61483154D01*
G01X32546252Y-61483154D01*
G01X32594573Y-61450955D01*
G01X32596057Y-61441406D01*
G37*
G36*
G01X32182239Y-60610108D02*
G01X32182239Y-60610108D01*
G01X32128746Y-60598401D01*
G01X32128039Y-60598389D01*
G01X32128039Y-60598389D01*
G01X32071282Y-60629051D01*
G01X32059311Y-60670127D01*
G01X32059192Y-60673096D01*
G01X32059192Y-60673096D01*
G01X32000328Y-60635303D01*
G01X31955668Y-60614385D01*
G01X31948596Y-60611572D01*
G01X31948596Y-60611572D01*
G01X31876924Y-60592623D01*
G01X31830846Y-60587596D01*
G01X31824084Y-60587403D01*
G01X31824084Y-60587403D01*
G01X31745772Y-60602623D01*
G01X31694171Y-60636109D01*
G01X31665778Y-60669594D01*
G01X31657092Y-60684815D01*
G01X31657092Y-60684815D01*
G01X31657092Y-60684815D01*
G01X31602837Y-60644893D01*
G01X31555068Y-60620670D01*
G01X31543933Y-60615967D01*
G01X31543933Y-60615967D01*
G01X31471116Y-60594890D01*
G01X31420533Y-60588030D01*
G01X31406604Y-60587403D01*
G01X31406604Y-60587403D01*
G01X31333290Y-60601538D01*
G01X31287592Y-60626736D01*
G01X31274402Y-60637573D01*
G01X31274402Y-60637573D01*
G01X31241717Y-60692445D01*
G01X31227270Y-60752937D01*
G01X31223610Y-60793807D01*
G01X31223498Y-60799072D01*
G01X31223498Y-60799072D01*
G01X31224665Y-60849393D01*
G01X31226035Y-60906014D01*
G01X31226062Y-60907105D01*
G01X31226062Y-60907105D01*
G01X31227819Y-60992258D01*
G01X31228506Y-61045488D01*
G01X31228625Y-61066146D01*
G01X31228625Y-61066406D01*
G01X31228625Y-61066406D01*
G01X31225449Y-61149739D01*
G01X31218104Y-61216294D01*
G01X31209866Y-61263545D01*
G01X31204009Y-61288965D01*
G01X31202991Y-61292725D01*
G01X31202991Y-61292725D01*
G01X31259502Y-61304396D01*
G01X31261584Y-61304444D01*
G01X31261584Y-61304444D01*
G01X31316275Y-61288412D01*
G01X31317615Y-61287232D01*
G01X31317615Y-61287232D01*
G01X31334689Y-61232751D01*
G01X31334826Y-61228272D01*
G01X31334826Y-61228272D01*
G01X31334140Y-61173134D01*
G01X31332629Y-61104675D01*
G01X31331119Y-61046379D01*
G01X31330432Y-61021729D01*
G01X31330432Y-61021729D01*
G01X31330432Y-61021729D01*
G01X31327678Y-60920502D01*
G01X31326412Y-60864658D01*
G01X31326055Y-60842040D01*
G01X31326037Y-60839356D01*
G01X31326037Y-60839356D01*
G01X31337409Y-60760819D01*
G01X31356091Y-60719785D01*
G01X31361194Y-60712647D01*
G01X31361194Y-60712647D01*
G01X31419394Y-60677072D01*
G01X31453411Y-60671631D01*
G01X31453479Y-60671631D01*
G01X31453479Y-60671631D01*
G01X31519317Y-60683991D01*
G01X31579181Y-60711182D01*
G01X31622703Y-60738373D01*
G01X31639514Y-60750733D01*
G01X31639514Y-60750733D01*
G01X31639514Y-60750733D01*
G01X31638259Y-60845612D01*
G01X31637427Y-60922062D01*
G01X31636929Y-60980450D01*
G01X31636680Y-61021143D01*
G01X31636594Y-61044507D01*
G01X31636584Y-61051026D01*
G01X31636584Y-61051026D01*
G01X31635501Y-61136499D01*
G01X31632956Y-61207130D01*
G01X31630009Y-61259703D01*
G01X31627716Y-61291002D01*
G01X31627063Y-61298584D01*
G01X31627063Y-61298584D01*
G01X31678300Y-61302979D01*
G01X31678332Y-61302979D01*
G01X31678332Y-61302979D01*
G01X31737788Y-61273557D01*
G01X31745715Y-61245850D01*
G01X31745715Y-61245850D01*
G01X31743687Y-61189648D01*
G01X31743518Y-61185425D01*
G01X31743518Y-61185425D01*
G01X31741559Y-61121207D01*
G01X31740282Y-61060998D01*
G01X31739856Y-61036377D01*
G01X31739856Y-61036377D01*
G01X31738985Y-60962991D01*
G01X31738553Y-60898000D01*
G01X31738407Y-60853067D01*
G01X31738391Y-60839356D01*
G01X31738391Y-60839356D01*
G01X31753391Y-60754326D01*
G01X31788624Y-60704356D01*
G01X31829438Y-60680127D01*
G01X31861182Y-60672318D01*
G01X31870227Y-60671631D01*
G01X31870227Y-60671631D01*
G01X31935218Y-60684563D01*
G01X31994647Y-60713013D01*
G01X32038009Y-60741463D01*
G01X32054797Y-60754395D01*
G01X32054797Y-60754395D01*
G01X32054797Y-60754395D01*
G01X32053543Y-60848993D01*
G01X32052710Y-60924742D01*
G01X32052212Y-60982226D01*
G01X32051964Y-61022028D01*
G01X32051877Y-61044730D01*
G01X32051868Y-61051026D01*
G01X32051868Y-61051026D01*
G01X32050868Y-61136499D01*
G01X32048519Y-61207130D01*
G01X32045798Y-61259703D01*
G01X32043681Y-61291002D01*
G01X32043078Y-61298584D01*
G01X32043078Y-61298584D01*
G01X32093608Y-61302979D01*
G01X32093616Y-61302979D01*
G01X32093616Y-61302979D01*
G01X32153071Y-61273557D01*
G01X32160998Y-61245850D01*
G01X32160998Y-61245850D01*
G01X32159387Y-61194977D01*
G01X32157403Y-61137520D01*
G01X32157336Y-61135620D01*
G01X32157336Y-61135620D01*
G01X32155219Y-61059145D01*
G01X32154132Y-60992661D01*
G01X32153731Y-60945746D01*
G01X32153674Y-60927979D01*
G01X32153674Y-60927979D01*
G01X32153674Y-60927979D01*
G01X32155634Y-60822821D01*
G01X32160577Y-60741919D01*
G01X32167100Y-60682751D01*
G01X32173798Y-60642799D01*
G01X32179268Y-60619541D01*
G01X32182105Y-60610459D01*
G01X32182239Y-60610108D01*
G37*
G36*
G01X31022815Y-60610108D02*
G01X31022815Y-60610108D01*
G01X30966493Y-60598437D01*
G01X30964221Y-60598389D01*
G01X30964221Y-60598389D01*
G01X30909917Y-60631269D01*
G01X30899801Y-60671738D01*
G01X30899768Y-60673096D01*
G01X30899768Y-60673096D01*
G01X30831289Y-60631278D01*
G01X30767135Y-60605912D01*
G01X30713563Y-60592887D01*
G01X30676830Y-60588088D01*
G01X30663196Y-60587403D01*
G01X30663196Y-60587403D01*
G01X30663196Y-60587403D01*
G01X30586600Y-60599934D01*
G01X30528064Y-60627503D01*
G01X30490676Y-60655071D01*
G01X30477527Y-60667603D01*
G01X30477527Y-60667603D01*
G01X30477527Y-60667603D01*
G01X30441963Y-60723803D01*
G01X30420392Y-60788230D01*
G01X30409315Y-60848983D01*
G01X30405234Y-60894161D01*
G01X30404651Y-60911865D01*
G01X30404651Y-60911865D01*
G01X30404651Y-60911865D01*
G01X30409972Y-60988072D01*
G01X30421680Y-61050751D01*
G01X30433387Y-61093243D01*
G01X30438708Y-61108887D01*
G01X30438708Y-61108887D01*
G01X30438708Y-61108887D01*
G01X30472914Y-61173924D01*
G01X30511277Y-61222145D01*
G01X30540173Y-61250350D01*
G01X30547473Y-61256470D01*
G01X30547473Y-61256470D01*
G01X30609589Y-61291102D01*
G01X30669815Y-61308258D01*
G01X30713785Y-61314077D01*
G01X30727649Y-61314697D01*
G01X30727649Y-61314697D01*
G01X30800652Y-61304412D01*
G01X30858668Y-61283416D01*
G01X30891516Y-61266500D01*
G01X30895373Y-61264160D01*
G01X30895373Y-61264160D01*
G01X30894857Y-61321453D01*
G01X30894641Y-61342896D01*
G01X30894641Y-61342896D01*
G01X30893601Y-61419801D01*
G01X30893176Y-61439575D01*
G01X30893176Y-61439575D01*
G01X30890414Y-61501333D01*
G01X30889514Y-61518311D01*
G01X30889514Y-61518311D01*
G01X30883055Y-61588329D01*
G01X30880359Y-61606201D01*
G01X30880359Y-61606201D01*
G01X30866402Y-61664323D01*
G01X30865344Y-61667725D01*
G01X30865344Y-61667725D01*
G01X30922425Y-61679375D01*
G01X30925403Y-61679444D01*
G01X30925403Y-61679444D01*
G01X30981723Y-61662053D01*
G01X30983630Y-61660034D01*
G01X30983630Y-61660034D01*
G01X30998349Y-61602538D01*
G01X30998645Y-61593750D01*
G01X30998645Y-61593750D01*
G01X30998528Y-61528594D01*
G01X30998225Y-61459939D01*
G01X30997808Y-61392513D01*
G01X30997349Y-61331041D01*
G01X30996922Y-61280252D01*
G01X30996598Y-61244872D01*
G01X30996450Y-61229629D01*
G01X30996448Y-61229370D01*
G01X30996448Y-61229370D01*
G01X30995507Y-61129791D01*
G01X30994882Y-61051658D01*
G01X30994509Y-60993624D01*
G01X30994322Y-60954339D01*
G01X30994258Y-60932453D01*
G01X30994250Y-60926514D01*
G01X30994250Y-60926514D01*
G01X30996210Y-60824682D01*
G01X31001153Y-60745034D01*
G01X31007676Y-60685682D01*
G01X31014374Y-60644735D01*
G01X31019844Y-60620303D01*
G01X31022681Y-60610496D01*
G01X31022815Y-60610108D01*
G37*
%LPC*%
G36*
G01X30895373Y-60754395D02*
G01X30895373Y-60754395D01*
G01X30894440Y-60863424D01*
G01X30893730Y-60954080D01*
G01X30893212Y-61027667D01*
G01X30892856Y-61085492D01*
G01X30892631Y-61128861D01*
G01X30892508Y-61159081D01*
G01X30892456Y-61177456D01*
G01X30892444Y-61185294D01*
G01X30892444Y-61185791D01*
G01X30892444Y-61185791D01*
G01X30830414Y-61213220D01*
G01X30767968Y-61226530D01*
G01X30723270Y-61230826D01*
G01X30712268Y-61231201D01*
G01X30712268Y-61231201D01*
G01X30642811Y-61215088D01*
G01X30603096Y-61190186D01*
G01X30597644Y-61185425D01*
G01X30597644Y-61185425D01*
G01X30554572Y-61128028D01*
G01X30533901Y-61083027D01*
G01X30530993Y-61074463D01*
G01X30530993Y-61074463D01*
G01X30516672Y-61004074D01*
G01X30512010Y-60949700D01*
G01X30511584Y-60933838D01*
G01X30511584Y-60933838D01*
G01X30519652Y-60845970D01*
G01X30537402Y-60784058D01*
G01X30555152Y-60747414D01*
G01X30563220Y-60735352D01*
G01X30563220Y-60735352D01*
G01X30563220Y-60735352D01*
G01X30620043Y-60690796D01*
G01X30672321Y-60674135D01*
G01X30696130Y-60671631D01*
G01X30696155Y-60671631D01*
G01X30696155Y-60671631D01*
G01X30764572Y-60682752D01*
G01X30824804Y-60708058D01*
G01X30870061Y-60735465D01*
G01X30893551Y-60752890D01*
G01X30895373Y-60754395D01*
G37*
%LPD*%
G36*
G01X30270618Y-60955078D02*
G01X30270618Y-60955078D01*
G01X30262932Y-60871860D01*
G01X30243805Y-60803254D01*
G01X30219130Y-60749650D01*
G01X30194802Y-60711435D01*
G01X30176715Y-60689000D01*
G01X30170642Y-60682617D01*
G01X30170642Y-60682617D01*
G01X30107838Y-60636152D01*
G01X30044824Y-60607969D01*
G01X29989737Y-60593496D01*
G01X29950716Y-60588164D01*
G01X29935901Y-60587403D01*
G01X29935901Y-60587403D01*
G01X29935901Y-60587403D01*
G01X29857787Y-60598751D01*
G01X29801655Y-60622379D01*
G01X29770880Y-60642658D01*
G01X29765979Y-60646729D01*
G01X29765979Y-60646729D01*
G01X29721290Y-60706694D01*
G01X29703835Y-60759531D01*
G01X29700797Y-60785512D01*
G01X29700793Y-60785889D01*
G01X29700793Y-60785889D01*
G01X29711230Y-60856568D01*
G01X29721667Y-60883301D01*
G01X29721667Y-60883301D01*
G01X29721667Y-60883301D01*
G01X29763618Y-60934613D01*
G01X29776233Y-60944458D01*
G01X29776233Y-60944458D01*
G01X29836360Y-60969695D01*
G01X29873569Y-60978868D01*
G01X29873645Y-60978882D01*
G01X29873645Y-60978882D01*
G01X29945258Y-60989388D01*
G01X29991981Y-60993495D01*
G01X29998889Y-60993897D01*
G01X29998889Y-60993897D01*
G01X30063151Y-60995864D01*
G01X30124922Y-60996666D01*
G01X30159327Y-60996825D01*
G01X30160754Y-60996826D01*
G01X30160754Y-60996826D01*
G01X30143252Y-61076426D01*
G01X30118727Y-61132673D01*
G01X30099626Y-61163059D01*
G01X30095935Y-61167847D01*
G01X30095935Y-61167847D01*
G01X30038668Y-61210389D01*
G01X29981827Y-61227725D01*
G01X29949694Y-61231180D01*
G01X29948352Y-61231201D01*
G01X29948352Y-61231201D01*
G01X29869766Y-61217147D01*
G01X29819289Y-61187325D01*
G01X29793634Y-61160245D01*
G01X29788684Y-61152832D01*
G01X29788684Y-61152832D01*
G01X29734519Y-61197110D01*
G01X29729358Y-61215820D01*
G01X29729358Y-61215820D01*
G01X29761373Y-61266953D01*
G01X29797155Y-61287468D01*
G01X29797473Y-61287598D01*
G01X29797473Y-61287598D01*
G01X29866565Y-61306547D01*
G01X29924550Y-61313632D01*
G01X29949792Y-61314697D01*
G01X29949817Y-61314697D01*
G01X29949817Y-61314697D01*
G01X30028130Y-61305443D01*
G01X30092223Y-61283373D01*
G01X30140267Y-61257032D01*
G01X30170434Y-61234963D01*
G01X30180896Y-61225708D01*
G01X30180896Y-61225708D01*
G01X30180896Y-61225708D01*
G01X30221148Y-61170248D01*
G01X30247097Y-61106374D01*
G01X30261884Y-61043685D01*
G01X30268648Y-60991779D01*
G01X30270528Y-60960253D01*
G01X30270617Y-60955078D01*
G37*
%LPC*%
G36*
G01X30162219Y-60922119D02*
G01X30162219Y-60922119D01*
G01X30087117Y-60921453D01*
G01X30055000Y-60920670D01*
G01X30054553Y-60920654D01*
G01X30054553Y-60920654D01*
G01X29988402Y-60915151D01*
G01X29960071Y-60911499D01*
G01X29960071Y-60911499D01*
G01X29891946Y-60895754D01*
G01X29877307Y-60890259D01*
G01X29877307Y-60890259D01*
G01X29828940Y-60855001D01*
G01X29825671Y-60851441D01*
G01X29825671Y-60851441D01*
G01X29804402Y-60795050D01*
G01X29804065Y-60788819D01*
G01X29804065Y-60788819D01*
G01X29825618Y-60726339D01*
G01X29843616Y-60705322D01*
G01X29843616Y-60705322D01*
G01X29905145Y-60675109D01*
G01X29941484Y-60670168D01*
G01X29941760Y-60670166D01*
G01X29941760Y-60670166D01*
G01X30014711Y-60683455D01*
G01X30067373Y-60710033D01*
G01X30093694Y-60729967D01*
G01X30095569Y-60731690D01*
G01X30095569Y-60731690D01*
G01X30132865Y-60787399D01*
G01X30152789Y-60849976D01*
G01X30160766Y-60901016D01*
G01X30162219Y-60922119D01*
G01X30162219Y-60922119D01*
G37*
%LPD*%
G36*
G01X29633410Y-60656250D02*
G01X29633410Y-60656250D01*
G01X29611131Y-60612331D01*
G01X29611072Y-60612305D01*
G01X29611072Y-60612305D01*
G01X29550762Y-60603192D01*
G01X29534534Y-60602783D01*
G01X29492053Y-60602783D01*
G01X29492053Y-60602783D01*
G01X29495402Y-60522146D01*
G01X29499067Y-60464725D01*
G01X29501387Y-60436334D01*
G01X29501575Y-60434326D01*
G01X29501575Y-60434326D01*
G01X29451770Y-60429932D01*
G01X29451770Y-60429932D01*
G01X29451770Y-60429932D01*
G01X29389514Y-60457639D01*
G01X29379993Y-60486993D01*
G01X29379993Y-60487061D01*
G01X29379993Y-60487061D01*
G01X29382311Y-60542332D01*
G01X29385540Y-60599075D01*
G01X29385852Y-60604248D01*
G01X29385852Y-60604248D01*
G01X29286524Y-60603410D01*
G01X29214899Y-60601412D01*
G01X29167742Y-60599028D01*
G01X29141821Y-60597029D01*
G01X29133899Y-60596192D01*
G01X29133899Y-60596192D01*
G01X29133899Y-60596192D01*
G01X29128039Y-60631348D01*
G01X29128039Y-60631348D01*
G01X29143786Y-60671631D01*
G01X29143786Y-60671631D01*
G01X29193866Y-60683346D01*
G01X29193957Y-60683350D01*
G01X29193957Y-60683350D01*
G01X29248518Y-60684221D01*
G01X29315639Y-60684653D01*
G01X29370449Y-60684799D01*
G01X29388782Y-60684815D01*
G01X29388782Y-60684815D01*
G01X29389912Y-60758131D01*
G01X29390706Y-60829762D01*
G01X29391224Y-60895746D01*
G01X29391524Y-60952125D01*
G01X29391665Y-60994938D01*
G01X29391708Y-61020225D01*
G01X29391711Y-61025391D01*
G01X29391711Y-61025391D01*
G01X29385749Y-61116433D01*
G01X29373577Y-61169908D01*
G01X29363771Y-61192781D01*
G01X29362414Y-61194946D01*
G01X29362414Y-61194946D01*
G01X29306816Y-61229544D01*
G01X29266440Y-61235587D01*
G01X29265735Y-61235596D01*
G01X29265735Y-61235596D01*
G01X29198013Y-61218294D01*
G01X29161392Y-61193301D01*
G01X29158069Y-61190186D01*
G01X29158069Y-61190186D01*
G01X29131155Y-61241764D01*
G01X29130969Y-61244385D01*
G01X29130969Y-61244385D01*
G01X29163722Y-61291763D01*
G01X29169787Y-61295288D01*
G01X29169787Y-61295288D01*
G01X29233814Y-61312551D01*
G01X29264270Y-61314697D01*
G01X29264270Y-61314697D01*
G01X29346983Y-61302664D01*
G01X29402378Y-61276657D01*
G01X29432694Y-61251814D01*
G01X29440417Y-61242920D01*
G01X29440417Y-61242920D01*
G01X29468480Y-61184721D01*
G01X29483922Y-61119585D01*
G01X29490515Y-61063125D01*
G01X29492027Y-61030953D01*
G01X29492053Y-61028320D01*
G01X29492053Y-61028320D01*
G01X29490923Y-60919018D01*
G01X29490128Y-60833975D01*
G01X29489611Y-60770655D01*
G01X29489311Y-60726522D01*
G01X29489169Y-60699040D01*
G01X29489126Y-60685672D01*
G01X29489123Y-60683350D01*
G01X29489123Y-60683350D01*
G01X29532404Y-60686596D01*
G01X29602999Y-60692234D01*
G01X29629016Y-60694336D01*
G01X29629016Y-60694336D01*
G01X29633410Y-60656250D01*
G37*
G36*
G01X29015979Y-60602783D02*
G01X29015979Y-60602783D01*
G01X28964742Y-60598389D01*
G01X28964709Y-60598389D01*
G01X28964709Y-60598389D01*
G01X28906948Y-60629122D01*
G01X28900256Y-60654785D01*
G01X28900256Y-60654785D01*
G01X28900989Y-60675293D01*
G01X28900989Y-60675293D01*
G01X28901721Y-60707520D01*
G01X28901721Y-60707520D01*
G01X28856374Y-60654300D01*
G01X28823567Y-60625940D01*
G01X28821521Y-60624390D01*
G01X28821521Y-60624390D01*
G01X28756489Y-60592909D01*
G01X28722797Y-60587410D01*
G01X28722278Y-60587403D01*
G01X28722278Y-60587403D01*
G01X28668924Y-60602524D01*
G01X28668078Y-60603150D01*
G01X28668078Y-60603150D01*
G01X28648303Y-60645996D01*
G01X28648303Y-60645996D01*
G01X28670680Y-60702461D01*
G01X28678332Y-60713379D01*
G01X28678332Y-60713379D01*
G01X28736936Y-60686261D01*
G01X28750842Y-60684815D01*
G01X28750842Y-60684815D01*
G01X28812991Y-60703758D01*
G01X28834704Y-60717774D01*
G01X28834704Y-60717774D01*
G01X28881959Y-60768297D01*
G01X28904541Y-60803381D01*
G01X28905383Y-60804932D01*
G01X28905383Y-60804932D01*
G01X28906278Y-60861213D01*
G01X28906705Y-60929123D01*
G01X28906838Y-60981848D01*
G01X28906848Y-60995361D01*
G01X28906848Y-60995361D01*
G01X28904652Y-61089244D01*
G01X28899187Y-61164929D01*
G01X28892137Y-61222763D01*
G01X28885187Y-61263091D01*
G01X28880019Y-61286258D01*
G01X28878284Y-61292725D01*
G01X28878284Y-61292725D01*
G01X28933737Y-61304411D01*
G01X28935412Y-61304444D01*
G01X28935412Y-61304444D01*
G01X28991733Y-61287053D01*
G01X28993640Y-61285034D01*
G01X28993640Y-61285034D01*
G01X29008359Y-61227538D01*
G01X29008655Y-61218750D01*
G01X29008655Y-61218750D01*
G01X29008075Y-61161816D01*
G01X29007268Y-61105548D01*
G01X29007190Y-61100464D01*
G01X29007190Y-61100464D01*
G01X29006127Y-61017337D01*
G01X29005764Y-60967545D01*
G01X29005725Y-60953613D01*
G01X29005725Y-60953613D01*
G01X29006348Y-60862529D01*
G01X29007940Y-60783196D01*
G01X29010085Y-60716786D01*
G01X29012369Y-60664471D01*
G01X29014377Y-60627422D01*
G01X29015692Y-60606812D01*
G01X29015979Y-60602783D01*
G37*
G36*
G01X28566272Y-60952149D02*
G01X28566272Y-60952149D01*
G01X28558566Y-60869665D01*
G01X28539652Y-60801012D01*
G01X28515834Y-60747421D01*
G01X28493417Y-60710121D01*
G01X28478706Y-60690342D01*
G01X28476184Y-60687378D01*
G01X28476184Y-60687378D01*
G01X28417063Y-60638590D01*
G01X28354250Y-60608997D01*
G01X28297414Y-60593801D01*
G01X28256223Y-60588202D01*
G01X28240344Y-60587402D01*
G01X28240344Y-60587402D01*
G01X28240344Y-60587402D01*
G01X28162878Y-60596858D01*
G01X28099192Y-60619740D01*
G01X28050612Y-60647819D01*
G01X28018464Y-60672866D01*
G01X28004074Y-60686653D01*
G01X28003406Y-60687378D01*
G01X28003406Y-60687378D01*
G01X27963154Y-60746326D01*
G01X27937204Y-60809841D01*
G01X27922417Y-60869887D01*
G01X27915653Y-60918429D01*
G01X27913774Y-60947434D01*
G01X27913684Y-60952149D01*
G01X27913684Y-60952149D01*
G01X27921358Y-61034538D01*
G01X27940196Y-61102960D01*
G01X27963917Y-61156261D01*
G01X27986242Y-61193288D01*
G01X28000893Y-61212887D01*
G01X28003406Y-61215820D01*
G01X28003406Y-61215820D01*
G01X28059370Y-61262150D01*
G01X28119362Y-61291132D01*
G01X28174959Y-61306836D01*
G01X28217735Y-61313331D01*
G01X28239266Y-61314685D01*
G01X28240344Y-61314697D01*
G01X28240344Y-61314697D01*
G01X28320840Y-61304414D01*
G01X28386325Y-61279893D01*
G01X28435145Y-61250625D01*
G01X28465649Y-61226104D01*
G01X28476184Y-61215820D01*
G01X28476184Y-61215820D01*
G01X28476184Y-61215820D01*
G01X28516600Y-61157365D01*
G01X28542656Y-61094169D01*
G01X28557503Y-61034304D01*
G01X28564294Y-60985844D01*
G01X28566182Y-60956862D01*
G01X28566272Y-60952149D01*
G37*
%LPC*%
G36*
G01X28460803Y-60930908D02*
G01X28460803Y-60930908D01*
G01X28452979Y-61012479D01*
G01X28435175Y-61077233D01*
G01X28415893Y-61122068D01*
G01X28403634Y-61143884D01*
G01X28402576Y-61145508D01*
G01X28402576Y-61145508D01*
G01X28348348Y-61197865D01*
G01X28291787Y-61222860D01*
G01X28250580Y-61230614D01*
G01X28240344Y-61231201D01*
G01X28240344Y-61231201D01*
G01X28163492Y-61217751D01*
G01X28109985Y-61189747D01*
G01X28081463Y-61165713D01*
G01X28077014Y-61160889D01*
G01X28077014Y-61160889D01*
G01X28042164Y-61099422D01*
G01X28024900Y-61036245D01*
G01X28019044Y-60988658D01*
G01X28018420Y-60973389D01*
G01X28018420Y-60973389D01*
G01X28026490Y-60891720D01*
G01X28044854Y-60826742D01*
G01X28064742Y-60781664D01*
G01X28077387Y-60759694D01*
G01X28078479Y-60758057D01*
G01X28078479Y-60758057D01*
G01X28133431Y-60705252D01*
G01X28189690Y-60680043D01*
G01X28230303Y-60672224D01*
G01X28240344Y-60671631D01*
G01X28240344Y-60671631D01*
G01X28317056Y-60685222D01*
G01X28370272Y-60713517D01*
G01X28398543Y-60737802D01*
G01X28402942Y-60742676D01*
G01X28402942Y-60742676D01*
G01X28436393Y-60802059D01*
G01X28453570Y-60863434D01*
G01X28459899Y-60911488D01*
G01X28460803Y-60930908D01*
G01X28460803Y-60930908D01*
G37*
%LPD*%
G36*
G01X27838977Y-60653320D02*
G01X27838977Y-60653320D01*
G01X27800535Y-60609641D01*
G01X27783313Y-60605713D01*
G01X27783313Y-60605713D01*
G01X27722635Y-60602824D01*
G01X27717395Y-60602783D01*
G01X27717395Y-60602783D01*
G01X27715441Y-60527555D01*
G01X27712620Y-60485783D01*
G01X27712268Y-60481934D01*
G01X27712268Y-60481934D01*
G01X27700805Y-60413663D01*
G01X27692197Y-60379999D01*
G01X27692126Y-60379761D01*
G01X27692126Y-60379761D01*
G01X27663325Y-60316061D01*
G01X27650744Y-60298096D01*
G01X27650744Y-60298096D01*
G01X27598810Y-60257376D01*
G01X27578601Y-60247193D01*
G01X27578601Y-60247193D01*
G01X27512954Y-60230840D01*
G01X27472443Y-60227793D01*
G01X27471301Y-60227783D01*
G01X27471301Y-60227783D01*
G01X27401575Y-60236764D01*
G01X27378284Y-60244263D01*
G01X27378284Y-60244263D01*
G01X27339692Y-60285428D01*
G01X27339465Y-60287842D01*
G01X27339465Y-60287842D01*
G01X27361034Y-60345517D01*
G01X27369494Y-60358154D01*
G01X27369494Y-60358154D01*
G01X27430698Y-60323891D01*
G01X27483608Y-60312432D01*
G01X27499866Y-60311279D01*
G01X27499866Y-60311279D01*
G01X27567750Y-60332923D01*
G01X27593266Y-60361918D01*
G01X27594348Y-60364014D01*
G01X27594348Y-60364014D01*
G01X27610228Y-60423498D01*
G01X27616971Y-60487887D01*
G01X27618494Y-60528466D01*
G01X27618518Y-60531738D01*
G01X27618518Y-60602783D01*
G01X27618518Y-60602783D01*
G01X27525100Y-60601753D01*
G01X27461688Y-60599487D01*
G01X27425605Y-60597222D01*
G01X27414172Y-60596192D01*
G01X27414172Y-60596192D01*
G01X27414172Y-60596192D01*
G01X27408313Y-60631348D01*
G01X27408313Y-60631348D01*
G01X27424060Y-60671631D01*
G01X27424060Y-60671631D01*
G01X27474139Y-60683346D01*
G01X27474231Y-60683350D01*
G01X27474231Y-60683350D01*
G01X27536328Y-60684412D01*
G01X27596488Y-60684775D01*
G01X27618518Y-60684815D01*
G01X27618518Y-60996826D01*
G01X27618518Y-60996826D01*
G01X27616322Y-61089567D01*
G01X27610857Y-61164699D01*
G01X27603807Y-61222397D01*
G01X27596856Y-61262833D01*
G01X27591689Y-61286179D01*
G01X27589953Y-61292725D01*
G01X27589953Y-61292725D01*
G01X27645407Y-61304411D01*
G01X27647082Y-61304444D01*
G01X27647082Y-61304444D01*
G01X27702987Y-61288034D01*
G01X27704577Y-61286499D01*
G01X27704577Y-61286499D01*
G01X27720199Y-61231292D01*
G01X27720325Y-61226807D01*
G01X27720325Y-61226807D01*
G01X27720096Y-61187039D01*
G01X27719592Y-61117401D01*
G01X27719089Y-61051197D01*
G01X27718860Y-61021729D01*
G01X27718860Y-61021729D01*
G01X27718860Y-61021729D01*
G01X27718294Y-60940627D01*
G01X27717897Y-60866907D01*
G01X27717639Y-60802808D01*
G01X27717489Y-60750568D01*
G01X27717418Y-60712429D01*
G01X27717396Y-60690629D01*
G01X27717395Y-60686279D01*
G01X27717395Y-60686279D01*
G01X27784639Y-60689467D01*
G01X27830853Y-60693907D01*
G01X27834582Y-60694336D01*
G01X27834582Y-60694336D01*
G01X27838977Y-60653320D01*
G37*
G36*
G01X27384875Y-60653320D02*
G01X27384875Y-60653320D01*
G01X27346433Y-60609641D01*
G01X27329211Y-60605713D01*
G01X27329211Y-60605713D01*
G01X27268533Y-60602824D01*
G01X27263293Y-60602783D01*
G01X27263293Y-60602783D01*
G01X27261340Y-60527555D01*
G01X27258518Y-60485783D01*
G01X27258166Y-60481934D01*
G01X27258166Y-60481934D01*
G01X27246703Y-60413663D01*
G01X27238095Y-60379999D01*
G01X27238025Y-60379761D01*
G01X27238025Y-60379761D01*
G01X27209224Y-60316061D01*
G01X27196643Y-60298096D01*
G01X27196643Y-60298096D01*
G01X27144709Y-60257376D01*
G01X27124499Y-60247193D01*
G01X27124499Y-60247193D01*
G01X27058853Y-60230840D01*
G01X27018341Y-60227793D01*
G01X27017200Y-60227783D01*
G01X27017200Y-60227783D01*
G01X26947474Y-60236764D01*
G01X26924182Y-60244263D01*
G01X26924182Y-60244263D01*
G01X26885590Y-60285428D01*
G01X26885364Y-60287842D01*
G01X26885364Y-60287842D01*
G01X26906932Y-60345517D01*
G01X26915393Y-60358154D01*
G01X26915393Y-60358154D01*
G01X26976596Y-60323891D01*
G01X27029507Y-60312432D01*
G01X27045764Y-60311279D01*
G01X27045764Y-60311279D01*
G01X27113649Y-60332923D01*
G01X27139164Y-60361918D01*
G01X27140246Y-60364014D01*
G01X27140246Y-60364014D01*
G01X27156126Y-60423498D01*
G01X27162869Y-60487887D01*
G01X27164392Y-60528466D01*
G01X27164416Y-60531738D01*
G01X27164416Y-60602783D01*
G01X27164416Y-60602783D01*
G01X27070998Y-60601753D01*
G01X27007587Y-60599487D01*
G01X26971503Y-60597222D01*
G01X26960071Y-60596192D01*
G01X26960071Y-60596192D01*
G01X26960071Y-60596192D01*
G01X26954211Y-60631348D01*
G01X26954211Y-60631348D01*
G01X26969958Y-60671631D01*
G01X26969958Y-60671631D01*
G01X27020038Y-60683346D01*
G01X27020129Y-60683350D01*
G01X27020129Y-60683350D01*
G01X27082227Y-60684412D01*
G01X27142387Y-60684775D01*
G01X27164416Y-60684815D01*
G01X27164416Y-60996826D01*
G01X27164416Y-60996826D01*
G01X27162220Y-61089567D01*
G01X27156756Y-61164699D01*
G01X27149706Y-61222397D01*
G01X27142755Y-61262833D01*
G01X27137587Y-61286179D01*
G01X27135852Y-61292725D01*
G01X27135852Y-61292725D01*
G01X27191306Y-61304411D01*
G01X27192981Y-61304444D01*
G01X27192981Y-61304444D01*
G01X27248886Y-61288034D01*
G01X27250476Y-61286499D01*
G01X27250476Y-61286499D01*
G01X27266097Y-61231292D01*
G01X27266223Y-61226807D01*
G01X27266223Y-61226807D01*
G01X27265994Y-61187039D01*
G01X27265491Y-61117401D01*
G01X27264987Y-61051197D01*
G01X27264758Y-61021729D01*
G01X27264758Y-61021729D01*
G01X27264758Y-61021729D01*
G01X27264193Y-60940627D01*
G01X27263796Y-60866907D01*
G01X27263537Y-60802808D01*
G01X27263387Y-60750568D01*
G01X27263316Y-60712429D01*
G01X27263295Y-60690629D01*
G01X27263293Y-60686279D01*
G01X27263293Y-60686279D01*
G01X27330537Y-60689467D01*
G01X27376752Y-60693907D01*
G01X27380481Y-60694336D01*
G01X27380481Y-60694336D01*
G01X27384875Y-60653320D01*
G37*
G36*
G01X26863391Y-61220581D02*
G01X26863391Y-61220581D01*
G01X26843197Y-61160653D01*
G01X26836291Y-61152100D01*
G01X26836291Y-61152100D01*
G01X26780351Y-61125019D01*
G01X26771472Y-61124268D01*
G01X26771472Y-61124268D01*
G01X26713963Y-61146435D01*
G01X26707751Y-61152100D01*
G01X26707751Y-61152100D01*
G01X26682685Y-61209222D01*
G01X26681750Y-61220581D01*
G01X26681750Y-61220581D01*
G01X26701468Y-61280172D01*
G01X26707751Y-61287964D01*
G01X26707751Y-61287964D01*
G01X26763161Y-61314045D01*
G01X26771472Y-61314697D01*
G01X26771472Y-61314697D01*
G01X26829419Y-61293738D01*
G01X26836291Y-61287964D01*
G01X26836291Y-61287964D01*
G01X26862503Y-61231281D01*
G01X26863391Y-61220581D01*
G37*
G36*
G01X26501575Y-60610108D02*
G01X26501575Y-60610108D01*
G01X26448082Y-60598401D01*
G01X26447375Y-60598389D01*
G01X26447375Y-60598389D01*
G01X26390618Y-60629051D01*
G01X26378647Y-60670127D01*
G01X26378528Y-60673096D01*
G01X26378528Y-60673096D01*
G01X26320125Y-60637830D01*
G01X26272404Y-60616580D01*
G01X26263171Y-60613037D01*
G01X26263171Y-60613037D01*
G01X26191110Y-60594123D01*
G01X26139551Y-60587965D01*
G01X26125110Y-60587403D01*
G01X26125110Y-60587403D01*
G01X26048863Y-60600187D01*
G01X25998966Y-60624118D01*
G01X25980473Y-60637558D01*
G01X25980456Y-60637573D01*
G01X25980456Y-60637573D01*
G01X25944480Y-60692445D01*
G01X25928577Y-60752937D01*
G01X25924549Y-60793807D01*
G01X25924426Y-60799072D01*
G01X25924426Y-60799072D01*
G01X25925426Y-60849393D01*
G01X25926601Y-60906014D01*
G01X25926623Y-60907105D01*
G01X25926623Y-60907105D01*
G01X25928130Y-60992258D01*
G01X25928718Y-61045488D01*
G01X25928821Y-61066146D01*
G01X25928821Y-61066406D01*
G01X25928821Y-61066406D01*
G01X25925644Y-61149739D01*
G01X25918299Y-61216294D01*
G01X25910061Y-61263545D01*
G01X25904205Y-61288965D01*
G01X25903186Y-61292725D01*
G01X25903186Y-61292725D01*
G01X25959697Y-61304396D01*
G01X25961780Y-61304444D01*
G01X25961780Y-61304444D01*
G01X26016470Y-61288412D01*
G01X26017810Y-61287232D01*
G01X26017810Y-61287232D01*
G01X26034884Y-61232751D01*
G01X26035022Y-61228272D01*
G01X26035022Y-61228272D01*
G01X26034335Y-61173134D01*
G01X26032825Y-61104675D01*
G01X26031314Y-61046379D01*
G01X26030627Y-61021729D01*
G01X26030627Y-61021729D01*
G01X26030627Y-61021729D01*
G01X26027873Y-60920502D01*
G01X26026607Y-60864658D01*
G01X26026251Y-60842040D01*
G01X26026233Y-60839356D01*
G01X26026233Y-60839356D01*
G01X26039036Y-60763272D01*
G01X26060677Y-60721858D01*
G01X26067615Y-60713379D01*
G01X26067615Y-60713379D01*
G01X26126836Y-60679362D01*
G01X26169900Y-60671746D01*
G01X26173450Y-60671631D01*
G01X26173450Y-60671631D01*
G01X26242064Y-60682752D01*
G01X26302744Y-60708058D01*
G01X26348485Y-60735465D01*
G01X26372284Y-60752890D01*
G01X26374133Y-60754395D01*
G01X26374133Y-60754395D01*
G01X26372879Y-60848993D01*
G01X26372046Y-60924742D01*
G01X26371548Y-60982226D01*
G01X26371299Y-61022028D01*
G01X26371213Y-61044730D01*
G01X26371203Y-61051026D01*
G01X26371203Y-61051026D01*
G01X26370203Y-61136499D01*
G01X26367855Y-61207130D01*
G01X26365134Y-61259703D01*
G01X26363017Y-61291002D01*
G01X26362414Y-61298584D01*
G01X26362414Y-61298584D01*
G01X26412944Y-61302979D01*
G01X26412951Y-61302979D01*
G01X26412951Y-61302979D01*
G01X26472407Y-61273557D01*
G01X26480334Y-61245850D01*
G01X26480334Y-61245850D01*
G01X26478722Y-61194977D01*
G01X26476739Y-61137520D01*
G01X26476672Y-61135620D01*
G01X26476672Y-61135620D01*
G01X26474555Y-61059145D01*
G01X26473468Y-60992661D01*
G01X26473067Y-60945746D01*
G01X26473010Y-60927979D01*
G01X26473010Y-60927979D01*
G01X26473010Y-60927979D01*
G01X26474970Y-60822821D01*
G01X26479913Y-60741919D01*
G01X26486436Y-60682751D01*
G01X26493134Y-60642799D01*
G01X26498604Y-60619541D01*
G01X26501441Y-60610459D01*
G01X26501575Y-60610108D01*
G37*
G36*
G01X25746448Y-60955078D02*
G01X25746448Y-60955078D01*
G01X25738762Y-60871860D01*
G01X25719635Y-60803254D01*
G01X25694960Y-60749650D01*
G01X25670632Y-60711435D01*
G01X25652546Y-60689000D01*
G01X25646472Y-60682617D01*
G01X25646472Y-60682617D01*
G01X25583668Y-60636152D01*
G01X25520654Y-60607969D01*
G01X25465567Y-60593496D01*
G01X25426546Y-60588164D01*
G01X25411731Y-60587403D01*
G01X25411731Y-60587403D01*
G01X25411731Y-60587403D01*
G01X25333617Y-60598751D01*
G01X25277485Y-60622379D01*
G01X25246710Y-60642658D01*
G01X25241809Y-60646729D01*
G01X25241809Y-60646729D01*
G01X25197120Y-60706694D01*
G01X25179665Y-60759531D01*
G01X25176628Y-60785512D01*
G01X25176623Y-60785889D01*
G01X25176623Y-60785889D01*
G01X25187060Y-60856568D01*
G01X25197497Y-60883301D01*
G01X25197497Y-60883301D01*
G01X25197497Y-60883301D01*
G01X25239448Y-60934613D01*
G01X25252063Y-60944458D01*
G01X25252063Y-60944458D01*
G01X25312190Y-60969695D01*
G01X25349399Y-60978868D01*
G01X25349475Y-60978882D01*
G01X25349475Y-60978882D01*
G01X25421088Y-60989388D01*
G01X25467811Y-60993495D01*
G01X25474719Y-60993897D01*
G01X25474719Y-60993897D01*
G01X25538981Y-60995864D01*
G01X25600752Y-60996666D01*
G01X25635157Y-60996825D01*
G01X25636584Y-60996826D01*
G01X25636584Y-60996826D01*
G01X25619082Y-61076426D01*
G01X25594557Y-61132673D01*
G01X25575456Y-61163059D01*
G01X25571765Y-61167847D01*
G01X25571765Y-61167847D01*
G01X25514499Y-61210389D01*
G01X25457657Y-61227725D01*
G01X25425524Y-61231180D01*
G01X25424182Y-61231201D01*
G01X25424182Y-61231201D01*
G01X25345596Y-61217147D01*
G01X25295120Y-61187325D01*
G01X25269464Y-61160245D01*
G01X25264514Y-61152832D01*
G01X25264514Y-61152832D01*
G01X25210349Y-61197110D01*
G01X25205188Y-61215820D01*
G01X25205188Y-61215820D01*
G01X25237203Y-61266953D01*
G01X25272985Y-61287468D01*
G01X25273303Y-61287598D01*
G01X25273303Y-61287598D01*
G01X25342395Y-61306547D01*
G01X25400380Y-61313632D01*
G01X25425622Y-61314697D01*
G01X25425647Y-61314697D01*
G01X25425647Y-61314697D01*
G01X25503960Y-61305443D01*
G01X25568053Y-61283373D01*
G01X25616097Y-61257032D01*
G01X25646264Y-61234963D01*
G01X25656726Y-61225708D01*
G01X25656726Y-61225708D01*
G01X25656726Y-61225708D01*
G01X25696978Y-61170248D01*
G01X25722928Y-61106374D01*
G01X25737714Y-61043685D01*
G01X25744478Y-60991779D01*
G01X25746358Y-60960253D01*
G01X25746448Y-60955078D01*
G37*
%LPC*%
G36*
G01X25638049Y-60922119D02*
G01X25638049Y-60922119D01*
G01X25562947Y-60921453D01*
G01X25530830Y-60920670D01*
G01X25530383Y-60920654D01*
G01X25530383Y-60920654D01*
G01X25464232Y-60915151D01*
G01X25435901Y-60911499D01*
G01X25435901Y-60911499D01*
G01X25367776Y-60895754D01*
G01X25353137Y-60890259D01*
G01X25353137Y-60890259D01*
G01X25304770Y-60855001D01*
G01X25301501Y-60851441D01*
G01X25301501Y-60851441D01*
G01X25280232Y-60795050D01*
G01X25279895Y-60788819D01*
G01X25279895Y-60788819D01*
G01X25301448Y-60726339D01*
G01X25319446Y-60705322D01*
G01X25319446Y-60705322D01*
G01X25380975Y-60675109D01*
G01X25417314Y-60670168D01*
G01X25417590Y-60670166D01*
G01X25417590Y-60670166D01*
G01X25490542Y-60683455D01*
G01X25543203Y-60710033D01*
G01X25569524Y-60729967D01*
G01X25571399Y-60731690D01*
G01X25571399Y-60731690D01*
G01X25608695Y-60787399D01*
G01X25628619Y-60849976D01*
G01X25636596Y-60901016D01*
G01X25638049Y-60922119D01*
G01X25638049Y-60922119D01*
G37*
%LPD*%
G36*
G01X25109241Y-60656250D02*
G01X25109241Y-60656250D01*
G01X25086961Y-60612331D01*
G01X25086902Y-60612305D01*
G01X25086902Y-60612305D01*
G01X25026592Y-60603192D01*
G01X25010364Y-60602783D01*
G01X24967883Y-60602783D01*
G01X24967883Y-60602783D01*
G01X24971232Y-60522146D01*
G01X24974897Y-60464725D01*
G01X24977217Y-60436334D01*
G01X24977405Y-60434326D01*
G01X24977405Y-60434326D01*
G01X24927600Y-60429932D01*
G01X24927600Y-60429932D01*
G01X24927600Y-60429932D01*
G01X24865344Y-60457639D01*
G01X24855823Y-60486993D01*
G01X24855823Y-60487061D01*
G01X24855823Y-60487061D01*
G01X24858141Y-60542332D01*
G01X24861370Y-60599075D01*
G01X24861682Y-60604248D01*
G01X24861682Y-60604248D01*
G01X24762354Y-60603410D01*
G01X24690729Y-60601412D01*
G01X24643573Y-60599028D01*
G01X24617651Y-60597029D01*
G01X24609729Y-60596192D01*
G01X24609729Y-60596192D01*
G01X24609729Y-60596192D01*
G01X24603869Y-60631348D01*
G01X24603869Y-60631348D01*
G01X24619617Y-60671631D01*
G01X24619617Y-60671631D01*
G01X24669696Y-60683346D01*
G01X24669787Y-60683350D01*
G01X24669787Y-60683350D01*
G01X24724348Y-60684221D01*
G01X24791469Y-60684653D01*
G01X24846279Y-60684799D01*
G01X24864612Y-60684815D01*
G01X24864612Y-60684815D01*
G01X24865742Y-60758131D01*
G01X24866536Y-60829762D01*
G01X24867054Y-60895746D01*
G01X24867354Y-60952125D01*
G01X24867496Y-60994938D01*
G01X24867538Y-61020225D01*
G01X24867541Y-61025391D01*
G01X24867541Y-61025391D01*
G01X24861579Y-61116433D01*
G01X24849407Y-61169908D01*
G01X24839601Y-61192781D01*
G01X24838244Y-61194946D01*
G01X24838244Y-61194946D01*
G01X24782646Y-61229544D01*
G01X24742270Y-61235587D01*
G01X24741565Y-61235596D01*
G01X24741565Y-61235596D01*
G01X24673843Y-61218294D01*
G01X24637222Y-61193301D01*
G01X24633899Y-61190186D01*
G01X24633899Y-61190186D01*
G01X24606985Y-61241764D01*
G01X24606799Y-61244385D01*
G01X24606799Y-61244385D01*
G01X24639552Y-61291763D01*
G01X24645617Y-61295288D01*
G01X24645617Y-61295288D01*
G01X24709644Y-61312551D01*
G01X24740100Y-61314697D01*
G01X24740100Y-61314697D01*
G01X24822813Y-61302664D01*
G01X24878208Y-61276657D01*
G01X24908524Y-61251814D01*
G01X24916247Y-61242920D01*
G01X24916247Y-61242920D01*
G01X24944310Y-61184721D01*
G01X24959752Y-61119585D01*
G01X24966345Y-61063125D01*
G01X24967857Y-61030953D01*
G01X24967883Y-61028320D01*
G01X24967883Y-61028320D01*
G01X24966753Y-60919018D01*
G01X24965958Y-60833975D01*
G01X24965441Y-60770655D01*
G01X24965141Y-60726522D01*
G01X24964999Y-60699040D01*
G01X24964956Y-60685672D01*
G01X24964953Y-60683350D01*
G01X24964953Y-60683350D01*
G01X25008234Y-60686596D01*
G01X25078829Y-60692234D01*
G01X25104846Y-60694336D01*
G01X25104846Y-60694336D01*
G01X25109241Y-60656250D01*
G37*
G36*
G01X24518909Y-61441406D02*
G01X24518909Y-61441406D01*
G01X24517443Y-61430428D01*
G01X24513290Y-61402714D01*
G01X24506817Y-61360563D01*
G01X24498390Y-61306271D01*
G01X24488375Y-61242136D01*
G01X24477139Y-61170455D01*
G01X24465048Y-61093525D01*
G01X24452468Y-61013642D01*
G01X24439766Y-60933105D01*
G01X24427309Y-60854209D01*
G01X24415462Y-60779253D01*
G01X24404592Y-60710533D01*
G01X24395066Y-60650347D01*
G01X24387249Y-60600991D01*
G01X24381509Y-60564763D01*
G01X24378212Y-60543960D01*
G01X24377551Y-60539795D01*
G01X24377551Y-60539795D01*
G01X24364121Y-60447460D01*
G01X24353366Y-60368072D01*
G01X24345092Y-60302419D01*
G01X24339108Y-60251285D01*
G01X24335219Y-60215458D01*
G01X24333234Y-60195723D01*
G01X24332873Y-60191895D01*
G01X24332873Y-60191895D01*
G01X24301379Y-60186768D01*
G01X24301379Y-60186768D01*
G01X24249310Y-60216783D01*
G01X24247180Y-60227783D01*
G01X24388537Y-61130860D01*
G01X24388537Y-61130860D01*
G01X24401967Y-61223195D01*
G01X24412723Y-61302582D01*
G01X24420996Y-61368236D01*
G01X24426981Y-61419369D01*
G01X24430869Y-61455197D01*
G01X24432854Y-61474932D01*
G01X24433215Y-61478760D01*
G01X24433215Y-61478760D01*
G01X24469104Y-61483154D01*
G01X24469104Y-61483154D01*
G01X24517425Y-61450955D01*
G01X24518909Y-61441406D01*
G37*
G36*
G01X24165149Y-61570313D02*
G01X24165149Y-61570313D01*
G01X24124436Y-61515789D01*
G01X24089227Y-61455617D01*
G01X24060188Y-61396188D01*
G01X24037984Y-61343891D01*
G01X24023282Y-61305117D01*
G01X24016747Y-61286256D01*
G01X24016467Y-61285401D01*
G01X24016467Y-61285401D01*
G01X23996458Y-61213976D01*
G01X23981617Y-61143352D01*
G01X23971173Y-61076484D01*
G01X23964353Y-61016324D01*
G01X23960386Y-60965829D01*
G01X23958497Y-60927951D01*
G01X23957916Y-60905646D01*
G01X23957873Y-60900879D01*
G01X23957873Y-60900879D01*
G01X23960919Y-60823749D01*
G01X23968802Y-60749471D01*
G01X23979641Y-60681158D01*
G01X23991555Y-60621919D01*
G01X24002662Y-60574866D01*
G01X24011083Y-60543111D01*
G01X24014935Y-60529764D01*
G01X24015002Y-60529541D01*
G01X24015002Y-60529541D01*
G01X24044652Y-60446286D01*
G01X24076647Y-60376188D01*
G01X24107818Y-60319807D01*
G01X24134998Y-60277699D01*
G01X24155018Y-60250424D01*
G01X24164711Y-60238539D01*
G01X24165149Y-60238037D01*
G01X24165149Y-60238037D01*
G01X24117934Y-60203850D01*
G01X24115344Y-60203613D01*
G01X24115344Y-60203613D01*
G01X24065839Y-60234921D01*
G01X24040637Y-60264404D01*
G01X24040637Y-60264404D01*
G01X24003379Y-60322518D01*
G01X23973202Y-60378721D01*
G01X23955893Y-60414471D01*
G01X23953845Y-60418945D01*
G01X23953845Y-60418945D01*
G01X23927905Y-60484541D01*
G01X23906501Y-60550341D01*
G01X23890874Y-60605489D01*
G01X23882264Y-60639130D01*
G01X23880969Y-60644531D01*
G01X23880969Y-60644531D01*
G01X23865957Y-60721817D01*
G01X23856852Y-60791719D01*
G01X23852176Y-60848613D01*
G01X23850453Y-60886875D01*
G01X23850207Y-60900879D01*
G01X23850207Y-60900879D01*
G01X23850207Y-60900879D01*
G01X23853117Y-60974677D01*
G01X23860157Y-61043651D01*
G01X23868797Y-61102104D01*
G01X23876504Y-61144339D01*
G01X23880746Y-61164659D01*
G01X23880969Y-61165650D01*
G01X23880969Y-61165650D01*
G01X23901522Y-61244368D01*
G01X23922333Y-61309268D01*
G01X23940269Y-61357480D01*
G01X23952194Y-61386134D01*
G01X23955310Y-61393067D01*
G01X23955310Y-61393067D01*
G01X23992310Y-61464866D01*
G01X24023088Y-61515914D01*
G01X24041053Y-61542459D01*
G01X24043201Y-61545410D01*
G01X24043201Y-61545410D01*
G01X24098078Y-61598577D01*
G01X24115344Y-61604737D01*
G01X24115344Y-61604737D01*
G01X24162430Y-61573893D01*
G01X24165149Y-61570313D01*
G37*
G36*
G01X47325793Y-62302002D02*
G01X47325793Y-62302002D01*
G01X47319875Y-62213688D01*
G01X47304367Y-62136400D01*
G01X47282638Y-62070544D01*
G01X47258057Y-62016524D01*
G01X47233995Y-61974746D01*
G01X47213822Y-61945616D01*
G01X47200905Y-61929540D01*
G01X47197986Y-61926270D01*
G01X47197986Y-61926270D01*
G01X47139913Y-61876956D01*
G01X47076410Y-61841346D01*
G01X47012510Y-61817209D01*
G01X46953249Y-61802314D01*
G01X46903660Y-61794430D01*
G01X46868779Y-61791327D01*
G01X46853639Y-61790773D01*
G01X46853381Y-61790772D01*
G01X46853381Y-61790772D01*
G01X46773215Y-61798153D01*
G01X46711108Y-61814392D01*
G01X46670974Y-61830631D01*
G01X46656726Y-61838013D01*
G01X46656726Y-61838013D01*
G01X46656726Y-61838013D01*
G01X46599082Y-61891678D01*
G01X46579404Y-61937955D01*
G01X46577258Y-61954102D01*
G01X46577258Y-61954102D01*
G01X46608393Y-62007821D01*
G01X46654952Y-62027322D01*
G01X46662219Y-62028809D01*
G01X46662219Y-62028809D01*
G01X46700273Y-61965363D01*
G01X46738247Y-61928833D01*
G01X46752307Y-61918945D01*
G01X46752307Y-61918945D01*
G01X46819748Y-61891481D01*
G01X46870055Y-61882968D01*
G01X46882678Y-61882324D01*
G01X46882678Y-61882324D01*
G01X46957364Y-61892889D01*
G01X47019249Y-61918453D01*
G01X47066795Y-61949823D01*
G01X47098467Y-61977806D01*
G01X47112725Y-61993209D01*
G01X47113391Y-61994019D01*
G01X47113391Y-61994019D01*
G01X47151654Y-62054629D01*
G01X47177057Y-62118191D01*
G01X47192234Y-62178196D01*
G01X47199818Y-62228134D01*
G01X47202445Y-62261496D01*
G01X47202746Y-62271973D01*
G01X47202746Y-62271973D01*
G01X47197274Y-62353918D01*
G01X47183287Y-62426129D01*
G01X47164437Y-62487225D01*
G01X47144369Y-62535829D01*
G01X47126735Y-62570561D01*
G01X47115181Y-62590040D01*
G01X47112659Y-62593872D01*
G01X47112659Y-62593872D01*
G01X47058397Y-62652197D01*
G01X46998357Y-62689797D01*
G01X46940716Y-62711223D01*
G01X46893647Y-62721023D01*
G01X46865328Y-62723747D01*
G01X46860705Y-62723877D01*
G01X46860705Y-62723877D01*
G01X46789240Y-62714571D01*
G01X46739861Y-62698408D01*
G01X46726306Y-62692383D01*
G01X46726306Y-62692383D01*
G01X46668239Y-62649729D01*
G01X46634913Y-62610233D01*
G01X46627795Y-62599365D01*
G01X46627795Y-62599365D01*
G01X46570621Y-62645249D01*
G01X46561878Y-62672553D01*
G01X46561877Y-62672608D01*
G01X46561877Y-62672608D01*
G01X46588390Y-62726851D01*
G01X46633204Y-62762432D01*
G01X46647571Y-62770752D01*
G01X46647571Y-62770752D01*
G01X46711069Y-62794635D01*
G01X46775216Y-62807778D01*
G01X46827875Y-62813388D01*
G01X46856907Y-62814675D01*
G01X46859241Y-62814697D01*
G01X46859241Y-62814697D01*
G01X46943071Y-62807142D01*
G01X47016284Y-62787586D01*
G01X47078169Y-62760697D01*
G01X47128015Y-62731142D01*
G01X47165109Y-62703586D01*
G01X47188741Y-62682697D01*
G01X47198199Y-62673142D01*
G01X47198352Y-62672974D01*
G01X47198352Y-62672974D01*
G01X47241873Y-62613960D01*
G01X47274151Y-62550247D01*
G01X47296867Y-62486010D01*
G01X47311699Y-62425426D01*
G01X47320329Y-62372669D01*
G01X47324436Y-62331916D01*
G01X47325700Y-62307342D01*
G01X47325793Y-62302002D01*
G37*
G36*
G01X46423450Y-62302002D02*
G01X46423450Y-62302002D01*
G01X46417531Y-62213688D01*
G01X46402023Y-62136400D01*
G01X46380294Y-62070544D01*
G01X46355714Y-62016524D01*
G01X46331652Y-61974746D01*
G01X46311478Y-61945616D01*
G01X46298561Y-61929540D01*
G01X46295642Y-61926270D01*
G01X46295642Y-61926270D01*
G01X46237569Y-61876956D01*
G01X46174066Y-61841346D01*
G01X46110166Y-61817209D01*
G01X46050905Y-61802314D01*
G01X46001316Y-61794430D01*
G01X45966435Y-61791327D01*
G01X45951295Y-61790773D01*
G01X45951037Y-61790772D01*
G01X45951037Y-61790772D01*
G01X45870872Y-61798153D01*
G01X45808764Y-61814392D01*
G01X45768630Y-61830631D01*
G01X45754382Y-61838013D01*
G01X45754382Y-61838013D01*
G01X45754382Y-61838013D01*
G01X45696738Y-61891678D01*
G01X45677060Y-61937955D01*
G01X45674914Y-61954102D01*
G01X45674914Y-61954102D01*
G01X45706049Y-62007821D01*
G01X45752608Y-62027322D01*
G01X45759875Y-62028809D01*
G01X45759875Y-62028809D01*
G01X45797930Y-61965363D01*
G01X45835903Y-61928833D01*
G01X45849963Y-61918945D01*
G01X45849963Y-61918945D01*
G01X45917404Y-61891481D01*
G01X45967711Y-61882968D01*
G01X45980334Y-61882324D01*
G01X45980334Y-61882324D01*
G01X46055020Y-61892889D01*
G01X46116905Y-61918453D01*
G01X46164452Y-61949823D01*
G01X46196123Y-61977806D01*
G01X46210382Y-61993209D01*
G01X46211047Y-61994019D01*
G01X46211047Y-61994019D01*
G01X46249310Y-62054629D01*
G01X46274713Y-62118191D01*
G01X46289890Y-62178196D01*
G01X46297475Y-62228134D01*
G01X46300101Y-62261496D01*
G01X46300403Y-62271973D01*
G01X46300403Y-62271973D01*
G01X46294930Y-62353918D01*
G01X46280944Y-62426129D01*
G01X46262093Y-62487225D01*
G01X46242026Y-62535829D01*
G01X46224391Y-62570561D01*
G01X46212837Y-62590040D01*
G01X46210315Y-62593872D01*
G01X46210315Y-62593872D01*
G01X46156053Y-62652197D01*
G01X46096014Y-62689797D01*
G01X46038372Y-62711223D01*
G01X45991303Y-62721023D01*
G01X45962984Y-62723747D01*
G01X45958362Y-62723877D01*
G01X45958362Y-62723877D01*
G01X45886896Y-62714571D01*
G01X45837517Y-62698408D01*
G01X45823962Y-62692383D01*
G01X45823962Y-62692383D01*
G01X45765895Y-62649729D01*
G01X45732569Y-62610233D01*
G01X45725451Y-62599365D01*
G01X45725451Y-62599365D01*
G01X45668278Y-62645249D01*
G01X45659534Y-62672553D01*
G01X45659534Y-62672608D01*
G01X45659534Y-62672608D01*
G01X45686047Y-62726851D01*
G01X45730861Y-62762432D01*
G01X45745227Y-62770752D01*
G01X45745227Y-62770752D01*
G01X45808725Y-62794635D01*
G01X45872872Y-62807778D01*
G01X45925531Y-62813388D01*
G01X45954563Y-62814675D01*
G01X45956897Y-62814697D01*
G01X45956897Y-62814697D01*
G01X46040727Y-62807142D01*
G01X46113940Y-62787586D01*
G01X46175826Y-62760697D01*
G01X46225671Y-62731142D01*
G01X46262766Y-62703586D01*
G01X46286398Y-62682697D01*
G01X46295856Y-62673142D01*
G01X46296008Y-62672974D01*
G01X46296008Y-62672974D01*
G01X46339529Y-62613960D01*
G01X46371807Y-62550247D01*
G01X46394523Y-62486010D01*
G01X46409356Y-62425426D01*
G01X46417986Y-62372669D01*
G01X46422093Y-62331916D01*
G01X46423357Y-62307342D01*
G01X46423450Y-62302002D01*
G37*
G36*
G01X45146106Y-62720215D02*
G01X45146106Y-62720215D01*
G01X45139556Y-62664719D01*
G01X45134311Y-62602582D01*
G01X45130226Y-62536746D01*
G01X45127157Y-62470149D01*
G01X45124957Y-62405731D01*
G01X45123483Y-62346434D01*
G01X45122588Y-62295196D01*
G01X45122129Y-62254957D01*
G01X45121960Y-62228658D01*
G01X45121936Y-62219238D01*
G01X45121936Y-62219238D01*
G01X45121936Y-62219238D01*
G01X45122852Y-62117838D01*
G01X45125251Y-62031163D01*
G01X45128613Y-61959009D01*
G01X45132417Y-61901176D01*
G01X45136140Y-61857459D01*
G01X45139261Y-61827656D01*
G01X45141260Y-61811565D01*
G01X45141711Y-61808350D01*
G01X45141711Y-61808350D01*
G01X45070368Y-61799113D01*
G01X45003355Y-61793859D01*
G01X44949470Y-61791463D01*
G01X44917509Y-61790802D01*
G01X44912463Y-61790772D01*
G01X44902942Y-61790772D01*
G01X44902942Y-61790772D01*
G01X44816610Y-61796452D01*
G01X44745016Y-61810198D01*
G01X44689968Y-61827066D01*
G01X44653275Y-61842113D01*
G01X44636746Y-61850395D01*
G01X44635974Y-61850830D01*
G01X44635974Y-61850830D01*
G01X44581518Y-61899449D01*
G01X44550537Y-61956856D01*
G01X44536410Y-62009295D01*
G01X44532515Y-62043008D01*
G01X44532336Y-62048584D01*
G01X44532336Y-62048584D01*
G01X44545895Y-62127949D01*
G01X44578227Y-62186924D01*
G01X44616817Y-62227090D01*
G01X44649149Y-62250029D01*
G01X44662707Y-62257324D01*
G01X44662707Y-62257324D01*
G01X44662707Y-62257324D01*
G01X44594990Y-62298726D01*
G01X44548725Y-62350486D01*
G01X44519825Y-62405190D01*
G01X44504205Y-62455420D01*
G01X44497778Y-62493762D01*
G01X44496458Y-62512798D01*
G01X44496448Y-62513672D01*
G01X44496448Y-62513672D01*
G01X44506948Y-62595077D01*
G01X44531610Y-62658768D01*
G01X44560180Y-62703888D01*
G01X44582401Y-62729584D01*
G01X44588733Y-62735596D01*
G01X44588733Y-62735596D01*
G01X44650684Y-62775697D01*
G01X44713803Y-62799264D01*
G01X44768402Y-62810691D01*
G01X44804795Y-62814373D01*
G01X44814319Y-62814697D01*
G01X44814319Y-62814697D01*
G01X44905199Y-62808958D01*
G01X44981915Y-62794289D01*
G01X45044245Y-62774519D01*
G01X45091965Y-62753473D01*
G01X45124854Y-62734978D01*
G01X45142689Y-62722861D01*
G01X45146106Y-62720215D01*
G37*
%LPC*%
G36*
G01X45030383Y-62669678D02*
G01X45030383Y-62669678D01*
G01X44973060Y-62699365D01*
G01X44947253Y-62708130D01*
G01X44947253Y-62708130D01*
G01X44877481Y-62721533D01*
G01X44841962Y-62723874D01*
G01X44841418Y-62723877D01*
G01X44841418Y-62723877D01*
G01X44765455Y-62712697D01*
G01X44710422Y-62689876D01*
G01X44681355Y-62671489D01*
G01X44678088Y-62668945D01*
G01X44678088Y-62668945D01*
G01X44634780Y-62612447D01*
G01X44616389Y-62556305D01*
G01X44612236Y-62522232D01*
G01X44612170Y-62519531D01*
G01X44612170Y-62519531D01*
G01X44626321Y-62443239D01*
G01X44655783Y-62390899D01*
G01X44681070Y-62363379D01*
G01X44686145Y-62359131D01*
G01X44686145Y-62359131D01*
G01X44748316Y-62326023D01*
G01X44809388Y-62309623D01*
G01X44854299Y-62304060D01*
G01X44868518Y-62303467D01*
G01X44868518Y-62303467D01*
G01X44953596Y-62305631D01*
G01X44999923Y-62309390D01*
G01X45010608Y-62310791D01*
G01X45010608Y-62310791D01*
G01X45011662Y-62367236D01*
G01X45014391Y-62431751D01*
G01X45018143Y-62498449D01*
G01X45022267Y-62561447D01*
G01X45026112Y-62614861D01*
G01X45029026Y-62652804D01*
G01X45030360Y-62669394D01*
G01X45030383Y-62669678D01*
G37*
G36*
G01X45015735Y-61888184D02*
G01X45015735Y-61888184D01*
G01X45013429Y-61949654D01*
G01X45011727Y-62016671D01*
G01X45010539Y-62083214D01*
G01X45009776Y-62143260D01*
G01X45009349Y-62190788D01*
G01X45009169Y-62219777D01*
G01X45009143Y-62225830D01*
G01X45009143Y-62225830D01*
G01X44941355Y-62228586D01*
G01X44927112Y-62228760D01*
G01X44927112Y-62228760D01*
G01X44825552Y-62219623D01*
G01X44752215Y-62195974D01*
G01X44702505Y-62163457D01*
G01X44671830Y-62127716D01*
G01X44655593Y-62094393D01*
G01X44649202Y-62069132D01*
G01X44648061Y-62057576D01*
G01X44648059Y-62057373D01*
G01X44648059Y-62057373D01*
G01X44664166Y-61989826D01*
G01X44705328Y-61942366D01*
G01X44760808Y-61911448D01*
G01X44819868Y-61893527D01*
G01X44871768Y-61885060D01*
G01X44905772Y-61882499D01*
G01X44913196Y-61882324D01*
G01X44913196Y-61882324D01*
G01X44976649Y-61885166D01*
G01X45015655Y-61888177D01*
G01X45015735Y-61888184D01*
G37*
%LPD*%
G36*
G01X44443713Y-61871338D02*
G01X44443713Y-61871338D01*
G01X44425036Y-61848999D01*
G01X44425036Y-61848999D01*
G01X44405627Y-61828125D01*
G01X44405627Y-61828125D01*
G01X44389880Y-61814575D01*
G01X44389880Y-61814575D01*
G01X44370471Y-61802490D01*
G01X44370471Y-61802490D01*
G01X44349231Y-61799561D01*
G01X44349231Y-61799561D01*
G01X44295496Y-61829028D01*
G01X44277453Y-61850830D01*
G01X44277453Y-61850830D01*
G01X44245824Y-61898631D01*
G01X44211513Y-61953728D01*
G01X44176199Y-62012727D01*
G01X44141562Y-62072237D01*
G01X44109278Y-62128865D01*
G01X44081028Y-62179218D01*
G01X44058490Y-62219905D01*
G01X44043342Y-62247531D01*
G01X44037264Y-62258706D01*
G01X44037219Y-62258789D01*
G01X44037219Y-62258789D01*
G01X44000205Y-62206169D01*
G01X43964176Y-62149041D01*
G01X43931829Y-62093948D01*
G01X43905864Y-62047432D01*
G01X43888980Y-62016033D01*
G01X43883777Y-62006104D01*
G01X43883777Y-62006104D01*
G01X43840503Y-61916079D01*
G01X43815251Y-61852837D01*
G01X43803177Y-61813383D01*
G01X43799440Y-61794722D01*
G01X43799182Y-61792236D01*
G01X43799182Y-61792236D01*
G01X43716302Y-61814471D01*
G01X43688009Y-61846449D01*
G01X43684924Y-61859619D01*
G01X43684924Y-61859619D01*
G01X43697883Y-61898431D01*
G01X43728320Y-61956243D01*
G01X43763578Y-62015718D01*
G01X43791002Y-62059518D01*
G01X43798816Y-62071655D01*
G01X43798816Y-62071655D01*
G01X43847970Y-62145290D01*
G01X43892152Y-62208570D01*
G01X43930200Y-62260880D01*
G01X43960948Y-62301604D01*
G01X43983232Y-62330126D01*
G01X43995887Y-62345831D01*
G01X43998401Y-62348877D01*
G01X43998401Y-62476319D01*
G01X43998401Y-62476319D01*
G01X43996441Y-62572197D01*
G01X43991498Y-62649995D01*
G01X43984975Y-62710306D01*
G01X43978277Y-62753723D01*
G01X43972807Y-62780842D01*
G01X43969970Y-62792256D01*
G01X43969836Y-62792725D01*
G01X43969836Y-62792725D01*
G01X44030370Y-62804127D01*
G01X44040515Y-62804444D01*
G01X44040515Y-62804444D01*
G01X44096997Y-62787243D01*
G01X44099109Y-62785034D01*
G01X44099109Y-62785034D01*
G01X44113828Y-62727538D01*
G01X44114123Y-62718750D01*
G01X44114123Y-62718750D01*
G01X44113298Y-62642040D01*
G01X44112534Y-62572176D01*
G01X44111890Y-62514103D01*
G01X44111427Y-62472763D01*
G01X44111204Y-62453100D01*
G01X44111194Y-62452149D01*
G01X44111194Y-62359131D01*
G01X44111194Y-62359131D01*
G01X44167426Y-62256447D01*
G01X44218620Y-62168747D01*
G01X44264722Y-62094926D01*
G01X44305677Y-62033878D01*
G01X44341431Y-61984499D01*
G01X44371929Y-61945682D01*
G01X44397117Y-61916324D01*
G01X44416941Y-61895317D01*
G01X44431345Y-61881559D01*
G01X44440276Y-61873942D01*
G01X44443679Y-61871362D01*
G01X44443713Y-61871338D01*
G37*
G36*
G01X43266711Y-62416260D02*
G01X43266711Y-62416260D01*
G01X43263782Y-62373779D01*
G01X43263782Y-62373779D01*
G01X43232398Y-62322720D01*
G01X43194943Y-62266175D01*
G01X43155253Y-62208824D01*
G01X43117161Y-62155345D01*
G01X43084502Y-62110418D01*
G01X43061112Y-62078721D01*
G01X43050823Y-62064932D01*
G01X43050647Y-62064697D01*
G01X43050647Y-62064697D01*
G01X42989270Y-61984830D01*
G01X42938725Y-61922117D01*
G01X42898670Y-61874928D01*
G01X42868766Y-61841631D01*
G01X42848670Y-61820595D01*
G01X42838042Y-61810188D01*
G01X42836047Y-61808350D01*
G01X42836047Y-61808350D01*
G01X42777743Y-61791610D01*
G01X42756946Y-61790772D01*
G01X42756946Y-61790772D01*
G01X42713000Y-61793701D01*
G01X42713000Y-61793701D01*
G01X42716131Y-61850628D01*
G01X42716662Y-61859619D01*
G01X42716662Y-61859619D01*
G01X42719780Y-61923217D01*
G01X42722226Y-61986736D01*
G01X42723524Y-62025377D01*
G01X42723620Y-62028443D01*
G01X42723620Y-62028443D01*
G01X42725412Y-62102404D01*
G01X42726397Y-62170102D01*
G01X42726818Y-62222365D01*
G01X42726915Y-62250026D01*
G01X42726916Y-62252197D01*
G01X42726916Y-62386231D01*
G01X42726916Y-62386231D01*
G01X42637970Y-62375450D01*
G01X42592021Y-62364955D01*
G01X42579700Y-62360596D01*
G01X42579700Y-62360596D01*
G01X42568029Y-62416918D01*
G01X42567981Y-62419190D01*
G01X42567981Y-62419190D01*
G01X42593341Y-62471387D01*
G01X42597278Y-62473389D01*
G01X42597278Y-62473389D01*
G01X42655544Y-62482942D01*
G01X42713469Y-62486266D01*
G01X42725451Y-62486572D01*
G01X42725451Y-62486572D01*
G01X42723492Y-62583443D01*
G01X42718548Y-62661549D01*
G01X42712026Y-62721700D01*
G01X42705328Y-62764706D01*
G01X42699858Y-62791377D01*
G01X42697021Y-62802523D01*
G01X42696887Y-62802979D01*
G01X42696887Y-62802979D01*
G01X42754614Y-62814604D01*
G01X42758410Y-62814697D01*
G01X42758410Y-62814697D01*
G01X42814731Y-62797307D01*
G01X42816638Y-62795288D01*
G01X42816638Y-62795288D01*
G01X42831389Y-62737813D01*
G01X42831653Y-62729736D01*
G01X42831653Y-62729736D01*
G01X42831319Y-62678046D01*
G01X42830536Y-62611566D01*
G01X42829629Y-62546899D01*
G01X42828924Y-62500651D01*
G01X42828723Y-62488037D01*
G01X42828723Y-62488037D01*
G01X42941243Y-62487562D01*
G01X43032151Y-62486318D01*
G01X43103379Y-62484575D01*
G01X43156856Y-62482603D01*
G01X43194515Y-62480672D01*
G01X43218285Y-62479054D01*
G01X43230098Y-62478018D01*
G01X43232287Y-62477783D01*
G01X43232287Y-62477783D01*
G01X43265358Y-62431754D01*
G01X43266711Y-62416260D01*
G37*
%LPC*%
G36*
G01X43159778Y-62390625D02*
G01X43159778Y-62390625D01*
G01X43085576Y-62393638D01*
G01X43026908Y-62394815D01*
G01X42999759Y-62395019D01*
G01X42999377Y-62395020D01*
G01X42999377Y-62395020D01*
G01X42922787Y-62394070D01*
G01X42862848Y-62392172D01*
G01X42831069Y-62390748D01*
G01X42828723Y-62390625D01*
G01X42828723Y-62390625D01*
G01X42828575Y-62322337D01*
G01X42828178Y-62252553D01*
G01X42827603Y-62183765D01*
G01X42826919Y-62118463D01*
G01X42826197Y-62059141D01*
G01X42825507Y-62008289D01*
G01X42824919Y-61968399D01*
G01X42824503Y-61941963D01*
G01X42824330Y-61931473D01*
G01X42824328Y-61931397D01*
G01X42824328Y-61931397D01*
G01X42865007Y-61978667D01*
G01X42907356Y-62031651D01*
G01X42945222Y-62081030D01*
G01X42972453Y-62117490D01*
G01X42982898Y-62131714D01*
G01X42982898Y-62131714D01*
G01X42982898Y-62131714D01*
G01X43027405Y-62194005D01*
G01X43068072Y-62252643D01*
G01X43103251Y-62304598D01*
G01X43131295Y-62346834D01*
G01X43150558Y-62376319D01*
G01X43159392Y-62390021D01*
G01X43159778Y-62390625D01*
G37*
%LPD*%
G36*
G01X42455920Y-62720581D02*
G01X42455920Y-62720581D01*
G01X42435726Y-62660653D01*
G01X42428821Y-62652100D01*
G01X42428821Y-62652100D01*
G01X42372880Y-62625019D01*
G01X42364001Y-62624268D01*
G01X42364001Y-62624268D01*
G01X42306492Y-62646435D01*
G01X42300281Y-62652100D01*
G01X42300281Y-62652100D01*
G01X42275214Y-62709222D01*
G01X42274280Y-62720581D01*
G01X42274280Y-62720581D01*
G01X42293997Y-62780172D01*
G01X42300281Y-62787964D01*
G01X42300281Y-62787964D01*
G01X42355690Y-62814045D01*
G01X42364001Y-62814697D01*
G01X42364001Y-62814697D01*
G01X42421949Y-62793738D01*
G01X42428821Y-62787964D01*
G01X42428821Y-62787964D01*
G01X42455032Y-62731281D01*
G01X42455920Y-62720581D01*
G37*
G36*
G01X42139514Y-62303467D02*
G01X42139514Y-62303467D01*
G01X42135054Y-62216518D01*
G01X42123367Y-62139988D01*
G01X42106993Y-62074416D01*
G01X42088469Y-62020345D01*
G01X42070337Y-61978313D01*
G01X42055134Y-61948862D01*
G01X42045401Y-61932533D01*
G01X42043201Y-61929199D01*
G01X42043201Y-61929199D01*
G01X41989402Y-61869923D01*
G01X41930773Y-61830569D01*
G01X41874104Y-61807058D01*
G01X41826184Y-61795308D01*
G01X41793804Y-61791239D01*
G01X41783557Y-61790772D01*
G01X41783557Y-61790772D01*
G01X41706185Y-61801441D01*
G01X41641255Y-61827995D01*
G01X41589653Y-61862250D01*
G01X41552263Y-61896024D01*
G01X41529972Y-61921134D01*
G01X41523547Y-61929566D01*
G01X41523547Y-61929566D01*
G01X41490531Y-61987850D01*
G01X41466044Y-62051532D01*
G01X41448812Y-62116243D01*
G01X41437560Y-62177613D01*
G01X41431013Y-62231275D01*
G01X41427897Y-62272858D01*
G01X41426938Y-62297995D01*
G01X41426868Y-62303467D01*
G01X41426868Y-62303467D01*
G01X41431344Y-62389216D01*
G01X41443076Y-62464952D01*
G01X41459513Y-62530058D01*
G01X41478106Y-62583914D01*
G01X41496308Y-62625905D01*
G01X41511568Y-62655411D01*
G01X41521339Y-62671815D01*
G01X41523547Y-62675171D01*
G01X41523547Y-62675171D01*
G01X41577503Y-62734918D01*
G01X41636236Y-62774584D01*
G01X41692967Y-62798282D01*
G01X41740918Y-62810125D01*
G01X41773308Y-62814227D01*
G01X41783557Y-62814697D01*
G01X41783557Y-62814697D01*
G01X41860901Y-62804056D01*
G01X41925761Y-62777572D01*
G01X41977273Y-62743407D01*
G01X42014573Y-62709723D01*
G01X42036798Y-62684679D01*
G01X42043201Y-62676270D01*
G01X42043201Y-62676270D01*
G01X42076091Y-62618144D01*
G01X42100485Y-62554644D01*
G01X42117653Y-62490123D01*
G01X42128862Y-62428936D01*
G01X42135385Y-62375437D01*
G01X42138488Y-62333981D01*
G01X42139444Y-62308921D01*
G01X42139514Y-62303467D01*
G37*
%LPC*%
G36*
G01X42026721Y-62257324D02*
G01X42026721Y-62257324D01*
G01X42023277Y-62334888D01*
G01X42015438Y-62401512D01*
G01X42006949Y-62450672D01*
G01X42001552Y-62475846D01*
G01X42001086Y-62477783D01*
G01X42001086Y-62477783D01*
G01X41976446Y-62551424D01*
G01X41948591Y-62608257D01*
G01X41926637Y-62643802D01*
G01X41919421Y-62653931D01*
G01X41919421Y-62653931D01*
G01X41862070Y-62703892D01*
G01X41810793Y-62723407D01*
G01X41785392Y-62726802D01*
G01X41785022Y-62726807D01*
G01X41785022Y-62726807D01*
G01X41716359Y-62711454D01*
G01X41663123Y-62676519D01*
G01X41627025Y-62638682D01*
G01X41609776Y-62614626D01*
G01X41608508Y-62612549D01*
G01X41608508Y-62612549D01*
G01X41578607Y-62546817D01*
G01X41559330Y-62478250D01*
G01X41548345Y-62414688D01*
G01X41543321Y-62363975D01*
G01X41541924Y-62333953D01*
G01X41541858Y-62329102D01*
G01X41541858Y-62329102D01*
G01X41545579Y-62254187D01*
G01X41553906Y-62189584D01*
G01X41562589Y-62142949D01*
G01X41567373Y-62121934D01*
G01X41567493Y-62121460D01*
G01X41567493Y-62121460D01*
G01X41593269Y-62047636D01*
G01X41622207Y-61991440D01*
G01X41644014Y-61957845D01*
G01X41649524Y-61950440D01*
G01X41649524Y-61950440D01*
G01X41706949Y-61901733D01*
G01X41757985Y-61882709D01*
G01X41783191Y-61879399D01*
G01X41783557Y-61879395D01*
G01X41783557Y-61879395D01*
G01X41852363Y-61895288D01*
G01X41906098Y-61930860D01*
G01X41941968Y-61967945D01*
G01X41957177Y-61988380D01*
G01X41957507Y-61988892D01*
G01X41957507Y-61988892D01*
G01X41988559Y-62051610D01*
G01X42008577Y-62116648D01*
G01X42019984Y-62176714D01*
G01X42025202Y-62224517D01*
G01X42026652Y-62252765D01*
G01X42026721Y-62257324D01*
G37*
%LPD*%
G36*
G01X40599231Y-91999268D02*
G01X40599231Y-91999268D01*
G01X40593313Y-91910954D01*
G01X40577804Y-91833666D01*
G01X40556075Y-91767810D01*
G01X40531495Y-91713790D01*
G01X40507433Y-91672012D01*
G01X40487259Y-91642882D01*
G01X40474343Y-91626806D01*
G01X40471423Y-91623536D01*
G01X40471423Y-91623536D01*
G01X40413351Y-91574222D01*
G01X40349847Y-91538612D01*
G01X40285948Y-91514475D01*
G01X40226686Y-91499580D01*
G01X40177098Y-91491696D01*
G01X40142216Y-91488593D01*
G01X40127077Y-91488039D01*
G01X40126819Y-91488038D01*
G01X40126819Y-91488038D01*
G01X40046653Y-91495419D01*
G01X39984546Y-91511658D01*
G01X39944412Y-91527897D01*
G01X39930164Y-91535279D01*
G01X39930164Y-91535279D01*
G01X39930164Y-91535279D01*
G01X39872520Y-91588944D01*
G01X39852841Y-91635221D01*
G01X39850696Y-91651368D01*
G01X39850696Y-91651368D01*
G01X39881830Y-91705087D01*
G01X39928390Y-91724588D01*
G01X39935657Y-91726075D01*
G01X39935657Y-91726075D01*
G01X39973711Y-91662629D01*
G01X40011684Y-91626099D01*
G01X40025745Y-91616211D01*
G01X40025745Y-91616211D01*
G01X40093185Y-91588747D01*
G01X40143492Y-91580234D01*
G01X40156116Y-91579590D01*
G01X40156116Y-91579590D01*
G01X40230801Y-91590155D01*
G01X40292686Y-91615718D01*
G01X40340233Y-91647089D01*
G01X40371904Y-91675072D01*
G01X40386163Y-91690475D01*
G01X40386829Y-91691285D01*
G01X40386829Y-91691285D01*
G01X40425092Y-91751895D01*
G01X40450495Y-91815457D01*
G01X40465672Y-91875462D01*
G01X40473256Y-91925400D01*
G01X40475883Y-91958761D01*
G01X40476184Y-91969239D01*
G01X40476184Y-91969239D01*
G01X40470711Y-92051184D01*
G01X40456725Y-92123394D01*
G01X40437874Y-92184491D01*
G01X40417807Y-92233095D01*
G01X40400172Y-92267827D01*
G01X40388619Y-92287306D01*
G01X40386096Y-92291138D01*
G01X40386096Y-92291138D01*
G01X40331960Y-92349462D01*
G01X40272228Y-92387063D01*
G01X40214973Y-92408489D01*
G01X40168270Y-92418289D01*
G01X40140189Y-92421013D01*
G01X40135608Y-92421143D01*
G01X40135608Y-92421143D01*
G01X40057588Y-92410618D01*
G01X39997955Y-92387062D01*
G01X39958896Y-92362504D01*
G01X39942598Y-92348972D01*
G01X39942249Y-92348633D01*
G01X39942249Y-92348633D01*
G01X39944066Y-92259504D01*
G01X39946300Y-92184199D01*
G01X39948606Y-92123973D01*
G01X39950636Y-92080076D01*
G01X39952048Y-92053761D01*
G01X39952502Y-92046143D01*
G01X39952502Y-92046143D01*
G01X39898836Y-92041032D01*
G01X39898303Y-92041016D01*
G01X39898303Y-92041016D01*
G01X39834777Y-92068724D01*
G01X39825062Y-92098077D01*
G01X39825061Y-92098145D01*
G01X39830188Y-92194092D01*
G01X39830188Y-92194092D01*
G01X39833480Y-92271947D01*
G01X39834935Y-92332346D01*
G01X39835304Y-92365966D01*
G01X39835315Y-92369873D01*
G01X39835315Y-92369873D01*
G01X39861828Y-92424117D01*
G01X39906642Y-92459698D01*
G01X39921008Y-92468018D01*
G01X39921008Y-92468018D01*
G01X39984507Y-92491901D01*
G01X40048654Y-92505044D01*
G01X40101312Y-92510654D01*
G01X40130345Y-92511941D01*
G01X40132678Y-92511963D01*
G01X40132678Y-92511963D01*
G01X40216508Y-92504408D01*
G01X40289722Y-92484852D01*
G01X40351607Y-92457963D01*
G01X40401453Y-92428408D01*
G01X40438547Y-92400852D01*
G01X40462179Y-92379963D01*
G01X40471637Y-92370407D01*
G01X40471790Y-92370240D01*
G01X40471790Y-92370240D01*
G01X40515310Y-92311226D01*
G01X40547589Y-92247513D01*
G01X40570304Y-92183276D01*
G01X40585137Y-92122692D01*
G01X40593767Y-92069935D01*
G01X40597874Y-92029182D01*
G01X40599138Y-92004608D01*
G01X40599231Y-91999268D01*
G37*
G36*
G01X39651477Y-91508545D02*
G01X39651477Y-91508545D01*
G01X39590953Y-91497143D01*
G01X39581165Y-91496827D01*
G01X39581165Y-91496827D01*
G01X39533923Y-91507447D01*
G01X39533923Y-91507447D01*
G01X39496936Y-91540039D01*
G01X39496936Y-91540039D01*
G01X39464878Y-91580140D01*
G01X39428804Y-91630239D01*
G01X39391455Y-91685298D01*
G01X39355574Y-91740277D01*
G01X39323902Y-91790136D01*
G01X39299182Y-91829835D01*
G01X39284155Y-91854334D01*
G01X39280872Y-91859742D01*
G01X39280872Y-91859742D01*
G01X39239303Y-91929454D01*
G01X39199778Y-91997323D01*
G01X39162846Y-92062054D01*
G01X39129055Y-92122353D01*
G01X39098956Y-92176926D01*
G01X39073098Y-92224479D01*
G01X39052030Y-92263717D01*
G01X39036301Y-92293347D01*
G01X39026461Y-92312074D01*
G01X39023059Y-92318604D01*
G01X39023059Y-92318604D01*
G01X39023059Y-92318604D01*
G01X39025652Y-92271463D01*
G01X39027677Y-92212382D01*
G01X39029205Y-92145959D01*
G01X39030305Y-92076792D01*
G01X39031047Y-92009477D01*
G01X39031503Y-91948612D01*
G01X39031741Y-91898794D01*
G01X39031833Y-91864621D01*
G01X39031848Y-91850690D01*
G01X39031848Y-91850586D01*
G01X39031848Y-91850586D01*
G01X39032471Y-91760632D01*
G01X39034063Y-91682093D01*
G01X39036209Y-91616201D01*
G01X39038493Y-91564186D01*
G01X39040500Y-91527279D01*
G01X39041815Y-91506712D01*
G01X39042102Y-91502686D01*
G01X39042102Y-91502686D01*
G01X38995960Y-91498291D01*
G01X38995960Y-91498291D01*
G01X38932433Y-91525999D01*
G01X38922718Y-91555353D01*
G01X38922717Y-91555420D01*
G01X38922717Y-91555420D01*
G01X38925422Y-91611833D01*
G01X38925647Y-91615845D01*
G01X38925647Y-91615845D01*
G01X38928901Y-91681852D01*
G01X38931112Y-91734627D01*
G01X38931506Y-91744751D01*
G01X38931506Y-91744751D01*
G01X38933632Y-91820406D01*
G01X38934357Y-91874486D01*
G01X38934436Y-91891602D01*
G01X38934436Y-92147950D01*
G01X38934436Y-92147950D01*
G01X38933813Y-92237904D01*
G01X38932221Y-92316443D01*
G01X38930076Y-92382335D01*
G01X38927792Y-92434350D01*
G01X38925784Y-92471257D01*
G01X38924469Y-92491824D01*
G01X38924182Y-92495850D01*
G01X38924182Y-92495850D01*
G01X38973254Y-92501709D01*
G01X38973254Y-92501709D01*
G01X39035428Y-92478557D01*
G01X39051624Y-92461426D01*
G01X39051624Y-92461426D01*
G01X39077232Y-92420691D01*
G01X39108093Y-92369562D01*
G01X39141710Y-92312610D01*
G01X39175584Y-92254405D01*
G01X39207216Y-92199521D01*
G01X39234109Y-92152528D01*
G01X39253764Y-92117997D01*
G01X39263682Y-92100500D01*
G01X39264392Y-92099244D01*
G01X39264392Y-92099244D01*
G01X39308415Y-92022165D01*
G01X39349473Y-91951772D01*
G01X39387174Y-91888402D01*
G01X39421125Y-91832390D01*
G01X39450931Y-91784073D01*
G01X39476200Y-91743788D01*
G01X39496538Y-91711869D01*
G01X39511552Y-91688654D01*
G01X39520849Y-91674478D01*
G01X39524036Y-91669678D01*
G01X39524036Y-91669678D01*
G01X39524036Y-91669678D01*
G01X39524433Y-91698203D01*
G01X39524751Y-91746002D01*
G01X39524998Y-91807829D01*
G01X39525184Y-91878436D01*
G01X39525317Y-91952576D01*
G01X39525407Y-92025002D01*
G01X39525461Y-92090468D01*
G01X39525489Y-92143725D01*
G01X39525499Y-92179527D01*
G01X39525501Y-92192627D01*
G01X39525501Y-92192627D01*
G01X39525501Y-92192627D01*
G01X39523305Y-92286510D01*
G01X39517840Y-92362195D01*
G01X39510790Y-92420029D01*
G01X39503839Y-92460357D01*
G01X39498671Y-92483524D01*
G01X39496936Y-92489991D01*
G01X39496936Y-92489991D01*
G01X39551418Y-92501689D01*
G01X39552600Y-92501709D01*
G01X39552600Y-92501709D01*
G01X39608920Y-92484319D01*
G01X39610828Y-92482300D01*
G01X39610828Y-92482300D01*
G01X39625547Y-92424804D01*
G01X39625842Y-92416016D01*
G01X39625842Y-92416016D01*
G01X39625263Y-92359082D01*
G01X39624456Y-92302814D01*
G01X39624377Y-92297730D01*
G01X39624377Y-92297730D01*
G01X39623315Y-92214602D01*
G01X39622952Y-92164811D01*
G01X39622913Y-92150879D01*
G01X39622913Y-91850586D01*
G01X39622913Y-91850586D01*
G01X39624648Y-91748367D01*
G01X39629083Y-91666240D01*
G01X39635060Y-91602840D01*
G01X39641422Y-91556803D01*
G01X39647014Y-91526764D01*
G01X39650677Y-91511359D01*
G01X39651477Y-91508545D01*
G37*
G36*
G01X38708118Y-92417481D02*
G01X38708118Y-92417481D01*
G01X38702280Y-92370268D01*
G01X38697448Y-92312762D01*
G01X38693530Y-92248559D01*
G01X38690434Y-92181254D01*
G01X38688068Y-92114441D01*
G01X38686338Y-92051715D01*
G01X38685154Y-91996671D01*
G01X38684422Y-91952903D01*
G01X38684051Y-91924006D01*
G01X38683948Y-91913575D01*
G01X38683948Y-91913575D01*
G01X38683948Y-91913575D01*
G01X38684864Y-91817283D01*
G01X38687263Y-91733185D01*
G01X38690625Y-91661669D01*
G01X38694428Y-91603119D01*
G01X38698151Y-91557923D01*
G01X38701273Y-91526467D01*
G01X38703271Y-91509136D01*
G01X38703723Y-91505616D01*
G01X38703723Y-91505616D01*
G01X38638547Y-91496063D01*
G01X38571270Y-91490805D01*
G01X38515365Y-91488561D01*
G01X38484306Y-91488047D01*
G01X38481799Y-91488038D01*
G01X38470813Y-91488038D01*
G01X38470813Y-91488038D01*
G01X38391619Y-91491705D01*
G01X38326555Y-91499914D01*
G01X38281270Y-91508472D01*
G01X38261415Y-91513188D01*
G01X38260974Y-91513306D01*
G01X38260974Y-91513306D01*
G01X38190509Y-91538859D01*
G01X38134079Y-91567690D01*
G01X38098996Y-91589464D01*
G01X38091052Y-91594971D01*
G01X38091052Y-91594971D01*
G01X38039685Y-91643483D01*
G01X38002017Y-91695221D01*
G01X37978837Y-91736386D01*
G01X37970935Y-91753174D01*
G01X37970935Y-91753174D01*
G01X37970935Y-91753174D01*
G01X37949213Y-91821036D01*
G01X37936448Y-91889536D01*
G01X37930259Y-91948458D01*
G01X37928264Y-91987587D01*
G01X37928088Y-91997803D01*
G01X37928088Y-91997803D01*
G01X37933651Y-92081288D01*
G01X37948226Y-92155791D01*
G01X37968647Y-92220463D01*
G01X37991749Y-92274454D01*
G01X38014363Y-92316913D01*
G01X38033323Y-92346993D01*
G01X38045462Y-92363842D01*
G01X38048206Y-92367310D01*
G01X38048206Y-92367310D01*
G01X38103753Y-92419956D01*
G01X38165942Y-92457972D01*
G01X38229445Y-92483740D01*
G01X38288930Y-92499641D01*
G01X38339068Y-92508058D01*
G01X38374529Y-92511371D01*
G01X38389983Y-92511962D01*
G01X38390247Y-92511963D01*
G01X38390247Y-92511963D01*
G01X38475757Y-92506224D01*
G01X38548700Y-92491555D01*
G01X38608572Y-92471785D01*
G01X38654868Y-92450739D01*
G01X38687083Y-92432244D01*
G01X38704715Y-92420126D01*
G01X38708118Y-92417481D01*
G37*
%LPC*%
G36*
G01X38592395Y-92366944D02*
G01X38592395Y-92366944D01*
G01X38529668Y-92397351D01*
G01X38467103Y-92413522D01*
G01X38417519Y-92419953D01*
G01X38393732Y-92421140D01*
G01X38393176Y-92421143D01*
G01X38393176Y-92421143D01*
G01X38316151Y-92413312D01*
G01X38259890Y-92397650D01*
G01X38231512Y-92385903D01*
G01X38229480Y-92384888D01*
G01X38229480Y-92384888D01*
G01X38168956Y-92341462D01*
G01X38133424Y-92301952D01*
G01X38123645Y-92287842D01*
G01X38123645Y-92287842D01*
G01X38091082Y-92222310D01*
G01X38073951Y-92174472D01*
G01X38070544Y-92162598D01*
G01X38070544Y-92162598D01*
G01X38058186Y-92092507D01*
G01X38054355Y-92040753D01*
G01X38054065Y-92027832D01*
G01X38054065Y-92027832D01*
G01X38059981Y-91940538D01*
G01X38075292Y-91866316D01*
G01X38096344Y-91805192D01*
G01X38119485Y-91757190D01*
G01X38141059Y-91722333D01*
G01X38157414Y-91700645D01*
G01X38164896Y-91692152D01*
G01X38165027Y-91692017D01*
G01X38165027Y-91692017D01*
G01X38220347Y-91648634D01*
G01X38282384Y-91618153D01*
G01X38345048Y-91598295D01*
G01X38402252Y-91586786D01*
G01X38447908Y-91581347D01*
G01X38475926Y-91579703D01*
G01X38481799Y-91579590D01*
G01X38481799Y-91579590D01*
G01X38545662Y-91582783D01*
G01X38577747Y-91585450D01*
G01X38577747Y-91585450D01*
G01X38574693Y-91653888D01*
G01X38572751Y-91722432D01*
G01X38571678Y-91781112D01*
G01X38571229Y-91819957D01*
G01X38571155Y-91830079D01*
G01X38571155Y-91830079D01*
G01X38571750Y-91926091D01*
G01X38573364Y-92013881D01*
G01X38575743Y-92093006D01*
G01X38578631Y-92163020D01*
G01X38581775Y-92223481D01*
G01X38584918Y-92273944D01*
G01X38587807Y-92313966D01*
G01X38590186Y-92343102D01*
G01X38591800Y-92360909D01*
G01X38592395Y-92366944D01*
G01X38592395Y-92366944D01*
G37*
%LPD*%
G36*
G01X36414905Y-92096680D02*
G01X36414905Y-92096680D01*
G01X36390224Y-92041355D01*
G01X36336882Y-92013950D01*
G01X36285929Y-92004653D01*
G01X36267688Y-92003663D01*
G01X36267688Y-92003663D01*
G01X36202368Y-92008697D01*
G01X36136668Y-92019578D01*
G01X36087735Y-92029971D01*
G01X36072131Y-92033692D01*
G01X36072131Y-92033692D01*
G01X35984296Y-92052973D01*
G01X35927590Y-92061496D01*
G01X35900621Y-92063655D01*
G01X35897815Y-92063721D01*
G01X35897815Y-92063721D01*
G01X35819024Y-92051660D01*
G01X35767695Y-92028044D01*
G01X35745532Y-92011726D01*
G01X35744739Y-92010987D01*
G01X35744739Y-92010987D01*
G01X35717621Y-92071739D01*
G01X35716174Y-92084961D01*
G01X35716174Y-92084961D01*
G01X35746314Y-92141103D01*
G01X35770007Y-92155640D01*
G01X35770007Y-92155640D01*
G01X35836600Y-92172908D01*
G01X35888076Y-92177741D01*
G01X35897815Y-92177979D01*
G01X35897815Y-92177979D01*
G01X35954848Y-92171111D01*
G01X36018478Y-92157663D01*
G01X36056237Y-92148370D01*
G01X36057849Y-92147950D01*
G01X36057849Y-92147950D01*
G01X36143499Y-92128668D01*
G01X36201384Y-92120145D01*
G01X36230165Y-92117986D01*
G01X36233264Y-92117920D01*
G01X36233264Y-92117920D01*
G01X36312056Y-92129982D01*
G01X36363384Y-92153597D01*
G01X36385547Y-92169916D01*
G01X36386340Y-92170655D01*
G01X36386340Y-92170655D01*
G01X36413458Y-92109713D01*
G01X36414905Y-92096680D01*
G37*
G36*
G01X35558704Y-92419678D02*
G01X35558704Y-92419678D01*
G01X35523438Y-92370030D01*
G01X35503040Y-92364014D01*
G01X35503040Y-92364014D01*
G01X35449123Y-92400709D01*
G01X35386230Y-92418227D01*
G01X35338060Y-92423661D01*
G01X35325794Y-92424073D01*
G01X35325794Y-92424073D01*
G01X35247701Y-92412908D01*
G01X35192384Y-92389217D01*
G01X35161311Y-92367705D01*
G01X35154773Y-92361817D01*
G01X35154773Y-92361817D01*
G01X35112846Y-92299489D01*
G01X35096469Y-92245190D01*
G01X35093620Y-92218646D01*
G01X35093616Y-92218262D01*
G01X35093616Y-92218262D01*
G01X35109199Y-92147710D01*
G01X35140365Y-92096815D01*
G01X35163739Y-92071390D01*
G01X35165759Y-92069581D01*
G01X35165759Y-92069581D01*
G01X35224732Y-92035064D01*
G01X35287658Y-92016708D01*
G01X35339382Y-92009408D01*
G01X35364744Y-92008061D01*
G01X35365344Y-92008057D01*
G01X35365344Y-92008057D01*
G01X35398303Y-92005860D01*
G01X35398303Y-92005860D01*
G01X35416248Y-91991578D01*
G01X35416248Y-91991578D01*
G01X35423938Y-91956055D01*
G01X35423938Y-91956055D01*
G01X35422473Y-91934815D01*
G01X35422473Y-91934815D01*
G01X35335138Y-91927464D01*
G01X35269391Y-91910466D01*
G01X35225232Y-91891400D01*
G01X35202662Y-91877847D01*
G01X35199451Y-91875489D01*
G01X35199451Y-91875489D01*
G01X35149532Y-91817225D01*
G01X35129189Y-91764911D01*
G01X35125135Y-91736746D01*
G01X35125110Y-91735596D01*
G01X35125110Y-91735596D01*
G01X35141080Y-91667068D01*
G01X35164961Y-91628318D01*
G01X35168689Y-91623902D01*
G01X35168689Y-91623902D01*
G01X35227089Y-91586865D01*
G01X35273607Y-91577039D01*
G01X35281116Y-91576661D01*
G01X35281116Y-91576661D01*
G01X35349788Y-91589275D01*
G01X35387626Y-91605493D01*
G01X35389148Y-91606324D01*
G01X35389148Y-91606324D01*
G01X35442839Y-91650830D01*
G01X35471351Y-91688056D01*
G01X35474475Y-91693116D01*
G01X35474475Y-91693116D01*
G01X35520984Y-91678101D01*
G01X35520984Y-91678101D01*
G01X35538928Y-91644043D01*
G01X35538928Y-91644043D01*
G01X35513435Y-91588519D01*
G01X35470345Y-91549257D01*
G01X35456531Y-91539673D01*
G01X35456531Y-91539673D01*
G01X35390210Y-91508962D01*
G01X35328514Y-91493748D01*
G01X35284535Y-91488587D01*
G01X35270862Y-91488038D01*
G01X35270862Y-91488038D01*
G01X35191783Y-91497925D01*
G01X35132585Y-91520053D01*
G01X35094543Y-91543123D01*
G01X35078932Y-91555835D01*
G01X35078601Y-91556153D01*
G01X35078601Y-91556153D01*
G01X35035221Y-91616918D01*
G01X35015283Y-91674169D01*
G01X35009671Y-91711989D01*
G01X35009387Y-91718750D01*
G01X35009387Y-91718750D01*
G01X35021074Y-91788919D01*
G01X35041372Y-91837570D01*
G01X35048938Y-91850953D01*
G01X35048938Y-91850953D01*
G01X35095346Y-91902763D01*
G01X35142888Y-91937303D01*
G01X35167947Y-91951475D01*
G01X35168323Y-91951661D01*
G01X35168323Y-91951661D01*
G01X35093974Y-91992426D01*
G01X35046600Y-92030356D01*
G01X35022740Y-92056368D01*
G01X35018176Y-92062622D01*
G01X35018176Y-92062622D01*
G01X34990559Y-92126617D01*
G01X34979773Y-92183727D01*
G01X34977896Y-92211992D01*
G01X34977893Y-92212403D01*
G01X34977893Y-92212403D01*
G01X34989600Y-92287314D01*
G01X35016672Y-92349157D01*
G01X35047036Y-92394329D01*
G01X35068620Y-92419227D01*
G01X35072376Y-92422974D01*
G01X35072376Y-92422974D01*
G01X35128922Y-92462897D01*
G01X35191001Y-92488635D01*
G01X35250336Y-92503301D01*
G01X35298647Y-92510010D01*
G01X35327656Y-92511874D01*
G01X35332385Y-92511963D01*
G01X35332385Y-92511963D01*
G01X35416361Y-92506224D01*
G01X35471956Y-92494509D01*
G01X35499065Y-92485071D01*
G01X35501941Y-92483765D01*
G01X35501941Y-92483765D01*
G01X35554191Y-92436121D01*
G01X35558704Y-92419678D01*
G37*
G36*
G01X34779407Y-92417847D02*
G01X34779407Y-92417847D01*
G01X34759213Y-92357919D01*
G01X34752307Y-92349366D01*
G01X34752307Y-92349366D01*
G01X34696367Y-92322285D01*
G01X34687488Y-92321534D01*
G01X34687488Y-92321534D01*
G01X34629979Y-92343701D01*
G01X34623767Y-92349366D01*
G01X34623767Y-92349366D01*
G01X34598701Y-92406488D01*
G01X34597766Y-92417847D01*
G01X34597766Y-92417847D01*
G01X34617484Y-92477437D01*
G01X34623767Y-92485230D01*
G01X34623767Y-92485230D01*
G01X34679177Y-92511311D01*
G01X34687488Y-92511963D01*
G01X34687488Y-92511963D01*
G01X34745435Y-92491004D01*
G01X34752307Y-92485230D01*
G01X34752307Y-92485230D01*
G01X34778519Y-92428547D01*
G01X34779407Y-92417847D01*
G37*
G36*
G01X34416126Y-92419678D02*
G01X34416126Y-92419678D01*
G01X34380860Y-92370030D01*
G01X34360461Y-92364014D01*
G01X34360461Y-92364014D01*
G01X34306676Y-92400709D01*
G01X34244062Y-92418227D01*
G01X34196145Y-92423661D01*
G01X34183948Y-92424073D01*
G01X34183948Y-92424073D01*
G01X34105659Y-92411004D01*
G01X34049923Y-92383271D01*
G01X34018470Y-92358089D01*
G01X34011829Y-92351197D01*
G01X34011829Y-92351197D01*
G01X33972810Y-92287447D01*
G01X33954876Y-92228825D01*
G01X33949828Y-92190619D01*
G01X33949573Y-92183838D01*
G01X33949573Y-92183838D01*
G01X33962511Y-92109593D01*
G01X33989964Y-92052872D01*
G01X34014893Y-92018865D01*
G01X34021716Y-92011353D01*
G01X34021716Y-92011353D01*
G01X34080264Y-91970879D01*
G01X34142238Y-91949353D01*
G01X34192969Y-91940793D01*
G01X34217785Y-91939214D01*
G01X34218372Y-91939209D01*
G01X34218372Y-91939209D01*
G01X34291596Y-91941893D01*
G01X34337370Y-91945907D01*
G01X34342883Y-91946534D01*
G01X34342883Y-91946534D01*
G01X34357095Y-91889389D01*
G01X34357532Y-91876221D01*
G01X34357532Y-91876221D01*
G01X34356517Y-91849176D01*
G01X34353889Y-91794598D01*
G01X34350276Y-91723713D01*
G01X34346305Y-91647748D01*
G01X34342602Y-91577930D01*
G01X34339795Y-91525484D01*
G01X34338511Y-91501638D01*
G01X34338489Y-91501221D01*
G01X34338489Y-91501221D01*
G01X34300447Y-91502476D01*
G01X34239538Y-91503309D01*
G01X34169473Y-91503806D01*
G01X34103961Y-91504055D01*
G01X34056711Y-91504141D01*
G01X34041126Y-91504151D01*
G01X34041126Y-91504151D01*
G01X33958379Y-91501620D01*
G01X33902803Y-91496557D01*
G01X33876654Y-91492760D01*
G01X33874866Y-91492432D01*
G01X33874866Y-91492432D01*
G01X33859496Y-91542676D01*
G01X33859485Y-91542969D01*
G01X33859485Y-91542969D01*
G01X33890521Y-91590458D01*
G01X33947242Y-91607436D01*
G01X33975208Y-91609620D01*
G01X33975208Y-91609620D01*
G01X34041627Y-91608805D01*
G01X34109504Y-91606806D01*
G01X34171612Y-91604289D01*
G01X34220724Y-91601920D01*
G01X34249611Y-91600365D01*
G01X34254260Y-91600098D01*
G01X34275501Y-91863038D01*
G01X34275501Y-91863038D01*
G01X34204793Y-91855224D01*
G01X34169111Y-91853526D01*
G01X34168567Y-91853516D01*
G01X34168567Y-91853516D01*
G01X34083315Y-91861552D01*
G01X34015566Y-91880997D01*
G01X33965531Y-91904859D01*
G01X33933421Y-91926145D01*
G01X33919448Y-91937861D01*
G01X33918811Y-91938477D01*
G01X33918811Y-91938477D01*
G01X33875739Y-91997216D01*
G01X33850427Y-92059326D01*
G01X33838154Y-92114228D01*
G01X33834198Y-92151338D01*
G01X33833850Y-92161133D01*
G01X33833850Y-92161133D01*
G01X33842786Y-92240976D01*
G01X33864411Y-92307952D01*
G01X33890947Y-92359980D01*
G01X33914618Y-92394981D01*
G01X33927648Y-92410875D01*
G01X33928333Y-92411622D01*
G01X33928333Y-92411622D01*
G01X33985004Y-92456638D01*
G01X34047391Y-92485659D01*
G01X34107113Y-92502196D01*
G01X34155788Y-92509761D01*
G01X34185037Y-92511863D01*
G01X34189807Y-92511963D01*
G01X34189807Y-92511963D01*
G01X34273783Y-92506224D01*
G01X34329378Y-92494509D01*
G01X34356487Y-92485071D01*
G01X34359363Y-92483765D01*
G01X34359363Y-92483765D01*
G01X34411612Y-92436121D01*
G01X34416126Y-92419678D01*
G37*
G36*
G01X33668323Y-92114991D02*
G01X33668323Y-92114991D01*
G01X33655505Y-92073609D01*
G01X33655505Y-92073609D01*
G01X33614124Y-92056397D01*
G01X33614124Y-92056397D01*
G01X33568347Y-92059327D01*
G01X33568347Y-92059327D01*
G01X33501851Y-92062120D01*
G01X33489612Y-92062256D01*
G01X33489612Y-92062256D01*
G01X33413773Y-92058199D01*
G01X33375116Y-92052549D01*
G01X33372424Y-92052002D01*
G01X33372424Y-92052002D01*
G01X33368030Y-92096680D01*
G01X33368030Y-92096680D01*
G01X33383044Y-92138794D01*
G01X33383044Y-92138794D01*
G01X33422229Y-92155274D01*
G01X33422229Y-92155274D01*
G01X33469470Y-92151612D01*
G01X33469470Y-92151612D01*
G01X33531810Y-92148022D01*
G01X33537952Y-92147950D01*
G01X33537952Y-92147950D01*
G01X33612670Y-92152075D01*
G01X33657577Y-92158450D01*
G01X33663928Y-92159668D01*
G01X33663928Y-92159668D01*
G01X33668323Y-92114991D01*
G37*
G36*
G01X33269153Y-92419678D02*
G01X33269153Y-92419678D01*
G01X33233887Y-92370030D01*
G01X33213489Y-92364014D01*
G01X33213489Y-92364014D01*
G01X33159703Y-92400709D01*
G01X33097089Y-92418227D01*
G01X33049173Y-92423661D01*
G01X33036975Y-92424073D01*
G01X33036975Y-92424073D01*
G01X32958686Y-92411004D01*
G01X32902950Y-92383271D01*
G01X32871498Y-92358089D01*
G01X32864856Y-92351197D01*
G01X32864856Y-92351197D01*
G01X32825837Y-92287447D01*
G01X32807903Y-92228825D01*
G01X32802855Y-92190619D01*
G01X32802600Y-92183838D01*
G01X32802600Y-92183838D01*
G01X32815538Y-92109593D01*
G01X32842991Y-92052872D01*
G01X32867920Y-92018865D01*
G01X32874744Y-92011353D01*
G01X32874744Y-92011353D01*
G01X32933291Y-91970879D01*
G01X32995266Y-91949353D01*
G01X33045997Y-91940793D01*
G01X33070813Y-91939214D01*
G01X33071399Y-91939209D01*
G01X33071399Y-91939209D01*
G01X33144624Y-91941893D01*
G01X33190398Y-91945907D01*
G01X33195911Y-91946534D01*
G01X33195911Y-91946534D01*
G01X33210123Y-91889389D01*
G01X33210559Y-91876221D01*
G01X33210559Y-91876221D01*
G01X33209544Y-91849176D01*
G01X33206916Y-91794598D01*
G01X33203303Y-91723713D01*
G01X33199332Y-91647748D01*
G01X33195629Y-91577930D01*
G01X33192823Y-91525484D01*
G01X33191539Y-91501638D01*
G01X33191516Y-91501221D01*
G01X33191516Y-91501221D01*
G01X33153474Y-91502476D01*
G01X33092566Y-91503309D01*
G01X33022500Y-91503806D01*
G01X32956988Y-91504055D01*
G01X32909738Y-91504141D01*
G01X32894153Y-91504151D01*
G01X32894153Y-91504151D01*
G01X32811406Y-91501620D01*
G01X32755831Y-91496557D01*
G01X32729681Y-91492760D01*
G01X32727893Y-91492432D01*
G01X32727893Y-91492432D01*
G01X32712523Y-91542676D01*
G01X32712512Y-91542969D01*
G01X32712512Y-91542969D01*
G01X32743548Y-91590458D01*
G01X32800269Y-91607436D01*
G01X32828235Y-91609620D01*
G01X32828235Y-91609620D01*
G01X32894654Y-91608805D01*
G01X32962532Y-91606806D01*
G01X33024640Y-91604289D01*
G01X33073751Y-91601920D01*
G01X33102638Y-91600365D01*
G01X33107288Y-91600098D01*
G01X33128528Y-91863038D01*
G01X33128528Y-91863038D01*
G01X33057820Y-91855224D01*
G01X33022138Y-91853526D01*
G01X33021594Y-91853516D01*
G01X33021594Y-91853516D01*
G01X32936342Y-91861552D01*
G01X32868593Y-91880997D01*
G01X32818559Y-91904859D01*
G01X32786449Y-91926145D01*
G01X32772475Y-91937861D01*
G01X32771838Y-91938477D01*
G01X32771838Y-91938477D01*
G01X32728767Y-91997216D01*
G01X32703454Y-92059326D01*
G01X32691181Y-92114228D01*
G01X32687225Y-92151338D01*
G01X32686877Y-92161133D01*
G01X32686877Y-92161133D01*
G01X32695814Y-92240976D01*
G01X32717438Y-92307952D01*
G01X32743975Y-92359980D01*
G01X32767646Y-92394981D01*
G01X32780675Y-92410875D01*
G01X32781360Y-92411622D01*
G01X32781360Y-92411622D01*
G01X32838032Y-92456638D01*
G01X32900419Y-92485659D01*
G01X32960140Y-92502196D01*
G01X33008815Y-92509761D01*
G01X33038064Y-92511863D01*
G01X33042834Y-92511963D01*
G01X33042834Y-92511963D01*
G01X33126810Y-92506224D01*
G01X33182406Y-92494509D01*
G01X33209514Y-92485071D01*
G01X33212390Y-92483765D01*
G01X33212390Y-92483765D01*
G01X33264640Y-92436121D01*
G01X33269153Y-92419678D01*
G37*
G36*
G01X32483997Y-92417847D02*
G01X32483997Y-92417847D01*
G01X32463803Y-92357919D01*
G01X32456897Y-92349366D01*
G01X32456897Y-92349366D01*
G01X32400957Y-92322285D01*
G01X32392078Y-92321534D01*
G01X32392078Y-92321534D01*
G01X32334569Y-92343701D01*
G01X32328357Y-92349366D01*
G01X32328357Y-92349366D01*
G01X32303290Y-92406488D01*
G01X32302356Y-92417847D01*
G01X32302356Y-92417847D01*
G01X32322073Y-92477437D01*
G01X32328357Y-92485230D01*
G01X32328357Y-92485230D01*
G01X32383767Y-92511311D01*
G01X32392078Y-92511963D01*
G01X32392078Y-92511963D01*
G01X32450025Y-92491004D01*
G01X32456897Y-92485230D01*
G01X32456897Y-92485230D01*
G01X32483109Y-92428547D01*
G01X32483997Y-92417847D01*
G37*
G36*
G01X32120715Y-92419678D02*
G01X32120715Y-92419678D01*
G01X32085450Y-92370030D01*
G01X32065051Y-92364014D01*
G01X32065051Y-92364014D01*
G01X32011266Y-92400709D01*
G01X31948651Y-92418227D01*
G01X31900735Y-92423661D01*
G01X31888538Y-92424073D01*
G01X31888538Y-92424073D01*
G01X31810248Y-92411004D01*
G01X31754513Y-92383271D01*
G01X31723060Y-92358089D01*
G01X31716418Y-92351197D01*
G01X31716418Y-92351197D01*
G01X31677400Y-92287447D01*
G01X31659466Y-92228825D01*
G01X31654418Y-92190619D01*
G01X31654163Y-92183838D01*
G01X31654163Y-92183838D01*
G01X31667100Y-92109593D01*
G01X31694554Y-92052872D01*
G01X31719483Y-92018865D01*
G01X31726306Y-92011353D01*
G01X31726306Y-92011353D01*
G01X31784854Y-91970879D01*
G01X31846828Y-91949353D01*
G01X31897559Y-91940793D01*
G01X31922375Y-91939214D01*
G01X31922961Y-91939209D01*
G01X31922961Y-91939209D01*
G01X31996186Y-91941893D01*
G01X32041960Y-91945907D01*
G01X32047473Y-91946534D01*
G01X32047473Y-91946534D01*
G01X32061685Y-91889389D01*
G01X32062122Y-91876221D01*
G01X32062122Y-91876221D01*
G01X32061106Y-91849176D01*
G01X32058479Y-91794598D01*
G01X32054866Y-91723713D01*
G01X32050894Y-91647748D01*
G01X32047192Y-91577930D01*
G01X32044385Y-91525484D01*
G01X32043101Y-91501638D01*
G01X32043079Y-91501221D01*
G01X32043079Y-91501221D01*
G01X32005037Y-91502476D01*
G01X31944128Y-91503309D01*
G01X31874063Y-91503806D01*
G01X31808550Y-91504055D01*
G01X31761301Y-91504141D01*
G01X31745715Y-91504151D01*
G01X31745715Y-91504151D01*
G01X31662969Y-91501620D01*
G01X31607393Y-91496557D01*
G01X31581243Y-91492760D01*
G01X31579456Y-91492432D01*
G01X31579456Y-91492432D01*
G01X31564086Y-91542676D01*
G01X31564075Y-91542969D01*
G01X31564075Y-91542969D01*
G01X31595111Y-91590458D01*
G01X31651831Y-91607436D01*
G01X31679797Y-91609620D01*
G01X31679797Y-91609620D01*
G01X31746217Y-91608805D01*
G01X31814094Y-91606806D01*
G01X31876202Y-91604289D01*
G01X31925313Y-91601920D01*
G01X31954201Y-91600365D01*
G01X31958850Y-91600098D01*
G01X31980090Y-91863038D01*
G01X31980090Y-91863038D01*
G01X31909383Y-91855224D01*
G01X31873700Y-91853526D01*
G01X31873157Y-91853516D01*
G01X31873157Y-91853516D01*
G01X31787905Y-91861552D01*
G01X31720156Y-91880997D01*
G01X31670121Y-91904859D01*
G01X31638011Y-91926145D01*
G01X31624037Y-91937861D01*
G01X31623401Y-91938477D01*
G01X31623401Y-91938477D01*
G01X31580329Y-91997216D01*
G01X31555017Y-92059326D01*
G01X31542744Y-92114228D01*
G01X31538788Y-92151338D01*
G01X31538440Y-92161133D01*
G01X31538440Y-92161133D01*
G01X31547376Y-92240976D01*
G01X31569001Y-92307952D01*
G01X31595537Y-92359980D01*
G01X31619208Y-92394981D01*
G01X31632237Y-92410875D01*
G01X31632922Y-92411622D01*
G01X31632922Y-92411622D01*
G01X31689594Y-92456638D01*
G01X31751981Y-92485659D01*
G01X31811703Y-92502196D01*
G01X31860378Y-92509761D01*
G01X31889627Y-92511863D01*
G01X31894397Y-92511963D01*
G01X31894397Y-92511963D01*
G01X31978373Y-92506224D01*
G01X32033968Y-92494509D01*
G01X32061076Y-92485071D01*
G01X32063953Y-92483765D01*
G01X32063953Y-92483765D01*
G01X32116202Y-92436121D01*
G01X32120715Y-92419678D01*
G37*
G36*
G01X31440295Y-91553956D02*
G01X31440295Y-91553956D01*
G01X31373871Y-91509724D01*
G01X31336818Y-91498616D01*
G01X31332629Y-91498291D01*
G01X31332629Y-91498291D01*
G01X31279109Y-91529551D01*
G01X31258688Y-91562668D01*
G01X31258655Y-91562745D01*
G01X31258655Y-91562745D01*
G01X31234965Y-91619662D01*
G01X31210482Y-91683286D01*
G01X31186527Y-91748885D01*
G01X31164424Y-91811729D01*
G01X31145496Y-91867087D01*
G01X31131064Y-91910228D01*
G01X31122451Y-91936421D01*
G01X31120593Y-91942139D01*
G01X31120593Y-91942139D01*
G01X31093505Y-92027746D01*
G01X31069525Y-92106569D01*
G01X31048756Y-92177393D01*
G01X31031300Y-92239004D01*
G01X31017260Y-92290186D01*
G01X31006739Y-92329724D01*
G01X30999839Y-92356403D01*
G01X30996662Y-92369009D01*
G01X30996448Y-92369873D01*
G01X30996448Y-92369873D01*
G01X30961605Y-92323915D01*
G01X30927160Y-92266921D01*
G01X30894554Y-92204531D01*
G01X30865223Y-92142384D01*
G01X30840606Y-92086117D01*
G01X30822143Y-92041368D01*
G01X30811271Y-92013777D01*
G01X30808948Y-92007691D01*
G01X30808948Y-92007691D01*
G01X30777453Y-91916951D01*
G01X30753475Y-91834880D01*
G01X30735991Y-91762334D01*
G01X30723974Y-91700165D01*
G01X30716399Y-91649229D01*
G01X30712241Y-91610380D01*
G01X30710476Y-91584471D01*
G01X30710077Y-91572358D01*
G01X30710071Y-91571534D01*
G01X30710071Y-91571534D01*
G01X30714437Y-91504161D01*
G01X30715930Y-91496827D01*
G01X30715930Y-91496827D01*
G01X30655745Y-91488119D01*
G01X30652942Y-91488038D01*
G01X30652942Y-91488038D01*
G01X30603667Y-91504346D01*
G01X30603503Y-91504517D01*
G01X30603503Y-91504517D01*
G01X30588550Y-91558448D01*
G01X30588489Y-91561280D01*
G01X30588489Y-91561280D01*
G01X30592012Y-91619212D01*
G01X30601466Y-91682174D01*
G01X30615178Y-91747060D01*
G01X30631476Y-91810764D01*
G01X30648686Y-91870180D01*
G01X30665136Y-91922203D01*
G01X30679152Y-91963725D01*
G01X30689062Y-91991642D01*
G01X30693194Y-92002847D01*
G01X30693225Y-92002930D01*
G01X30693225Y-92002930D01*
G01X30727821Y-92089317D01*
G01X30761871Y-92165737D01*
G01X30794457Y-92232166D01*
G01X30824659Y-92288582D01*
G01X30851561Y-92334960D01*
G01X30874244Y-92371279D01*
G01X30891789Y-92397513D01*
G01X30903277Y-92413640D01*
G01X30907792Y-92419636D01*
G01X30907825Y-92419678D01*
G01X30907825Y-92419678D01*
G01X30956508Y-92474206D01*
G01X30970813Y-92485596D01*
G01X30970813Y-92485596D01*
G01X31027086Y-92501581D01*
G01X31030872Y-92501709D01*
G01X31030872Y-92501709D01*
G01X31079944Y-92498780D01*
G01X31079944Y-92498780D01*
G01X31094491Y-92432091D01*
G01X31111498Y-92363657D01*
G01X31130166Y-92295151D01*
G01X31149698Y-92228245D01*
G01X31169297Y-92164610D01*
G01X31188163Y-92105920D01*
G01X31205501Y-92053846D01*
G01X31220512Y-92010061D01*
G01X31232398Y-91976237D01*
G01X31240362Y-91954047D01*
G01X31243606Y-91945162D01*
G01X31243640Y-91945069D01*
G01X31243640Y-91945069D01*
G01X31283616Y-91842541D01*
G01X31320159Y-91758541D01*
G01X31352779Y-91691476D01*
G01X31380988Y-91639749D01*
G01X31404295Y-91601768D01*
G01X31422211Y-91575937D01*
G01X31434245Y-91560661D01*
G01X31439908Y-91554345D01*
G01X31440295Y-91553956D01*
G37*

G04 Pad flashes *
%LPD*%
D11*

G04 end of program *
M02*
