M48
METRIC,TZ
G90
M71
T1C0.5
M95
T1
X47.172220Y-106.260663
X28.956109Y-51.511501
X48.900925Y-108.509938
X44.427618Y-31.745478
X56.170792Y-45.978600
X51.148838Y-25.933816
X40.275121Y-86.603167
X36.004624Y-24.054758
X34.955667Y-25.841601
X40.796336Y-27.314744
X30.065805Y-31.779731
X14.389059Y-50.656477
X59.128579Y-43.268166
X15.091749Y-46.642144
X32.567916Y-22.342252
X32.439798Y-53.726543
X15.480940Y-24.013430
X54.771353Y-44.712433
X49.894942Y-21.836187
X19.790054Y-24.195611
X44.325618Y-55.364051
X28.679966Y-53.561850
X35.563030Y-114.864168
X16.973969Y-46.679833
X52.627081Y-24.633435
X43.696353Y-111.250538
X26.329215Y-26.954781
X19.353041Y-26.285362
X41.498341Y-53.134811
X42.907441Y-51.710056
X36.970619Y-114.503890
M30
