G04                                                      *
G04 Greetings!                                           *
G04 This Gerber was generated by PCBmodE, an open source *
G04 PCB design software. Get it here:                    *
G04                                                      *
G04   http://pcbmode.com                                 *
G04                                                      *
G04 Also visit                                           *
G04                                                      *
G04   http://boldport.com                                *
G04                                                      *
G04 and follow @boldport / @pcbmode for updates!         *
G04                                                      *

G04 leading zeros omitted (L); absolute data (A); 6 integer digits and 6 fractional digits *
%FSLAX66Y66*%

G04 mode (MO): millimeters (MM) *
%MOMM*%

G04 Aperture definitions *
%ADD10C,0.001X*%
%ADD11C,0.001X*%
%ADD20C,1.00X*%
%ADD21C,4.00X*%

%LPD*%
D20*
G01X49359646Y-88055410D02*
G01X49359646Y-88055410D01*
G01X49384369Y-87988363D01*
G01X49409230Y-87922013D01*
G01X49434228Y-87856346D01*
G01X49459360Y-87791347D01*
G01X49484626Y-87727004D01*
G01X49510023Y-87663303D01*
G01X49535548Y-87600230D01*
G01X49561201Y-87537772D01*
G01X49586979Y-87475914D01*
G01X49612880Y-87414644D01*
G01X49638903Y-87353947D01*
G01X49665045Y-87293810D01*
G01X49691304Y-87234219D01*
G01X49717679Y-87175161D01*
G01X49744168Y-87116621D01*
G01X49770769Y-87058587D01*
G01X49797479Y-87001044D01*
G01X49824298Y-86943979D01*
G01X49851222Y-86887379D01*
G01X49878250Y-86831228D01*
G01X49905381Y-86775515D01*
G01X49932612Y-86720225D01*
G01X49959941Y-86665345D01*
G01X49987366Y-86610860D01*
G01X50014887Y-86556758D01*
G01X50042499Y-86503024D01*
G01X50070202Y-86449645D01*
G01X50097994Y-86396608D01*
G01X50125873Y-86343898D01*
G01X50153837Y-86291502D01*
G01X50181884Y-86239406D01*
G01X50210011Y-86187597D01*
G01X50238218Y-86136061D01*
G01X50266502Y-86084784D01*
G01X50294861Y-86033753D01*
G01X50323294Y-85982954D01*
G01X50351798Y-85932373D01*
G01X50380372Y-85881997D01*
G01X50409013Y-85831811D01*
G01X50437720Y-85781803D01*
G01X50466491Y-85731959D01*
G01X50495324Y-85682265D01*
G01X50524216Y-85632707D01*
G01X50553167Y-85583272D01*
G01X50582173Y-85533945D01*
G01X50611234Y-85484714D01*
G01X50640347Y-85435565D01*
G01X50669511Y-85386484D01*
G01X50698722Y-85337457D01*
G01X50727981Y-85288471D01*
G01X50757284Y-85239512D01*
G01X50786629Y-85190567D01*
G01X50816015Y-85141621D01*
G01X50845441Y-85092661D01*
G01X50874903Y-85043673D01*
G01X50904399Y-84994645D01*
G01X50933929Y-84945561D01*
G01X50963491Y-84896409D01*
G01X50993081Y-84847174D01*
G01X51022699Y-84797844D01*
G01X51052342Y-84748404D01*
G01X51082008Y-84698841D01*
G01X51111696Y-84649141D01*
G01X51141404Y-84599291D01*
G01X51171129Y-84549276D01*
G01X51200870Y-84499083D01*
G01X51230625Y-84448699D01*
G01X51260392Y-84398110D01*
G01X51290169Y-84347302D01*
G01X51319954Y-84296261D01*
G01X51349746Y-84244974D01*
G01X51379541Y-84193427D01*
G01X51409339Y-84141607D01*
G01X51439137Y-84089500D01*
G01X51468934Y-84037091D01*
G01X51498727Y-83984369D01*
G01X51528515Y-83931318D01*
G01X51558296Y-83877925D01*
G01X51588068Y-83824177D01*
G01X51617828Y-83770060D01*
G01X51647576Y-83715560D01*
G01X51677308Y-83660663D01*
G01X51707024Y-83605357D01*
G01X51736721Y-83549626D01*
G01X51766397Y-83493459D01*
G01X51796051Y-83436840D01*
G01X51825680Y-83379756D01*
G01X51855283Y-83322194D01*
G01X51884857Y-83264140D01*
G01X51914401Y-83205580D01*
G01X51943912Y-83146501D01*
G01X51973390Y-83086888D01*
G01X52002832Y-83026729D01*
G01X52032235Y-82966010D01*
G01X52061599Y-82904716D01*
G01X52090921Y-82842835D01*
G01X52120199Y-82780353D01*
G01X52149432Y-82717255D01*
G01X52178617Y-82653529D01*
G01X52207752Y-82589160D01*
G01X52207752Y-82589160D01*
G01X52207752Y-82589160D01*
G01X52242158Y-82460241D01*
G01X52275712Y-82331117D01*
G01X52308437Y-82201792D01*
G01X52340356Y-82072274D01*
G01X52371491Y-81942566D01*
G01X52401866Y-81812676D01*
G01X52431504Y-81682608D01*
G01X52460427Y-81552369D01*
G01X52488660Y-81421964D01*
G01X52516225Y-81291399D01*
G01X52543144Y-81160679D01*
G01X52569442Y-81029811D01*
G01X52595141Y-80898799D01*
G01X52620264Y-80767650D01*
G01X52644835Y-80636369D01*
G01X52668875Y-80504963D01*
G01X52692409Y-80373436D01*
G01X52715459Y-80241794D01*
G01X52738049Y-80110043D01*
G01X52760201Y-79978189D01*
G01X52781938Y-79846238D01*
G01X52803284Y-79714195D01*
G01X52824262Y-79582065D01*
G01X52844894Y-79449855D01*
G01X52865203Y-79317570D01*
G01X52885214Y-79185216D01*
G01X52904948Y-79052799D01*
G01X52924429Y-78920324D01*
G01X52943680Y-78787797D01*
G01X52962723Y-78655224D01*
G01X52981583Y-78522610D01*
G01X53000281Y-78389961D01*
G01X53018841Y-78257282D01*
G01X53037287Y-78124581D01*
G01X53055640Y-77991861D01*
G01X53073925Y-77859129D01*
G01X53092164Y-77726391D01*
G01X53110380Y-77593651D01*
G01X53128596Y-77460917D01*
G01X53146835Y-77328193D01*
G01X53165121Y-77195486D01*
G01X53183477Y-77062800D01*
G01X53201924Y-76930142D01*
G01X53220487Y-76797518D01*
G01X53239189Y-76664933D01*
G01X53258052Y-76532392D01*
G01X53277100Y-76399901D01*
G01X53296355Y-76267467D01*
G01X53315841Y-76135095D01*
G01X53335581Y-76002790D01*
G01X53355598Y-75870558D01*
G01X53375914Y-75738405D01*
G01X53396553Y-75606337D01*
G01X53417538Y-75474359D01*
G01X53438892Y-75342477D01*
G01X53460638Y-75210697D01*
G01X53482799Y-75079024D01*
G01X53505398Y-74947464D01*
G01X53528459Y-74816022D01*
G01X53552003Y-74684706D01*
G01X53576055Y-74553519D01*
G01X53600637Y-74422468D01*
G01X53625772Y-74291558D01*
G01X53651483Y-74160796D01*
G01X53677794Y-74030186D01*
G01X53704727Y-73899736D01*
G01X53732306Y-73769449D01*
G01X53760553Y-73639332D01*
G01X53789492Y-73509391D01*
G01X53819145Y-73379632D01*
G01X53849536Y-73250059D01*
G01X53880688Y-73120679D01*
G01X53912623Y-72991497D01*
G01X53945365Y-72862520D01*
G01X53978937Y-72733752D01*
G01X54013362Y-72605200D01*
G01X54048663Y-72476869D01*
G01X54084862Y-72348765D01*
G01X54121984Y-72220893D01*
G01X54160050Y-72093260D01*
G01X54199085Y-71965870D01*
G01X54239111Y-71838731D01*
G01X54280151Y-71711846D01*
G01X54322228Y-71585223D01*
G01X54365365Y-71458866D01*
G01X54409586Y-71332782D01*
G01X54454913Y-71206975D01*
G01X54501369Y-71081453D01*
G01X54548978Y-70956220D01*
G01X54597762Y-70831282D01*
G01X54647745Y-70706645D01*
G01X54698949Y-70582315D01*
G01X54751398Y-70458296D01*
G01X54805114Y-70334596D01*
G01X54860122Y-70211220D01*
G01X54916443Y-70088172D01*
G01X54974100Y-69965460D01*
G01X55033118Y-69843088D01*
G01X55093518Y-69721063D01*
G01X55155324Y-69599390D01*
G01X55155324Y-69599390D01*
G01X55155324Y-69599390D01*
G01X55252186Y-69380118D01*
G01X55349783Y-69161222D01*
G01X55448101Y-68942695D01*
G01X55547128Y-68724531D01*
G01X55646851Y-68506723D01*
G01X55747256Y-68289265D01*
G01X55848332Y-68072151D01*
G01X55950064Y-67855372D01*
G01X56052441Y-67638924D01*
G01X56155448Y-67422798D01*
G01X56259074Y-67206990D01*
G01X56363305Y-66991492D01*
G01X56468128Y-66776297D01*
G01X56573531Y-66561399D01*
G01X56679500Y-66346792D01*
G01X56786023Y-66132469D01*
G01X56893087Y-65918423D01*
G01X57000679Y-65704647D01*
G01X57108785Y-65491136D01*
G01X57217394Y-65277882D01*
G01X57326491Y-65064879D01*
G01X57436065Y-64852120D01*
G01X57546102Y-64639600D01*
G01X57656589Y-64427310D01*
G01X57767513Y-64215245D01*
G01X57878862Y-64003398D01*
G01X57990623Y-63791763D01*
G01X58102782Y-63580332D01*
G01X58215327Y-63369100D01*
G01X58328245Y-63158059D01*
G01X58441522Y-62947203D01*
G01X58555147Y-62736526D01*
G01X58669105Y-62526021D01*
G01X58783385Y-62315682D01*
G01X58897973Y-62105501D01*
G01X59012856Y-61895472D01*
G01X59128022Y-61685589D01*
G01X59243457Y-61475845D01*
G01X59359149Y-61266234D01*
G01X59475084Y-61056748D01*
G01X59591250Y-60847382D01*
G01X59707634Y-60638128D01*
G01X59824223Y-60428981D01*
G01X59941004Y-60219933D01*
G01X60057964Y-60010978D01*
G01X60175090Y-59802109D01*
G01X60292369Y-59593321D01*
G01X60409788Y-59384605D01*
G01X60527335Y-59175956D01*
G01X60644996Y-58967368D01*
G01X60762759Y-58758832D01*
G01X60880611Y-58550344D01*
G01X60998538Y-58341896D01*
G01X61116528Y-58133482D01*
G01X61234568Y-57925095D01*
G01X61352645Y-57716728D01*
G01X61470746Y-57508375D01*
G01X61588858Y-57300030D01*
G01X61706969Y-57091686D01*
G01X61825064Y-56883336D01*
G01X61943132Y-56674974D01*
G01X62061160Y-56466592D01*
G01X62179134Y-56258186D01*
G01X62297042Y-56049747D01*
G01X62414870Y-55841270D01*
G01X62532607Y-55632747D01*
G01X62650238Y-55424172D01*
G01X62767751Y-55215539D01*
G01X62885133Y-55006842D01*
G01X63002372Y-54798072D01*
G01X63119454Y-54589225D01*
G01X63236365Y-54380292D01*
G01X63353095Y-54171269D01*
G01X63469629Y-53962147D01*
G01X63585954Y-53752921D01*
G01X63702058Y-53543584D01*
G01X63817928Y-53334130D01*
G01X63933550Y-53124551D01*
G01X64048913Y-52914841D01*
G01X64164002Y-52704994D01*
G01X64278806Y-52495003D01*
G01X64393311Y-52284862D01*
G01X64507504Y-52074563D01*
G01X64621372Y-51864101D01*
G01X64734902Y-51653468D01*
G01X64848083Y-51442659D01*
G01X64960899Y-51231666D01*
G01X65073340Y-51020483D01*
G01X65185391Y-50809103D01*
G01X65297040Y-50597521D01*
G01X65408273Y-50385728D01*
G01X65519079Y-50173719D01*
G01X65629444Y-49961487D01*
G01X65739355Y-49749026D01*
G01X65848799Y-49536329D01*
G01X65957764Y-49323389D01*
G01X66066236Y-49110199D01*
G01X66174202Y-48896754D01*
G01X66281650Y-48683047D01*
G01X66388567Y-48469070D01*
G01X66388567Y-48469070D01*
G01X66388567Y-48469070D01*
G01X66532494Y-48146695D01*
G01X66672545Y-47822834D01*
G01X66808724Y-47497526D01*
G01X66941037Y-47170810D01*
G01X67069487Y-46842726D01*
G01X67194080Y-46513314D01*
G01X67314821Y-46182612D01*
G01X67431715Y-45850659D01*
G01X67544765Y-45517496D01*
G01X67653978Y-45183161D01*
G01X67759357Y-44847694D01*
G01X67860908Y-44511134D01*
G01X67958635Y-44173521D01*
G01X68052544Y-43834893D01*
G01X68142638Y-43495290D01*
G01X68228924Y-43154752D01*
G01X68311405Y-42813317D01*
G01X68390086Y-42471025D01*
G01X68464972Y-42127916D01*
G01X68536069Y-41784028D01*
G01X68603380Y-41439402D01*
G01X68666911Y-41094075D01*
G01X68726666Y-40748089D01*
G01X68782650Y-40401481D01*
G01X68834868Y-40054291D01*
G01X68883325Y-39706559D01*
G01X68928026Y-39358325D01*
G01X68968975Y-39009626D01*
G01X69006177Y-38660503D01*
G01X69039637Y-38310994D01*
G01X69069359Y-37961140D01*
G01X69095349Y-37610980D01*
G01X69117612Y-37260552D01*
G01X69136151Y-36909897D01*
G01X69150973Y-36559053D01*
G01X69162081Y-36208060D01*
G01X69169481Y-35856957D01*
G01X69173177Y-35505783D01*
G01X69173174Y-35154578D01*
G01X69169477Y-34803382D01*
G01X69162091Y-34452233D01*
G01X69151020Y-34101170D01*
G01X69136269Y-33750234D01*
G01X69117844Y-33399463D01*
G01X69095748Y-33048897D01*
G01X69069987Y-32698575D01*
G01X69040566Y-32348536D01*
G01X69007488Y-31998820D01*
G01X68970760Y-31649466D01*
G01X68930386Y-31300514D01*
G01X68886370Y-30952002D01*
G01X68838718Y-30603970D01*
G01X68787434Y-30256457D01*
G01X68732523Y-29909503D01*
G01X68673990Y-29563147D01*
G01X68611839Y-29217429D01*
G01X68546076Y-28872386D01*
G01X68476705Y-28528060D01*
G01X68403731Y-28184489D01*
G01X68327159Y-27841713D01*
G01X68246994Y-27499771D01*
G01X68163240Y-27158701D01*
G01X68075902Y-26818545D01*
G01X67984985Y-26479340D01*
G01X67890494Y-26141126D01*
G01X67792433Y-25803943D01*
G01X67690808Y-25467830D01*
G01X67585623Y-25132826D01*
G01X67476883Y-24798970D01*
G01X67364593Y-24466302D01*
G01X67248757Y-24134862D01*
G01X67129381Y-23804687D01*
G01X67006469Y-23475819D01*
G01X66880026Y-23148296D01*
G01X66750056Y-22822157D01*
G01X66616565Y-22497442D01*
G01X66479558Y-22174189D01*
G01X66339038Y-21852440D01*
G01X66195012Y-21532232D01*
G01X66047483Y-21213605D01*
G01X65896457Y-20896598D01*
G01X65741938Y-20581251D01*
G01X65583931Y-20267603D01*
G01X65422441Y-19955694D01*
G01X65257473Y-19645562D01*
G01X65089032Y-19337247D01*
G01X64917121Y-19030788D01*
G01X64741747Y-18726225D01*
G01X64562914Y-18423597D01*
G01X64380626Y-18122943D01*
G01X64194889Y-17824303D01*
G01X64005707Y-17527715D01*
G01X63813085Y-17233220D01*
G01X63617028Y-16940857D01*
G01X63417541Y-16650664D01*
G01X63214628Y-16362681D01*
G01X63008294Y-16076949D01*
G01X62798545Y-15793504D01*
G01X62585384Y-15512388D01*
G01X62368817Y-15233640D01*
G01X62368817Y-15233640D01*
G01X62368817Y-15233640D01*
G01X62177929Y-14986346D01*
G01X61984823Y-14741073D01*
G01X61789521Y-14497831D01*
G01X61592042Y-14256628D01*
G01X61392408Y-14017475D01*
G01X61190638Y-13780382D01*
G01X60986753Y-13545358D01*
G01X60780774Y-13312413D01*
G01X60572721Y-13081557D01*
G01X60362614Y-12852800D01*
G01X60150474Y-12626151D01*
G01X59936322Y-12401620D01*
G01X59720177Y-12179216D01*
G01X59502060Y-11958951D01*
G01X59281992Y-11740833D01*
G01X59059993Y-11524871D01*
G01X58836084Y-11311077D01*
G01X58610285Y-11099459D01*
G01X58382616Y-10890028D01*
G01X58153098Y-10682793D01*
G01X57921752Y-10477763D01*
G01X57688597Y-10274949D01*
G01X57453655Y-10074361D01*
G01X57216945Y-9876007D01*
G01X56978489Y-9679898D01*
G01X56738306Y-9486044D01*
G01X56496417Y-9294455D01*
G01X56252843Y-9105139D01*
G01X56007604Y-8918107D01*
G01X55760720Y-8733369D01*
G01X55512212Y-8550934D01*
G01X55262101Y-8370812D01*
G01X55010406Y-8193013D01*
G01X54757148Y-8017546D01*
G01X54502348Y-7844422D01*
G01X54246027Y-7673650D01*
G01X53988203Y-7505240D01*
G01X53728899Y-7339201D01*
G01X53468134Y-7175544D01*
G01X53205930Y-7014278D01*
G01X52942305Y-6855413D01*
G01X52677282Y-6698958D01*
G01X52410879Y-6544923D01*
G01X52143119Y-6393319D01*
G01X51874021Y-6244154D01*
G01X51603605Y-6097439D01*
G01X51331892Y-5953184D01*
G01X51058903Y-5811397D01*
G01X50784658Y-5672089D01*
G01X50509177Y-5535270D01*
G01X50232481Y-5400949D01*
G01X49954591Y-5269136D01*
G01X49675526Y-5139841D01*
G01X49395308Y-5013074D01*
G01X49113956Y-4888844D01*
G01X48831491Y-4767161D01*
G01X48547934Y-4648035D01*
G01X48263305Y-4531475D01*
G01X47977624Y-4417492D01*
G01X47690913Y-4306095D01*
G01X47403190Y-4197294D01*
G01X47114478Y-4091098D01*
G01X46824796Y-3987517D01*
G01X46534164Y-3886562D01*
G01X46242604Y-3788241D01*
G01X45950136Y-3692566D01*
G01X45656779Y-3599544D01*
G01X45362555Y-3509186D01*
G01X45067484Y-3421503D01*
G01X44771587Y-3336502D01*
G01X44474883Y-3254196D01*
G01X44177394Y-3174592D01*
G01X43879139Y-3097701D01*
G01X43580140Y-3023533D01*
G01X43280416Y-2952097D01*
G01X42979989Y-2883403D01*
G01X42678878Y-2817460D01*
G01X42377104Y-2754280D01*
G01X42074688Y-2693871D01*
G01X41771649Y-2636243D01*
G01X41468009Y-2581405D01*
G01X41163788Y-2529368D01*
G01X40859006Y-2480142D01*
G01X40553684Y-2433736D01*
G01X40247842Y-2390159D01*
G01X39941501Y-2349422D01*
G01X39634680Y-2311535D01*
G01X39327402Y-2276506D01*
G01X39019685Y-2244346D01*
G01X38711551Y-2215065D01*
G01X38403019Y-2188672D01*
G01X38094111Y-2165178D01*
G01X37784847Y-2144591D01*
G01X37475247Y-2126921D01*
G01X37165332Y-2112179D01*
G01X36855121Y-2100374D01*
G01X36544637Y-2091516D01*
G01X36233898Y-2085614D01*
G01X35922926Y-2082679D01*
G01X35611741Y-2082720D01*
G01X35611741Y-2082720D01*
G01X35611741Y-2082720D01*
G01X35241958Y-2080230D01*
G01X34872378Y-2082169D01*
G01X34503039Y-2088514D01*
G01X34133979Y-2099245D01*
G01X33765233Y-2114338D01*
G01X33396841Y-2133773D01*
G01X33028837Y-2157526D01*
G01X32661261Y-2185575D01*
G01X32294149Y-2217900D01*
G01X31927538Y-2254476D01*
G01X31561466Y-2295284D01*
G01X31195969Y-2340300D01*
G01X30831085Y-2389502D01*
G01X30466851Y-2442868D01*
G01X30103305Y-2500377D01*
G01X29740483Y-2562006D01*
G01X29378422Y-2627734D01*
G01X29017161Y-2697537D01*
G01X28656735Y-2771395D01*
G01X28297183Y-2849284D01*
G01X27938541Y-2931184D01*
G01X27580847Y-3017071D01*
G01X27224137Y-3106924D01*
G01X26868450Y-3200722D01*
G01X26513822Y-3298440D01*
G01X26160290Y-3400059D01*
G01X25807892Y-3505555D01*
G01X25456665Y-3614907D01*
G01X25106645Y-3728092D01*
G01X24757871Y-3845089D01*
G01X24410380Y-3965875D01*
G01X24064208Y-4090428D01*
G01X23719392Y-4218727D01*
G01X23375971Y-4350749D01*
G01X23033981Y-4486472D01*
G01X22693459Y-4625875D01*
G01X22354443Y-4768934D01*
G01X22016970Y-4915629D01*
G01X21681076Y-5065936D01*
G01X21346800Y-5219835D01*
G01X21014178Y-5377302D01*
G01X20683248Y-5538316D01*
G01X20354046Y-5702855D01*
G01X20026611Y-5870896D01*
G01X19700978Y-6042419D01*
G01X19377186Y-6217399D01*
G01X19055272Y-6395817D01*
G01X18735272Y-6577649D01*
G01X18417224Y-6762873D01*
G01X18101165Y-6951467D01*
G01X17787133Y-7143410D01*
G01X17475164Y-7338680D01*
G01X17165296Y-7537253D01*
G01X16857566Y-7739109D01*
G01X16552010Y-7944224D01*
G01X16248668Y-8152578D01*
G01X15947574Y-8364148D01*
G01X15648768Y-8578911D01*
G01X15352285Y-8796847D01*
G01X15058163Y-9017932D01*
G01X14766440Y-9242145D01*
G01X14477152Y-9469464D01*
G01X14190337Y-9699866D01*
G01X13906032Y-9933331D01*
G01X13624273Y-10169834D01*
G01X13345099Y-10409355D01*
G01X13068547Y-10651872D01*
G01X12794653Y-10897362D01*
G01X12523455Y-11145803D01*
G01X12254990Y-11397174D01*
G01X11989296Y-11651451D01*
G01X11726408Y-11908614D01*
G01X11466366Y-12168640D01*
G01X11209205Y-12431507D01*
G01X10954964Y-12697193D01*
G01X10703678Y-12965676D01*
G01X10455386Y-13236934D01*
G01X10210125Y-13510945D01*
G01X9967931Y-13787687D01*
G01X9728843Y-14067137D01*
G01X9492896Y-14349274D01*
G01X9260130Y-14634075D01*
G01X9030579Y-14921520D01*
G01X8804283Y-15211584D01*
G01X8581277Y-15504247D01*
G01X8361600Y-15799487D01*
G01X8145288Y-16097281D01*
G01X7932379Y-16397607D01*
G01X7722909Y-16700443D01*
G01X7516917Y-17005767D01*
G01X7314439Y-17313558D01*
G01X7115512Y-17623793D01*
G01X6920173Y-17936449D01*
G01X6728461Y-18251506D01*
G01X6540411Y-18568941D01*
G01X6356061Y-18888731D01*
G01X6175449Y-19210855D01*
G01X5998612Y-19535291D01*
G01X5825586Y-19862017D01*
G01X5656409Y-20191010D01*
G01X5656409Y-20191010D01*
G01X5656409Y-20191010D01*
G01X5497432Y-20495429D01*
G01X5342040Y-20801463D01*
G01X5190229Y-21109076D01*
G01X5041998Y-21418233D01*
G01X4897343Y-21728898D01*
G01X4756262Y-22041034D01*
G01X4618753Y-22354605D01*
G01X4484813Y-22669576D01*
G01X4354439Y-22985911D01*
G01X4227629Y-23303573D01*
G01X4104381Y-23622526D01*
G01X3984691Y-23942735D01*
G01X3868558Y-24264164D01*
G01X3755979Y-24586775D01*
G01X3646950Y-24910535D01*
G01X3541471Y-25235406D01*
G01X3439537Y-25561352D01*
G01X3341147Y-25888338D01*
G01X3246298Y-26216327D01*
G01X3154987Y-26545283D01*
G01X3067212Y-26875171D01*
G01X2982970Y-27205955D01*
G01X2902260Y-27537598D01*
G01X2825077Y-27870064D01*
G01X2751420Y-28203318D01*
G01X2681286Y-28537323D01*
G01X2614673Y-28872044D01*
G01X2551578Y-29207444D01*
G01X2491998Y-29543488D01*
G01X2435932Y-29880138D01*
G01X2383375Y-30217361D01*
G01X2334327Y-30555119D01*
G01X2288784Y-30893376D01*
G01X2246743Y-31232096D01*
G01X2208203Y-31571244D01*
G01X2173160Y-31910784D01*
G01X2141613Y-32250679D01*
G01X2113558Y-32590893D01*
G01X2088993Y-32931390D01*
G01X2067915Y-33272135D01*
G01X2050322Y-33613092D01*
G01X2036212Y-33954224D01*
G01X2025581Y-34295495D01*
G01X2018428Y-34636869D01*
G01X2014749Y-34978311D01*
G01X2014543Y-35319784D01*
G01X2017806Y-35661253D01*
G01X2024536Y-36002681D01*
G01X2034731Y-36344032D01*
G01X2048387Y-36685271D01*
G01X2065503Y-37026361D01*
G01X2086076Y-37367267D01*
G01X2110103Y-37707952D01*
G01X2137582Y-38048380D01*
G01X2168510Y-38388515D01*
G01X2202885Y-38728322D01*
G01X2240703Y-39067764D01*
G01X2281964Y-39406806D01*
G01X2326663Y-39745411D01*
G01X2374799Y-40083543D01*
G01X2426368Y-40421166D01*
G01X2481369Y-40758245D01*
G01X2539799Y-41094744D01*
G01X2601655Y-41430625D01*
G01X2666935Y-41765854D01*
G01X2735636Y-42100394D01*
G01X2807756Y-42434209D01*
G01X2883291Y-42767264D01*
G01X2962240Y-43099522D01*
G01X3044601Y-43430948D01*
G01X3130369Y-43761504D01*
G01X3219543Y-44091156D01*
G01X3312121Y-44419868D01*
G01X3408099Y-44747602D01*
G01X3507476Y-45074324D01*
G01X3610248Y-45399997D01*
G01X3716414Y-45724585D01*
G01X3825970Y-46048053D01*
G01X3938914Y-46370364D01*
G01X4055243Y-46691482D01*
G01X4174955Y-47011372D01*
G01X4298048Y-47329997D01*
G01X4424519Y-47647321D01*
G01X4554364Y-47963308D01*
G01X4687583Y-48277923D01*
G01X4824172Y-48591128D01*
G01X4964128Y-48902889D01*
G01X5107449Y-49213170D01*
G01X5254133Y-49521933D01*
G01X5404177Y-49829144D01*
G01X5557578Y-50134766D01*
G01X5714334Y-50438763D01*
G01X5874443Y-50741100D01*
G01X6037901Y-51041740D01*
G01X6204707Y-51340647D01*
G01X6374857Y-51637785D01*
G01X6548349Y-51933118D01*
G01X6725181Y-52226611D01*
G01X6905350Y-52518227D01*
G01X7088853Y-52807930D01*
G01X7088853Y-52807930D01*
G01X7088853Y-52807930D01*
G01X7195755Y-53007354D01*
G01X7303060Y-53206620D01*
G01X7410754Y-53405737D01*
G01X7518822Y-53604710D01*
G01X7627247Y-53803545D01*
G01X7736014Y-54002250D01*
G01X7845109Y-54200831D01*
G01X7954515Y-54399295D01*
G01X8064217Y-54597648D01*
G01X8174200Y-54795896D01*
G01X8284448Y-54994047D01*
G01X8394947Y-55192107D01*
G01X8505680Y-55390082D01*
G01X8616632Y-55587979D01*
G01X8727788Y-55785804D01*
G01X8839133Y-55983565D01*
G01X8950650Y-56181267D01*
G01X9062325Y-56378918D01*
G01X9174143Y-56576524D01*
G01X9286087Y-56774090D01*
G01X9398143Y-56971625D01*
G01X9510294Y-57169135D01*
G01X9622527Y-57366625D01*
G01X9734824Y-57564103D01*
G01X9847172Y-57761576D01*
G01X9959554Y-57959049D01*
G01X10071955Y-58156530D01*
G01X10184360Y-58354024D01*
G01X10296753Y-58551539D01*
G01X10409119Y-58749081D01*
G01X10521442Y-58946657D01*
G01X10633708Y-59144273D01*
G01X10745900Y-59341936D01*
G01X10858004Y-59539652D01*
G01X10970003Y-59737428D01*
G01X11081883Y-59935271D01*
G01X11193628Y-60133187D01*
G01X11305223Y-60331182D01*
G01X11416652Y-60529264D01*
G01X11527901Y-60727438D01*
G01X11638952Y-60925711D01*
G01X11749792Y-61124091D01*
G01X11860405Y-61322583D01*
G01X11970775Y-61521194D01*
G01X12080887Y-61719931D01*
G01X12190725Y-61918800D01*
G01X12300275Y-62117808D01*
G01X12409521Y-62316961D01*
G01X12518447Y-62516265D01*
G01X12627038Y-62715729D01*
G01X12735278Y-62915357D01*
G01X12843153Y-63115157D01*
G01X12950646Y-63315135D01*
G01X13057743Y-63515298D01*
G01X13164428Y-63715652D01*
G01X13270686Y-63916204D01*
G01X13376500Y-64116961D01*
G01X13481857Y-64317929D01*
G01X13586740Y-64519114D01*
G01X13691134Y-64720523D01*
G01X13795024Y-64922163D01*
G01X13898394Y-65124040D01*
G01X14001229Y-65326161D01*
G01X14103513Y-65528533D01*
G01X14205232Y-65731162D01*
G01X14306369Y-65934054D01*
G01X14406909Y-66137216D01*
G01X14506837Y-66340655D01*
G01X14606138Y-66544377D01*
G01X14704796Y-66748389D01*
G01X14802795Y-66952698D01*
G01X14900121Y-67157309D01*
G01X14996758Y-67362230D01*
G01X15092690Y-67567468D01*
G01X15187902Y-67773027D01*
G01X15282379Y-67978916D01*
G01X15376106Y-68185141D01*
G01X15469066Y-68391709D01*
G01X15561245Y-68598625D01*
G01X15652627Y-68805897D01*
G01X15743197Y-69013531D01*
G01X15832939Y-69221533D01*
G01X15921838Y-69429911D01*
G01X16009879Y-69638671D01*
G01X16097045Y-69847819D01*
G01X16183323Y-70057361D01*
G01X16268696Y-70267306D01*
G01X16353149Y-70477658D01*
G01X16436666Y-70688426D01*
G01X16519233Y-70899614D01*
G01X16600834Y-71111230D01*
G01X16681453Y-71323281D01*
G01X16761075Y-71535772D01*
G01X16839684Y-71748711D01*
G01X16917266Y-71962104D01*
G01X16993804Y-72175958D01*
G01X17069284Y-72390279D01*
G01X17143690Y-72605073D01*
G01X17217007Y-72820348D01*
G01X17289219Y-73036110D01*
G01X17289219Y-73036110D01*
G01X17289219Y-73036110D01*
G01X17319825Y-73143757D01*
G01X17349547Y-73251647D01*
G01X17378408Y-73359772D01*
G01X17406431Y-73468128D01*
G01X17433638Y-73576707D01*
G01X17460051Y-73685503D01*
G01X17485695Y-73794510D01*
G01X17510590Y-73903721D01*
G01X17534760Y-74013130D01*
G01X17558227Y-74122730D01*
G01X17581013Y-74232516D01*
G01X17603142Y-74342480D01*
G01X17624637Y-74452617D01*
G01X17645518Y-74562920D01*
G01X17665810Y-74673383D01*
G01X17685534Y-74783999D01*
G01X17704714Y-74894762D01*
G01X17723372Y-75005665D01*
G01X17741530Y-75116703D01*
G01X17759212Y-75227868D01*
G01X17776439Y-75339155D01*
G01X17793234Y-75450557D01*
G01X17809621Y-75562067D01*
G01X17825621Y-75673680D01*
G01X17841257Y-75785389D01*
G01X17856551Y-75897187D01*
G01X17871527Y-76009068D01*
G01X17886207Y-76121027D01*
G01X17900613Y-76233055D01*
G01X17914768Y-76345148D01*
G01X17928695Y-76457298D01*
G01X17942416Y-76569500D01*
G01X17955954Y-76681746D01*
G01X17969331Y-76794031D01*
G01X17982571Y-76906349D01*
G01X17995695Y-77018692D01*
G01X18008726Y-77131054D01*
G01X18021687Y-77243430D01*
G01X18034600Y-77355812D01*
G01X18047488Y-77468194D01*
G01X18060374Y-77580570D01*
G01X18073280Y-77692934D01*
G01X18086229Y-77805279D01*
G01X18099243Y-77917599D01*
G01X18112346Y-78029887D01*
G01X18125558Y-78142138D01*
G01X18138904Y-78254343D01*
G01X18152406Y-78366499D01*
G01X18166085Y-78478597D01*
G01X18179966Y-78590631D01*
G01X18194070Y-78702596D01*
G01X18208421Y-78814485D01*
G01X18223040Y-78926290D01*
G01X18237950Y-79038007D01*
G01X18253174Y-79149629D01*
G01X18268735Y-79261149D01*
G01X18284655Y-79372561D01*
G01X18300956Y-79483858D01*
G01X18317662Y-79595034D01*
G01X18334794Y-79706083D01*
G01X18352376Y-79816999D01*
G01X18370430Y-79927775D01*
G01X18388979Y-80038404D01*
G01X18408045Y-80148880D01*
G01X18427650Y-80259198D01*
G01X18447818Y-80369350D01*
G01X18468571Y-80479330D01*
G01X18489932Y-80589132D01*
G01X18511923Y-80698749D01*
G01X18534566Y-80808175D01*
G01X18557885Y-80917404D01*
G01X18581902Y-81026429D01*
G01X18606639Y-81135244D01*
G01X18632120Y-81243843D01*
G01X18658366Y-81352218D01*
G01X18685401Y-81460365D01*
G01X18713247Y-81568276D01*
G01X18741926Y-81675944D01*
G01X18771461Y-81783365D01*
G01X18801875Y-81890530D01*
G01X18833190Y-81997435D01*
G01X18865429Y-82104072D01*
G01X18898615Y-82210435D01*
G01X18932770Y-82316518D01*
G01X18967916Y-82422315D01*
G01X19004077Y-82527818D01*
G01X19041274Y-82633022D01*
G01X19079531Y-82737920D01*
G01X19118870Y-82842506D01*
G01X19159314Y-82946774D01*
G01X19200885Y-83050717D01*
G01X19243605Y-83154328D01*
G01X19287499Y-83257602D01*
G01X19332587Y-83360532D01*
G01X19378892Y-83463111D01*
G01X19426438Y-83565334D01*
G01X19475247Y-83667194D01*
G01X19525341Y-83768684D01*
G01X19576743Y-83869798D01*
G01X19629476Y-83970530D01*
G01X19629476Y-83970530D01*
G01X19629476Y-83970530D01*
G01X19660886Y-84016991D01*
G01X19692162Y-84063536D01*
G01X19723304Y-84110166D01*
G01X19754313Y-84156879D01*
G01X19785190Y-84203675D01*
G01X19815936Y-84250553D01*
G01X19846552Y-84297512D01*
G01X19877038Y-84344552D01*
G01X19907397Y-84391672D01*
G01X19937627Y-84438871D01*
G01X19967731Y-84486148D01*
G01X19997709Y-84533503D01*
G01X20027562Y-84580935D01*
G01X20057291Y-84628443D01*
G01X20086896Y-84676027D01*
G01X20116379Y-84723686D01*
G01X20145741Y-84771418D01*
G01X20174982Y-84819224D01*
G01X20204103Y-84867103D01*
G01X20233105Y-84915054D01*
G01X20261989Y-84963075D01*
G01X20290756Y-85011167D01*
G01X20319407Y-85059329D01*
G01X20347942Y-85107560D01*
G01X20376363Y-85155859D01*
G01X20404669Y-85204226D01*
G01X20432863Y-85252659D01*
G01X20460945Y-85301158D01*
G01X20488916Y-85349723D01*
G01X20516777Y-85398353D01*
G01X20544528Y-85447046D01*
G01X20572170Y-85495803D01*
G01X20599705Y-85544622D01*
G01X20627133Y-85593503D01*
G01X20654456Y-85642444D01*
G01X20681673Y-85691446D01*
G01X20708786Y-85740508D01*
G01X20735795Y-85789628D01*
G01X20762703Y-85838807D01*
G01X20789508Y-85888043D01*
G01X20816213Y-85937336D01*
G01X20842818Y-85986684D01*
G01X20869324Y-86036088D01*
G01X20895732Y-86085546D01*
G01X20922042Y-86135058D01*
G01X20948256Y-86184623D01*
G01X20974375Y-86234240D01*
G01X21000399Y-86283909D01*
G01X21026329Y-86333629D01*
G01X21052166Y-86383399D01*
G01X21077912Y-86433218D01*
G01X21103565Y-86483086D01*
G01X21129129Y-86533002D01*
G01X21154603Y-86582965D01*
G01X21179989Y-86632975D01*
G01X21205287Y-86683030D01*
G01X21230498Y-86733130D01*
G01X21255622Y-86783275D01*
G01X21280662Y-86833463D01*
G01X21305618Y-86883695D01*
G01X21330490Y-86933968D01*
G01X21355280Y-86984283D01*
G01X21379987Y-87034638D01*
G01X21404615Y-87085034D01*
G01X21429162Y-87135468D01*
G01X21453630Y-87185942D01*
G01X21478020Y-87236453D01*
G01X21502332Y-87287001D01*
G01X21526568Y-87337585D01*
G01X21550729Y-87388205D01*
G01X21574815Y-87438860D01*
G01X21598827Y-87489549D01*
G01X21622766Y-87540272D01*
G01X21646632Y-87591027D01*
G01X21670428Y-87641814D01*
G01X21694153Y-87692633D01*
G01X21717808Y-87743482D01*
G01X21741395Y-87794361D01*
G01X21764914Y-87845269D01*
G01X21788367Y-87896205D01*
G01X21811753Y-87947169D01*
G01X21835073Y-87998160D01*
G01X21858330Y-88049177D01*
G01X21881523Y-88100219D01*
G01X21904653Y-88151286D01*
G01X21927722Y-88202378D01*
G01X21950730Y-88253492D01*
G01X21973678Y-88304629D01*
G01X21996567Y-88355788D01*
G01X22019397Y-88406968D01*
G01X22042170Y-88458169D01*
G01X22064887Y-88509389D01*
G01X22087547Y-88560628D01*
G01X22110153Y-88611885D01*
G01X22132705Y-88663160D01*
G01X22155204Y-88714451D01*
G01X22177651Y-88765759D01*
G01X22200047Y-88817081D01*
G01X22222392Y-88868419D01*
G01X22244687Y-88919770D01*
G01X22244687Y-88919770D01*
D21*
G01X22751155Y-101089385D02*
G01X48436566Y-96910615D01*
D21*
G01X22751155Y-107089385D02*
G01X48436566Y-102910615D01*
D21*
G01X22751155Y-95089385D02*
G01X48436566Y-90910615D01*
G36*
G01X8687321Y-25833588D02*
G01X8687321Y-25833588D01*
G01X8623037Y-26008034D01*
G01X8559746Y-26184034D01*
G01X8497434Y-26361519D01*
G01X8436088Y-26540421D01*
G01X8375697Y-26720669D01*
G01X8316245Y-26902194D01*
G01X8257722Y-27084927D01*
G01X8200114Y-27268798D01*
G01X8143407Y-27453739D01*
G01X8087590Y-27639679D01*
G01X8032648Y-27826550D01*
G01X7978570Y-28014283D01*
G01X7925343Y-28202807D01*
G01X7872952Y-28392054D01*
G01X7821387Y-28581954D01*
G01X7770633Y-28772438D01*
G01X7720677Y-28963436D01*
G01X7671508Y-29154880D01*
G01X7623111Y-29346700D01*
G01X7575474Y-29538826D01*
G01X7528584Y-29731190D01*
G01X7482429Y-29923722D01*
G01X7436994Y-30116352D01*
G01X7392268Y-30309011D01*
G01X7348238Y-30501631D01*
G01X7304889Y-30694141D01*
G01X7262211Y-30886473D01*
G01X7220189Y-31078556D01*
G01X7178811Y-31270322D01*
G01X7138064Y-31461702D01*
G01X7097935Y-31652625D01*
G01X7058410Y-31843024D01*
G01X7019478Y-32032827D01*
G01X6981126Y-32221967D01*
G01X6943339Y-32410373D01*
G01X6906106Y-32597977D01*
G01X6869413Y-32784709D01*
G01X6833248Y-32970499D01*
G01X6797598Y-33155279D01*
G01X6762449Y-33338979D01*
G01X6727790Y-33521529D01*
G01X6693606Y-33702861D01*
G01X6659885Y-33882906D01*
G01X6626614Y-34061592D01*
G01X6593781Y-34238853D01*
G01X6561372Y-34414617D01*
G01X6529374Y-34588816D01*
G01X6497775Y-34761381D01*
G01X6466561Y-34932242D01*
G01X6435720Y-35101329D01*
G01X6405239Y-35268574D01*
G01X6375105Y-35433907D01*
G01X6345304Y-35597259D01*
G01X6315825Y-35758561D01*
G01X6286653Y-35917742D01*
G01X6257777Y-36074735D01*
G01X6229183Y-36229469D01*
G01X6200859Y-36381875D01*
G01X6172791Y-36531884D01*
G01X6144967Y-36679426D01*
G01X6117373Y-36824433D01*
G01X6089997Y-36966834D01*
G01X6062826Y-37106561D01*
G01X6035846Y-37243544D01*
G01X6009046Y-37377715D01*
G01X5982412Y-37509002D01*
G01X5955931Y-37637338D01*
G01X5929591Y-37762653D01*
G01X5903377Y-37884877D01*
G01X5877278Y-38003942D01*
G01X5851281Y-38119777D01*
G01X5825373Y-38232314D01*
G01X5799540Y-38341484D01*
G01X5773770Y-38447216D01*
G01X5748050Y-38549442D01*
G01X5722366Y-38648092D01*
G01X5696707Y-38743097D01*
G01X5671059Y-38834388D01*
G01X5645410Y-38921895D01*
G01X5619746Y-39005549D01*
G01X5594054Y-39085281D01*
G01X5568322Y-39161021D01*
G01X5542536Y-39232700D01*
G01X5516684Y-39300248D01*
G01X5490753Y-39363597D01*
G01X5464730Y-39422677D01*
G01X5438602Y-39477419D01*
G01X5412356Y-39527753D01*
G01X5385979Y-39573610D01*
G01X5359458Y-39614920D01*
G01X5332781Y-39651615D01*
G01X5305934Y-39683625D01*
G01X5278905Y-39710881D01*
G01X5251680Y-39733313D01*
G01X5224247Y-39750852D01*
G01X5196593Y-39763429D01*
G01X5168705Y-39770975D01*
G01X5140569Y-39773419D01*
G01X5112174Y-39770693D01*
G01X5083506Y-39762728D01*
G01X5083506Y-39762728D01*
G01X5083506Y-39762728D01*
G01X5054680Y-39750110D01*
G01X5025835Y-39733496D01*
G01X4996995Y-39712922D01*
G01X4968184Y-39688424D01*
G01X4939425Y-39660039D01*
G01X4910743Y-39627802D01*
G01X4882161Y-39591749D01*
G01X4853703Y-39551917D01*
G01X4825393Y-39508342D01*
G01X4797255Y-39461059D01*
G01X4769312Y-39410105D01*
G01X4741588Y-39355515D01*
G01X4714108Y-39297327D01*
G01X4686894Y-39235575D01*
G01X4659971Y-39170297D01*
G01X4633362Y-39101527D01*
G01X4607092Y-39029303D01*
G01X4581184Y-38953660D01*
G01X4555662Y-38874633D01*
G01X4530550Y-38792261D01*
G01X4505871Y-38706577D01*
G01X4481649Y-38617619D01*
G01X4457909Y-38525423D01*
G01X4434674Y-38430024D01*
G01X4411967Y-38331459D01*
G01X4389814Y-38229763D01*
G01X4368236Y-38124973D01*
G01X4347259Y-38017125D01*
G01X4326906Y-37906255D01*
G01X4307200Y-37792399D01*
G01X4288166Y-37675592D01*
G01X4269828Y-37555872D01*
G01X4252209Y-37433274D01*
G01X4235333Y-37307835D01*
G01X4219224Y-37179589D01*
G01X4203906Y-37048574D01*
G01X4189402Y-36914825D01*
G01X4175736Y-36778379D01*
G01X4162933Y-36639271D01*
G01X4151015Y-36497538D01*
G01X4140008Y-36353215D01*
G01X4129934Y-36206339D01*
G01X4120817Y-36056946D01*
G01X4112681Y-35905072D01*
G01X4105550Y-35750753D01*
G01X4099448Y-35594025D01*
G01X4094399Y-35434924D01*
G01X4090426Y-35273486D01*
G01X4087554Y-35109747D01*
G01X4085805Y-34943743D01*
G01X4085204Y-34775511D01*
G01X4085775Y-34605086D01*
G01X4087541Y-34432504D01*
G01X4090527Y-34257802D01*
G01X4094755Y-34081016D01*
G01X4100251Y-33902181D01*
G01X4107037Y-33721334D01*
G01X4115138Y-33538511D01*
G01X4124577Y-33353747D01*
G01X4135378Y-33167079D01*
G01X4147565Y-32978544D01*
G01X4161162Y-32788176D01*
G01X4176192Y-32596013D01*
G01X4192680Y-32402089D01*
G01X4210648Y-32206442D01*
G01X4230122Y-32009107D01*
G01X4251125Y-31810121D01*
G01X4273680Y-31609519D01*
G01X4297812Y-31407337D01*
G01X4323543Y-31203612D01*
G01X4350899Y-30998380D01*
G01X4379903Y-30791676D01*
G01X4410578Y-30583537D01*
G01X4442949Y-30373999D01*
G01X4477039Y-30163097D01*
G01X4512872Y-29950869D01*
G01X4550472Y-29737350D01*
G01X4589863Y-29522575D01*
G01X4631068Y-29306582D01*
G01X4674111Y-29089406D01*
G01X4719017Y-28871083D01*
G01X4765808Y-28651650D01*
G01X4814509Y-28431142D01*
G01X4865144Y-28209595D01*
G01X4917736Y-27987046D01*
G01X4972309Y-27763531D01*
G01X5028888Y-27539085D01*
G01X5087495Y-27313745D01*
G01X5148154Y-27087547D01*
G01X5210890Y-26860526D01*
G01X5275726Y-26632720D01*
G01X5342687Y-26404163D01*
G01X5411795Y-26174893D01*
G01X5483074Y-25944944D01*
G01X5556549Y-25714354D01*
G01X5632244Y-25483158D01*
G01X5710181Y-25251393D01*
G01X5790386Y-25019093D01*
G01X5872881Y-24786296D01*
G01X5957690Y-24553038D01*
G01X5957690Y-24553038D01*
G01X5957690Y-24553038D01*
G01X6044358Y-24320434D01*
G01X6132388Y-24089586D01*
G01X6221739Y-23860507D01*
G01X6312372Y-23633212D01*
G01X6404247Y-23407715D01*
G01X6497326Y-23184029D01*
G01X6591569Y-22962169D01*
G01X6686937Y-22742149D01*
G01X6783389Y-22523982D01*
G01X6880886Y-22307682D01*
G01X6979390Y-22093265D01*
G01X7078860Y-21880742D01*
G01X7179258Y-21670129D01*
G01X7280543Y-21461440D01*
G01X7382676Y-21254688D01*
G01X7485619Y-21049888D01*
G01X7589330Y-20847053D01*
G01X7693772Y-20646197D01*
G01X7798904Y-20447335D01*
G01X7904687Y-20250480D01*
G01X8011082Y-20055646D01*
G01X8118049Y-19862848D01*
G01X8225549Y-19672099D01*
G01X8333542Y-19483414D01*
G01X8441989Y-19296806D01*
G01X8550850Y-19112289D01*
G01X8660086Y-18929877D01*
G01X8769658Y-18749584D01*
G01X8879526Y-18571425D01*
G01X8989650Y-18395413D01*
G01X9099992Y-18221562D01*
G01X9210511Y-18049887D01*
G01X9321169Y-17880400D01*
G01X9431925Y-17713117D01*
G01X9542741Y-17548051D01*
G01X9653577Y-17385215D01*
G01X9764394Y-17224625D01*
G01X9875151Y-17066294D01*
G01X9985811Y-16910237D01*
G01X10096332Y-16756466D01*
G01X10206676Y-16604996D01*
G01X10316804Y-16455841D01*
G01X10426675Y-16309015D01*
G01X10536251Y-16164532D01*
G01X10645492Y-16022406D01*
G01X10754358Y-15882651D01*
G01X10862811Y-15745281D01*
G01X10970810Y-15610310D01*
G01X11078317Y-15477752D01*
G01X11185291Y-15347620D01*
G01X11291693Y-15219930D01*
G01X11397485Y-15094694D01*
G01X11502626Y-14971927D01*
G01X11607077Y-14851643D01*
G01X11710798Y-14733856D01*
G01X11813751Y-14618579D01*
G01X11915895Y-14505828D01*
G01X12017192Y-14395615D01*
G01X12117601Y-14287954D01*
G01X12217084Y-14182861D01*
G01X12315600Y-14080348D01*
G01X12413111Y-13980430D01*
G01X12509577Y-13883120D01*
G01X12604959Y-13788433D01*
G01X12699217Y-13696383D01*
G01X12792312Y-13606983D01*
G01X12884203Y-13520248D01*
G01X12974853Y-13436191D01*
G01X13064221Y-13354827D01*
G01X13152268Y-13276169D01*
G01X13238954Y-13200232D01*
G01X13324241Y-13127030D01*
G01X13408088Y-13056576D01*
G01X13490456Y-12988884D01*
G01X13571306Y-12923969D01*
G01X13650598Y-12861845D01*
G01X13728293Y-12802524D01*
G01X13804352Y-12746022D01*
G01X13878734Y-12692353D01*
G01X13951401Y-12641530D01*
G01X14022313Y-12593567D01*
G01X14091431Y-12548479D01*
G01X14158715Y-12506279D01*
G01X14224125Y-12466981D01*
G01X14287623Y-12430599D01*
G01X14349168Y-12397148D01*
G01X14408723Y-12366641D01*
G01X14466246Y-12339092D01*
G01X14521698Y-12314515D01*
G01X14575041Y-12292925D01*
G01X14626234Y-12274335D01*
G01X14675238Y-12258759D01*
G01X14722015Y-12246211D01*
G01X14766523Y-12236705D01*
G01X14808725Y-12230255D01*
G01X14848579Y-12226876D01*
G01X14886048Y-12226580D01*
G01X14921091Y-12229383D01*
G01X14953670Y-12235297D01*
G01X14983744Y-12244338D01*
G01X14983744Y-12244338D01*
G01X14983744Y-12244338D01*
G01X15010744Y-12257066D01*
G01X15034164Y-12273998D01*
G01X15054058Y-12295081D01*
G01X15070479Y-12320263D01*
G01X15083481Y-12349491D01*
G01X15093118Y-12382712D01*
G01X15099445Y-12419875D01*
G01X15102515Y-12460927D01*
G01X15102382Y-12505814D01*
G01X15099101Y-12554486D01*
G01X15092725Y-12606888D01*
G01X15083308Y-12662969D01*
G01X15070904Y-12722676D01*
G01X15055567Y-12785957D01*
G01X15037351Y-12852759D01*
G01X15016310Y-12923029D01*
G01X14992499Y-12996715D01*
G01X14965970Y-13073765D01*
G01X14936778Y-13154126D01*
G01X14904978Y-13237745D01*
G01X14870622Y-13324570D01*
G01X14833765Y-13414548D01*
G01X14794461Y-13507628D01*
G01X14752763Y-13603755D01*
G01X14708727Y-13702879D01*
G01X14662405Y-13804946D01*
G01X14613852Y-13909904D01*
G01X14563122Y-14017700D01*
G01X14510269Y-14128281D01*
G01X14455346Y-14241596D01*
G01X14398408Y-14357592D01*
G01X14339508Y-14476216D01*
G01X14278701Y-14597416D01*
G01X14216040Y-14721139D01*
G01X14151580Y-14847332D01*
G01X14085375Y-14975944D01*
G01X14017478Y-15106921D01*
G01X13947943Y-15240212D01*
G01X13876825Y-15375763D01*
G01X13804177Y-15513522D01*
G01X13730054Y-15653437D01*
G01X13654509Y-15795454D01*
G01X13577596Y-15939523D01*
G01X13499370Y-16085589D01*
G01X13419883Y-16233600D01*
G01X13339191Y-16383505D01*
G01X13257347Y-16535250D01*
G01X13174406Y-16688783D01*
G01X13090420Y-16844052D01*
G01X13005444Y-17001003D01*
G01X12919533Y-17159585D01*
G01X12832740Y-17319744D01*
G01X12745118Y-17481429D01*
G01X12656723Y-17644587D01*
G01X12567607Y-17809165D01*
G01X12477826Y-17975110D01*
G01X12387432Y-18142371D01*
G01X12296480Y-18310895D01*
G01X12205024Y-18480629D01*
G01X12113118Y-18651521D01*
G01X12020816Y-18823518D01*
G01X11928171Y-18996567D01*
G01X11835239Y-19170617D01*
G01X11742072Y-19345614D01*
G01X11648724Y-19521506D01*
G01X11555250Y-19698241D01*
G01X11461704Y-19875766D01*
G01X11368140Y-20054029D01*
G01X11274611Y-20232977D01*
G01X11181171Y-20412557D01*
G01X11087875Y-20592717D01*
G01X10994777Y-20773405D01*
G01X10901930Y-20954567D01*
G01X10809388Y-21136152D01*
G01X10717206Y-21318107D01*
G01X10625437Y-21500379D01*
G01X10534135Y-21682917D01*
G01X10443355Y-21865666D01*
G01X10353150Y-22048576D01*
G01X10263575Y-22231592D01*
G01X10174682Y-22414664D01*
G01X10086527Y-22597738D01*
G01X9999163Y-22780761D01*
G01X9912644Y-22963682D01*
G01X9827024Y-23146448D01*
G01X9742357Y-23329006D01*
G01X9658698Y-23511303D01*
G01X9576099Y-23693288D01*
G01X9494615Y-23874907D01*
G01X9414301Y-24056109D01*
G01X9335209Y-24236840D01*
G01X9257394Y-24417048D01*
G01X9180910Y-24596681D01*
G01X9105811Y-24775686D01*
G01X9032151Y-24954011D01*
G01X8959983Y-25131602D01*
G01X8889363Y-25308408D01*
G01X8820343Y-25484376D01*
G01X8752978Y-25659454D01*
G01X8687321Y-25833588D01*
G01X8687321Y-25833588D01*
G37*

G04 Pad flashes *
%LPD*%
D11*

G04 end of program *
M02*
