G04                                                      *
G04 Greetings!                                           *
G04 This Gerber was generated by PCBmodE, an open source *
G04 PCB design software. Get it here:                    *
G04                                                      *
G04   http://pcbmode.com                                 *
G04                                                      *
G04 Also visit                                           *
G04                                                      *
G04   http://boldport.com                                *
G04                                                      *
G04 and follow @boldport / @pcbmode for updates!         *
G04                                                      *

G04 leading zeros omitted (L); absolute data (A); 6 integer digits and 6 fractional digits *
%FSLAX66Y66*%

G04 mode (MO): millimeters (MM) *
%MOMM*%

G04 Aperture definitions *
%ADD10C,0.001X*%
%ADD11C,0.001X*%

%LPD*%
G36*
G01X15671688Y-49194849D02*
G01X15363870Y-48349125D01*
G01X16068640Y-48092610D01*
G01X16376458Y-48938334D01*
G01X15671688Y-49194849D01*
G37*
G36*
G01X16119080Y-45307389D02*
G01X15811262Y-44461666D01*
G01X16516031Y-44205151D01*
G01X16823849Y-45050874D01*
G01X16119080Y-45307389D01*
G37*
G36*
G01X17316150Y-48596313D02*
G01X17008332Y-47750590D01*
G01X17713102Y-47494075D01*
G01X18020920Y-48339798D01*
G01X17316150Y-48596313D01*
G37*
G36*
G01X14474618Y-45905925D02*
G01X14166800Y-45060201D01*
G01X14871569Y-44803686D01*
G01X15179387Y-45649409D01*
G01X14474618Y-45905925D01*
G37*
G36*
G01X17099011Y-24877828D02*
G01X17944735Y-24570010D01*
G01X18201250Y-25274780D01*
G01X17355526Y-25582598D01*
G01X17099011Y-24877828D01*
G37*
G36*
G01X20986471Y-25325220D02*
G01X21832194Y-25017402D01*
G01X22088709Y-25722171D01*
G01X21242986Y-26029989D01*
G01X20986471Y-25325220D01*
G37*
G36*
G01X17697547Y-26522290D02*
G01X18543270Y-26214472D01*
G01X18799785Y-26919242D01*
G01X17954062Y-27227060D01*
G01X17697547Y-26522290D01*
G37*
G36*
G01X20387935Y-23680758D02*
G01X21233659Y-23372940D01*
G01X21490174Y-24077709D01*
G01X20644451Y-24385527D01*
G01X20387935Y-23680758D01*
G37*
G36*
G01X43933658Y-54327060D02*
G01X43087935Y-54019242D01*
G01X43344450Y-53314473D01*
G01X44190174Y-53622291D01*
G01X43933658Y-54327060D01*
G37*
G36*
G01X41243270Y-51485528D02*
G01X40397546Y-51177710D01*
G01X40654061Y-50472940D01*
G01X41499785Y-50780758D01*
G01X41243270Y-51485528D01*
G37*
G36*
G01X44532194Y-52682598D02*
G01X43686470Y-52374780D01*
G01X43942985Y-51670011D01*
G01X44788709Y-51977829D01*
G01X44532194Y-52682598D01*
G37*
G36*
G01X40644734Y-53129990D02*
G01X39799011Y-52822172D01*
G01X40055526Y-52117402D01*
G01X40901249Y-52425220D01*
G01X40644734Y-53129990D01*
G37*
G36*
G01X50354062Y-23372940D02*
G01X51199785Y-23680758D01*
G01X50943270Y-24385527D01*
G01X50097546Y-24077709D01*
G01X50354062Y-23372940D01*
G37*
G36*
G01X53044450Y-26214472D02*
G01X53890174Y-26522290D01*
G01X53633659Y-27227060D01*
G01X52787935Y-26919242D01*
G01X53044450Y-26214472D01*
G37*
G36*
G01X49755526Y-25017402D02*
G01X50601250Y-25325220D01*
G01X50344735Y-26029989D01*
G01X49499011Y-25722171D01*
G01X49755526Y-25017402D01*
G37*
G36*
G01X53642986Y-24570010D02*
G01X54488709Y-24877828D01*
G01X54232194Y-25582598D01*
G01X53386471Y-25274780D01*
G01X53642986Y-24570010D01*
G37*
G36*
G01X31388709Y-52922172D02*
G01X30542985Y-53229990D01*
G01X30286470Y-52525220D01*
G01X31132194Y-52217402D01*
G01X31388709Y-52922172D01*
G37*
G36*
G01X27501249Y-52474780D02*
G01X26655526Y-52782598D01*
G01X26399011Y-52077829D01*
G01X27244734Y-51770011D01*
G01X27501249Y-52474780D01*
G37*
G36*
G01X30790173Y-51277710D02*
G01X29944450Y-51585528D01*
G01X29687935Y-50880758D01*
G01X30533658Y-50572940D01*
G01X30790173Y-51277710D01*
G37*
G36*
G01X28099785Y-54119242D02*
G01X27254061Y-54427060D01*
G01X26997546Y-53722291D01*
G01X27843269Y-53414473D01*
G01X28099785Y-54119242D01*
G37*
G36*
G01X33393860Y-23750000D02*
G01X34293860Y-23750000D01*
G01X34293860Y-24500000D01*
G01X33393860Y-24500000D01*
G01X33393860Y-23750000D01*
G37*
G36*
G01X36893860Y-25500000D02*
G01X37793860Y-25500000D01*
G01X37793860Y-26250000D01*
G01X36893860Y-26250000D01*
G01X36893860Y-25500000D01*
G37*
G36*
G01X33393860Y-25500000D02*
G01X34293860Y-25500000D01*
G01X34293860Y-26250000D01*
G01X33393860Y-26250000D01*
G01X33393860Y-25500000D01*
G37*
G36*
G01X36893860Y-23750000D02*
G01X37793860Y-23750000D01*
G01X37793860Y-24500000D01*
G01X36893860Y-24500000D01*
G01X36893860Y-23750000D01*
G37*
G36*
G01X39322061Y-108476825D02*
G01X40799273Y-108216353D01*
G01X40886097Y-108708757D01*
G01X39408885Y-108969229D01*
G01X39322061Y-108476825D01*
G37*
G36*
G01X39763128Y-110978237D02*
G01X41240339Y-110717765D01*
G01X41327163Y-111210169D01*
G01X39849952Y-111470641D01*
G01X39763128Y-110978237D01*
G37*
G36*
G01X39542594Y-109727531D02*
G01X41019806Y-109467059D01*
G01X41106630Y-109959463D01*
G01X39629419Y-110219935D01*
G01X39542594Y-109727531D01*
G37*
G36*
G01X45301623Y-111291243D02*
G01X46778834Y-111030770D01*
G01X46865658Y-111523174D01*
G01X45388447Y-111783647D01*
G01X45301623Y-111291243D01*
G37*
G36*
G01X39983661Y-112228943D02*
G01X41460872Y-111968471D01*
G01X41547697Y-112460874D01*
G01X40070485Y-112721347D01*
G01X39983661Y-112228943D01*
G37*
G36*
G01X44860556Y-108789831D02*
G01X46337768Y-108529359D01*
G01X46424592Y-109021763D01*
G01X44947380Y-109282235D01*
G01X44860556Y-108789831D01*
G37*
G36*
G01X45081090Y-110040537D02*
G01X46558301Y-109780065D01*
G01X46645125Y-110272468D01*
G01X45167914Y-110532941D01*
G01X45081090Y-110040537D01*
G37*
G36*
G01X44640023Y-107539125D02*
G01X46117235Y-107278653D01*
G01X46204059Y-107771057D01*
G01X44726847Y-108031529D01*
G01X44640023Y-107539125D01*
G37*
G36*
G01X57520920Y-43660202D02*
G01X57213102Y-44505925D01*
G01X56508333Y-44249410D01*
G01X56816151Y-43403686D01*
G01X57520920Y-43660202D01*
G37*
G36*
G01X54679388Y-46350590D02*
G01X54371570Y-47196314D01*
G01X53666800Y-46939799D01*
G01X53974618Y-46094075D01*
G01X54679388Y-46350590D01*
G37*
G36*
G01X55876458Y-43061666D02*
G01X55568640Y-43907390D01*
G01X54863871Y-43650875D01*
G01X55171689Y-42805151D01*
G01X55876458Y-43061666D01*
G37*
G36*
G01X56323850Y-46949126D02*
G01X56016032Y-47794849D01*
G01X55311262Y-47538334D01*
G01X55619080Y-46692611D01*
G01X56323850Y-46949126D01*
G37*
G36*
G01X33563588Y-110139480D02*
G01X34351434Y-110000562D01*
G01X34507717Y-110886888D01*
G01X33719871Y-111025807D01*
G01X33563588Y-110139480D01*
G37*
G36*
G01X36680002Y-111113112D02*
G01X37467849Y-110974193D01*
G01X37624132Y-111860520D01*
G01X36836286Y-111999439D01*
G01X36680002Y-111113112D01*
G37*
G36*
G01X33824060Y-111616692D02*
G01X34611906Y-111477773D01*
G01X34768189Y-112364100D01*
G01X33980343Y-112503019D01*
G01X33824060Y-111616692D01*
G37*
G36*
G01X36419530Y-109635900D02*
G01X37207376Y-109496982D01*
G01X37363660Y-110383309D01*
G01X36575813Y-110522227D01*
G01X36419530Y-109635900D01*
G37*
G36*
G01X13641190Y-49653368D02*
G01X13401776Y-48995584D01*
G01X14059561Y-48756170D01*
G01X14298975Y-49413954D01*
G01X13641190Y-49653368D01*
G37*
G36*
G01X13128160Y-48243830D02*
G01X12888746Y-47586045D01*
G01X13546531Y-47346631D01*
G01X13785945Y-48004415D01*
G01X13128160Y-48243830D01*
G37*
G36*
G01X16440492Y-23047330D02*
G01X17098276Y-22807916D01*
G01X17337690Y-23465701D01*
G01X16679906Y-23705115D01*
G01X16440492Y-23047330D01*
G37*
G36*
G01X17850030Y-22534300D02*
G01X18507815Y-22294886D01*
G01X18747229Y-22952671D01*
G01X18089445Y-23192085D01*
G01X17850030Y-22534300D01*
G37*
G36*
G01X59098974Y-44286046D02*
G01X58859560Y-44943830D01*
G01X58201775Y-44704416D01*
G01X58441189Y-44046631D01*
G01X59098974Y-44286046D01*
G37*
G36*
G01X58585944Y-45695584D02*
G01X58346530Y-46353369D01*
G01X57688745Y-46113955D01*
G01X57928159Y-45456170D01*
G01X58585944Y-45695584D01*
G37*
G36*
G01X34949794Y-113346330D02*
G01X35639160Y-113224776D01*
G01X35760713Y-113914142D01*
G01X35071348Y-114035696D01*
G01X34949794Y-113346330D01*
G37*
G36*
G01X36427006Y-113085858D02*
G01X37116371Y-112964304D01*
G01X37237925Y-113653670D01*
G01X36548560Y-113775223D01*
G01X36427006Y-113085858D01*
G37*
G36*
G01X47747530Y-106955934D02*
G01X47869084Y-107645300D01*
G01X47179718Y-107766853D01*
G01X47058164Y-107077488D01*
G01X47747530Y-106955934D01*
G37*
G36*
G01X48008002Y-108433146D02*
G01X48129556Y-109122511D01*
G01X47440190Y-109244065D01*
G01X47318637Y-108554700D01*
G01X48008002Y-108433146D01*
G37*
G36*
G01X31847228Y-54752670D02*
G01X31189444Y-54992084D01*
G01X30950030Y-54334299D01*
G01X31607814Y-54094885D01*
G01X31847228Y-54752670D01*
G37*
G36*
G01X30437690Y-55265700D02*
G01X29779905Y-55505114D01*
G01X29540491Y-54847329D01*
G01X30198275Y-54607915D01*
G01X30437690Y-55265700D01*
G37*
G36*
G01X33493860Y-21850000D02*
G01X34193860Y-21850000D01*
G01X34193860Y-22550000D01*
G01X33493860Y-22550000D01*
G01X33493860Y-21850000D01*
G37*
G36*
G01X34993860Y-21850000D02*
G01X35693860Y-21850000D01*
G01X35693860Y-22550000D01*
G01X34993860Y-22550000D01*
G01X34993860Y-21850000D01*
G37*
G36*
G01X43207814Y-55705114D02*
G01X42550030Y-55465700D01*
G01X42789444Y-54807915D01*
G01X43447229Y-55047329D01*
G01X43207814Y-55705114D01*
G37*
G36*
G01X41798276Y-55192084D02*
G01X41140491Y-54952670D01*
G01X41379905Y-54294885D01*
G01X42037690Y-54534299D01*
G01X41798276Y-55192084D01*
G37*
G36*
G01X51079906Y-21694886D02*
G01X51737690Y-21934300D01*
G01X51498276Y-22592085D01*
G01X50840491Y-22352671D01*
G01X51079906Y-21694886D01*
G37*
G36*
G01X52489444Y-22207916D02*
G01X53147229Y-22447330D01*
G01X52907815Y-23105115D01*
G01X52250030Y-22865701D01*
G01X52489444Y-22207916D01*
G37*

G04 Pad flashes *
%LPD*%
D11*

G04 end of program *
M02*
