G04                                                      *
G04 Greetings!                                           *
G04 This Gerber was generated by PCBmodE, an open source *
G04 PCB design software. Get it here:                    *
G04                                                      *
G04   http://pcbmode.com                                 *
G04                                                      *
G04 Also visit                                           *
G04                                                      *
G04   http://boldport.com                                *
G04                                                      *
G04 and follow @boldport / @pcbmode for updates!         *
G04                                                      *

G04 leading zeros omitted (L); absolute data (A); 6 integer digits and 6 fractional digits *
%FSLAX66Y66*%

G04 mode (MO): millimeters (MM) *
%MOMM*%

G04 Aperture definitions *
%ADD10C,0.001X*%
%ADD11C,0.001X*%

%LPD*%
G36*
G01X15582037Y-49387106D02*
G01X15171613Y-48259475D01*
G01X16158290Y-47900353D01*
G01X16568714Y-49027985D01*
G01X15582037Y-49387106D01*
G37*
G36*
G01X16029429Y-45499646D02*
G01X15619005Y-44372015D01*
G01X16605682Y-44012894D01*
G01X17016106Y-45140525D01*
G01X16029429Y-45499646D01*
G37*
G36*
G01X17226499Y-48788570D02*
G01X16816075Y-47660939D01*
G01X17802752Y-47301818D01*
G01X18213177Y-48429449D01*
G01X17226499Y-48788570D01*
G37*
G36*
G01X14384967Y-46098182D02*
G01X13974543Y-44970550D01*
G01X14961220Y-44611429D01*
G01X15371644Y-45739060D01*
G01X14384967Y-46098182D01*
G37*
G36*
G01X16906754Y-24788177D02*
G01X18034385Y-24377753D01*
G01X18393507Y-25364430D01*
G01X17265875Y-25774854D01*
G01X16906754Y-24788177D01*
G37*
G36*
G01X20794214Y-25235569D02*
G01X21921845Y-24825145D01*
G01X22280966Y-25811822D01*
G01X21153335Y-26222246D01*
G01X20794214Y-25235569D01*
G37*
G36*
G01X17505290Y-26432639D02*
G01X18632921Y-26022215D01*
G01X18992042Y-27008892D01*
G01X17864411Y-27419317D01*
G01X17505290Y-26432639D01*
G37*
G36*
G01X20195678Y-23591107D02*
G01X21323310Y-23180683D01*
G01X21682431Y-24167360D01*
G01X20554800Y-24577784D01*
G01X20195678Y-23591107D01*
G37*
G36*
G01X44023309Y-54519317D02*
G01X42895678Y-54108893D01*
G01X43254799Y-53122216D01*
G01X44382431Y-53532640D01*
G01X44023309Y-54519317D01*
G37*
G36*
G01X41332921Y-51677785D02*
G01X40205289Y-51267361D01*
G01X40564411Y-50280683D01*
G01X41692042Y-50691107D01*
G01X41332921Y-51677785D01*
G37*
G36*
G01X44621845Y-52874855D02*
G01X43494214Y-52464431D01*
G01X43853335Y-51477754D01*
G01X44980966Y-51888178D01*
G01X44621845Y-52874855D01*
G37*
G36*
G01X40734385Y-53322247D02*
G01X39606754Y-52911823D01*
G01X39965875Y-51925145D01*
G01X41093506Y-52335570D01*
G01X40734385Y-53322247D01*
G37*
G36*
G01X50264411Y-23180683D02*
G01X51392042Y-23591107D01*
G01X51032921Y-24577784D01*
G01X49905289Y-24167360D01*
G01X50264411Y-23180683D01*
G37*
G36*
G01X52954799Y-26022215D02*
G01X54082431Y-26432639D01*
G01X53723309Y-27419317D01*
G01X52595678Y-27008893D01*
G01X52954799Y-26022215D01*
G37*
G36*
G01X49665875Y-24825145D02*
G01X50793506Y-25235569D01*
G01X50434385Y-26222246D01*
G01X49306754Y-25811822D01*
G01X49665875Y-24825145D01*
G37*
G36*
G01X53553335Y-24377753D02*
G01X54680966Y-24788177D01*
G01X54321845Y-25774855D01*
G01X53194214Y-25364430D01*
G01X53553335Y-24377753D01*
G37*
G36*
G01X31580966Y-53011823D02*
G01X30453335Y-53422247D01*
G01X30094213Y-52435570D01*
G01X31221845Y-52025146D01*
G01X31580966Y-53011823D01*
G37*
G36*
G01X27693506Y-52564431D02*
G01X26565875Y-52974855D01*
G01X26206754Y-51988178D01*
G01X27334385Y-51577754D01*
G01X27693506Y-52564431D01*
G37*
G36*
G01X30982430Y-51367361D02*
G01X29854799Y-51777785D01*
G01X29495678Y-50791108D01*
G01X30623309Y-50380683D01*
G01X30982430Y-51367361D01*
G37*
G36*
G01X28292042Y-54208893D02*
G01X27164410Y-54619317D01*
G01X26805289Y-53632640D01*
G01X27932920Y-53222216D01*
G01X28292042Y-54208893D01*
G37*
G36*
G01X33243860Y-23600000D02*
G01X34443860Y-23600000D01*
G01X34443860Y-24650000D01*
G01X33243860Y-24650000D01*
G01X33243860Y-23600000D01*
G37*
G36*
G01X36743860Y-25350000D02*
G01X37943860Y-25350000D01*
G01X37943860Y-26400000D01*
G01X36743860Y-26400000D01*
G01X36743860Y-25350000D01*
G37*
G36*
G01X33243860Y-25350000D02*
G01X34443860Y-25350000D01*
G01X34443860Y-26400000D01*
G01X33243860Y-26400000D01*
G01X33243860Y-25350000D01*
G37*
G36*
G01X36743860Y-23600000D02*
G01X37943860Y-23600000D01*
G01X37943860Y-24650000D01*
G01X36743860Y-24650000D01*
G01X36743860Y-23600000D01*
G37*
G36*
G01X39148293Y-108355151D02*
G01X40920947Y-108042585D01*
G01X41059866Y-108830431D01*
G01X39287212Y-109142998D01*
G01X39148293Y-108355151D01*
G37*
G36*
G01X39589360Y-110856563D02*
G01X41362014Y-110543996D01*
G01X41500932Y-111331842D01*
G01X39728278Y-111644409D01*
G01X39589360Y-110856563D01*
G37*
G36*
G01X39368826Y-109605857D02*
G01X41141480Y-109293290D01*
G01X41280399Y-110081137D01*
G01X39507745Y-110393703D01*
G01X39368826Y-109605857D01*
G37*
G36*
G01X45127855Y-111169569D02*
G01X46900509Y-110857002D01*
G01X47039427Y-111644848D01*
G01X45266773Y-111957415D01*
G01X45127855Y-111169569D01*
G37*
G36*
G01X39809893Y-112107269D02*
G01X41582547Y-111794702D01*
G01X41721465Y-112582548D01*
G01X39948811Y-112895115D01*
G01X39809893Y-112107269D01*
G37*
G36*
G01X44686788Y-108668157D02*
G01X46459442Y-108355590D01*
G01X46598361Y-109143436D01*
G01X44825707Y-109456003D01*
G01X44686788Y-108668157D01*
G37*
G36*
G01X44907322Y-109918863D02*
G01X46679975Y-109606296D01*
G01X46818894Y-110394142D01*
G01X45046240Y-110706709D01*
G01X44907322Y-109918863D01*
G37*
G36*
G01X44466255Y-107417451D02*
G01X46238909Y-107104884D01*
G01X46377828Y-107892731D01*
G01X44605174Y-108205297D01*
G01X44466255Y-107417451D01*
G37*
G36*
G01X57713177Y-43570551D02*
G01X57302753Y-44698182D01*
G01X56316076Y-44339061D01*
G01X56726500Y-43211429D01*
G01X57713177Y-43570551D01*
G37*
G36*
G01X54871645Y-46260939D02*
G01X54461221Y-47388571D01*
G01X53474543Y-47029449D01*
G01X53884967Y-45901818D01*
G01X54871645Y-46260939D01*
G37*
G36*
G01X56068715Y-42972015D02*
G01X55658291Y-44099646D01*
G01X54671614Y-43740525D01*
G01X55082038Y-42612894D01*
G01X56068715Y-42972015D01*
G37*
G36*
G01X56516107Y-46859475D02*
G01X56105683Y-47987106D01*
G01X55119005Y-47627985D01*
G01X55529430Y-46500354D01*
G01X56516107Y-46859475D01*
G37*
G36*
G01X33389820Y-110017806D02*
G01X34473108Y-109826793D01*
G01X34681486Y-111008562D01*
G01X33598197Y-111199575D01*
G01X33389820Y-110017806D01*
G37*
G36*
G01X36506234Y-110991438D02*
G01X37589523Y-110800425D01*
G01X37797901Y-111982194D01*
G01X36714612Y-112173207D01*
G01X36506234Y-110991438D01*
G37*
G36*
G01X33650292Y-111495018D02*
G01X34733580Y-111304005D01*
G01X34941958Y-112485774D01*
G01X33858670Y-112676787D01*
G01X33650292Y-111495018D01*
G37*
G36*
G01X36245762Y-109514226D02*
G01X37329051Y-109323213D01*
G01X37537428Y-110504983D01*
G01X36454140Y-110695996D01*
G01X36245762Y-109514226D01*
G37*
G36*
G01X13551539Y-49845625D02*
G01X13209519Y-48905933D01*
G01X14149212Y-48563913D01*
G01X14491232Y-49503605D01*
G01X13551539Y-49845625D01*
G37*
G36*
G01X13038509Y-48436087D02*
G01X12696489Y-47496394D01*
G01X13636181Y-47154374D01*
G01X13978202Y-48094066D01*
G01X13038509Y-48436087D01*
G37*
G36*
G01X16248235Y-22957679D02*
G01X17187927Y-22615659D01*
G01X17529947Y-23555352D01*
G01X16590255Y-23897372D01*
G01X16248235Y-22957679D01*
G37*
G36*
G01X17657773Y-22444649D02*
G01X18597466Y-22102629D01*
G01X18939486Y-23042321D01*
G01X17999794Y-23384342D01*
G01X17657773Y-22444649D01*
G37*
G36*
G01X59291231Y-44196395D02*
G01X58949211Y-45136087D01*
G01X58009518Y-44794067D01*
G01X58351538Y-43854374D01*
G01X59291231Y-44196395D01*
G37*
G36*
G01X58778201Y-45605933D02*
G01X58436181Y-46545626D01*
G01X57496488Y-46203606D01*
G01X57838508Y-45263913D01*
G01X58778201Y-45605933D01*
G37*
G36*
G01X34776026Y-113224656D02*
G01X35760834Y-113051008D01*
G01X35934482Y-114035816D01*
G01X34949674Y-114209464D01*
G01X34776026Y-113224656D01*
G37*
G36*
G01X36253238Y-112964184D02*
G01X37238046Y-112790536D01*
G01X37411694Y-113775343D01*
G01X36426886Y-113948992D01*
G01X36253238Y-112964184D01*
G37*
G36*
G01X47869204Y-106782166D02*
G01X48042852Y-107766974D01*
G01X47058044Y-107940622D01*
G01X46884396Y-106955814D01*
G01X47869204Y-106782166D01*
G37*
G36*
G01X48129676Y-108259378D02*
G01X48303324Y-109244186D01*
G01X47318517Y-109417834D01*
G01X47144868Y-108433026D01*
G01X48129676Y-108259378D01*
G37*
G36*
G01X32039485Y-54842321D02*
G01X31099793Y-55184341D01*
G01X30757773Y-54244648D01*
G01X31697465Y-53902628D01*
G01X32039485Y-54842321D01*
G37*
G36*
G01X30629947Y-55355351D02*
G01X29690254Y-55697371D01*
G01X29348234Y-54757679D01*
G01X30287926Y-54415658D01*
G01X30629947Y-55355351D01*
G37*
G36*
G01X33343860Y-21700000D02*
G01X34343860Y-21700000D01*
G01X34343860Y-22700000D01*
G01X33343860Y-22700000D01*
G01X33343860Y-21700000D01*
G37*
G36*
G01X34843860Y-21700000D02*
G01X35843860Y-21700000D01*
G01X35843860Y-22700000D01*
G01X34843860Y-22700000D01*
G01X34843860Y-21700000D01*
G37*
G36*
G01X43297465Y-55897371D02*
G01X42357773Y-55555351D01*
G01X42699793Y-54615658D01*
G01X43639486Y-54957678D01*
G01X43297465Y-55897371D01*
G37*
G36*
G01X41887927Y-55384341D02*
G01X40948234Y-55042321D01*
G01X41290254Y-54102628D01*
G01X42229947Y-54444648D01*
G01X41887927Y-55384341D01*
G37*
G36*
G01X50990255Y-21502629D02*
G01X51929947Y-21844649D01*
G01X51587927Y-22784342D01*
G01X50648234Y-22442322D01*
G01X50990255Y-21502629D01*
G37*
G36*
G01X52399793Y-22015659D02*
G01X53339486Y-22357679D01*
G01X52997466Y-23297372D01*
G01X52057773Y-22955352D01*
G01X52399793Y-22015659D01*
G37*
G36*
G01X50573558Y-103185685D02*
G01X50573558Y-103185685D01*
G01X50566475Y-103243071D01*
G01X50557905Y-103299985D01*
G01X50547868Y-103356405D01*
G01X50536384Y-103412312D01*
G01X50523472Y-103467685D01*
G01X50509152Y-103522503D01*
G01X50493443Y-103576745D01*
G01X50476364Y-103630392D01*
G01X50457936Y-103683422D01*
G01X50438178Y-103735815D01*
G01X50417109Y-103787550D01*
G01X50394750Y-103838607D01*
G01X50371118Y-103888965D01*
G01X50346235Y-103938604D01*
G01X50320119Y-103987502D01*
G01X50292790Y-104035640D01*
G01X50264268Y-104082997D01*
G01X50234572Y-104129553D01*
G01X50203722Y-104175286D01*
G01X50171737Y-104220176D01*
G01X50138636Y-104264203D01*
G01X50104440Y-104307345D01*
G01X50069168Y-104349583D01*
G01X50032839Y-104390896D01*
G01X49995474Y-104431264D01*
G01X49957090Y-104470665D01*
G01X49917709Y-104509079D01*
G01X49877349Y-104546485D01*
G01X49836030Y-104582864D01*
G01X49793771Y-104618194D01*
G01X49750593Y-104652455D01*
G01X49706515Y-104685626D01*
G01X49661556Y-104717687D01*
G01X49615735Y-104748617D01*
G01X49569073Y-104778395D01*
G01X49521588Y-104807002D01*
G01X49473301Y-104834415D01*
G01X49424231Y-104860616D01*
G01X49374397Y-104885583D01*
G01X49323820Y-104909295D01*
G01X49272517Y-104931733D01*
G01X49220510Y-104952875D01*
G01X49167818Y-104972701D01*
G01X49114459Y-104991190D01*
G01X49060454Y-105008322D01*
G01X49005823Y-105024077D01*
G01X48950584Y-105038433D01*
G01X48894757Y-105051370D01*
G01X48838362Y-105062867D01*
G01X48781419Y-105072905D01*
G01X48781419Y-105072905D01*
G01X47664692Y-105254295D01*
G01X47785614Y-106449055D01*
G01X48238816Y-106364255D01*
G01X48680133Y-109532535D01*
G01X47415094Y-109807965D01*
G01X47588211Y-111976315D01*
G01X39530305Y-113376745D01*
G01X39220248Y-111505025D01*
G01X38062177Y-111677625D01*
G01X38152097Y-112248135D01*
G01X37549548Y-112832595D01*
G01X37696309Y-114100215D01*
G01X34671172Y-114650055D01*
G01X34379199Y-113053765D01*
G01X33585449Y-112969565D01*
G01X33027861Y-109800765D01*
G01X37633780Y-108962055D01*
G01X37711300Y-109453505D01*
G01X38847149Y-109251445D01*
G01X38665764Y-108156935D01*
G01X47223899Y-106554455D01*
G01X47133979Y-105341085D01*
G01X23095653Y-109250925D01*
G01X23095653Y-109250925D01*
G01X23025463Y-109261161D01*
G01X22955476Y-109269062D01*
G01X22885731Y-109274657D01*
G01X22816270Y-109277977D01*
G01X22747132Y-109279049D01*
G01X22678359Y-109277904D01*
G01X22609992Y-109274570D01*
G01X22542070Y-109269077D01*
G01X22474634Y-109261454D01*
G01X22407725Y-109251730D01*
G01X22341383Y-109239934D01*
G01X22275650Y-109226096D01*
G01X22210565Y-109210244D01*
G01X22146169Y-109192408D01*
G01X22082502Y-109172618D01*
G01X22019606Y-109150902D01*
G01X21957521Y-109127289D01*
G01X21896287Y-109101809D01*
G01X21835946Y-109074491D01*
G01X21776536Y-109045364D01*
G01X21718100Y-109014458D01*
G01X21660678Y-108981801D01*
G01X21604310Y-108947423D01*
G01X21549037Y-108911353D01*
G01X21494899Y-108873620D01*
G01X21441937Y-108834254D01*
G01X21390192Y-108793283D01*
G01X21339703Y-108750737D01*
G01X21290513Y-108706645D01*
G01X21242661Y-108661036D01*
G01X21196187Y-108613940D01*
G01X21151133Y-108565385D01*
G01X21107540Y-108515402D01*
G01X21065446Y-108464018D01*
G01X21024894Y-108411264D01*
G01X20985923Y-108357168D01*
G01X20948575Y-108301760D01*
G01X20912890Y-108245069D01*
G01X20878908Y-108187124D01*
G01X20846670Y-108127954D01*
G01X20816217Y-108067589D01*
G01X20787588Y-108006057D01*
G01X20760826Y-107943389D01*
G01X20735970Y-107879612D01*
G01X20713061Y-107814757D01*
G01X20692139Y-107748853D01*
G01X20673245Y-107681928D01*
G01X20656420Y-107614012D01*
G01X20641703Y-107545135D01*
G01X20629137Y-107475325D01*
G01X20629137Y-107475325D01*
G01X20629137Y-107475325D01*
G01X20623344Y-107434842D01*
G01X20618247Y-107394229D01*
G01X20614147Y-107355955D01*
G01X20614147Y-108160555D01*
G01X20614147Y-108160555D01*
G01X20620282Y-108270736D01*
G01X20626217Y-108376316D01*
G01X20632022Y-108477484D01*
G01X20637769Y-108574431D01*
G01X20643528Y-108667346D01*
G01X20649370Y-108756422D01*
G01X20655366Y-108841848D01*
G01X20661587Y-108923814D01*
G01X20668103Y-109002511D01*
G01X20674985Y-109078129D01*
G01X20682304Y-109150859D01*
G01X20690130Y-109220892D01*
G01X20698536Y-109288416D01*
G01X20707590Y-109353624D01*
G01X20717365Y-109416705D01*
G01X20727930Y-109477850D01*
G01X20739357Y-109537249D01*
G01X20751717Y-109595092D01*
G01X20765080Y-109651571D01*
G01X20779517Y-109706875D01*
G01X20795098Y-109761194D01*
G01X20811895Y-109814720D01*
G01X20829979Y-109867643D01*
G01X20849420Y-109920152D01*
G01X20870288Y-109972439D01*
G01X20892656Y-110024694D01*
G01X20916593Y-110077107D01*
G01X20942170Y-110129869D01*
G01X20969458Y-110183170D01*
G01X20998528Y-110237200D01*
G01X21029451Y-110292151D01*
G01X21062298Y-110348211D01*
G01X21097138Y-110405573D01*
G01X21109207Y-110425015D01*
G01X21109207Y-110425015D01*
G01X21111807Y-110429015D01*
G01X21111807Y-110429015D01*
G01X21111807Y-110429015D01*
G01X21137134Y-110469194D01*
G01X21163402Y-110510216D01*
G01X21190649Y-110552128D01*
G01X21218914Y-110594978D01*
G01X21248236Y-110638814D01*
G01X21278653Y-110683684D01*
G01X21310204Y-110729636D01*
G01X21342927Y-110776719D01*
G01X21376862Y-110824979D01*
G01X21412047Y-110874465D01*
G01X21412047Y-110874465D01*
G01X21412047Y-110874465D01*
G01X21437958Y-110910660D01*
G01X21464329Y-110947396D01*
G01X21491196Y-110984722D01*
G01X21518596Y-111022688D01*
G01X21546565Y-111061342D01*
G01X21575139Y-111100734D01*
G01X21604354Y-111140913D01*
G01X21634245Y-111181929D01*
G01X21664850Y-111223831D01*
G01X21696205Y-111266669D01*
G01X21728345Y-111310491D01*
G01X21761307Y-111355348D01*
G01X21795127Y-111401288D01*
G01X21829841Y-111448361D01*
G01X21839928Y-111462025D01*
G01X29345413Y-118968025D01*
G01X29345413Y-118968025D01*
G01X29430034Y-119052907D01*
G01X29509954Y-119133224D01*
G01X29585458Y-119209101D01*
G01X29656829Y-119280662D01*
G01X29724355Y-119348032D01*
G01X29788318Y-119411337D01*
G01X29849003Y-119470701D01*
G01X29906697Y-119526250D01*
G01X29961683Y-119578107D01*
G01X30014246Y-119626399D01*
G01X30064671Y-119671250D01*
G01X30113244Y-119712784D01*
G01X30160248Y-119751127D01*
G01X30205968Y-119786404D01*
G01X30250690Y-119818740D01*
G01X30294698Y-119848259D01*
G01X30338278Y-119875086D01*
G01X30381713Y-119899347D01*
G01X30425288Y-119921166D01*
G01X30469290Y-119940668D01*
G01X30514001Y-119957978D01*
G01X30559708Y-119973221D01*
G01X30606695Y-119986522D01*
G01X30655246Y-119998006D01*
G01X30705647Y-120007798D01*
G01X30758183Y-120016022D01*
G01X30813137Y-120022804D01*
G01X30870796Y-120028268D01*
G01X30931444Y-120032539D01*
G01X30995365Y-120035743D01*
G01X31062845Y-120038004D01*
G01X31134168Y-120039447D01*
G01X31209620Y-120040197D01*
G01X31235737Y-120040315D01*
G01X39952516Y-120040315D01*
G01X39952516Y-120040315D01*
G01X40029403Y-120039761D01*
G01X40102063Y-120038557D01*
G01X40170779Y-120036578D01*
G01X40235837Y-120033698D01*
G01X40297522Y-120029792D01*
G01X40356120Y-120024736D01*
G01X40411915Y-120018405D01*
G01X40465192Y-120010674D01*
G01X40516238Y-120001417D01*
G01X40565336Y-119990511D01*
G01X40612773Y-119977829D01*
G01X40658833Y-119963247D01*
G01X40703801Y-119946641D01*
G01X40747963Y-119927884D01*
G01X40791603Y-119906852D01*
G01X40835008Y-119883421D01*
G01X40878461Y-119857465D01*
G01X40922248Y-119828859D01*
G01X40966655Y-119797478D01*
G01X41011966Y-119763198D01*
G01X41058467Y-119725893D01*
G01X41106443Y-119685438D01*
G01X41156178Y-119641710D01*
G01X41207959Y-119594581D01*
G01X41262070Y-119543928D01*
G01X41318796Y-119489626D01*
G01X41378422Y-119431550D01*
G01X41441235Y-119369574D01*
G01X41507518Y-119303574D01*
G01X41577557Y-119233425D01*
G01X41651637Y-119159002D01*
G01X41730044Y-119080180D01*
G01X41813061Y-118996834D01*
G01X41841808Y-118968025D01*
G01X49347810Y-111462025D01*
G01X49347810Y-111462025D01*
G01X49382786Y-111414619D01*
G01X49416857Y-111368361D01*
G01X49450060Y-111323200D01*
G01X49482431Y-111279087D01*
G01X49514005Y-111235973D01*
G01X49544821Y-111193809D01*
G01X49574912Y-111152544D01*
G01X49604317Y-111112131D01*
G01X49633070Y-111072519D01*
G01X49661208Y-111033659D01*
G01X49688767Y-110995502D01*
G01X49715783Y-110957999D01*
G01X49742293Y-110921099D01*
G01X49768332Y-110884754D01*
G01X49775691Y-110874465D01*
G01X49775691Y-110874465D01*
G01X49811187Y-110824532D01*
G01X49845402Y-110775850D01*
G01X49878377Y-110728367D01*
G01X49910154Y-110682034D01*
G01X49940775Y-110636801D01*
G01X49970281Y-110592619D01*
G01X49998715Y-110549437D01*
G01X50026117Y-110507205D01*
G01X50052530Y-110465875D01*
G01X50077996Y-110425395D01*
G01X50077996Y-110425395D01*
G01X50077996Y-110425395D01*
G01X50113531Y-110367545D01*
G01X50147048Y-110311062D01*
G01X50178620Y-110255755D01*
G01X50208317Y-110201433D01*
G01X50236208Y-110147906D01*
G01X50262366Y-110094983D01*
G01X50286861Y-110042474D01*
G01X50309763Y-109990188D01*
G01X50331143Y-109937934D01*
G01X50351072Y-109885523D01*
G01X50369621Y-109832763D01*
G01X50386860Y-109779463D01*
G01X50402859Y-109725435D01*
G01X50417690Y-109670486D01*
G01X50431424Y-109614426D01*
G01X50444130Y-109557065D01*
G01X50455880Y-109498212D01*
G01X50466745Y-109437677D01*
G01X50476794Y-109375269D01*
G01X50486099Y-109310798D01*
G01X50494731Y-109244072D01*
G01X50502760Y-109174902D01*
G01X50510256Y-109103096D01*
G01X50517291Y-109028465D01*
G01X50523935Y-108950818D01*
G01X50530259Y-108869964D01*
G01X50536334Y-108785713D01*
G01X50542230Y-108697873D01*
G01X50548018Y-108606256D01*
G01X50553768Y-108510669D01*
G01X50559552Y-108410923D01*
G01X50565440Y-108306826D01*
G01X50571502Y-108198189D01*
G01X50573574Y-108160935D01*
G37*
G36*
G01X50573565Y-97186545D02*
G01X50573565Y-97186545D01*
G01X50566469Y-97243919D01*
G01X50557888Y-97300821D01*
G01X50547840Y-97357229D01*
G01X50536346Y-97413123D01*
G01X50523424Y-97468484D01*
G01X50509094Y-97523289D01*
G01X50493376Y-97577519D01*
G01X50476290Y-97631152D01*
G01X50457854Y-97684170D01*
G01X50438089Y-97736550D01*
G01X50417014Y-97788272D01*
G01X50394648Y-97839316D01*
G01X50371012Y-97889662D01*
G01X50346123Y-97939287D01*
G01X50320003Y-97988173D01*
G01X50292671Y-98036299D01*
G01X50264145Y-98083643D01*
G01X50234446Y-98130186D01*
G01X50203594Y-98175907D01*
G01X50171607Y-98220784D01*
G01X50138505Y-98264799D01*
G01X50104308Y-98307929D01*
G01X50069035Y-98350156D01*
G01X50032707Y-98391457D01*
G01X49995341Y-98431813D01*
G01X49956959Y-98471202D01*
G01X49917579Y-98509605D01*
G01X49877220Y-98547000D01*
G01X49835904Y-98583368D01*
G01X49793648Y-98618688D01*
G01X49750473Y-98652938D01*
G01X49706398Y-98686099D01*
G01X49661442Y-98718150D01*
G01X49615626Y-98749070D01*
G01X49568968Y-98778840D01*
G01X49521489Y-98807437D01*
G01X49473207Y-98834842D01*
G01X49424143Y-98861035D01*
G01X49374315Y-98885993D01*
G01X49323744Y-98909698D01*
G01X49272448Y-98932129D01*
G01X49220448Y-98953264D01*
G01X49167763Y-98973084D01*
G01X49114412Y-98991567D01*
G01X49060416Y-99008693D01*
G01X49005792Y-99024443D01*
G01X48950562Y-99038794D01*
G01X48894744Y-99051727D01*
G01X48838359Y-99063221D01*
G01X48781425Y-99073255D01*
G01X48781425Y-99073255D01*
G01X23095655Y-103250775D01*
G01X23095655Y-103250775D01*
G01X23025475Y-103261012D01*
G01X22955498Y-103268915D01*
G01X22885763Y-103274514D01*
G01X22816311Y-103277836D01*
G01X22747182Y-103278913D01*
G01X22678418Y-103277772D01*
G01X22610059Y-103274444D01*
G01X22542146Y-103268956D01*
G01X22474718Y-103261339D01*
G01X22407817Y-103251621D01*
G01X22341483Y-103239833D01*
G01X22275756Y-103226002D01*
G01X22210678Y-103210158D01*
G01X22146288Y-103192331D01*
G01X22082628Y-103172549D01*
G01X22019738Y-103150842D01*
G01X21957658Y-103127239D01*
G01X21896429Y-103101769D01*
G01X21836091Y-103074462D01*
G01X21776686Y-103045345D01*
G01X21718253Y-103014450D01*
G01X21660834Y-102981804D01*
G01X21604469Y-102947438D01*
G01X21549197Y-102911380D01*
G01X21495061Y-102873659D01*
G01X21442100Y-102834305D01*
G01X21390356Y-102793346D01*
G01X21339868Y-102750813D01*
G01X21290677Y-102706734D01*
G01X21242824Y-102661138D01*
G01X21196349Y-102614055D01*
G01X21151293Y-102565514D01*
G01X21107696Y-102515544D01*
G01X21065599Y-102464173D01*
G01X21025043Y-102411433D01*
G01X20986068Y-102357350D01*
G01X20948715Y-102301956D01*
G01X20913023Y-102245278D01*
G01X20879035Y-102187347D01*
G01X20846790Y-102128191D01*
G01X20816328Y-102067839D01*
G01X20787692Y-102006322D01*
G01X20760920Y-101943667D01*
G01X20736054Y-101879904D01*
G01X20713134Y-101815062D01*
G01X20692200Y-101749171D01*
G01X20673294Y-101682260D01*
G01X20656456Y-101614357D01*
G01X20641726Y-101545492D01*
G01X20629145Y-101475695D01*
G01X20629145Y-101475695D01*
G01X20629145Y-101475695D01*
G01X20623349Y-101436081D01*
G01X20618248Y-101396376D01*
G01X20614145Y-101358905D01*
G01X20614145Y-106893455D01*
G01X20614145Y-106893455D01*
G01X20621241Y-106836081D01*
G01X20629822Y-106779179D01*
G01X20639870Y-106722771D01*
G01X20651364Y-106666877D01*
G01X20664286Y-106611516D01*
G01X20678616Y-106556711D01*
G01X20694334Y-106502481D01*
G01X20711420Y-106448848D01*
G01X20729856Y-106395830D01*
G01X20749621Y-106343450D01*
G01X20770696Y-106291728D01*
G01X20793062Y-106240684D01*
G01X20816698Y-106190338D01*
G01X20841587Y-106140713D01*
G01X20867707Y-106091827D01*
G01X20895039Y-106043701D01*
G01X20923565Y-105996357D01*
G01X20953264Y-105949814D01*
G01X20984116Y-105904093D01*
G01X21016103Y-105859216D01*
G01X21049205Y-105815201D01*
G01X21083402Y-105772071D01*
G01X21118675Y-105729844D01*
G01X21155003Y-105688543D01*
G01X21192369Y-105648188D01*
G01X21230751Y-105608798D01*
G01X21270131Y-105570395D01*
G01X21310490Y-105533000D01*
G01X21351806Y-105496632D01*
G01X21394062Y-105461312D01*
G01X21437237Y-105427062D01*
G01X21481312Y-105393901D01*
G01X21526268Y-105361850D01*
G01X21572084Y-105330930D01*
G01X21618742Y-105301160D01*
G01X21666221Y-105272563D01*
G01X21714503Y-105245158D01*
G01X21763567Y-105218965D01*
G01X21813395Y-105194007D01*
G01X21863966Y-105170302D01*
G01X21915262Y-105147871D01*
G01X21967262Y-105126736D01*
G01X22019947Y-105106916D01*
G01X22073298Y-105088433D01*
G01X22127294Y-105071307D01*
G01X22181918Y-105055557D01*
G01X22237148Y-105041206D01*
G01X22292966Y-105028273D01*
G01X22349351Y-105016779D01*
G01X22406285Y-105006745D01*
G01X22406285Y-105006745D01*
G01X48092055Y-100829225D01*
G01X48092055Y-100829225D01*
G01X48139163Y-100822147D01*
G01X48186401Y-100816122D01*
G01X48233751Y-100811150D01*
G01X48281194Y-100807227D01*
G01X48328714Y-100804355D01*
G01X48376293Y-100802530D01*
G01X48423913Y-100801751D01*
G01X48456895Y-100801825D01*
G01X48456895Y-100801825D01*
G01X48519481Y-100803323D01*
G01X48581657Y-100806603D01*
G01X48643399Y-100811640D01*
G01X48704677Y-100818412D01*
G01X48765467Y-100826896D01*
G01X48825740Y-100837069D01*
G01X48885470Y-100848908D01*
G01X48944629Y-100862389D01*
G01X49003192Y-100877490D01*
G01X49061131Y-100894187D01*
G01X49118420Y-100912458D01*
G01X49175031Y-100932279D01*
G01X49230937Y-100953628D01*
G01X49286112Y-100976481D01*
G01X49340529Y-101000815D01*
G01X49394161Y-101026607D01*
G01X49446981Y-101053833D01*
G01X49498962Y-101082472D01*
G01X49550077Y-101112500D01*
G01X49600300Y-101143894D01*
G01X49649603Y-101176630D01*
G01X49697959Y-101210686D01*
G01X49745343Y-101246039D01*
G01X49791726Y-101282665D01*
G01X49837083Y-101320541D01*
G01X49881385Y-101359645D01*
G01X49924606Y-101399953D01*
G01X49966720Y-101441443D01*
G01X50007700Y-101484090D01*
G01X50047518Y-101527873D01*
G01X50086147Y-101572768D01*
G01X50123562Y-101618751D01*
G01X50159734Y-101665801D01*
G01X50194637Y-101713893D01*
G01X50228245Y-101763005D01*
G01X50260529Y-101813114D01*
G01X50291464Y-101864196D01*
G01X50321023Y-101916229D01*
G01X50349178Y-101969189D01*
G01X50375903Y-102023054D01*
G01X50401171Y-102077800D01*
G01X50424955Y-102133404D01*
G01X50447228Y-102189843D01*
G01X50467963Y-102247095D01*
G01X50487134Y-102305135D01*
G01X50504712Y-102363941D01*
G01X50520673Y-102423491D01*
G01X50534988Y-102483760D01*
G01X50547631Y-102544726D01*
G01X50558575Y-102606365D01*
G01X50558575Y-102606365D01*
G01X50558575Y-102606365D01*
G01X50564371Y-102646313D01*
G01X50569472Y-102686381D01*
G01X50573575Y-102724185D01*
G37*
G36*
G01X50573565Y-91186295D02*
G01X50573565Y-91186295D01*
G01X50566482Y-91243681D01*
G01X50557912Y-91300595D01*
G01X50547875Y-91357015D01*
G01X50536391Y-91412922D01*
G01X50523479Y-91468295D01*
G01X50509159Y-91523113D01*
G01X50493450Y-91577355D01*
G01X50476371Y-91631002D01*
G01X50457943Y-91684032D01*
G01X50438185Y-91736425D01*
G01X50417117Y-91788160D01*
G01X50394757Y-91839217D01*
G01X50371125Y-91889575D01*
G01X50346242Y-91939214D01*
G01X50320126Y-91988112D01*
G01X50292797Y-92036250D01*
G01X50264275Y-92083607D01*
G01X50234579Y-92130163D01*
G01X50203729Y-92175896D01*
G01X50171744Y-92220786D01*
G01X50138643Y-92264813D01*
G01X50104447Y-92307955D01*
G01X50069175Y-92350193D01*
G01X50032846Y-92391506D01*
G01X49995480Y-92431874D01*
G01X49957096Y-92471275D01*
G01X49917715Y-92509689D01*
G01X49877355Y-92547095D01*
G01X49836036Y-92583474D01*
G01X49793778Y-92618804D01*
G01X49750599Y-92653065D01*
G01X49706521Y-92686236D01*
G01X49661562Y-92718297D01*
G01X49615741Y-92749227D01*
G01X49569079Y-92779005D01*
G01X49521594Y-92807612D01*
G01X49473307Y-92835025D01*
G01X49424237Y-92861226D01*
G01X49374403Y-92886193D01*
G01X49323825Y-92909905D01*
G01X49272523Y-92932343D01*
G01X49220516Y-92953485D01*
G01X49167823Y-92973311D01*
G01X49114465Y-92991800D01*
G01X49060460Y-93008932D01*
G01X49005829Y-93024687D01*
G01X48950590Y-93039043D01*
G01X48894763Y-93051980D01*
G01X48838368Y-93063478D01*
G01X48781425Y-93073515D01*
G01X48781425Y-93073515D01*
G01X23095655Y-97251555D01*
G01X23095655Y-97251555D01*
G01X23025465Y-97261791D01*
G01X22955478Y-97269692D01*
G01X22885733Y-97275287D01*
G01X22816272Y-97278607D01*
G01X22747134Y-97279679D01*
G01X22678362Y-97278534D01*
G01X22609994Y-97275200D01*
G01X22542072Y-97269707D01*
G01X22474636Y-97262084D01*
G01X22407727Y-97252360D01*
G01X22341386Y-97240564D01*
G01X22275652Y-97226726D01*
G01X22210568Y-97210874D01*
G01X22146172Y-97193038D01*
G01X22082506Y-97173248D01*
G01X22019610Y-97151532D01*
G01X21957525Y-97127919D01*
G01X21896291Y-97102439D01*
G01X21835950Y-97075121D01*
G01X21776541Y-97045994D01*
G01X21718105Y-97015088D01*
G01X21660682Y-96982431D01*
G01X21604315Y-96948053D01*
G01X21549041Y-96911983D01*
G01X21494904Y-96874250D01*
G01X21441942Y-96834884D01*
G01X21390197Y-96793913D01*
G01X21339709Y-96751367D01*
G01X21290519Y-96707275D01*
G01X21242667Y-96661666D01*
G01X21196193Y-96614570D01*
G01X21151140Y-96566015D01*
G01X21107546Y-96516032D01*
G01X21065453Y-96464648D01*
G01X21024901Y-96411894D01*
G01X20985930Y-96357798D01*
G01X20948582Y-96302390D01*
G01X20912897Y-96245699D01*
G01X20878915Y-96187754D01*
G01X20846677Y-96128584D01*
G01X20816224Y-96068219D01*
G01X20787596Y-96006687D01*
G01X20760834Y-95944019D01*
G01X20735978Y-95880242D01*
G01X20713068Y-95815387D01*
G01X20692147Y-95749483D01*
G01X20673253Y-95682558D01*
G01X20656427Y-95614642D01*
G01X20641711Y-95545765D01*
G01X20629145Y-95475955D01*
G01X20629145Y-95475955D01*
G01X20629145Y-95475955D01*
G01X20623349Y-95435427D01*
G01X20618248Y-95394835D01*
G01X20614145Y-95356575D01*
G01X20614145Y-100893705D01*
G01X20614145Y-100893705D01*
G01X20621241Y-100836331D01*
G01X20629822Y-100779429D01*
G01X20639870Y-100723021D01*
G01X20651365Y-100667127D01*
G01X20664287Y-100611767D01*
G01X20678616Y-100556962D01*
G01X20694334Y-100502732D01*
G01X20711421Y-100449098D01*
G01X20729856Y-100396081D01*
G01X20749622Y-100343701D01*
G01X20770697Y-100291979D01*
G01X20793063Y-100240935D01*
G01X20816700Y-100190590D01*
G01X20841588Y-100140964D01*
G01X20867709Y-100092079D01*
G01X20895041Y-100043954D01*
G01X20923567Y-99996609D01*
G01X20953266Y-99950067D01*
G01X20984119Y-99904347D01*
G01X21016106Y-99859469D01*
G01X21049208Y-99815455D01*
G01X21083405Y-99772325D01*
G01X21118678Y-99730099D01*
G01X21155007Y-99688798D01*
G01X21192373Y-99648443D01*
G01X21230755Y-99609053D01*
G01X21270135Y-99570651D01*
G01X21310494Y-99533255D01*
G01X21351811Y-99496888D01*
G01X21394066Y-99461569D01*
G01X21437241Y-99427319D01*
G01X21481317Y-99394158D01*
G01X21526272Y-99362107D01*
G01X21572088Y-99331187D01*
G01X21618746Y-99301418D01*
G01X21666225Y-99272821D01*
G01X21714507Y-99245416D01*
G01X21763571Y-99219224D01*
G01X21813399Y-99194265D01*
G01X21863970Y-99170561D01*
G01X21915265Y-99148131D01*
G01X21967265Y-99126995D01*
G01X22019950Y-99107176D01*
G01X22073300Y-99088693D01*
G01X22127297Y-99071566D01*
G01X22181920Y-99055817D01*
G01X22237149Y-99041466D01*
G01X22292967Y-99028533D01*
G01X22349352Y-99017039D01*
G01X22406285Y-99007005D01*
G01X22406285Y-99007005D01*
G01X48092055Y-94829475D01*
G01X48092055Y-94829475D01*
G01X48139163Y-94822397D01*
G01X48186401Y-94816372D01*
G01X48233751Y-94811400D01*
G01X48281194Y-94807477D01*
G01X48328714Y-94804605D01*
G01X48376293Y-94802780D01*
G01X48423913Y-94802001D01*
G01X48456895Y-94802075D01*
G01X48456895Y-94802075D01*
G01X48519481Y-94803573D01*
G01X48581657Y-94806853D01*
G01X48643399Y-94811890D01*
G01X48704677Y-94818662D01*
G01X48765467Y-94827146D01*
G01X48825740Y-94837319D01*
G01X48885470Y-94849158D01*
G01X48944629Y-94862639D01*
G01X49003192Y-94877740D01*
G01X49061131Y-94894437D01*
G01X49118420Y-94912708D01*
G01X49175031Y-94932529D01*
G01X49230937Y-94953878D01*
G01X49286112Y-94976731D01*
G01X49340529Y-95001065D01*
G01X49394161Y-95026857D01*
G01X49446981Y-95054084D01*
G01X49498962Y-95082722D01*
G01X49550077Y-95112750D01*
G01X49600300Y-95144144D01*
G01X49649603Y-95176880D01*
G01X49697959Y-95210936D01*
G01X49745343Y-95246289D01*
G01X49791726Y-95282915D01*
G01X49837083Y-95320791D01*
G01X49881385Y-95359895D01*
G01X49924606Y-95400203D01*
G01X49966720Y-95441693D01*
G01X50007700Y-95484340D01*
G01X50047518Y-95528123D01*
G01X50086147Y-95573018D01*
G01X50123562Y-95619001D01*
G01X50159734Y-95666051D01*
G01X50194637Y-95714143D01*
G01X50228245Y-95763255D01*
G01X50260529Y-95813364D01*
G01X50291464Y-95864446D01*
G01X50321023Y-95916479D01*
G01X50349178Y-95969439D01*
G01X50375903Y-96023304D01*
G01X50401171Y-96078050D01*
G01X50424955Y-96133654D01*
G01X50447228Y-96190093D01*
G01X50467963Y-96247345D01*
G01X50487134Y-96305385D01*
G01X50504712Y-96364191D01*
G01X50520673Y-96423741D01*
G01X50534988Y-96484010D01*
G01X50547631Y-96544976D01*
G01X50558575Y-96606615D01*
G01X50558575Y-96606615D01*
G01X50558575Y-96606615D01*
G01X50564371Y-96646764D01*
G01X50569472Y-96687014D01*
G01X50573575Y-96724955D01*
G37*
G36*
G01X20614590Y-90307860D02*
G01X20614590Y-94894140D01*
G01X20614590Y-94894140D01*
G01X20621686Y-94836766D01*
G01X20630267Y-94779864D01*
G01X20640315Y-94723456D01*
G01X20651809Y-94667562D01*
G01X20664731Y-94612201D01*
G01X20679061Y-94557396D01*
G01X20694779Y-94503166D01*
G01X20711865Y-94449533D01*
G01X20730301Y-94396515D01*
G01X20750066Y-94344135D01*
G01X20771141Y-94292413D01*
G01X20793507Y-94241369D01*
G01X20817143Y-94191023D01*
G01X20842032Y-94141398D01*
G01X20868152Y-94092512D01*
G01X20895484Y-94044386D01*
G01X20924010Y-93997042D01*
G01X20953709Y-93950499D01*
G01X20984561Y-93904778D01*
G01X21016548Y-93859901D01*
G01X21049650Y-93815886D01*
G01X21083847Y-93772756D01*
G01X21119120Y-93730529D01*
G01X21155448Y-93689228D01*
G01X21192814Y-93648872D01*
G01X21231196Y-93609483D01*
G01X21270576Y-93571080D01*
G01X21310935Y-93533685D01*
G01X21352251Y-93497317D01*
G01X21394507Y-93461997D01*
G01X21437682Y-93427747D01*
G01X21481757Y-93394586D01*
G01X21526713Y-93362535D01*
G01X21572529Y-93331615D01*
G01X21619187Y-93301845D01*
G01X21666666Y-93273248D01*
G01X21714948Y-93245843D01*
G01X21764012Y-93219651D01*
G01X21813840Y-93194692D01*
G01X21864411Y-93170987D01*
G01X21915707Y-93148556D01*
G01X21967707Y-93127421D01*
G01X22020392Y-93107602D01*
G01X22073743Y-93089118D01*
G01X22127739Y-93071992D01*
G01X22182363Y-93056242D01*
G01X22237593Y-93041891D01*
G01X22293411Y-93028958D01*
G01X22349796Y-93017464D01*
G01X22406730Y-93007430D01*
G01X22406730Y-93007430D01*
G01X39003130Y-90307860D01*
G37*
G36*
G01X49692002Y-22666592D02*
G01X49692002Y-22666592D01*
G01X49629400Y-22667753D01*
G01X49566771Y-22669488D01*
G01X49504118Y-22671797D01*
G01X49441441Y-22674679D01*
G01X49378742Y-22678135D01*
G01X49316022Y-22682163D01*
G01X49253284Y-22686763D01*
G01X49190528Y-22691934D01*
G01X49127756Y-22697677D01*
G01X49064970Y-22703990D01*
G01X49002171Y-22710873D01*
G01X48939361Y-22718326D01*
G01X48876540Y-22726347D01*
G01X48813712Y-22734938D01*
G01X48750876Y-22744097D01*
G01X48688035Y-22753823D01*
G01X48625191Y-22764116D01*
G01X48562343Y-22774977D01*
G01X48499496Y-22786403D01*
G01X48436649Y-22798395D01*
G01X48373804Y-22810953D01*
G01X48310962Y-22824075D01*
G01X48248127Y-22837761D01*
G01X48185297Y-22852012D01*
G01X48122477Y-22866825D01*
G01X48059665Y-22882202D01*
G01X47996866Y-22898141D01*
G01X47934079Y-22914642D01*
G01X47871306Y-22931704D01*
G01X47808549Y-22949327D01*
G01X47745810Y-22967510D01*
G01X47683089Y-22986254D01*
G01X47620389Y-23005557D01*
G01X47557710Y-23025419D01*
G01X47495055Y-23045839D01*
G01X47432425Y-23066817D01*
G01X47369821Y-23088353D01*
G01X47307246Y-23110446D01*
G01X47244699Y-23133096D01*
G01X47182184Y-23156302D01*
G01X47119701Y-23180063D01*
G01X47057252Y-23204380D01*
G01X46994839Y-23229251D01*
G01X46932462Y-23254676D01*
G01X46870124Y-23280655D01*
G01X46807826Y-23307187D01*
G01X46745570Y-23334272D01*
G01X46683357Y-23361909D01*
G01X46621188Y-23390098D01*
G01X46559065Y-23418838D01*
G01X46496990Y-23448129D01*
G01X46434964Y-23477971D01*
G01X46372989Y-23508362D01*
G01X46311065Y-23539302D01*
G01X46249196Y-23570792D01*
G01X46187381Y-23602829D01*
G01X46125623Y-23635415D01*
G01X46063924Y-23668548D01*
G01X46002284Y-23702228D01*
G01X45940705Y-23736455D01*
G01X45879189Y-23771227D01*
G01X45817737Y-23806545D01*
G01X45756351Y-23842408D01*
G01X45695032Y-23878815D01*
G01X45633782Y-23915767D01*
G01X45572602Y-23953262D01*
G01X45511494Y-23991300D01*
G01X45450459Y-24029881D01*
G01X45389499Y-24069003D01*
G01X45328615Y-24108668D01*
G01X45267810Y-24148873D01*
G01X45207083Y-24189620D01*
G01X45146437Y-24230906D01*
G01X45085874Y-24272732D01*
G01X45025395Y-24315098D01*
G01X44965001Y-24358002D01*
G01X44904694Y-24401444D01*
G01X44844475Y-24445425D01*
G01X44784346Y-24489942D01*
G01X44724309Y-24534996D01*
G01X44664364Y-24580587D01*
G01X44604514Y-24626713D01*
G01X44544760Y-24673375D01*
G01X44485104Y-24720572D01*
G01X44425546Y-24768303D01*
G01X44366089Y-24816568D01*
G01X44306734Y-24865367D01*
G01X44247483Y-24914698D01*
G01X44188336Y-24964562D01*
G01X44129297Y-25014958D01*
G01X44070365Y-25065885D01*
G01X44011543Y-25117344D01*
G01X43952832Y-25169332D01*
G01X43894233Y-25221852D01*
G01X43835749Y-25274900D01*
G01X43777380Y-25328478D01*
G01X43719128Y-25382584D01*
G01X43660995Y-25437219D01*
G01X43602983Y-25492381D01*
G01X43545092Y-25548070D01*
G01X43545092Y-25548070D01*
G01X43545092Y-25548070D01*
G01X43507918Y-25585340D01*
G01X43471011Y-25624798D01*
G01X43434344Y-25666224D01*
G01X43397890Y-25709402D01*
G01X43361623Y-25754112D01*
G01X43325517Y-25800135D01*
G01X43289545Y-25847255D01*
G01X43253681Y-25895251D01*
G01X43217898Y-25943907D01*
G01X43182171Y-25993003D01*
G01X43146473Y-26042322D01*
G01X43110777Y-26091644D01*
G01X43075057Y-26140752D01*
G01X43039287Y-26189426D01*
G01X43003441Y-26237450D01*
G01X42967491Y-26284604D01*
G01X42931412Y-26330671D01*
G01X42895178Y-26375430D01*
G01X42858761Y-26418666D01*
G01X42822136Y-26460158D01*
G01X42822136Y-26460158D01*
G01X42822136Y-26460158D01*
G01X42750066Y-26387654D01*
G01X42677838Y-26315943D01*
G01X42605454Y-26245026D01*
G01X42532918Y-26174902D01*
G01X42460232Y-26105568D01*
G01X42387401Y-26037025D01*
G01X42314427Y-25969272D01*
G01X42241314Y-25902307D01*
G01X42168065Y-25836131D01*
G01X42094682Y-25770741D01*
G01X42021169Y-25706138D01*
G01X41947530Y-25642320D01*
G01X41873768Y-25579287D01*
G01X41799885Y-25517037D01*
G01X41725885Y-25455569D01*
G01X41651771Y-25394884D01*
G01X41577546Y-25334979D01*
G01X41503214Y-25275855D01*
G01X41428778Y-25217510D01*
G01X41354240Y-25159943D01*
G01X41279605Y-25103154D01*
G01X41204875Y-25047141D01*
G01X41130053Y-24991904D01*
G01X41055143Y-24937442D01*
G01X40980148Y-24883754D01*
G01X40905071Y-24830839D01*
G01X40829916Y-24778696D01*
G01X40754685Y-24727324D01*
G01X40679381Y-24676724D01*
G01X40604009Y-24626892D01*
G01X40528570Y-24577830D01*
G01X40453069Y-24529535D01*
G01X40377508Y-24482008D01*
G01X40301891Y-24435247D01*
G01X40226221Y-24389251D01*
G01X40150501Y-24344019D01*
G01X40074734Y-24299551D01*
G01X39998923Y-24255846D01*
G01X39923073Y-24212902D01*
G01X39847185Y-24170719D01*
G01X39771263Y-24129297D01*
G01X39695310Y-24088634D01*
G01X39619330Y-24048729D01*
G01X39543325Y-24009581D01*
G01X39467300Y-23971190D01*
G01X39391256Y-23933555D01*
G01X39315198Y-23896675D01*
G01X39239128Y-23860548D01*
G01X39163049Y-23825175D01*
G01X39086966Y-23790554D01*
G01X39086966Y-23790554D01*
G01X38354194Y-27520560D01*
G01X38354194Y-27520560D01*
G01X38396296Y-27548241D01*
G01X38438485Y-27576290D01*
G01X38480759Y-27604706D01*
G01X38523116Y-27633491D01*
G01X38565554Y-27662645D01*
G01X38608071Y-27692168D01*
G01X38650664Y-27722060D01*
G01X38693333Y-27752321D01*
G01X38736074Y-27782952D01*
G01X38778885Y-27813953D01*
G01X38821765Y-27845325D01*
G01X38864712Y-27877067D01*
G01X38907723Y-27909180D01*
G01X38950797Y-27941665D01*
G01X38993931Y-27974521D01*
G01X39037123Y-28007748D01*
G01X39080371Y-28041348D01*
G01X39123674Y-28075320D01*
G01X39167029Y-28109665D01*
G01X39210433Y-28144383D01*
G01X39253886Y-28179474D01*
G01X39297385Y-28214938D01*
G01X39340927Y-28250777D01*
G01X39384512Y-28286989D01*
G01X39428136Y-28323576D01*
G01X39471797Y-28360537D01*
G01X39515495Y-28397874D01*
G01X39559226Y-28435585D01*
G01X39602988Y-28473672D01*
G01X39646780Y-28512135D01*
G01X39690600Y-28550974D01*
G01X39734444Y-28590190D01*
G01X39778312Y-28629782D01*
G01X39822202Y-28669751D01*
G01X39866110Y-28710097D01*
G01X39910036Y-28750821D01*
G01X39953976Y-28791923D01*
G01X39997930Y-28833402D01*
G01X40041894Y-28875261D01*
G01X40085868Y-28917497D01*
G01X40129848Y-28960113D01*
G01X40173833Y-29003108D01*
G01X40217821Y-29046483D01*
G01X40261809Y-29090237D01*
G01X40305796Y-29134372D01*
G01X40349779Y-29178887D01*
G01X40393757Y-29223782D01*
G01X40437728Y-29269059D01*
G01X40481688Y-29314717D01*
G01X40525638Y-29360756D01*
G01X40525638Y-29360756D01*
G01X40525638Y-29360756D01*
G01X40496526Y-29407067D01*
G01X40467432Y-29453548D01*
G01X40438358Y-29500200D01*
G01X40409302Y-29547022D01*
G01X40380264Y-29594014D01*
G01X40351245Y-29641178D01*
G01X40322244Y-29688512D01*
G01X40293262Y-29736018D01*
G01X40264299Y-29783695D01*
G01X40235354Y-29831544D01*
G01X40206427Y-29879565D01*
G01X40177518Y-29927758D01*
G01X40148628Y-29976123D01*
G01X40119757Y-30024660D01*
G01X40090903Y-30073371D01*
G01X40062068Y-30122254D01*
G01X40033252Y-30171310D01*
G01X40004453Y-30220540D01*
G01X39975673Y-30269943D01*
G01X39946911Y-30319520D01*
G01X39918167Y-30369270D01*
G01X39889441Y-30419195D01*
G01X39860734Y-30469294D01*
G01X39832044Y-30519568D01*
G01X39803373Y-30570016D01*
G01X39774720Y-30620639D01*
G01X39746085Y-30671438D01*
G01X39717468Y-30722411D01*
G01X39688869Y-30773561D01*
G01X39660288Y-30824885D01*
G01X39631725Y-30876386D01*
G01X39603180Y-30928063D01*
G01X39574652Y-30979916D01*
G01X39546143Y-31031946D01*
G01X39517652Y-31084153D01*
G01X39489178Y-31136536D01*
G01X39460723Y-31189097D01*
G01X39432285Y-31241835D01*
G01X39403865Y-31294750D01*
G01X39375463Y-31347844D01*
G01X39347079Y-31401115D01*
G01X39318712Y-31454564D01*
G01X39290363Y-31508192D01*
G01X39262032Y-31561998D01*
G01X39233718Y-31615983D01*
G01X39205422Y-31670147D01*
G01X39177144Y-31724490D01*
G01X39148883Y-31779013D01*
G01X39120640Y-31833715D01*
G01X39092415Y-31888596D01*
G01X39064207Y-31943658D01*
G01X39036016Y-31998900D01*
G01X39007844Y-32054322D01*
G01X38979688Y-32109925D01*
G01X38951550Y-32165709D01*
G01X38923430Y-32221674D01*
G01X38895327Y-32277820D01*
G01X38867241Y-32334147D01*
G01X38839173Y-32390656D01*
G01X38811122Y-32447346D01*
G01X38783088Y-32504219D01*
G01X38755072Y-32561274D01*
G01X38727073Y-32618511D01*
G01X38699091Y-32675931D01*
G01X38671127Y-32733533D01*
G01X38643179Y-32791319D01*
G01X38615249Y-32849288D01*
G01X38587337Y-32907440D01*
G01X38559441Y-32965776D01*
G01X38531562Y-33024296D01*
G01X38503701Y-33082999D01*
G01X38475857Y-33141887D01*
G01X38448029Y-33200960D01*
G01X38420219Y-33260217D01*
G01X38392426Y-33319658D01*
G01X38364650Y-33379285D01*
G01X38336891Y-33439097D01*
G01X38309149Y-33499095D01*
G01X38281423Y-33559278D01*
G01X38253715Y-33619647D01*
G01X38226024Y-33680202D01*
G01X38198349Y-33740943D01*
G01X38170691Y-33801871D01*
G01X38143051Y-33862985D01*
G01X38115427Y-33924286D01*
G01X38087819Y-33985775D01*
G01X38060229Y-34047450D01*
G01X38032655Y-34109313D01*
G01X38005098Y-34171364D01*
G01X37977558Y-34233602D01*
G01X37950035Y-34296029D01*
G01X37922528Y-34358644D01*
G01X37895038Y-34421447D01*
G01X37867564Y-34484439D01*
G01X37840107Y-34547620D01*
G01X37812667Y-34610990D01*
G01X37785243Y-34674549D01*
G01X37757836Y-34738297D01*
G01X37730445Y-34802236D01*
G01X37703071Y-34866364D01*
G01X37703071Y-34866364D01*
G01X37703071Y-34866364D01*
G01X37602263Y-35106029D01*
G01X37504452Y-35344794D01*
G01X37409619Y-35582648D01*
G01X37317745Y-35819580D01*
G01X37228809Y-36055580D01*
G01X37142792Y-36290635D01*
G01X37059674Y-36524735D01*
G01X36979436Y-36757869D01*
G01X36902059Y-36990027D01*
G01X36827522Y-37221196D01*
G01X36755806Y-37451366D01*
G01X36686892Y-37680526D01*
G01X36620760Y-37908665D01*
G01X36557390Y-38135772D01*
G01X36496763Y-38361836D01*
G01X36438858Y-38586846D01*
G01X36383658Y-38810791D01*
G01X36331141Y-39033659D01*
G01X36281289Y-39255440D01*
G01X36234081Y-39476124D01*
G01X36189499Y-39695698D01*
G01X36147522Y-39914151D01*
G01X36108131Y-40131474D01*
G01X36071306Y-40347654D01*
G01X36037029Y-40562681D01*
G01X36005278Y-40776543D01*
G01X35976035Y-40989231D01*
G01X35949281Y-41200732D01*
G01X35924994Y-41411036D01*
G01X35903157Y-41620131D01*
G01X35883749Y-41828007D01*
G01X35866750Y-42034653D01*
G01X35852142Y-42240057D01*
G01X35839904Y-42444209D01*
G01X35830017Y-42647097D01*
G01X35822461Y-42848711D01*
G01X35817217Y-43049039D01*
G01X35814265Y-43248071D01*
G01X35813586Y-43445796D01*
G01X35815160Y-43642202D01*
G01X35818967Y-43837278D01*
G01X35824987Y-44031014D01*
G01X35833202Y-44223399D01*
G01X35843592Y-44414420D01*
G01X35856137Y-44604069D01*
G01X35870817Y-44792332D01*
G01X35887613Y-44979200D01*
G01X35906505Y-45164662D01*
G01X35927473Y-45348705D01*
G01X35950499Y-45531320D01*
G01X35975563Y-45712496D01*
G01X36002644Y-45892220D01*
G01X36031723Y-46070483D01*
G01X36062781Y-46247273D01*
G01X36095799Y-46422580D01*
G01X36130755Y-46596392D01*
G01X36167632Y-46768697D01*
G01X36206409Y-46939486D01*
G01X36247067Y-47108748D01*
G01X36289586Y-47276470D01*
G01X36333947Y-47442643D01*
G01X36380129Y-47607255D01*
G01X36428114Y-47770294D01*
G01X36477882Y-47931751D01*
G01X36529413Y-48091615D01*
G01X36582687Y-48249873D01*
G01X36637686Y-48406515D01*
G01X36694389Y-48561530D01*
G01X36752777Y-48714907D01*
G01X36812830Y-48866636D01*
G01X36874529Y-49016704D01*
G01X36937853Y-49165101D01*
G01X37002785Y-49311816D01*
G01X37069303Y-49456839D01*
G01X37137389Y-49600157D01*
G01X37207022Y-49741760D01*
G01X37278183Y-49881637D01*
G01X37350853Y-50019776D01*
G01X37425012Y-50156168D01*
G01X37500640Y-50290800D01*
G01X37577718Y-50423663D01*
G01X37656227Y-50554744D01*
G01X37736145Y-50684033D01*
G01X37817455Y-50811519D01*
G01X37900136Y-50937190D01*
G01X37984169Y-51061036D01*
G01X38069535Y-51183046D01*
G01X38156213Y-51303209D01*
G01X38244183Y-51421514D01*
G01X38333428Y-51537949D01*
G01X38423926Y-51652503D01*
G01X38515659Y-51765167D01*
G01X38608606Y-51875928D01*
G01X38702748Y-51984776D01*
G01X38798066Y-52091699D01*
G01X38894540Y-52196687D01*
G01X38992150Y-52299728D01*
G01X39090877Y-52400812D01*
G01X39190701Y-52499928D01*
G01X39291602Y-52597064D01*
G01X39291602Y-52597064D01*
G01X39291602Y-52597064D01*
G01X39318553Y-52558928D01*
G01X39345082Y-52515787D01*
G01X39371230Y-52467871D01*
G01X39397036Y-52415412D01*
G01X39422540Y-52358639D01*
G01X39447782Y-52297782D01*
G01X39472801Y-52233073D01*
G01X39497638Y-52164740D01*
G01X39522331Y-52093014D01*
G01X39546921Y-52018126D01*
G01X39571448Y-51940306D01*
G01X39595951Y-51859784D01*
G01X39620471Y-51776790D01*
G01X39645046Y-51691555D01*
G01X39669716Y-51604309D01*
G01X39694522Y-51515281D01*
G01X39719503Y-51424703D01*
G01X39744699Y-51332805D01*
G01X39770150Y-51239816D01*
G01X39795895Y-51145968D01*
G01X39821974Y-51051490D01*
G01X39848427Y-50956612D01*
G01X39875294Y-50861566D01*
G01X39902614Y-50766580D01*
G01X39930428Y-50671886D01*
G01X39958774Y-50577713D01*
G01X39987693Y-50484293D01*
G01X40017225Y-50391854D01*
G01X40047409Y-50300628D01*
G01X40078285Y-50210845D01*
G01X40109892Y-50122734D01*
G01X40142272Y-50036527D01*
G01X40175462Y-49952453D01*
G01X40209504Y-49870743D01*
G01X40244436Y-49791626D01*
G01X40280299Y-49715334D01*
G01X40317132Y-49642097D01*
G01X40354976Y-49572144D01*
G01X40393869Y-49505706D01*
G01X40433852Y-49443013D01*
G01X40474965Y-49384295D01*
G01X40517246Y-49329784D01*
G01X40560736Y-49279708D01*
G01X40605476Y-49234299D01*
G01X40651503Y-49193786D01*
G01X40698859Y-49158400D01*
G01X40747583Y-49128371D01*
G01X40797714Y-49103929D01*
G01X40849293Y-49085305D01*
G01X40902359Y-49072728D01*
G01X40902359Y-49072728D01*
G01X40902359Y-49072728D01*
G01X40854638Y-49000915D01*
G01X40807322Y-48927867D01*
G01X40760430Y-48853588D01*
G01X40713978Y-48778080D01*
G01X40667983Y-48701347D01*
G01X40622464Y-48623391D01*
G01X40577437Y-48544214D01*
G01X40532919Y-48463820D01*
G01X40488928Y-48382212D01*
G01X40445480Y-48299392D01*
G01X40402594Y-48215363D01*
G01X40360285Y-48130128D01*
G01X40318572Y-48043689D01*
G01X40277472Y-47956051D01*
G01X40237002Y-47867214D01*
G01X40197178Y-47777183D01*
G01X40158019Y-47685960D01*
G01X40119542Y-47593548D01*
G01X40081763Y-47499949D01*
G01X40044700Y-47405167D01*
G01X40008370Y-47309204D01*
G01X39972791Y-47212063D01*
G01X39937979Y-47113747D01*
G01X39903952Y-47014259D01*
G01X39870727Y-46913601D01*
G01X39838321Y-46811777D01*
G01X39806752Y-46708789D01*
G01X39776037Y-46604640D01*
G01X39746192Y-46499332D01*
G01X39717235Y-46392870D01*
G01X39689184Y-46285254D01*
G01X39662055Y-46176489D01*
G01X39635867Y-46066577D01*
G01X39610635Y-45955521D01*
G01X39586377Y-45843324D01*
G01X39563111Y-45729988D01*
G01X39540853Y-45615517D01*
G01X39519621Y-45499912D01*
G01X39499432Y-45383178D01*
G01X39480304Y-45265316D01*
G01X39462253Y-45146330D01*
G01X39445296Y-45026223D01*
G01X39429452Y-44904996D01*
G01X39414737Y-44782654D01*
G01X39401168Y-44659199D01*
G01X39388763Y-44534633D01*
G01X39377538Y-44408960D01*
G01X39367512Y-44282182D01*
G01X39358701Y-44154302D01*
G01X39351122Y-44025323D01*
G01X39344793Y-43895248D01*
G01X39339731Y-43764080D01*
G01X39335953Y-43631821D01*
G01X39333476Y-43498474D01*
G01X39332318Y-43364042D01*
G01X39332495Y-43228528D01*
G01X39334026Y-43091935D01*
G01X39336927Y-42954265D01*
G01X39341215Y-42815521D01*
G01X39346908Y-42675707D01*
G01X39354022Y-42534825D01*
G01X39362576Y-42392877D01*
G01X39372586Y-42249867D01*
G01X39384069Y-42105797D01*
G01X39397043Y-41960670D01*
G01X39411525Y-41814490D01*
G01X39427533Y-41667258D01*
G01X39445082Y-41518978D01*
G01X39464191Y-41369652D01*
G01X39484877Y-41219284D01*
G01X39507157Y-41067876D01*
G01X39531048Y-40915430D01*
G01X39556568Y-40761951D01*
G01X39583733Y-40607439D01*
G01X39612562Y-40451900D01*
G01X39643070Y-40295334D01*
G01X39675275Y-40137746D01*
G01X39709196Y-39979137D01*
G01X39744847Y-39819511D01*
G01X39782248Y-39658870D01*
G01X39821415Y-39497218D01*
G01X39862366Y-39334556D01*
G01X39905117Y-39170889D01*
G01X39949686Y-39006218D01*
G01X39996090Y-38840547D01*
G01X40044346Y-38673878D01*
G01X40094472Y-38506214D01*
G01X40146484Y-38337558D01*
G01X40200400Y-38167913D01*
G01X40256238Y-37997282D01*
G01X40314014Y-37825667D01*
G01X40373745Y-37653071D01*
G01X40435449Y-37479498D01*
G01X40499144Y-37304949D01*
G01X40564845Y-37129428D01*
G01X40632571Y-36952937D01*
G01X40702338Y-36775480D01*
G01X40774165Y-36597059D01*
G01X40848067Y-36417676D01*
G01X40924063Y-36237336D01*
G01X40924063Y-36237336D01*
G01X40924063Y-36237336D01*
G01X40962659Y-36147222D01*
G01X41001270Y-36057988D01*
G01X41039895Y-35969617D01*
G01X41078535Y-35882091D01*
G01X41117187Y-35795392D01*
G01X41155853Y-35709502D01*
G01X41194531Y-35624402D01*
G01X41233221Y-35540076D01*
G01X41271924Y-35456504D01*
G01X41310637Y-35373669D01*
G01X41349361Y-35291553D01*
G01X41388096Y-35210139D01*
G01X41426841Y-35129407D01*
G01X41465595Y-35049340D01*
G01X41504358Y-34969921D01*
G01X41543130Y-34891130D01*
G01X41581911Y-34812951D01*
G01X41620699Y-34735365D01*
G01X41659495Y-34658354D01*
G01X41698297Y-34581900D01*
G01X41737107Y-34505985D01*
G01X41775922Y-34430592D01*
G01X41814743Y-34355702D01*
G01X41853569Y-34281297D01*
G01X41892400Y-34207360D01*
G01X41931236Y-34133872D01*
G01X41970075Y-34060816D01*
G01X42008918Y-33988172D01*
G01X42047764Y-33915925D01*
G01X42086612Y-33844054D01*
G01X42125463Y-33772544D01*
G01X42164316Y-33701375D01*
G01X42203170Y-33630529D01*
G01X42242025Y-33559989D01*
G01X42280880Y-33489736D01*
G01X42319736Y-33419753D01*
G01X42358591Y-33350022D01*
G01X42397445Y-33280525D01*
G01X42436298Y-33211243D01*
G01X42475150Y-33142159D01*
G01X42513999Y-33073254D01*
G01X42552846Y-33004512D01*
G01X42591690Y-32935913D01*
G01X42630530Y-32867440D01*
G01X42669367Y-32799075D01*
G01X42708199Y-32730800D01*
G01X42747027Y-32662597D01*
G01X42785849Y-32594448D01*
G01X42824666Y-32526334D01*
G01X42863478Y-32458239D01*
G01X42863478Y-32458239D01*
G01X42863478Y-32458239D01*
G01X42908625Y-32543383D01*
G01X42953610Y-32629237D01*
G01X42998429Y-32715803D01*
G01X43043079Y-32803083D01*
G01X43087557Y-32891082D01*
G01X43131861Y-32979800D01*
G01X43175986Y-33069242D01*
G01X43219931Y-33159411D01*
G01X43263691Y-33250308D01*
G01X43307265Y-33341936D01*
G01X43350648Y-33434299D01*
G01X43393838Y-33527399D01*
G01X43436832Y-33621239D01*
G01X43479627Y-33715821D01*
G01X43522219Y-33811149D01*
G01X43564606Y-33907226D01*
G01X43606785Y-34004053D01*
G01X43648752Y-34101634D01*
G01X43690505Y-34199972D01*
G01X43732040Y-34299069D01*
G01X43773355Y-34398928D01*
G01X43814446Y-34499552D01*
G01X43855310Y-34600944D01*
G01X43895945Y-34703106D01*
G01X43936347Y-34806041D01*
G01X43976513Y-34909753D01*
G01X44016440Y-35014243D01*
G01X44056125Y-35119514D01*
G01X44095566Y-35225570D01*
G01X44134758Y-35332413D01*
G01X44173699Y-35440046D01*
G01X44212387Y-35548472D01*
G01X44250817Y-35657693D01*
G01X44288987Y-35767712D01*
G01X44326894Y-35878533D01*
G01X44364534Y-35990157D01*
G01X44401905Y-36102587D01*
G01X44439004Y-36215827D01*
G01X44475828Y-36329879D01*
G01X44512373Y-36444746D01*
G01X44548636Y-36560430D01*
G01X44584615Y-36676935D01*
G01X44620307Y-36794263D01*
G01X44655708Y-36912417D01*
G01X44690815Y-37031400D01*
G01X44725625Y-37151214D01*
G01X44760136Y-37271862D01*
G01X44794344Y-37393348D01*
G01X44828246Y-37515673D01*
G01X44861839Y-37638841D01*
G01X44895120Y-37762855D01*
G01X44928086Y-37887716D01*
G01X44960734Y-38013429D01*
G01X44993061Y-38139995D01*
G01X45025064Y-38267418D01*
G01X45056740Y-38395700D01*
G01X45088085Y-38524844D01*
G01X45119098Y-38654853D01*
G01X45149773Y-38785730D01*
G01X45180110Y-38917476D01*
G01X45210104Y-39050096D01*
G01X45239753Y-39183592D01*
G01X45269053Y-39317967D01*
G01X45298002Y-39453223D01*
G01X45326596Y-39589364D01*
G01X45354833Y-39726391D01*
G01X45382708Y-39864308D01*
G01X45410220Y-40003118D01*
G01X45437366Y-40142823D01*
G01X45464141Y-40283427D01*
G01X45490544Y-40424931D01*
G01X45516571Y-40567339D01*
G01X45542218Y-40710653D01*
G01X45567484Y-40854877D01*
G01X45592365Y-41000013D01*
G01X45616858Y-41146063D01*
G01X45640959Y-41293031D01*
G01X45664667Y-41440919D01*
G01X45687977Y-41589731D01*
G01X45710887Y-41739468D01*
G01X45733393Y-41890134D01*
G01X45755493Y-42041732D01*
G01X45777184Y-42194263D01*
G01X45798462Y-42347732D01*
G01X45819325Y-42502141D01*
G01X45839770Y-42657492D01*
G01X45859792Y-42813788D01*
G01X45879390Y-42971032D01*
G01X45898561Y-43129228D01*
G01X45917300Y-43288377D01*
G01X45935606Y-43448482D01*
G01X45953475Y-43609547D01*
G01X45970905Y-43771573D01*
G01X45987891Y-43934565D01*
G01X46004431Y-44098523D01*
G01X46020523Y-44263453D01*
G01X46036162Y-44429355D01*
G01X46051346Y-44596233D01*
G01X46066072Y-44764090D01*
G01X46080337Y-44932928D01*
G01X46080337Y-44932928D01*
G01X46080337Y-44932928D01*
G01X46087656Y-45023960D01*
G01X46094463Y-45114194D01*
G01X46100761Y-45203632D01*
G01X46106558Y-45292275D01*
G01X46111857Y-45380126D01*
G01X46116663Y-45467189D01*
G01X46120983Y-45553464D01*
G01X46124821Y-45638954D01*
G01X46128183Y-45723662D01*
G01X46131074Y-45807591D01*
G01X46133498Y-45890741D01*
G01X46135461Y-45973116D01*
G01X46136969Y-46054718D01*
G01X46138026Y-46135550D01*
G01X46138638Y-46215613D01*
G01X46138810Y-46294911D01*
G01X46138547Y-46373445D01*
G01X46137854Y-46451217D01*
G01X46136736Y-46528231D01*
G01X46135199Y-46604488D01*
G01X46133249Y-46679991D01*
G01X46130889Y-46754742D01*
G01X46128125Y-46828743D01*
G01X46124963Y-46901997D01*
G01X46121408Y-46974507D01*
G01X46117464Y-47046273D01*
G01X46113138Y-47117300D01*
G01X46108434Y-47187589D01*
G01X46103357Y-47257142D01*
G01X46097913Y-47325963D01*
G01X46092106Y-47394052D01*
G01X46085943Y-47461413D01*
G01X46079428Y-47528048D01*
G01X46072567Y-47593959D01*
G01X46065364Y-47659149D01*
G01X46057825Y-47723620D01*
G01X46049955Y-47787374D01*
G01X46041759Y-47850413D01*
G01X46033243Y-47912741D01*
G01X46024411Y-47974358D01*
G01X46015269Y-48035269D01*
G01X46005823Y-48095474D01*
G01X45996076Y-48154977D01*
G01X45986035Y-48213779D01*
G01X45975704Y-48271884D01*
G01X45965090Y-48329292D01*
G01X45954196Y-48386008D01*
G01X45943029Y-48442032D01*
G01X45931593Y-48497368D01*
G01X45919893Y-48552018D01*
G01X45907936Y-48605983D01*
G01X45895725Y-48659267D01*
G01X45883267Y-48711872D01*
G01X45870566Y-48763800D01*
G01X45857627Y-48815053D01*
G01X45844457Y-48865634D01*
G01X45831059Y-48915545D01*
G01X45817440Y-48964789D01*
G01X45803604Y-49013368D01*
G01X45789557Y-49061283D01*
G01X45775303Y-49108538D01*
G01X45760849Y-49155135D01*
G01X45746198Y-49201077D01*
G01X45731357Y-49246364D01*
G01X45716331Y-49291001D01*
G01X45701124Y-49334989D01*
G01X45685743Y-49378330D01*
G01X45670191Y-49421027D01*
G01X45654475Y-49463083D01*
G01X45638600Y-49504499D01*
G01X45622570Y-49545278D01*
G01X45606391Y-49585422D01*
G01X45590069Y-49624934D01*
G01X45573608Y-49663816D01*
G01X45557013Y-49702070D01*
G01X45540290Y-49739698D01*
G01X45523444Y-49776704D01*
G01X45506481Y-49813089D01*
G01X45489404Y-49848856D01*
G01X45472220Y-49884007D01*
G01X45454934Y-49918544D01*
G01X45437551Y-49952470D01*
G01X45420076Y-49985786D01*
G01X45402515Y-50018497D01*
G01X45384872Y-50050602D01*
G01X45367152Y-50082107D01*
G01X45349362Y-50113011D01*
G01X45331506Y-50143318D01*
G01X45313589Y-50173030D01*
G01X45295617Y-50202150D01*
G01X45277594Y-50230680D01*
G01X45259526Y-50258621D01*
G01X45241419Y-50285977D01*
G01X45223276Y-50312750D01*
G01X45205105Y-50338942D01*
G01X45186909Y-50364556D01*
G01X45168694Y-50389593D01*
G01X45150465Y-50414057D01*
G01X45132227Y-50437949D01*
G01X45113986Y-50461272D01*
G01X45113986Y-50461272D01*
G01X45113986Y-50461272D01*
G01X45127217Y-50527358D01*
G01X45139466Y-50594681D01*
G01X45150760Y-50663197D01*
G01X45161128Y-50732863D01*
G01X45170597Y-50803633D01*
G01X45179196Y-50875465D01*
G01X45186952Y-50948315D01*
G01X45193893Y-51022137D01*
G01X45200047Y-51096889D01*
G01X45205442Y-51172526D01*
G01X45210106Y-51249004D01*
G01X45214066Y-51326279D01*
G01X45217350Y-51404307D01*
G01X45219987Y-51483045D01*
G01X45222004Y-51562448D01*
G01X45223429Y-51642472D01*
G01X45224289Y-51723073D01*
G01X45224614Y-51804207D01*
G01X45224430Y-51885831D01*
G01X45223765Y-51967899D01*
G01X45222648Y-52050369D01*
G01X45221106Y-52133196D01*
G01X45219167Y-52216335D01*
G01X45216859Y-52299744D01*
G01X45214210Y-52383378D01*
G01X45211247Y-52467193D01*
G01X45207999Y-52551146D01*
G01X45204494Y-52635191D01*
G01X45200758Y-52719285D01*
G01X45196821Y-52803384D01*
G01X45192709Y-52887445D01*
G01X45188452Y-52971422D01*
G01X45184076Y-53055272D01*
G01X45179610Y-53138952D01*
G01X45175081Y-53222416D01*
G01X45170517Y-53305621D01*
G01X45165947Y-53388524D01*
G01X45161397Y-53471079D01*
G01X45156897Y-53553243D01*
G01X45152473Y-53634973D01*
G01X45148154Y-53716223D01*
G01X45143967Y-53796950D01*
G01X45139941Y-53877110D01*
G01X45136103Y-53956659D01*
G01X45132480Y-54035553D01*
G01X45129102Y-54113748D01*
G01X45125996Y-54191199D01*
G01X45123189Y-54267864D01*
G01X45120710Y-54343697D01*
G01X45118586Y-54418656D01*
G01X45118586Y-54418656D01*
G01X45118586Y-54418656D01*
G01X45185441Y-54401915D01*
G01X45252085Y-54384268D01*
G01X45318511Y-54365711D01*
G01X45384708Y-54346239D01*
G01X45450668Y-54325848D01*
G01X45516382Y-54304535D01*
G01X45581841Y-54282294D01*
G01X45647037Y-54259123D01*
G01X45711959Y-54235016D01*
G01X45776601Y-54209970D01*
G01X45840951Y-54183981D01*
G01X45905002Y-54157043D01*
G01X45968745Y-54129154D01*
G01X46032171Y-54100309D01*
G01X46095270Y-54070504D01*
G01X46158034Y-54039735D01*
G01X46220455Y-54007997D01*
G01X46282522Y-53975287D01*
G01X46344228Y-53941600D01*
G01X46405562Y-53906932D01*
G01X46466517Y-53871280D01*
G01X46527084Y-53834638D01*
G01X46587253Y-53797003D01*
G01X46647015Y-53758371D01*
G01X46706363Y-53718737D01*
G01X46765286Y-53678098D01*
G01X46823775Y-53636448D01*
G01X46881823Y-53593785D01*
G01X46939420Y-53550104D01*
G01X46996557Y-53505400D01*
G01X47053225Y-53459671D01*
G01X47109415Y-53412910D01*
G01X47165119Y-53365115D01*
G01X47183577Y-53348953D01*
G01X47183577Y-53348953D01*
G01X47240611Y-53298090D01*
G01X47296983Y-53246471D01*
G01X47352694Y-53194096D01*
G01X47407743Y-53140966D01*
G01X47462130Y-53087082D01*
G01X47515855Y-53032444D01*
G01X47568917Y-52977054D01*
G01X47621317Y-52920912D01*
G01X47673053Y-52864018D01*
G01X47724126Y-52806375D01*
G01X47774535Y-52747982D01*
G01X47824280Y-52688839D01*
G01X47873361Y-52628949D01*
G01X47921777Y-52568312D01*
G01X47969529Y-52506928D01*
G01X48016615Y-52444799D01*
G01X48063036Y-52381925D01*
G01X48108791Y-52318306D01*
G01X48153880Y-52253945D01*
G01X48198303Y-52188840D01*
G01X48242060Y-52122994D01*
G01X48285149Y-52056407D01*
G01X48327572Y-51989080D01*
G01X48369327Y-51921013D01*
G01X48410415Y-51852208D01*
G01X48450834Y-51782665D01*
G01X48490586Y-51712384D01*
G01X48529668Y-51641367D01*
G01X48568082Y-51569615D01*
G01X48605827Y-51497128D01*
G01X48642903Y-51423907D01*
G01X48679309Y-51349953D01*
G01X48715045Y-51275266D01*
G01X48750111Y-51199848D01*
G01X48784506Y-51123699D01*
G01X48818230Y-51046819D01*
G01X48851284Y-50969211D01*
G01X48883666Y-50890873D01*
G01X48915376Y-50811808D01*
G01X48946415Y-50732016D01*
G01X48976781Y-50651498D01*
G01X49006475Y-50570255D01*
G01X49035496Y-50488286D01*
G01X49063844Y-50405594D01*
G01X49091519Y-50322179D01*
G01X49118520Y-50238041D01*
G01X49144848Y-50153182D01*
G01X49170501Y-50067602D01*
G01X49195479Y-49981303D01*
G01X49219783Y-49894283D01*
G01X49243412Y-49806546D01*
G01X49266366Y-49718091D01*
G01X49288644Y-49628919D01*
G01X49310246Y-49539031D01*
G01X49331172Y-49448427D01*
G01X49351422Y-49357109D01*
G01X49370995Y-49265078D01*
G01X49389890Y-49172333D01*
G01X49408109Y-49078876D01*
G01X49425650Y-48984708D01*
G01X49442513Y-48889829D01*
G01X49458698Y-48794240D01*
G01X49474205Y-48697942D01*
G01X49489033Y-48600935D01*
G01X49503182Y-48503222D01*
G01X49516652Y-48404801D01*
G01X49529442Y-48305675D01*
G01X49541552Y-48205843D01*
G01X49552982Y-48105307D01*
G01X49563732Y-48004067D01*
G01X49573801Y-47902124D01*
G01X49583190Y-47799480D01*
G01X49591896Y-47696134D01*
G01X49599922Y-47592087D01*
G01X49607266Y-47487341D01*
G01X49613927Y-47381895D01*
G01X49619906Y-47275752D01*
G01X49625203Y-47168911D01*
G01X49629817Y-47061373D01*
G01X49633747Y-46953140D01*
G01X49636994Y-46844212D01*
G01X49639557Y-46734589D01*
G01X49641436Y-46624272D01*
G01X49642631Y-46513263D01*
G01X49643141Y-46401562D01*
G01X49642966Y-46289170D01*
G01X49642106Y-46176087D01*
G01X49640560Y-46062315D01*
G01X49638329Y-45947854D01*
G01X49635412Y-45832705D01*
G01X49631808Y-45716868D01*
G01X49627518Y-45600345D01*
G01X49622541Y-45483137D01*
G01X49616876Y-45365243D01*
G01X49610525Y-45246665D01*
G01X49603485Y-45127404D01*
G01X49595758Y-45007460D01*
G01X49587342Y-44886834D01*
G01X49578237Y-44765527D01*
G01X49568444Y-44643540D01*
G01X49568444Y-44643540D01*
G01X49568444Y-44643540D01*
G01X49550854Y-44436120D01*
G01X49532566Y-44229880D01*
G01X49513584Y-44024818D01*
G01X49493911Y-43820932D01*
G01X49473552Y-43618218D01*
G01X49452512Y-43416673D01*
G01X49430794Y-43216294D01*
G01X49408402Y-43017079D01*
G01X49385341Y-42819024D01*
G01X49361615Y-42622127D01*
G01X49337228Y-42426385D01*
G01X49312184Y-42231795D01*
G01X49286488Y-42038354D01*
G01X49260143Y-41846059D01*
G01X49233153Y-41654907D01*
G01X49205524Y-41464895D01*
G01X49177258Y-41276021D01*
G01X49148361Y-41088282D01*
G01X49118836Y-40901674D01*
G01X49088687Y-40716195D01*
G01X49057920Y-40531842D01*
G01X49026537Y-40348611D01*
G01X48994543Y-40166501D01*
G01X48961942Y-39985508D01*
G01X48928738Y-39805629D01*
G01X48894936Y-39626862D01*
G01X48860540Y-39449203D01*
G01X48825553Y-39272649D01*
G01X48789980Y-39097199D01*
G01X48753826Y-38922848D01*
G01X48717094Y-38749594D01*
G01X48679788Y-38577434D01*
G01X48641913Y-38406365D01*
G01X48603473Y-38236384D01*
G01X48564472Y-38067489D01*
G01X48524914Y-37899676D01*
G01X48484803Y-37732942D01*
G01X48444144Y-37567285D01*
G01X48402940Y-37402702D01*
G01X48361197Y-37239190D01*
G01X48318917Y-37076746D01*
G01X48276105Y-36915367D01*
G01X48232766Y-36755049D01*
G01X48188903Y-36595792D01*
G01X48144521Y-36437590D01*
G01X48099623Y-36280442D01*
G01X48054215Y-36124345D01*
G01X48008299Y-35969295D01*
G01X47961881Y-35815290D01*
G01X47914965Y-35662327D01*
G01X47867554Y-35510403D01*
G01X47819653Y-35359515D01*
G01X47771266Y-35209660D01*
G01X47722397Y-35060835D01*
G01X47673050Y-34913038D01*
G01X47623230Y-34766266D01*
G01X47572940Y-34620515D01*
G01X47522185Y-34475783D01*
G01X47470969Y-34332066D01*
G01X47419297Y-34189363D01*
G01X47367171Y-34047669D01*
G01X47314597Y-33906983D01*
G01X47261579Y-33767301D01*
G01X47208120Y-33628620D01*
G01X47154225Y-33490938D01*
G01X47099899Y-33354251D01*
G01X47045145Y-33218557D01*
G01X46989967Y-33083853D01*
G01X46934370Y-32950135D01*
G01X46878357Y-32817402D01*
G01X46821934Y-32685650D01*
G01X46765103Y-32554875D01*
G01X46707870Y-32425077D01*
G01X46650239Y-32296250D01*
G01X46592213Y-32168393D01*
G01X46533796Y-32041503D01*
G01X46474994Y-31915576D01*
G01X46415810Y-31790610D01*
G01X46356248Y-31666602D01*
G01X46296312Y-31543550D01*
G01X46236008Y-31421449D01*
G01X46175337Y-31300297D01*
G01X46114306Y-31180092D01*
G01X46052918Y-31060830D01*
G01X45991177Y-30942509D01*
G01X45929088Y-30825126D01*
G01X45866654Y-30708677D01*
G01X45803880Y-30593160D01*
G01X45740770Y-30478572D01*
G01X45677328Y-30364910D01*
G01X45613558Y-30252171D01*
G01X45549465Y-30140353D01*
G01X45485052Y-30029452D01*
G01X45420324Y-29919465D01*
G01X45355285Y-29810390D01*
G01X45289939Y-29702224D01*
G01X45224290Y-29594964D01*
G01X45158343Y-29488606D01*
G01X45092101Y-29383148D01*
G01X45025569Y-29278588D01*
G01X45025569Y-29278588D01*
G01X45025569Y-29278588D01*
G01X45063577Y-29232456D01*
G01X45101725Y-29184905D01*
G01X45139996Y-29136093D01*
G01X45178372Y-29086179D01*
G01X45216838Y-29035321D01*
G01X45255376Y-28983677D01*
G01X45293968Y-28931405D01*
G01X45332598Y-28878665D01*
G01X45371248Y-28825613D01*
G01X45409902Y-28772409D01*
G01X45448542Y-28719211D01*
G01X45487151Y-28666176D01*
G01X45525713Y-28613464D01*
G01X45564209Y-28561232D01*
G01X45602623Y-28509639D01*
G01X45640938Y-28458844D01*
G01X45679136Y-28409004D01*
G01X45717201Y-28360277D01*
G01X45755115Y-28312823D01*
G01X45792862Y-28266799D01*
G01X45830424Y-28222363D01*
G01X45867784Y-28179675D01*
G01X45904925Y-28138892D01*
G01X45941830Y-28100172D01*
G01X45978482Y-28063674D01*
G01X45978482Y-28063674D01*
G01X45978482Y-28063674D01*
G01X46039556Y-28004997D01*
G01X46100346Y-27947419D01*
G01X46160854Y-27890932D01*
G01X46221081Y-27835528D01*
G01X46281028Y-27781198D01*
G01X46340697Y-27727935D01*
G01X46400088Y-27675731D01*
G01X46459204Y-27624576D01*
G01X46518044Y-27574464D01*
G01X46576612Y-27525386D01*
G01X46634907Y-27477334D01*
G01X46692932Y-27430300D01*
G01X46750687Y-27384275D01*
G01X46808175Y-27339252D01*
G01X46865395Y-27295223D01*
G01X46922350Y-27252179D01*
G01X46979040Y-27210112D01*
G01X47035468Y-27169014D01*
G01X47091634Y-27128877D01*
G01X47147540Y-27089694D01*
G01X47203186Y-27051455D01*
G01X47258575Y-27014152D01*
G01X47313708Y-26977778D01*
G01X47368585Y-26942325D01*
G01X47423209Y-26907784D01*
G01X47477580Y-26874147D01*
G01X47531699Y-26841406D01*
G01X47585569Y-26809553D01*
G01X47639190Y-26778580D01*
G01X47692564Y-26748479D01*
G01X47745692Y-26719241D01*
G01X47798575Y-26690859D01*
G01X47851215Y-26663324D01*
G01X47903612Y-26636628D01*
G01X47955769Y-26610763D01*
G01X48007686Y-26585722D01*
G01X48059364Y-26561495D01*
G01X48110806Y-26538075D01*
G01X48162012Y-26515454D01*
G01X48212984Y-26493624D01*
G01X48263723Y-26472575D01*
G01X48314230Y-26452301D01*
G01X48364506Y-26432794D01*
G01X48414554Y-26414044D01*
G01X48464373Y-26396044D01*
G01X48513966Y-26378786D01*
G01X48563334Y-26362262D01*
G01X48612477Y-26346464D01*
G01X48661398Y-26331383D01*
G01X48710098Y-26317011D01*
G01X48710098Y-26317011D01*
G37*
G36*
G01X22272487Y-22711552D02*
G01X22754112Y-26375928D01*
G01X22754112Y-26375928D01*
G01X22799880Y-26391731D01*
G01X22845842Y-26408164D01*
G01X22891999Y-26425232D01*
G01X22938351Y-26442943D01*
G01X22984900Y-26461303D01*
G01X23031646Y-26480317D01*
G01X23078591Y-26499994D01*
G01X23125735Y-26520338D01*
G01X23173080Y-26541357D01*
G01X23220626Y-26563058D01*
G01X23268375Y-26585445D01*
G01X23316327Y-26608527D01*
G01X23364484Y-26632309D01*
G01X23412846Y-26656798D01*
G01X23461415Y-26682001D01*
G01X23510192Y-26707923D01*
G01X23559176Y-26734571D01*
G01X23608371Y-26761953D01*
G01X23657776Y-26790073D01*
G01X23707392Y-26818939D01*
G01X23757221Y-26848557D01*
G01X23807264Y-26878934D01*
G01X23857520Y-26910076D01*
G01X23907993Y-26941989D01*
G01X23958682Y-26974680D01*
G01X24009588Y-27008155D01*
G01X24060713Y-27042422D01*
G01X24112057Y-27077485D01*
G01X24163622Y-27113353D01*
G01X24215408Y-27150031D01*
G01X24267417Y-27187525D01*
G01X24319649Y-27225842D01*
G01X24372105Y-27264990D01*
G01X24424788Y-27304973D01*
G01X24477696Y-27345799D01*
G01X24530832Y-27387473D01*
G01X24584196Y-27430003D01*
G01X24637790Y-27473395D01*
G01X24691615Y-27517656D01*
G01X24745670Y-27562791D01*
G01X24799958Y-27608808D01*
G01X24854480Y-27655712D01*
G01X24909236Y-27703510D01*
G01X24964228Y-27752209D01*
G01X25019455Y-27801815D01*
G01X25074921Y-27852335D01*
G01X25130624Y-27903775D01*
G01X25186568Y-27956141D01*
G01X25242751Y-28009440D01*
G01X25299176Y-28063679D01*
G01X25299176Y-28063679D01*
G01X25299176Y-28063679D01*
G01X25335815Y-28100165D01*
G01X25372711Y-28138877D01*
G01X25409846Y-28179655D01*
G01X25447202Y-28222341D01*
G01X25484763Y-28266777D01*
G01X25522510Y-28312804D01*
G01X25560427Y-28360262D01*
G01X25598496Y-28408995D01*
G01X25636700Y-28458842D01*
G01X25675021Y-28509646D01*
G01X25713442Y-28561248D01*
G01X25751945Y-28613488D01*
G01X25790514Y-28666209D01*
G01X25829130Y-28719252D01*
G01X25867777Y-28772458D01*
G01X25906436Y-28825668D01*
G01X25945092Y-28878725D01*
G01X25983725Y-28931468D01*
G01X26022319Y-28983741D01*
G01X26060857Y-29035383D01*
G01X26099321Y-29086237D01*
G01X26137694Y-29136143D01*
G01X26175957Y-29184944D01*
G01X26214095Y-29232480D01*
G01X26252089Y-29278593D01*
G01X26252089Y-29278593D01*
G01X26252089Y-29278593D01*
G01X26185553Y-29383155D01*
G01X26119306Y-29488613D01*
G01X26053354Y-29594971D01*
G01X25987701Y-29702232D01*
G01X25922351Y-29810399D01*
G01X25857308Y-29919474D01*
G01X25792576Y-30029460D01*
G01X25728160Y-30140360D01*
G01X25664063Y-30252178D01*
G01X25600290Y-30364915D01*
G01X25536845Y-30478576D01*
G01X25473732Y-30593162D01*
G01X25410956Y-30708677D01*
G01X25348519Y-30825124D01*
G01X25286427Y-30942505D01*
G01X25224684Y-31060824D01*
G01X25163294Y-31180084D01*
G01X25102261Y-31300286D01*
G01X25041589Y-31421435D01*
G01X24981283Y-31543532D01*
G01X24921346Y-31666582D01*
G01X24861783Y-31790587D01*
G01X24802597Y-31915549D01*
G01X24743794Y-32041472D01*
G01X24685377Y-32168359D01*
G01X24627350Y-32296212D01*
G01X24569718Y-32425035D01*
G01X24512484Y-32554830D01*
G01X24455653Y-32685600D01*
G01X24399230Y-32817348D01*
G01X24343217Y-32950077D01*
G01X24287620Y-33083791D01*
G01X24232442Y-33218491D01*
G01X24177688Y-33354181D01*
G01X24123361Y-33490863D01*
G01X24069467Y-33628541D01*
G01X24016009Y-33767217D01*
G01X23962991Y-33906895D01*
G01X23910417Y-34047577D01*
G01X23858293Y-34189267D01*
G01X23806621Y-34331966D01*
G01X23755406Y-34475678D01*
G01X23704652Y-34620406D01*
G01X23654363Y-34766153D01*
G01X23604544Y-34912922D01*
G01X23555198Y-35060715D01*
G01X23506330Y-35209535D01*
G01X23457944Y-35359386D01*
G01X23410044Y-35510271D01*
G01X23362635Y-35662191D01*
G01X23315719Y-35815151D01*
G01X23269303Y-35969152D01*
G01X23223389Y-36124199D01*
G01X23177982Y-36280293D01*
G01X23133086Y-36437438D01*
G01X23088705Y-36595637D01*
G01X23044844Y-36754892D01*
G01X23001506Y-36915207D01*
G01X22958696Y-37076584D01*
G01X22916418Y-37239026D01*
G01X22874676Y-37402537D01*
G01X22833474Y-37567118D01*
G01X22792816Y-37732773D01*
G01X22752707Y-37899505D01*
G01X22713151Y-38067317D01*
G01X22674152Y-38236212D01*
G01X22635713Y-38406192D01*
G01X22597840Y-38577261D01*
G01X22560536Y-38749421D01*
G01X22523805Y-38922675D01*
G01X22487652Y-39097027D01*
G01X22452081Y-39272478D01*
G01X22417096Y-39449033D01*
G01X22382702Y-39626693D01*
G01X22348901Y-39805462D01*
G01X22315699Y-39985343D01*
G01X22283100Y-40166339D01*
G01X22251107Y-40348452D01*
G01X22219725Y-40531685D01*
G01X22188959Y-40716042D01*
G01X22158811Y-40901525D01*
G01X22129288Y-41088137D01*
G01X22100391Y-41275881D01*
G01X22072127Y-41464760D01*
G01X22044499Y-41654777D01*
G01X22017510Y-41845935D01*
G01X21991166Y-42038236D01*
G01X21965470Y-42231684D01*
G01X21940427Y-42426281D01*
G01X21916041Y-42622031D01*
G01X21892315Y-42818936D01*
G01X21869255Y-43016999D01*
G01X21846864Y-43216223D01*
G01X21825146Y-43416611D01*
G01X21804106Y-43618166D01*
G01X21783747Y-43820890D01*
G01X21764075Y-44024788D01*
G01X21745092Y-44229861D01*
G01X21726804Y-44436112D01*
G01X21709214Y-44643545D01*
G01X21709214Y-44643545D01*
G01X21709214Y-44643545D01*
G01X21699421Y-44765532D01*
G01X21690316Y-44886838D01*
G01X21681900Y-45007464D01*
G01X21674173Y-45127408D01*
G01X21667133Y-45246669D01*
G01X21660781Y-45365246D01*
G01X21655117Y-45483140D01*
G01X21650140Y-45600348D01*
G01X21645850Y-45716871D01*
G01X21642246Y-45832707D01*
G01X21639329Y-45947856D01*
G01X21637097Y-46062317D01*
G01X21635552Y-46176089D01*
G01X21634692Y-46289172D01*
G01X21634517Y-46401564D01*
G01X21635027Y-46513265D01*
G01X21636222Y-46624274D01*
G01X21638101Y-46734590D01*
G01X21640664Y-46844213D01*
G01X21643911Y-46953141D01*
G01X21647841Y-47061374D01*
G01X21652455Y-47168912D01*
G01X21657751Y-47275753D01*
G01X21663730Y-47381896D01*
G01X21670392Y-47487341D01*
G01X21677735Y-47592088D01*
G01X21685761Y-47696134D01*
G01X21694468Y-47799480D01*
G01X21703856Y-47902125D01*
G01X21713925Y-48004068D01*
G01X21724675Y-48105307D01*
G01X21736105Y-48205844D01*
G01X21748216Y-48305675D01*
G01X21761006Y-48404802D01*
G01X21774476Y-48503222D01*
G01X21788624Y-48600936D01*
G01X21803452Y-48697943D01*
G01X21818959Y-48794241D01*
G01X21835144Y-48889829D01*
G01X21852007Y-48984709D01*
G01X21869548Y-49078877D01*
G01X21887767Y-49172334D01*
G01X21906663Y-49265079D01*
G01X21926236Y-49357111D01*
G01X21946485Y-49448429D01*
G01X21967411Y-49539032D01*
G01X21989013Y-49628920D01*
G01X22011291Y-49718092D01*
G01X22034245Y-49806548D01*
G01X22057874Y-49894285D01*
G01X22082178Y-49981304D01*
G01X22107156Y-50067604D01*
G01X22132810Y-50153184D01*
G01X22159137Y-50238044D01*
G01X22186138Y-50322181D01*
G01X22213813Y-50405597D01*
G01X22242161Y-50488289D01*
G01X22271182Y-50570257D01*
G01X22300876Y-50651501D01*
G01X22331242Y-50732019D01*
G01X22362281Y-50811811D01*
G01X22393991Y-50890877D01*
G01X22426374Y-50969214D01*
G01X22459427Y-51046823D01*
G01X22493151Y-51123702D01*
G01X22527547Y-51199851D01*
G01X22562613Y-51275270D01*
G01X22598349Y-51349957D01*
G01X22634754Y-51423911D01*
G01X22671830Y-51497132D01*
G01X22709575Y-51569619D01*
G01X22747989Y-51641372D01*
G01X22787072Y-51712389D01*
G01X22826823Y-51782669D01*
G01X22867243Y-51852212D01*
G01X22908330Y-51921018D01*
G01X22950085Y-51989085D01*
G01X22992508Y-52056412D01*
G01X23035598Y-52122999D01*
G01X23079354Y-52188845D01*
G01X23123777Y-52253950D01*
G01X23168867Y-52318311D01*
G01X23214622Y-52381930D01*
G01X23261043Y-52444804D01*
G01X23308129Y-52506934D01*
G01X23355881Y-52568317D01*
G01X23404297Y-52628955D01*
G01X23453378Y-52688845D01*
G01X23503123Y-52747987D01*
G01X23553532Y-52806380D01*
G01X23604605Y-52864024D01*
G01X23656341Y-52920917D01*
G01X23708741Y-52977059D01*
G01X23761803Y-53032450D01*
G01X23815528Y-53087087D01*
G01X23869915Y-53140972D01*
G01X23924964Y-53194101D01*
G01X23980675Y-53246476D01*
G01X24037047Y-53298096D01*
G01X24094081Y-53348958D01*
G01X24094081Y-53348958D01*
G01X24094081Y-53348958D01*
G01X24147713Y-53395474D01*
G01X24201800Y-53441031D01*
G01X24256335Y-53485632D01*
G01X24311310Y-53529280D01*
G01X24366716Y-53571979D01*
G01X24422546Y-53613731D01*
G01X24478792Y-53654541D01*
G01X24535445Y-53694412D01*
G01X24592499Y-53733346D01*
G01X24649944Y-53771347D01*
G01X24707774Y-53808419D01*
G01X24765980Y-53844564D01*
G01X24824553Y-53879786D01*
G01X24883487Y-53914089D01*
G01X24942774Y-53947474D01*
G01X25002404Y-53979947D01*
G01X25062372Y-54011510D01*
G01X25122667Y-54042167D01*
G01X25183283Y-54071920D01*
G01X25244212Y-54100773D01*
G01X25305445Y-54128729D01*
G01X25366976Y-54155792D01*
G01X25428794Y-54181965D01*
G01X25490894Y-54207251D01*
G01X25553267Y-54231654D01*
G01X25615905Y-54255176D01*
G01X25678800Y-54277821D01*
G01X25741943Y-54299593D01*
G01X25805329Y-54320494D01*
G01X25868947Y-54340529D01*
G01X25932791Y-54359699D01*
G01X25996852Y-54378009D01*
G01X26061122Y-54395462D01*
G01X26082591Y-54401090D01*
G01X26082591Y-54401090D01*
G01X26075855Y-54324287D01*
G01X26068702Y-54247401D01*
G01X26061187Y-54170442D01*
G01X26053365Y-54093418D01*
G01X26045291Y-54016337D01*
G01X26037020Y-53939208D01*
G01X26028606Y-53862041D01*
G01X26020105Y-53784843D01*
G01X26011571Y-53707623D01*
G01X26003060Y-53630390D01*
G01X25994627Y-53553153D01*
G01X25986326Y-53475920D01*
G01X25978213Y-53398700D01*
G01X25970342Y-53321501D01*
G01X25962768Y-53244333D01*
G01X25955547Y-53167203D01*
G01X25948733Y-53090121D01*
G01X25942381Y-53013095D01*
G01X25936546Y-52936134D01*
G01X25931284Y-52859246D01*
G01X25926648Y-52782440D01*
G01X25922695Y-52705726D01*
G01X25919478Y-52629111D01*
G01X25917054Y-52552603D01*
G01X25915476Y-52476213D01*
G01X25914801Y-52399948D01*
G01X25915082Y-52323817D01*
G01X25916375Y-52247829D01*
G01X25918735Y-52171993D01*
G01X25922216Y-52096316D01*
G01X25926874Y-52020809D01*
G01X25932764Y-51945478D01*
G01X25939940Y-51870334D01*
G01X25948458Y-51795385D01*
G01X25958372Y-51720639D01*
G01X25969738Y-51646104D01*
G01X25982610Y-51571791D01*
G01X25997044Y-51497707D01*
G01X26013094Y-51423861D01*
G01X26030815Y-51350262D01*
G01X26050262Y-51276918D01*
G01X26071490Y-51203838D01*
G01X26094555Y-51131031D01*
G01X26119510Y-51058505D01*
G01X26146412Y-50986269D01*
G01X26175315Y-50914332D01*
G01X26206273Y-50842702D01*
G01X26239343Y-50771388D01*
G01X26274578Y-50700399D01*
G01X26312034Y-50629743D01*
G01X26312034Y-50629743D01*
G01X26312034Y-50629743D01*
G01X26292478Y-50609439D01*
G01X26272876Y-50588492D01*
G01X26253237Y-50566899D01*
G01X26233565Y-50544656D01*
G01X26213869Y-50521761D01*
G01X26194154Y-50498211D01*
G01X26174426Y-50474002D01*
G01X26154694Y-50449132D01*
G01X26134962Y-50423598D01*
G01X26115238Y-50397396D01*
G01X26095529Y-50370524D01*
G01X26075840Y-50342979D01*
G01X26056179Y-50314758D01*
G01X26036552Y-50285858D01*
G01X26016965Y-50256275D01*
G01X25997425Y-50226008D01*
G01X25977940Y-50195052D01*
G01X25958514Y-50163405D01*
G01X25939155Y-50131064D01*
G01X25919870Y-50098026D01*
G01X25900665Y-50064289D01*
G01X25881547Y-50029848D01*
G01X25862521Y-49994701D01*
G01X25843596Y-49958845D01*
G01X25824776Y-49922277D01*
G01X25806070Y-49884995D01*
G01X25787483Y-49846994D01*
G01X25769022Y-49808273D01*
G01X25750694Y-49768828D01*
G01X25732505Y-49728656D01*
G01X25714462Y-49687754D01*
G01X25696571Y-49646120D01*
G01X25678839Y-49603750D01*
G01X25661273Y-49560641D01*
G01X25643878Y-49516790D01*
G01X25626663Y-49472195D01*
G01X25609632Y-49426852D01*
G01X25592794Y-49380758D01*
G01X25576154Y-49333911D01*
G01X25559718Y-49286307D01*
G01X25543495Y-49237944D01*
G01X25527489Y-49188818D01*
G01X25511708Y-49138927D01*
G01X25496159Y-49088267D01*
G01X25480847Y-49036836D01*
G01X25465779Y-48984630D01*
G01X25450963Y-48931647D01*
G01X25436404Y-48877883D01*
G01X25422110Y-48823336D01*
G01X25408086Y-48768003D01*
G01X25394339Y-48711880D01*
G01X25380876Y-48654965D01*
G01X25367704Y-48597255D01*
G01X25354829Y-48538747D01*
G01X25342257Y-48479437D01*
G01X25329995Y-48419323D01*
G01X25318051Y-48358402D01*
G01X25306429Y-48296670D01*
G01X25295138Y-48234126D01*
G01X25284182Y-48170765D01*
G01X25273570Y-48106586D01*
G01X25263308Y-48041584D01*
G01X25253402Y-47975757D01*
G01X25243858Y-47909102D01*
G01X25234684Y-47841616D01*
G01X25225886Y-47773296D01*
G01X25217470Y-47704139D01*
G01X25209444Y-47634142D01*
G01X25201813Y-47563303D01*
G01X25194584Y-47491617D01*
G01X25187764Y-47419082D01*
G01X25181360Y-47345696D01*
G01X25175377Y-47271455D01*
G01X25169823Y-47196356D01*
G01X25164704Y-47120396D01*
G01X25160027Y-47043572D01*
G01X25155798Y-46965882D01*
G01X25152024Y-46887322D01*
G01X25148711Y-46807889D01*
G01X25145866Y-46727580D01*
G01X25143496Y-46646393D01*
G01X25141607Y-46564325D01*
G01X25140206Y-46481371D01*
G01X25139299Y-46397530D01*
G01X25138892Y-46312799D01*
G01X25138994Y-46227174D01*
G01X25139609Y-46140652D01*
G01X25140745Y-46053231D01*
G01X25142408Y-45964907D01*
G01X25144604Y-45875678D01*
G01X25147341Y-45785541D01*
G01X25150625Y-45694492D01*
G01X25154463Y-45602529D01*
G01X25158860Y-45509648D01*
G01X25163824Y-45415847D01*
G01X25169362Y-45321123D01*
G01X25175479Y-45225472D01*
G01X25182182Y-45128892D01*
G01X25189478Y-45031380D01*
G01X25197374Y-44932933D01*
G01X25197374Y-44932933D01*
G01X25197374Y-44932933D01*
G01X25211638Y-44764094D01*
G01X25226364Y-44596237D01*
G01X25241547Y-44429359D01*
G01X25257186Y-44263456D01*
G01X25273277Y-44098527D01*
G01X25289817Y-43934568D01*
G01X25306803Y-43771576D01*
G01X25324231Y-43609549D01*
G01X25342100Y-43448485D01*
G01X25360405Y-43288379D01*
G01X25379145Y-43129230D01*
G01X25398315Y-42971035D01*
G01X25417912Y-42813791D01*
G01X25437935Y-42657495D01*
G01X25458379Y-42502144D01*
G01X25479241Y-42347735D01*
G01X25500519Y-42194267D01*
G01X25522209Y-42041736D01*
G01X25544309Y-41890138D01*
G01X25566816Y-41739473D01*
G01X25589725Y-41589736D01*
G01X25613035Y-41440925D01*
G01X25636742Y-41293037D01*
G01X25660843Y-41146069D01*
G01X25685336Y-41000019D01*
G01X25710216Y-40854884D01*
G01X25735482Y-40710661D01*
G01X25761129Y-40567347D01*
G01X25787156Y-40424939D01*
G01X25813558Y-40283436D01*
G01X25840334Y-40142833D01*
G01X25867479Y-40003128D01*
G01X25894991Y-39864319D01*
G01X25922866Y-39726402D01*
G01X25951103Y-39589375D01*
G01X25979697Y-39453236D01*
G01X26008645Y-39317980D01*
G01X26037946Y-39183606D01*
G01X26067594Y-39050111D01*
G01X26097588Y-38917491D01*
G01X26127925Y-38785745D01*
G01X26158601Y-38654869D01*
G01X26189613Y-38524861D01*
G01X26220958Y-38395717D01*
G01X26252634Y-38267436D01*
G01X26284637Y-38140014D01*
G01X26316964Y-38013448D01*
G01X26349612Y-37887736D01*
G01X26382578Y-37762875D01*
G01X26415859Y-37638862D01*
G01X26449453Y-37515695D01*
G01X26483355Y-37393370D01*
G01X26517563Y-37271885D01*
G01X26552073Y-37151237D01*
G01X26586884Y-37031423D01*
G01X26621991Y-36912441D01*
G01X26657392Y-36794287D01*
G01X26693083Y-36676960D01*
G01X26729062Y-36560455D01*
G01X26765326Y-36444771D01*
G01X26801871Y-36329905D01*
G01X26838695Y-36215853D01*
G01X26875794Y-36102614D01*
G01X26913165Y-35990183D01*
G01X26950806Y-35878560D01*
G01X26988713Y-35767740D01*
G01X27026883Y-35657720D01*
G01X27065313Y-35548499D01*
G01X27104001Y-35440074D01*
G01X27142943Y-35332441D01*
G01X27182135Y-35225598D01*
G01X27221576Y-35119542D01*
G01X27261261Y-35014270D01*
G01X27301189Y-34909780D01*
G01X27341355Y-34806068D01*
G01X27381757Y-34703133D01*
G01X27422392Y-34600971D01*
G01X27463257Y-34499579D01*
G01X27504348Y-34398954D01*
G01X27545663Y-34299095D01*
G01X27587198Y-34199997D01*
G01X27628951Y-34101659D01*
G01X27670919Y-34004077D01*
G01X27713098Y-33907249D01*
G01X27755485Y-33811172D01*
G01X27798078Y-33715844D01*
G01X27840873Y-33621260D01*
G01X27883867Y-33527419D01*
G01X27927058Y-33434319D01*
G01X27970441Y-33341955D01*
G01X28014015Y-33250325D01*
G01X28057776Y-33159427D01*
G01X28101721Y-33069258D01*
G01X28145847Y-32979814D01*
G01X28190151Y-32891094D01*
G01X28234629Y-32803095D01*
G01X28279280Y-32715812D01*
G01X28324099Y-32629245D01*
G01X28369085Y-32543390D01*
G01X28414232Y-32458244D01*
G01X28414232Y-32458244D01*
G01X28414232Y-32458244D01*
G01X28453058Y-32526359D01*
G01X28491888Y-32594494D01*
G01X28530721Y-32662667D01*
G01X28569558Y-32730896D01*
G01X28608398Y-32799198D01*
G01X28647241Y-32867592D01*
G01X28686087Y-32936095D01*
G01X28724934Y-33004726D01*
G01X28763783Y-33073501D01*
G01X28802634Y-33142440D01*
G01X28841485Y-33211561D01*
G01X28880338Y-33280880D01*
G01X28919190Y-33350416D01*
G01X28958042Y-33420187D01*
G01X28996894Y-33490210D01*
G01X29035745Y-33560504D01*
G01X29074595Y-33631087D01*
G01X29113444Y-33701976D01*
G01X29152290Y-33773190D01*
G01X29191134Y-33844745D01*
G01X29229976Y-33916661D01*
G01X29268815Y-33988955D01*
G01X29307650Y-34061645D01*
G01X29346482Y-34134749D01*
G01X29385310Y-34208285D01*
G01X29424133Y-34282271D01*
G01X29462952Y-34356724D01*
G01X29501765Y-34431663D01*
G01X29540573Y-34507105D01*
G01X29579376Y-34583068D01*
G01X29618172Y-34659571D01*
G01X29656961Y-34736631D01*
G01X29695744Y-34814266D01*
G01X29734519Y-34892494D01*
G01X29773287Y-34971333D01*
G01X29812047Y-35050801D01*
G01X29850798Y-35130916D01*
G01X29889541Y-35211695D01*
G01X29928275Y-35293157D01*
G01X29966999Y-35375319D01*
G01X30005714Y-35458200D01*
G01X30044418Y-35541816D01*
G01X30083112Y-35626188D01*
G01X30121795Y-35711331D01*
G01X30160467Y-35797264D01*
G01X30199128Y-35884005D01*
G01X30237776Y-35971572D01*
G01X30276412Y-36059983D01*
G01X30315036Y-36149255D01*
G01X30353647Y-36239407D01*
G01X30353647Y-36239407D01*
G01X30353647Y-36239407D01*
G01X30433182Y-36428245D01*
G01X30510421Y-36616030D01*
G01X30585385Y-36802761D01*
G01X30658094Y-36988433D01*
G01X30728567Y-37173043D01*
G01X30796823Y-37356588D01*
G01X30862883Y-37539066D01*
G01X30926767Y-37720472D01*
G01X30988493Y-37900803D01*
G01X31048083Y-38080056D01*
G01X31105556Y-38258229D01*
G01X31160931Y-38435317D01*
G01X31214228Y-38611318D01*
G01X31265468Y-38786229D01*
G01X31314669Y-38960045D01*
G01X31361853Y-39132764D01*
G01X31407037Y-39304383D01*
G01X31450243Y-39474899D01*
G01X31491490Y-39644307D01*
G01X31530798Y-39812606D01*
G01X31568186Y-39979792D01*
G01X31603675Y-40145861D01*
G01X31637284Y-40310811D01*
G01X31669033Y-40474637D01*
G01X31698942Y-40637338D01*
G01X31727030Y-40798909D01*
G01X31753317Y-40959348D01*
G01X31777824Y-41118652D01*
G01X31800569Y-41276816D01*
G01X31821573Y-41433838D01*
G01X31840855Y-41589715D01*
G01X31858436Y-41744443D01*
G01X31874335Y-41898019D01*
G01X31888571Y-42050441D01*
G01X31901165Y-42201704D01*
G01X31912136Y-42351805D01*
G01X31921505Y-42500742D01*
G01X31929290Y-42648511D01*
G01X31935512Y-42795109D01*
G01X31940190Y-42940533D01*
G01X31943345Y-43084779D01*
G01X31944995Y-43227844D01*
G01X31945162Y-43369726D01*
G01X31943864Y-43510420D01*
G01X31941121Y-43649923D01*
G01X31936954Y-43788233D01*
G01X31931381Y-43925347D01*
G01X31924423Y-44061260D01*
G01X31916100Y-44195969D01*
G01X31906431Y-44329473D01*
G01X31895436Y-44461766D01*
G01X31883135Y-44592847D01*
G01X31869547Y-44722711D01*
G01X31854693Y-44851356D01*
G01X31838592Y-44978778D01*
G01X31821264Y-45104975D01*
G01X31802729Y-45229943D01*
G01X31783006Y-45353678D01*
G01X31762116Y-45476178D01*
G01X31740078Y-45597439D01*
G01X31716911Y-45717458D01*
G01X31692637Y-45836232D01*
G01X31667273Y-45953757D01*
G01X31640841Y-46070031D01*
G01X31613360Y-46185051D01*
G01X31584850Y-46298812D01*
G01X31555330Y-46411312D01*
G01X31524821Y-46522547D01*
G01X31493341Y-46632515D01*
G01X31460912Y-46741212D01*
G01X31427552Y-46848635D01*
G01X31393282Y-46954781D01*
G01X31358121Y-47059646D01*
G01X31322089Y-47163227D01*
G01X31285206Y-47265521D01*
G01X31247492Y-47366525D01*
G01X31208966Y-47466236D01*
G01X31169648Y-47564650D01*
G01X31129558Y-47661764D01*
G01X31088716Y-47757575D01*
G01X31047141Y-47852080D01*
G01X31004853Y-47945275D01*
G01X30961873Y-48037158D01*
G01X30918220Y-48127724D01*
G01X30873913Y-48216972D01*
G01X30828972Y-48304897D01*
G01X30783418Y-48391496D01*
G01X30737270Y-48476767D01*
G01X30690548Y-48560705D01*
G01X30643271Y-48643308D01*
G01X30595459Y-48724573D01*
G01X30547133Y-48804496D01*
G01X30498311Y-48883075D01*
G01X30449014Y-48960305D01*
G01X30399262Y-49036183D01*
G01X30349073Y-49110708D01*
G01X30298469Y-49183874D01*
G01X30247469Y-49255679D01*
G01X30196092Y-49326120D01*
G01X30144359Y-49395194D01*
G01X30144359Y-49395194D01*
G01X30144359Y-49395194D01*
G01X30205743Y-49381759D01*
G01X30265985Y-49374768D01*
G01X30325104Y-49374009D01*
G01X30383114Y-49379269D01*
G01X30440032Y-49390334D01*
G01X30495874Y-49406993D01*
G01X30550657Y-49429032D01*
G01X30604397Y-49456239D01*
G01X30657110Y-49488400D01*
G01X30708813Y-49525304D01*
G01X30759522Y-49566737D01*
G01X30809253Y-49612487D01*
G01X30858023Y-49662340D01*
G01X30905848Y-49716084D01*
G01X30952745Y-49773507D01*
G01X30998729Y-49834394D01*
G01X31043817Y-49898535D01*
G01X31088025Y-49965715D01*
G01X31131370Y-50035722D01*
G01X31173868Y-50108343D01*
G01X31215536Y-50183366D01*
G01X31256389Y-50260578D01*
G01X31296444Y-50339765D01*
G01X31335717Y-50420715D01*
G01X31374225Y-50503216D01*
G01X31411984Y-50587055D01*
G01X31449011Y-50672018D01*
G01X31485321Y-50757893D01*
G01X31520931Y-50844467D01*
G01X31555857Y-50931528D01*
G01X31590116Y-51018862D01*
G01X31623724Y-51106257D01*
G01X31656698Y-51193501D01*
G01X31689053Y-51280379D01*
G01X31720806Y-51366680D01*
G01X31751973Y-51452191D01*
G01X31782571Y-51536699D01*
G01X31812616Y-51619990D01*
G01X31842125Y-51701854D01*
G01X31871113Y-51782075D01*
G01X31899597Y-51860443D01*
G01X31927593Y-51936743D01*
G01X31955118Y-52010764D01*
G01X31982188Y-52082292D01*
G01X32008819Y-52151115D01*
G01X32035028Y-52217020D01*
G01X32060831Y-52279794D01*
G01X32086245Y-52339224D01*
G01X32111284Y-52395098D01*
G01X32135967Y-52447203D01*
G01X32135967Y-52447203D01*
G01X32135967Y-52447203D01*
G01X32233749Y-52348611D01*
G01X32330457Y-52248116D01*
G01X32426074Y-52145730D01*
G01X32520580Y-52041462D01*
G01X32613958Y-51935322D01*
G01X32706187Y-51827322D01*
G01X32797250Y-51717471D01*
G01X32887128Y-51605781D01*
G01X32975802Y-51492262D01*
G01X33063253Y-51376924D01*
G01X33149463Y-51259777D01*
G01X33234412Y-51140833D01*
G01X33318082Y-51020101D01*
G01X33400455Y-50897593D01*
G01X33481511Y-50773318D01*
G01X33561232Y-50647288D01*
G01X33639600Y-50519512D01*
G01X33716594Y-50390002D01*
G01X33792198Y-50258767D01*
G01X33866391Y-50125818D01*
G01X33939155Y-49991166D01*
G01X34010472Y-49854822D01*
G01X34080323Y-49716794D01*
G01X34148688Y-49577095D01*
G01X34215550Y-49435735D01*
G01X34280890Y-49292724D01*
G01X34344688Y-49148072D01*
G01X34406926Y-49001790D01*
G01X34467585Y-48853890D01*
G01X34526647Y-48704380D01*
G01X34584093Y-48553271D01*
G01X34639904Y-48400575D01*
G01X34694062Y-48246302D01*
G01X34746547Y-48090461D01*
G01X34797341Y-47933064D01*
G01X34846425Y-47774121D01*
G01X34893780Y-47613643D01*
G01X34939389Y-47451640D01*
G01X34983231Y-47288122D01*
G01X35025288Y-47123100D01*
G01X35065542Y-46956585D01*
G01X35103974Y-46788587D01*
G01X35140565Y-46619116D01*
G01X35175296Y-46448183D01*
G01X35208149Y-46275799D01*
G01X35239105Y-46101974D01*
G01X35268144Y-45926718D01*
G01X35295249Y-45750043D01*
G01X35320401Y-45571957D01*
G01X35343581Y-45392473D01*
G01X35364769Y-45211600D01*
G01X35383948Y-45029349D01*
G01X35401099Y-44845731D01*
G01X35416203Y-44660755D01*
G01X35429241Y-44474433D01*
G01X35440195Y-44286775D01*
G01X35449045Y-44097791D01*
G01X35455774Y-43907492D01*
G01X35460362Y-43715888D01*
G01X35462790Y-43522990D01*
G01X35463040Y-43328809D01*
G01X35461093Y-43133355D01*
G01X35456931Y-42936638D01*
G01X35450534Y-42738668D01*
G01X35441884Y-42539458D01*
G01X35430962Y-42339016D01*
G01X35417750Y-42137353D01*
G01X35402228Y-41934480D01*
G01X35384379Y-41730407D01*
G01X35364182Y-41525146D01*
G01X35341621Y-41318705D01*
G01X35316674Y-41111097D01*
G01X35289325Y-40902330D01*
G01X35259555Y-40692417D01*
G01X35227343Y-40481366D01*
G01X35192673Y-40269190D01*
G01X35155525Y-40055898D01*
G01X35115880Y-39841500D01*
G01X35073719Y-39626008D01*
G01X35029025Y-39409431D01*
G01X34981778Y-39191781D01*
G01X34931959Y-38973067D01*
G01X34879549Y-38753301D01*
G01X34824531Y-38532492D01*
G01X34766885Y-38310652D01*
G01X34706593Y-38087790D01*
G01X34643635Y-37863918D01*
G01X34577993Y-37639045D01*
G01X34509649Y-37413182D01*
G01X34438583Y-37186340D01*
G01X34364777Y-36958529D01*
G01X34288212Y-36729760D01*
G01X34208869Y-36500043D01*
G01X34126730Y-36269389D01*
G01X34041776Y-36037807D01*
G01X33953988Y-35805310D01*
G01X33863348Y-35571906D01*
G01X33769836Y-35337607D01*
G01X33673434Y-35102423D01*
G01X33574123Y-34866365D01*
G01X33574123Y-34866365D01*
G01X33574123Y-34866365D01*
G01X33546749Y-34802237D01*
G01X33519359Y-34738298D01*
G01X33491953Y-34674549D01*
G01X33464530Y-34610990D01*
G01X33437091Y-34547620D01*
G01X33409636Y-34484439D01*
G01X33382164Y-34421447D01*
G01X33354676Y-34358644D01*
G01X33327172Y-34296029D01*
G01X33299651Y-34233602D01*
G01X33272114Y-34171364D01*
G01X33244560Y-34109313D01*
G01X33216990Y-34047450D01*
G01X33189403Y-33985775D01*
G01X33161800Y-33924286D01*
G01X33134180Y-33862985D01*
G01X33106544Y-33801871D01*
G01X33078891Y-33740943D01*
G01X33051221Y-33680202D01*
G01X33023534Y-33619647D01*
G01X32995831Y-33559278D01*
G01X32968111Y-33499095D01*
G01X32940374Y-33439097D01*
G01X32912621Y-33379285D01*
G01X32884850Y-33319658D01*
G01X32857063Y-33260216D01*
G01X32829259Y-33200959D01*
G01X32801438Y-33141887D01*
G01X32773600Y-33082999D01*
G01X32745745Y-33024295D01*
G01X32717873Y-32965776D01*
G01X32689984Y-32907440D01*
G01X32662078Y-32849288D01*
G01X32634154Y-32791319D01*
G01X32606214Y-32733533D01*
G01X32578257Y-32675930D01*
G01X32550282Y-32618511D01*
G01X32522290Y-32561273D01*
G01X32494281Y-32504219D01*
G01X32466255Y-32447346D01*
G01X32438212Y-32390655D01*
G01X32410151Y-32334147D01*
G01X32382073Y-32277819D01*
G01X32353977Y-32221674D01*
G01X32325864Y-32165709D01*
G01X32297734Y-32109925D01*
G01X32269586Y-32054322D01*
G01X32241421Y-31998900D01*
G01X32213238Y-31943658D01*
G01X32185038Y-31888596D01*
G01X32156820Y-31833714D01*
G01X32128585Y-31779012D01*
G01X32100332Y-31724490D01*
G01X32072061Y-31670147D01*
G01X32043773Y-31615983D01*
G01X32015467Y-31561998D01*
G01X31987143Y-31508192D01*
G01X31958802Y-31454564D01*
G01X31930443Y-31401115D01*
G01X31902066Y-31347844D01*
G01X31873671Y-31294750D01*
G01X31845258Y-31241835D01*
G01X31816827Y-31189097D01*
G01X31788379Y-31136536D01*
G01X31759913Y-31084153D01*
G01X31731428Y-31031947D01*
G01X31702926Y-30979917D01*
G01X31674405Y-30928064D01*
G01X31645867Y-30876387D01*
G01X31617310Y-30824886D01*
G01X31588736Y-30773561D01*
G01X31560143Y-30722412D01*
G01X31531532Y-30671438D01*
G01X31502903Y-30620640D01*
G01X31474256Y-30570017D01*
G01X31445590Y-30519568D01*
G01X31416906Y-30469295D01*
G01X31388204Y-30419196D01*
G01X31359484Y-30369271D01*
G01X31330745Y-30319520D01*
G01X31301988Y-30269944D01*
G01X31273212Y-30220541D01*
G01X31244418Y-30171311D01*
G01X31215605Y-30122255D01*
G01X31186774Y-30073372D01*
G01X31157925Y-30024661D01*
G01X31129057Y-29976124D01*
G01X31100170Y-29927759D01*
G01X31071265Y-29879566D01*
G01X31042341Y-29831545D01*
G01X31013399Y-29783696D01*
G01X30984438Y-29736019D01*
G01X30955458Y-29688513D01*
G01X30926459Y-29641179D01*
G01X30897442Y-29594015D01*
G01X30868405Y-29547023D01*
G01X30839350Y-29500201D01*
G01X30810277Y-29453549D01*
G01X30781184Y-29407068D01*
G01X30752072Y-29360757D01*
G01X30752072Y-29360757D01*
G01X30752072Y-29360757D01*
G01X30792105Y-29318802D01*
G01X30832147Y-29277160D01*
G01X30872199Y-29235833D01*
G01X30912257Y-29194819D01*
G01X30952320Y-29154118D01*
G01X30992387Y-29113731D01*
G01X31032457Y-29073657D01*
G01X31072527Y-29033896D01*
G01X31112596Y-28994448D01*
G01X31152663Y-28955313D01*
G01X31192726Y-28916491D01*
G01X31232783Y-28877981D01*
G01X31272833Y-28839784D01*
G01X31312874Y-28801899D01*
G01X31352905Y-28764326D01*
G01X31392925Y-28727066D01*
G01X31432931Y-28690118D01*
G01X31472922Y-28653481D01*
G01X31512896Y-28617157D01*
G01X31552853Y-28581144D01*
G01X31592790Y-28545443D01*
G01X31632706Y-28510053D01*
G01X31672599Y-28474974D01*
G01X31712467Y-28440207D01*
G01X31752310Y-28405751D01*
G01X31792126Y-28371605D01*
G01X31831912Y-28337771D01*
G01X31871668Y-28304247D01*
G01X31911392Y-28271034D01*
G01X31951082Y-28238131D01*
G01X31990737Y-28205539D01*
G01X32030355Y-28173257D01*
G01X32069935Y-28141285D01*
G01X32109475Y-28109624D01*
G01X32148974Y-28078272D01*
G01X32188429Y-28047230D01*
G01X32227840Y-28016497D01*
G01X32267205Y-27986074D01*
G01X32306522Y-27955961D01*
G01X32345790Y-27926156D01*
G01X32385007Y-27896661D01*
G01X32424171Y-27867475D01*
G01X32463282Y-27838598D01*
G01X32502337Y-27810030D01*
G01X32541335Y-27781771D01*
G01X32580275Y-27753820D01*
G01X32619154Y-27726178D01*
G01X32657972Y-27698844D01*
G01X32696726Y-27671818D01*
G01X32735415Y-27645100D01*
G01X32735415Y-27645100D01*
G01X32653249Y-23596252D01*
G01X32653249Y-23596252D01*
G01X32610606Y-23612994D01*
G01X32567958Y-23629971D01*
G01X32525305Y-23647185D01*
G01X32482647Y-23664635D01*
G01X32439986Y-23682321D01*
G01X32397322Y-23700243D01*
G01X32354656Y-23718402D01*
G01X32311988Y-23736797D01*
G01X32269318Y-23755430D01*
G01X32226648Y-23774299D01*
G01X32183978Y-23793405D01*
G01X32141308Y-23812748D01*
G01X32098639Y-23832329D01*
G01X32055972Y-23852148D01*
G01X32013306Y-23872203D01*
G01X31970644Y-23892497D01*
G01X31927984Y-23913029D01*
G01X31885329Y-23933798D01*
G01X31842678Y-23954806D01*
G01X31800032Y-23976052D01*
G01X31757391Y-23997537D01*
G01X31714757Y-24019260D01*
G01X31672129Y-24041222D01*
G01X31629509Y-24063422D01*
G01X31586897Y-24085862D01*
G01X31544292Y-24108541D01*
G01X31501697Y-24131459D01*
G01X31459112Y-24154617D01*
G01X31416536Y-24178014D01*
G01X31373971Y-24201651D01*
G01X31331418Y-24225527D01*
G01X31288876Y-24249644D01*
G01X31246347Y-24274001D01*
G01X31203831Y-24298598D01*
G01X31161328Y-24323435D01*
G01X31118839Y-24348513D01*
G01X31076365Y-24373832D01*
G01X31033907Y-24399392D01*
G01X30991464Y-24425192D01*
G01X30949037Y-24451234D01*
G01X30906628Y-24477516D01*
G01X30864236Y-24504040D01*
G01X30821862Y-24530806D01*
G01X30779507Y-24557813D01*
G01X30737171Y-24585062D01*
G01X30694855Y-24612553D01*
G01X30652559Y-24640286D01*
G01X30610285Y-24668261D01*
G01X30568032Y-24696479D01*
G01X30525801Y-24724939D01*
G01X30483592Y-24753642D01*
G01X30441407Y-24782587D01*
G01X30399246Y-24811775D01*
G01X30357109Y-24841206D01*
G01X30314997Y-24870881D01*
G01X30272911Y-24900799D01*
G01X30230850Y-24930960D01*
G01X30188817Y-24961365D01*
G01X30146811Y-24992013D01*
G01X30104832Y-25022906D01*
G01X30062882Y-25054042D01*
G01X30020961Y-25085422D01*
G01X29979069Y-25117047D01*
G01X29937208Y-25148916D01*
G01X29895377Y-25181030D01*
G01X29853577Y-25213389D01*
G01X29811809Y-25245992D01*
G01X29770074Y-25278840D01*
G01X29728371Y-25311934D01*
G01X29686702Y-25345272D01*
G01X29645068Y-25378856D01*
G01X29603467Y-25412686D01*
G01X29561902Y-25446761D01*
G01X29520373Y-25481082D01*
G01X29478881Y-25515649D01*
G01X29437425Y-25550462D01*
G01X29396006Y-25585521D01*
G01X29354626Y-25620827D01*
G01X29313285Y-25656379D01*
G01X29271983Y-25692178D01*
G01X29230720Y-25728223D01*
G01X29189498Y-25764516D01*
G01X29148317Y-25801055D01*
G01X29107177Y-25837842D01*
G01X29066080Y-25874876D01*
G01X29025025Y-25912157D01*
G01X28984013Y-25949686D01*
G01X28943045Y-25987463D01*
G01X28902122Y-26025488D01*
G01X28861243Y-26063760D01*
G01X28820410Y-26102281D01*
G01X28779623Y-26141050D01*
G01X28738883Y-26180068D01*
G01X28698190Y-26219334D01*
G01X28657545Y-26258849D01*
G01X28616948Y-26298613D01*
G01X28576400Y-26338625D01*
G01X28535901Y-26378887D01*
G01X28495453Y-26419398D01*
G01X28455055Y-26460159D01*
G01X28455055Y-26460159D01*
G01X28455055Y-26460159D01*
G01X28418435Y-26418667D01*
G01X28382029Y-26375431D01*
G01X28345812Y-26330672D01*
G01X28309755Y-26284605D01*
G01X28273833Y-26237451D01*
G01X28238018Y-26189427D01*
G01X28202282Y-26140753D01*
G01X28166598Y-26091645D01*
G01X28130940Y-26042323D01*
G01X28095281Y-25993004D01*
G01X28059592Y-25943908D01*
G01X28023847Y-25895252D01*
G01X27988020Y-25847256D01*
G01X27952082Y-25800136D01*
G01X27916006Y-25754113D01*
G01X27879766Y-25709403D01*
G01X27843335Y-25666225D01*
G01X27806684Y-25624799D01*
G01X27769788Y-25585341D01*
G01X27732619Y-25548071D01*
G01X27732619Y-25548071D01*
G01X27732619Y-25548071D01*
G01X27681076Y-25498458D01*
G01X27629436Y-25449263D01*
G01X27577701Y-25400487D01*
G01X27525871Y-25352130D01*
G01X27473947Y-25304194D01*
G01X27421931Y-25256677D01*
G01X27369824Y-25209580D01*
G01X27317627Y-25162905D01*
G01X27265340Y-25116650D01*
G01X27212965Y-25070816D01*
G01X27160503Y-25025404D01*
G01X27107955Y-24980414D01*
G01X27055322Y-24935846D01*
G01X27002605Y-24891701D01*
G01X26949805Y-24847979D01*
G01X26896923Y-24804680D01*
G01X26843961Y-24761804D01*
G01X26790919Y-24719353D01*
G01X26737799Y-24677325D01*
G01X26684601Y-24635722D01*
G01X26631327Y-24594544D01*
G01X26577977Y-24553791D01*
G01X26524553Y-24513464D01*
G01X26471056Y-24473562D01*
G01X26417487Y-24434086D01*
G01X26363847Y-24395037D01*
G01X26310136Y-24356415D01*
G01X26256357Y-24318220D01*
G01X26202510Y-24280452D01*
G01X26148596Y-24243112D01*
G01X26094617Y-24206200D01*
G01X26040573Y-24169717D01*
G01X25986465Y-24133662D01*
G01X25932295Y-24098036D01*
G01X25878063Y-24062839D01*
G01X25823771Y-24028073D01*
G01X25769420Y-23993736D01*
G01X25715010Y-23959830D01*
G01X25660544Y-23926354D01*
G01X25606021Y-23893309D01*
G01X25551443Y-23860696D01*
G01X25496812Y-23828514D01*
G01X25442127Y-23796764D01*
G01X25387391Y-23765447D01*
G01X25332604Y-23734562D01*
G01X25277767Y-23704110D01*
G01X25222881Y-23674091D01*
G01X25167949Y-23644506D01*
G01X25112969Y-23615354D01*
G01X25057944Y-23586637D01*
G01X25002875Y-23558355D01*
G01X24947763Y-23530507D01*
G01X24892609Y-23503094D01*
G01X24837413Y-23476117D01*
G01X24782178Y-23449576D01*
G01X24726903Y-23423471D01*
G01X24671591Y-23397803D01*
G01X24616241Y-23372571D01*
G01X24560856Y-23347776D01*
G01X24505437Y-23323419D01*
G01X24449983Y-23299500D01*
G01X24394497Y-23276018D01*
G01X24338980Y-23252975D01*
G01X24283432Y-23230371D01*
G01X24227855Y-23208206D01*
G01X24172250Y-23186480D01*
G01X24116617Y-23165194D01*
G01X24060959Y-23144349D01*
G01X24005275Y-23123943D01*
G01X23949567Y-23103978D01*
G01X23893837Y-23084454D01*
G01X23838084Y-23065372D01*
G01X23782311Y-23046731D01*
G01X23726518Y-23028532D01*
G01X23670706Y-23010775D01*
G01X23614877Y-22993461D01*
G01X23559031Y-22976590D01*
G01X23503170Y-22960162D01*
G01X23447295Y-22944178D01*
G01X23391406Y-22928638D01*
G01X23335505Y-22913542D01*
G01X23279593Y-22898890D01*
G01X23223671Y-22884684D01*
G01X23167739Y-22870922D01*
G01X23111800Y-22857606D01*
G01X23055854Y-22844736D01*
G01X22999902Y-22832312D01*
G01X22943946Y-22820335D01*
G01X22887985Y-22808805D01*
G01X22832023Y-22797721D01*
G01X22776058Y-22787085D01*
G01X22720093Y-22776897D01*
G01X22664129Y-22767157D01*
G01X22608167Y-22757866D01*
G01X22552207Y-22749023D01*
G01X22496251Y-22740629D01*
G01X22440300Y-22732685D01*
G01X22384355Y-22725191D01*
G01X22328417Y-22718146D01*
G01X22272487Y-22711552D01*
G01X22272487Y-22711552D01*
G37*
G36*
G01X16127643Y-24947074D02*
G01X16127643Y-24947074D01*
G01X16089514Y-24982381D01*
G01X16051517Y-25017867D01*
G01X16013654Y-25053535D01*
G01X15975928Y-25089384D01*
G01X15938341Y-25125417D01*
G01X15900896Y-25161634D01*
G01X15863594Y-25198036D01*
G01X15826438Y-25234624D01*
G01X15789431Y-25271401D01*
G01X15752574Y-25308365D01*
G01X15715871Y-25345520D01*
G01X15679322Y-25382865D01*
G01X15642931Y-25420403D01*
G01X15606700Y-25458133D01*
G01X15570632Y-25496058D01*
G01X15534728Y-25534177D01*
G01X15498991Y-25572493D01*
G01X15463423Y-25611007D01*
G01X15428026Y-25649719D01*
G01X15392804Y-25688631D01*
G01X15392804Y-25688631D01*
G01X15392804Y-25688631D01*
G01X15347332Y-25739397D01*
G01X15302081Y-25790471D01*
G01X15257050Y-25841850D01*
G01X15212241Y-25893533D01*
G01X15167652Y-25945520D01*
G01X15123284Y-25997807D01*
G01X15079137Y-26050394D01*
G01X15035212Y-26103280D01*
G01X14991508Y-26156462D01*
G01X14948025Y-26209941D01*
G01X14904763Y-26263713D01*
G01X14861722Y-26317778D01*
G01X14818904Y-26372134D01*
G01X14776306Y-26426780D01*
G01X14733930Y-26481714D01*
G01X14691776Y-26536935D01*
G01X14649844Y-26592442D01*
G01X14608134Y-26648232D01*
G01X14566645Y-26704305D01*
G01X14525378Y-26760659D01*
G01X14484333Y-26817293D01*
G01X14443511Y-26874205D01*
G01X14402910Y-26931394D01*
G01X14362532Y-26988858D01*
G01X14322376Y-27046596D01*
G01X14282442Y-27104607D01*
G01X14242731Y-27162888D01*
G01X14203242Y-27221440D01*
G01X14163976Y-27280259D01*
G01X14124932Y-27339345D01*
G01X14086111Y-27398696D01*
G01X14047513Y-27458311D01*
G01X14009138Y-27518188D01*
G01X13970985Y-27578327D01*
G01X13933056Y-27638724D01*
G01X13895349Y-27699380D01*
G01X13857866Y-27760293D01*
G01X13820605Y-27821460D01*
G01X13783568Y-27882881D01*
G01X13746755Y-27944555D01*
G01X13710164Y-28006479D01*
G01X13673797Y-28068653D01*
G01X13637654Y-28131075D01*
G01X13601734Y-28193743D01*
G01X13566037Y-28256656D01*
G01X13530564Y-28319813D01*
G01X13495316Y-28383212D01*
G01X13460290Y-28446852D01*
G01X13425489Y-28510731D01*
G01X13390912Y-28574847D01*
G01X13356559Y-28639201D01*
G01X13322430Y-28703789D01*
G01X13288525Y-28768611D01*
G01X13254844Y-28833664D01*
G01X13221388Y-28898949D01*
G01X13188155Y-28964462D01*
G01X13155148Y-29030204D01*
G01X13122365Y-29096171D01*
G01X13089806Y-29162364D01*
G01X13057472Y-29228780D01*
G01X13025363Y-29295418D01*
G01X12993478Y-29362276D01*
G01X12961819Y-29429354D01*
G01X12930384Y-29496649D01*
G01X12899174Y-29564161D01*
G01X12868190Y-29631887D01*
G01X12837430Y-29699826D01*
G01X12806895Y-29767978D01*
G01X12776586Y-29836339D01*
G01X12746502Y-29904910D01*
G01X12716644Y-29973689D01*
G01X12687011Y-30042673D01*
G01X12657603Y-30111862D01*
G01X12628421Y-30181255D01*
G01X12599465Y-30250849D01*
G01X12570734Y-30320644D01*
G01X12542229Y-30390637D01*
G01X12513950Y-30460828D01*
G01X12485897Y-30531215D01*
G01X12458070Y-30601796D01*
G01X12430469Y-30672571D01*
G01X12403094Y-30743537D01*
G01X12375945Y-30814694D01*
G01X12349023Y-30886039D01*
G01X12322326Y-30957572D01*
G01X12295856Y-31029291D01*
G01X12269613Y-31101194D01*
G01X12243596Y-31173280D01*
G01X12217806Y-31245548D01*
G01X12192242Y-31317996D01*
G01X12166905Y-31390622D01*
G01X12141795Y-31463426D01*
G01X12116912Y-31536406D01*
G01X12092256Y-31609560D01*
G01X12067826Y-31682887D01*
G01X12043624Y-31756386D01*
G01X12019649Y-31830054D01*
G01X11995901Y-31903891D01*
G01X11972380Y-31977896D01*
G01X11949087Y-32052066D01*
G01X11949087Y-32052066D01*
G01X11949087Y-32052066D01*
G01X11914268Y-32165724D01*
G01X11880680Y-32279670D01*
G01X11848315Y-32393902D01*
G01X11817165Y-32508416D01*
G01X11787224Y-32623211D01*
G01X11758482Y-32738282D01*
G01X11730933Y-32853628D01*
G01X11704569Y-32969245D01*
G01X11679383Y-33085131D01*
G01X11655367Y-33201283D01*
G01X11632513Y-33317699D01*
G01X11610814Y-33434375D01*
G01X11590262Y-33551309D01*
G01X11570850Y-33668498D01*
G01X11552570Y-33785939D01*
G01X11535414Y-33903630D01*
G01X11519375Y-34021568D01*
G01X11504445Y-34139750D01*
G01X11490617Y-34258173D01*
G01X11477884Y-34376834D01*
G01X11466236Y-34495732D01*
G01X11455668Y-34614862D01*
G01X11446171Y-34734223D01*
G01X11437738Y-34853811D01*
G01X11430360Y-34973624D01*
G01X11424032Y-35093659D01*
G01X11418745Y-35213913D01*
G01X11414490Y-35334384D01*
G01X11411262Y-35455069D01*
G01X11409052Y-35575964D01*
G01X11407853Y-35697068D01*
G01X11407657Y-35818377D01*
G01X11408457Y-35939889D01*
G01X11410244Y-36061601D01*
G01X11413012Y-36183510D01*
G01X11416752Y-36305613D01*
G01X11421458Y-36427909D01*
G01X11427121Y-36550393D01*
G01X11433734Y-36673063D01*
G01X11441290Y-36795917D01*
G01X11449781Y-36918951D01*
G01X11459198Y-37042164D01*
G01X11469536Y-37165551D01*
G01X11480786Y-37289111D01*
G01X11492940Y-37412841D01*
G01X11505991Y-37536737D01*
G01X11519931Y-37660798D01*
G01X11534753Y-37785020D01*
G01X11550450Y-37909400D01*
G01X11567013Y-38033937D01*
G01X11584435Y-38158626D01*
G01X11602708Y-38283466D01*
G01X11621825Y-38408454D01*
G01X11641779Y-38533586D01*
G01X11662561Y-38658861D01*
G01X11684164Y-38784275D01*
G01X11706581Y-38909825D01*
G01X11729803Y-39035509D01*
G01X11753824Y-39161325D01*
G01X11778636Y-39287268D01*
G01X11804231Y-39413337D01*
G01X11830602Y-39539529D01*
G01X11857740Y-39665841D01*
G01X11885639Y-39792271D01*
G01X11914291Y-39918815D01*
G01X11943688Y-40045470D01*
G01X11973823Y-40172235D01*
G01X12004688Y-40299106D01*
G01X12036275Y-40426081D01*
G01X12068577Y-40553156D01*
G01X12101587Y-40680329D01*
G01X12135296Y-40807598D01*
G01X12169697Y-40934959D01*
G01X12204783Y-41062409D01*
G01X12240547Y-41189947D01*
G01X12276979Y-41317569D01*
G01X12314073Y-41445272D01*
G01X12351822Y-41573054D01*
G01X12390217Y-41700913D01*
G01X12429251Y-41828844D01*
G01X12468917Y-41956846D01*
G01X12509207Y-42084915D01*
G01X12550113Y-42213049D01*
G01X12591628Y-42341246D01*
G01X12633744Y-42469502D01*
G01X12676453Y-42597815D01*
G01X12719749Y-42726181D01*
G01X12763623Y-42854599D01*
G01X12808067Y-42983065D01*
G01X12853075Y-43111577D01*
G01X12898639Y-43240131D01*
G01X12944751Y-43368726D01*
G01X12991403Y-43497358D01*
G01X13038588Y-43626025D01*
G01X13086298Y-43754724D01*
G01X13134527Y-43883452D01*
G01X13183265Y-44012206D01*
G01X13232506Y-44140984D01*
G01X13282242Y-44269782D01*
G01X13332465Y-44398599D01*
G01X13332465Y-44398599D01*
G01X16687299Y-43171284D01*
G01X16687299Y-43171284D01*
G01X16643033Y-43052786D01*
G01X16599249Y-42934481D01*
G01X16555951Y-42816373D01*
G01X16513142Y-42698467D01*
G01X16470826Y-42580768D01*
G01X16429008Y-42463282D01*
G01X16387692Y-42346014D01*
G01X16346881Y-42228968D01*
G01X16306580Y-42112150D01*
G01X16266792Y-41995565D01*
G01X16227521Y-41879217D01*
G01X16188773Y-41763113D01*
G01X16150549Y-41647256D01*
G01X16112855Y-41531653D01*
G01X16075695Y-41416308D01*
G01X16039072Y-41301226D01*
G01X16002991Y-41186413D01*
G01X15967455Y-41071873D01*
G01X15932469Y-40957612D01*
G01X15898037Y-40843635D01*
G01X15864161Y-40729946D01*
G01X15830848Y-40616551D01*
G01X15798099Y-40503455D01*
G01X15765921Y-40390663D01*
G01X15734316Y-40278180D01*
G01X15703288Y-40166011D01*
G01X15672842Y-40054162D01*
G01X15642981Y-39942637D01*
G01X15613710Y-39831441D01*
G01X15585033Y-39720580D01*
G01X15556953Y-39610058D01*
G01X15529474Y-39499882D01*
G01X15502601Y-39390054D01*
G01X15476337Y-39280582D01*
G01X15450687Y-39171470D01*
G01X15425655Y-39062723D01*
G01X15401244Y-38954346D01*
G01X15377458Y-38846344D01*
G01X15354302Y-38738722D01*
G01X15331780Y-38631486D01*
G01X15309895Y-38524640D01*
G01X15288651Y-38418190D01*
G01X15268053Y-38312141D01*
G01X15248105Y-38206497D01*
G01X15228810Y-38101264D01*
G01X15210172Y-37996447D01*
G01X15192196Y-37892050D01*
G01X15174886Y-37788080D01*
G01X15158245Y-37684541D01*
G01X15142277Y-37581439D01*
G01X15126987Y-37478777D01*
G01X15112378Y-37376562D01*
G01X15098455Y-37274799D01*
G01X15085222Y-37173492D01*
G01X15072682Y-37072647D01*
G01X15060839Y-36972268D01*
G01X15049698Y-36872361D01*
G01X15039263Y-36772932D01*
G01X15029537Y-36673984D01*
G01X15020524Y-36575523D01*
G01X15012229Y-36477555D01*
G01X15004656Y-36380084D01*
G01X14997808Y-36283115D01*
G01X14991689Y-36186654D01*
G01X14986304Y-36090705D01*
G01X14981656Y-35995273D01*
G01X14977750Y-35900365D01*
G01X14974590Y-35805984D01*
G01X14972178Y-35712136D01*
G01X14970521Y-35618826D01*
G01X14969621Y-35526059D01*
G01X14969482Y-35433840D01*
G01X14970109Y-35342175D01*
G01X14971505Y-35251067D01*
G01X14973675Y-35160523D01*
G01X14976622Y-35070548D01*
G01X14980351Y-34981146D01*
G01X14984865Y-34892323D01*
G01X14990169Y-34804083D01*
G01X14996266Y-34716432D01*
G01X15003161Y-34629375D01*
G01X15010857Y-34542917D01*
G01X15019359Y-34457064D01*
G01X15028670Y-34371819D01*
G01X15038794Y-34287188D01*
G01X15049736Y-34203177D01*
G01X15061500Y-34119791D01*
G01X15074089Y-34037033D01*
G01X15087508Y-33954911D01*
G01X15101760Y-33873428D01*
G01X15116849Y-33792589D01*
G01X15132780Y-33712401D01*
G01X15149557Y-33632868D01*
G01X15167182Y-33553994D01*
G01X15185662Y-33475786D01*
G01X15204999Y-33398247D01*
G01X15225197Y-33321384D01*
G01X15246261Y-33245202D01*
G01X15268194Y-33169705D01*
G01X15291001Y-33094898D01*
G01X15291001Y-33094898D01*
G01X15291001Y-33094898D01*
G01X15307576Y-33042089D01*
G01X15324289Y-32989415D01*
G01X15341138Y-32936877D01*
G01X15358123Y-32884475D01*
G01X15375243Y-32832211D01*
G01X15392497Y-32780086D01*
G01X15409884Y-32728099D01*
G01X15427404Y-32676254D01*
G01X15445056Y-32624549D01*
G01X15462839Y-32572987D01*
G01X15480752Y-32521568D01*
G01X15498795Y-32470293D01*
G01X15516966Y-32419163D01*
G01X15535266Y-32368179D01*
G01X15553693Y-32317342D01*
G01X15572246Y-32266653D01*
G01X15590925Y-32216112D01*
G01X15609729Y-32165721D01*
G01X15628657Y-32115481D01*
G01X15647708Y-32065392D01*
G01X15666882Y-32015456D01*
G01X15686178Y-31965673D01*
G01X15705595Y-31916045D01*
G01X15725132Y-31866571D01*
G01X15744788Y-31817254D01*
G01X15764564Y-31768094D01*
G01X15784457Y-31719092D01*
G01X15804468Y-31670249D01*
G01X15824595Y-31621566D01*
G01X15844838Y-31573044D01*
G01X15865195Y-31524683D01*
G01X15885667Y-31476486D01*
G01X15906252Y-31428451D01*
G01X15926950Y-31380582D01*
G01X15947759Y-31332877D01*
G01X15968680Y-31285340D01*
G01X15989711Y-31237969D01*
G01X16010851Y-31190767D01*
G01X16032100Y-31143734D01*
G01X16053457Y-31096871D01*
G01X16074921Y-31050179D01*
G01X16096492Y-31003660D01*
G01X16118168Y-30957313D01*
G01X16139949Y-30911140D01*
G01X16161834Y-30865142D01*
G01X16183823Y-30819319D01*
G01X16205914Y-30773673D01*
G01X16228106Y-30728205D01*
G01X16250400Y-30682915D01*
G01X16272794Y-30637805D01*
G01X16295288Y-30592874D01*
G01X16317880Y-30548126D01*
G01X16340570Y-30503559D01*
G01X16363358Y-30459176D01*
G01X16386242Y-30414976D01*
G01X16409221Y-30370962D01*
G01X16432295Y-30327134D01*
G01X16455463Y-30283492D01*
G01X16478725Y-30240039D01*
G01X16502079Y-30196774D01*
G01X16525525Y-30153698D01*
G01X16549062Y-30110813D01*
G01X16572689Y-30068120D01*
G01X16596406Y-30025619D01*
G01X16620211Y-29983312D01*
G01X16644104Y-29941199D01*
G01X16668084Y-29899281D01*
G01X16692151Y-29857559D01*
G01X16716303Y-29816035D01*
G01X16740540Y-29774708D01*
G01X16764861Y-29733581D01*
G01X16789266Y-29692653D01*
G01X16813752Y-29651926D01*
G01X16838321Y-29611401D01*
G01X16862971Y-29571078D01*
G01X16887700Y-29530959D01*
G01X16912510Y-29491045D01*
G01X16937398Y-29451336D01*
G01X16962363Y-29411834D01*
G01X16987406Y-29372538D01*
G01X17012525Y-29333451D01*
G01X17037720Y-29294574D01*
G01X17062990Y-29255906D01*
G01X17088333Y-29217450D01*
G01X17113750Y-29179205D01*
G01X17139239Y-29141173D01*
G01X17164800Y-29103355D01*
G01X17190432Y-29065752D01*
G01X17216135Y-29028365D01*
G01X17241906Y-28991194D01*
G01X17267746Y-28954241D01*
G01X17293654Y-28917506D01*
G01X17319629Y-28880991D01*
G01X17345671Y-28844696D01*
G01X17371778Y-28808622D01*
G01X17397950Y-28772770D01*
G01X17424185Y-28737142D01*
G01X17450484Y-28701738D01*
G01X17476846Y-28666558D01*
G01X17503269Y-28631605D01*
G01X17503269Y-28631605D01*
G37*
G36*
G01X55298378Y-25083500D02*
G01X53626645Y-28439885D01*
G01X53626645Y-28439885D01*
G01X53654891Y-28475429D01*
G01X53683072Y-28511233D01*
G01X53711188Y-28547294D01*
G01X53739237Y-28583612D01*
G01X53767218Y-28620185D01*
G01X53795132Y-28657013D01*
G01X53822975Y-28694094D01*
G01X53850749Y-28731427D01*
G01X53878452Y-28769011D01*
G01X53906082Y-28806845D01*
G01X53933640Y-28844928D01*
G01X53961124Y-28883259D01*
G01X53988534Y-28921836D01*
G01X54015868Y-28960659D01*
G01X54043125Y-28999726D01*
G01X54070305Y-29039036D01*
G01X54097407Y-29078588D01*
G01X54124430Y-29118381D01*
G01X54151373Y-29158414D01*
G01X54178235Y-29198686D01*
G01X54205016Y-29239196D01*
G01X54231713Y-29279942D01*
G01X54258328Y-29320923D01*
G01X54284857Y-29362139D01*
G01X54311302Y-29403588D01*
G01X54337660Y-29445269D01*
G01X54363931Y-29487180D01*
G01X54390114Y-29529322D01*
G01X54416208Y-29571692D01*
G01X54442212Y-29614290D01*
G01X54468126Y-29657114D01*
G01X54493948Y-29700164D01*
G01X54519678Y-29743438D01*
G01X54545314Y-29786934D01*
G01X54570856Y-29830653D01*
G01X54596303Y-29874593D01*
G01X54621654Y-29918752D01*
G01X54646908Y-29963130D01*
G01X54672064Y-30007726D01*
G01X54697121Y-30052537D01*
G01X54722079Y-30097565D01*
G01X54746936Y-30142806D01*
G01X54771692Y-30188260D01*
G01X54796346Y-30233926D01*
G01X54820896Y-30279803D01*
G01X54845343Y-30325890D01*
G01X54869684Y-30372185D01*
G01X54893920Y-30418687D01*
G01X54918049Y-30465396D01*
G01X54942070Y-30512310D01*
G01X54965982Y-30559428D01*
G01X54989786Y-30606749D01*
G01X55013479Y-30654272D01*
G01X55037061Y-30701996D01*
G01X55060530Y-30749919D01*
G01X55083887Y-30798040D01*
G01X55107130Y-30846359D01*
G01X55130258Y-30894875D01*
G01X55153270Y-30943585D01*
G01X55176166Y-30992489D01*
G01X55198945Y-31041586D01*
G01X55221605Y-31090875D01*
G01X55244146Y-31140355D01*
G01X55266566Y-31190024D01*
G01X55288866Y-31239882D01*
G01X55311044Y-31289927D01*
G01X55333099Y-31340158D01*
G01X55355030Y-31390574D01*
G01X55376837Y-31441173D01*
G01X55398519Y-31491956D01*
G01X55420074Y-31542921D01*
G01X55441501Y-31594066D01*
G01X55462801Y-31645390D01*
G01X55483971Y-31696893D01*
G01X55505012Y-31748573D01*
G01X55525922Y-31800429D01*
G01X55546700Y-31852460D01*
G01X55567345Y-31904665D01*
G01X55587857Y-31957043D01*
G01X55608235Y-32009592D01*
G01X55628477Y-32062312D01*
G01X55648583Y-32115202D01*
G01X55668552Y-32168259D01*
G01X55688383Y-32221484D01*
G01X55708076Y-32274874D01*
G01X55727628Y-32328430D01*
G01X55747040Y-32382149D01*
G01X55766310Y-32436032D01*
G01X55785438Y-32490075D01*
G01X55804423Y-32544279D01*
G01X55823263Y-32598643D01*
G01X55841959Y-32653164D01*
G01X55860508Y-32707843D01*
G01X55878911Y-32762678D01*
G01X55897165Y-32817667D01*
G01X55915271Y-32872810D01*
G01X55933228Y-32928106D01*
G01X55951034Y-32983553D01*
G01X55968689Y-33039151D01*
G01X55986191Y-33094898D01*
G01X55986191Y-33094898D01*
G01X55986191Y-33094898D01*
G01X56006120Y-33160074D01*
G01X56025382Y-33225776D01*
G01X56043980Y-33292001D01*
G01X56061916Y-33358746D01*
G01X56079193Y-33426007D01*
G01X56095814Y-33493781D01*
G01X56111781Y-33562064D01*
G01X56127097Y-33630853D01*
G01X56141765Y-33700145D01*
G01X56155788Y-33769936D01*
G01X56169168Y-33840222D01*
G01X56181907Y-33911002D01*
G01X56194010Y-33982270D01*
G01X56205478Y-34054024D01*
G01X56216314Y-34126260D01*
G01X56226521Y-34198975D01*
G01X56236101Y-34272165D01*
G01X56245057Y-34345828D01*
G01X56253393Y-34419959D01*
G01X56261110Y-34494555D01*
G01X56268211Y-34569613D01*
G01X56274700Y-34645130D01*
G01X56280578Y-34721102D01*
G01X56285849Y-34797525D01*
G01X56290515Y-34874397D01*
G01X56294579Y-34951714D01*
G01X56298043Y-35029472D01*
G01X56300911Y-35107668D01*
G01X56303184Y-35186299D01*
G01X56304867Y-35265361D01*
G01X56305961Y-35344852D01*
G01X56306469Y-35424766D01*
G01X56306394Y-35505102D01*
G01X56305738Y-35585856D01*
G01X56304505Y-35667024D01*
G01X56302697Y-35748602D01*
G01X56300316Y-35830589D01*
G01X56297366Y-35912979D01*
G01X56293849Y-35995771D01*
G01X56289768Y-36078959D01*
G01X56285125Y-36162542D01*
G01X56279924Y-36246515D01*
G01X56274167Y-36330875D01*
G01X56267856Y-36415620D01*
G01X56260994Y-36500744D01*
G01X56253585Y-36586246D01*
G01X56245631Y-36672121D01*
G01X56237133Y-36758366D01*
G01X56228097Y-36844978D01*
G01X56218523Y-36931954D01*
G01X56208414Y-37019289D01*
G01X56197775Y-37106982D01*
G01X56186606Y-37195027D01*
G01X56174911Y-37283422D01*
G01X56162692Y-37372164D01*
G01X56149952Y-37461249D01*
G01X56136695Y-37550673D01*
G01X56122922Y-37640434D01*
G01X56108636Y-37730527D01*
G01X56093840Y-37820950D01*
G01X56078537Y-37911699D01*
G01X56062730Y-38002771D01*
G01X56046420Y-38094162D01*
G01X56029612Y-38185869D01*
G01X56012307Y-38277888D01*
G01X55994508Y-38370216D01*
G01X55976218Y-38462850D01*
G01X55957440Y-38555787D01*
G01X55938177Y-38649022D01*
G01X55918430Y-38742553D01*
G01X55898203Y-38836376D01*
G01X55877499Y-38930488D01*
G01X55856320Y-39024885D01*
G01X55834669Y-39119564D01*
G01X55812549Y-39214521D01*
G01X55789962Y-39309754D01*
G01X55766911Y-39405258D01*
G01X55743398Y-39501031D01*
G01X55719428Y-39597068D01*
G01X55695001Y-39693367D01*
G01X55670122Y-39789925D01*
G01X55644792Y-39886737D01*
G01X55619014Y-39983801D01*
G01X55592792Y-40081112D01*
G01X55566127Y-40178668D01*
G01X55539022Y-40276465D01*
G01X55511481Y-40374500D01*
G01X55483506Y-40472770D01*
G01X55455099Y-40571270D01*
G01X55426264Y-40669998D01*
G01X55397002Y-40768951D01*
G01X55367317Y-40868124D01*
G01X55337212Y-40967514D01*
G01X55306689Y-41067119D01*
G01X55275750Y-41166934D01*
G01X55244400Y-41266957D01*
G01X55212639Y-41367183D01*
G01X55180471Y-41467610D01*
G01X55147900Y-41568234D01*
G01X55114926Y-41669051D01*
G01X55114926Y-41669051D01*
G01X58511102Y-42849339D01*
G01X58511102Y-42849339D01*
G01X58549698Y-42736386D01*
G01X58587849Y-42623472D01*
G01X58625551Y-42510599D01*
G01X58662798Y-42397769D01*
G01X58699585Y-42284984D01*
G01X58735907Y-42172246D01*
G01X58771759Y-42059556D01*
G01X58807135Y-41946917D01*
G01X58842030Y-41834331D01*
G01X58876440Y-41721799D01*
G01X58910358Y-41609323D01*
G01X58943779Y-41496904D01*
G01X58976699Y-41384546D01*
G01X59009113Y-41272250D01*
G01X59041014Y-41160017D01*
G01X59072397Y-41047850D01*
G01X59103259Y-40935751D01*
G01X59133592Y-40823720D01*
G01X59163393Y-40711761D01*
G01X59192655Y-40599875D01*
G01X59221374Y-40488064D01*
G01X59249544Y-40376330D01*
G01X59277161Y-40264674D01*
G01X59304218Y-40153099D01*
G01X59330712Y-40041607D01*
G01X59356636Y-39930199D01*
G01X59381985Y-39818877D01*
G01X59406754Y-39707643D01*
G01X59430938Y-39596499D01*
G01X59454532Y-39485447D01*
G01X59477531Y-39374489D01*
G01X59499928Y-39263626D01*
G01X59521720Y-39152861D01*
G01X59542900Y-39042195D01*
G01X59563464Y-38931630D01*
G01X59583407Y-38821169D01*
G01X59602722Y-38710813D01*
G01X59621406Y-38600563D01*
G01X59639452Y-38490422D01*
G01X59656856Y-38380392D01*
G01X59673612Y-38270474D01*
G01X59689715Y-38160671D01*
G01X59705160Y-38050984D01*
G01X59719942Y-37941415D01*
G01X59734055Y-37831966D01*
G01X59747495Y-37722639D01*
G01X59760255Y-37613436D01*
G01X59772332Y-37504358D01*
G01X59783719Y-37395408D01*
G01X59794411Y-37286588D01*
G01X59804403Y-37177899D01*
G01X59813690Y-37069342D01*
G01X59822268Y-36960921D01*
G01X59830129Y-36852637D01*
G01X59837270Y-36744492D01*
G01X59843685Y-36636487D01*
G01X59849369Y-36528625D01*
G01X59854316Y-36420908D01*
G01X59858522Y-36313336D01*
G01X59861981Y-36205913D01*
G01X59864688Y-36098640D01*
G01X59866638Y-35991519D01*
G01X59867825Y-35884552D01*
G01X59868245Y-35777740D01*
G01X59867892Y-35671086D01*
G01X59866761Y-35564591D01*
G01X59864846Y-35458258D01*
G01X59862143Y-35352088D01*
G01X59858647Y-35246083D01*
G01X59854351Y-35140245D01*
G01X59849251Y-35034576D01*
G01X59843342Y-34929078D01*
G01X59836618Y-34823752D01*
G01X59829075Y-34718601D01*
G01X59820706Y-34613626D01*
G01X59811508Y-34508830D01*
G01X59801473Y-34404213D01*
G01X59790598Y-34299779D01*
G01X59778878Y-34195528D01*
G01X59766306Y-34091463D01*
G01X59752878Y-33987586D01*
G01X59738588Y-33883898D01*
G01X59723431Y-33780402D01*
G01X59707403Y-33677099D01*
G01X59690497Y-33573991D01*
G01X59672709Y-33471080D01*
G01X59654034Y-33368368D01*
G01X59634465Y-33265856D01*
G01X59613999Y-33163548D01*
G01X59592629Y-33061444D01*
G01X59570351Y-32959546D01*
G01X59547159Y-32857857D01*
G01X59523048Y-32756378D01*
G01X59498014Y-32655111D01*
G01X59472049Y-32554057D01*
G01X59445151Y-32453220D01*
G01X59417312Y-32352600D01*
G01X59388529Y-32252200D01*
G01X59358795Y-32152021D01*
G01X59328106Y-32052066D01*
G01X59328106Y-32052066D01*
G01X59328106Y-32052066D01*
G01X59304812Y-31977896D01*
G01X59281292Y-31903891D01*
G01X59257544Y-31830053D01*
G01X59233570Y-31756384D01*
G01X59209369Y-31682886D01*
G01X59184941Y-31609558D01*
G01X59160286Y-31536404D01*
G01X59135405Y-31463424D01*
G01X59110297Y-31390620D01*
G01X59084962Y-31317993D01*
G01X59059401Y-31245545D01*
G01X59033614Y-31173277D01*
G01X59007600Y-31101191D01*
G01X58981360Y-31029287D01*
G01X58954894Y-30957569D01*
G01X58928202Y-30886036D01*
G01X58901284Y-30814690D01*
G01X58874139Y-30743533D01*
G01X58846769Y-30672567D01*
G01X58819173Y-30601792D01*
G01X58791350Y-30531211D01*
G01X58763302Y-30460824D01*
G01X58735029Y-30390633D01*
G01X58706529Y-30320639D01*
G01X58677804Y-30250845D01*
G01X58648854Y-30181251D01*
G01X58619678Y-30111858D01*
G01X58590277Y-30042669D01*
G01X58560650Y-29973684D01*
G01X58530798Y-29904906D01*
G01X58500720Y-29836335D01*
G01X58470418Y-29767973D01*
G01X58439890Y-29699822D01*
G01X58409137Y-29631883D01*
G01X58378160Y-29564156D01*
G01X58346957Y-29496645D01*
G01X58315530Y-29429350D01*
G01X58283877Y-29362272D01*
G01X58252000Y-29295414D01*
G01X58219899Y-29228776D01*
G01X58187572Y-29162360D01*
G01X58155021Y-29096168D01*
G01X58122246Y-29030200D01*
G01X58089246Y-28964459D01*
G01X58056021Y-28898945D01*
G01X58022573Y-28833661D01*
G01X57988900Y-28768607D01*
G01X57955003Y-28703786D01*
G01X57920881Y-28639198D01*
G01X57886536Y-28574844D01*
G01X57851967Y-28510728D01*
G01X57817173Y-28446849D01*
G01X57782156Y-28383209D01*
G01X57746915Y-28319810D01*
G01X57711450Y-28256654D01*
G01X57675762Y-28193740D01*
G01X57639849Y-28131072D01*
G01X57603714Y-28068651D01*
G01X57567354Y-28006477D01*
G01X57530771Y-27944553D01*
G01X57493965Y-27882880D01*
G01X57456935Y-27821459D01*
G01X57419682Y-27760291D01*
G01X57382206Y-27699379D01*
G01X57344507Y-27638723D01*
G01X57306585Y-27578325D01*
G01X57268439Y-27518187D01*
G01X57230071Y-27458310D01*
G01X57191479Y-27398695D01*
G01X57152665Y-27339344D01*
G01X57113628Y-27280258D01*
G01X57074368Y-27221439D01*
G01X57034886Y-27162888D01*
G01X56995180Y-27104607D01*
G01X56955253Y-27046596D01*
G01X56915103Y-26988858D01*
G01X56874730Y-26931394D01*
G01X56834135Y-26874205D01*
G01X56793318Y-26817293D01*
G01X56752278Y-26760659D01*
G01X56711016Y-26704305D01*
G01X56669532Y-26648232D01*
G01X56627826Y-26592442D01*
G01X56585898Y-26536935D01*
G01X56543748Y-26481714D01*
G01X56501377Y-26426780D01*
G01X56458783Y-26372134D01*
G01X56415967Y-26317778D01*
G01X56372930Y-26263713D01*
G01X56329671Y-26209941D01*
G01X56286191Y-26156463D01*
G01X56242489Y-26103280D01*
G01X56198566Y-26050395D01*
G01X56154421Y-25997807D01*
G01X56110055Y-25945520D01*
G01X56065467Y-25893534D01*
G01X56020659Y-25841850D01*
G01X55975629Y-25790471D01*
G01X55930378Y-25739398D01*
G01X55884906Y-25688631D01*
G01X55884906Y-25688631D01*
G01X55884906Y-25688631D01*
G01X55850852Y-25650983D01*
G01X55816649Y-25613499D01*
G01X55782300Y-25576180D01*
G01X55747804Y-25539029D01*
G01X55713162Y-25502046D01*
G01X55678374Y-25465233D01*
G01X55643441Y-25428591D01*
G01X55608363Y-25392122D01*
G01X55573141Y-25355827D01*
G01X55537776Y-25319708D01*
G01X55502268Y-25283765D01*
G01X55466617Y-25248001D01*
G01X55430824Y-25212416D01*
G01X55394890Y-25177013D01*
G01X55358815Y-25141792D01*
G01X55322599Y-25106755D01*
G01X55298378Y-25083500D01*
G37*
G36*
G01X52799822Y-47328137D02*
G01X52799822Y-47328137D01*
G01X52774189Y-47381488D01*
G01X52748513Y-47434839D01*
G01X52722792Y-47488191D01*
G01X52697024Y-47541544D01*
G01X52671209Y-47594895D01*
G01X52645344Y-47648247D01*
G01X52619427Y-47701597D01*
G01X52593459Y-47754946D01*
G01X52567436Y-47808294D01*
G01X52541358Y-47861639D01*
G01X52515223Y-47914983D01*
G01X52489029Y-47968324D01*
G01X52462775Y-48021662D01*
G01X52436460Y-48074997D01*
G01X52410082Y-48128329D01*
G01X52383639Y-48181657D01*
G01X52357130Y-48234981D01*
G01X52330553Y-48288301D01*
G01X52303908Y-48341616D01*
G01X52277192Y-48394925D01*
G01X52250403Y-48448230D01*
G01X52223541Y-48501529D01*
G01X52196604Y-48554822D01*
G01X52169591Y-48608108D01*
G01X52142499Y-48661388D01*
G01X52142499Y-48661388D01*
G01X52142499Y-48661388D01*
G01X52052081Y-48838408D01*
G01X51961213Y-49015265D01*
G01X51869913Y-49191948D01*
G01X51778197Y-49368449D01*
G01X51686082Y-49544756D01*
G01X51593586Y-49720862D01*
G01X51500724Y-49896755D01*
G01X51407515Y-50072427D01*
G01X51313974Y-50247866D01*
G01X51220119Y-50423065D01*
G01X51125966Y-50598012D01*
G01X51031533Y-50772698D01*
G01X50936836Y-50947114D01*
G01X50841892Y-51121249D01*
G01X50746718Y-51295094D01*
G01X50651331Y-51468639D01*
G01X50555748Y-51641875D01*
G01X50459986Y-51814791D01*
G01X50364061Y-51987377D01*
G01X50267990Y-52159625D01*
G01X50171791Y-52331525D01*
G01X50075480Y-52503065D01*
G01X49979074Y-52674238D01*
G01X49882590Y-52845033D01*
G01X49786045Y-53015440D01*
G01X49689456Y-53185449D01*
G01X49592839Y-53355052D01*
G01X49496212Y-53524237D01*
G01X49399591Y-53692996D01*
G01X49302993Y-53861318D01*
G01X49206436Y-54029194D01*
G01X49109935Y-54196614D01*
G01X49013508Y-54363569D01*
G01X48917172Y-54530048D01*
G01X48820944Y-54696042D01*
G01X48724840Y-54861541D01*
G01X48628877Y-55026535D01*
G01X48533073Y-55191015D01*
G01X48437444Y-55354970D01*
G01X48342007Y-55518392D01*
G01X48246779Y-55681270D01*
G01X48151776Y-55843594D01*
G01X48057017Y-56005356D01*
G01X47962516Y-56166544D01*
G01X47868293Y-56327150D01*
G01X47774362Y-56487163D01*
G01X47680742Y-56646574D01*
G01X47587448Y-56805373D01*
G01X47494499Y-56963550D01*
G01X47401911Y-57121096D01*
G01X47309700Y-57278000D01*
G01X47217883Y-57434254D01*
G01X47126479Y-57589847D01*
G01X47035502Y-57744769D01*
G01X46944971Y-57899011D01*
G01X46854902Y-58052564D01*
G01X46765311Y-58205416D01*
G01X46676217Y-58357559D01*
G01X46587635Y-58508983D01*
G01X46499583Y-58659678D01*
G01X46412078Y-58809634D01*
G01X46325136Y-58958841D01*
G01X46238774Y-59107291D01*
G01X46153009Y-59254972D01*
G01X46067858Y-59401876D01*
G01X45983338Y-59547992D01*
G01X45899466Y-59693311D01*
G01X45816258Y-59837823D01*
G01X45733732Y-59981518D01*
G01X45651905Y-60124387D01*
G01X45570792Y-60266419D01*
G01X45490412Y-60407606D01*
G01X45410781Y-60547937D01*
G01X45331916Y-60687402D01*
G01X45253833Y-60825992D01*
G01X45176550Y-60963697D01*
G01X45100084Y-61100507D01*
G01X45024451Y-61236413D01*
G01X44949669Y-61371404D01*
G01X44875754Y-61505472D01*
G01X44802722Y-61638606D01*
G01X44730592Y-61770796D01*
G01X44659380Y-61902033D01*
G01X44589102Y-62032307D01*
G01X44519776Y-62161608D01*
G01X44451418Y-62289927D01*
G01X44384046Y-62417253D01*
G01X44317675Y-62543578D01*
G01X44252324Y-62668890D01*
G01X44188009Y-62793181D01*
G01X44124747Y-62916441D01*
G01X44062555Y-63038660D01*
G01X44001449Y-63159828D01*
G01X43941447Y-63279936D01*
G01X43882565Y-63398973D01*
G01X43824820Y-63516930D01*
G01X43768229Y-63633798D01*
G01X43712810Y-63749566D01*
G01X43658578Y-63864225D01*
G01X43605551Y-63977764D01*
G01X43605551Y-63977764D01*
G01X43605551Y-63977764D01*
G01X43552470Y-64093102D01*
G01X43499722Y-64209569D01*
G01X43447307Y-64327148D01*
G01X43395223Y-64445824D01*
G01X43343470Y-64565580D01*
G01X43292047Y-64686398D01*
G01X43240951Y-64808264D01*
G01X43190181Y-64931160D01*
G01X43139738Y-65055071D01*
G01X43089618Y-65179978D01*
G01X43039822Y-65305866D01*
G01X42990348Y-65432719D01*
G01X42941194Y-65560520D01*
G01X42892360Y-65689253D01*
G01X42843844Y-65818900D01*
G01X42795644Y-65949446D01*
G01X42747761Y-66080874D01*
G01X42700192Y-66213167D01*
G01X42652937Y-66346310D01*
G01X42605994Y-66480286D01*
G01X42559361Y-66615077D01*
G01X42513039Y-66750668D01*
G01X42467024Y-66887043D01*
G01X42421317Y-67024184D01*
G01X42375917Y-67162075D01*
G01X42330821Y-67300701D01*
G01X42286028Y-67440043D01*
G01X42241538Y-67580086D01*
G01X42197349Y-67720814D01*
G01X42153461Y-67862210D01*
G01X42109870Y-68004256D01*
G01X42066578Y-68146938D01*
G01X42023582Y-68290239D01*
G01X41980880Y-68434141D01*
G01X41938473Y-68578628D01*
G01X41896359Y-68723685D01*
G01X41854535Y-68869294D01*
G01X41813003Y-69015440D01*
G01X41771759Y-69162105D01*
G01X41730803Y-69309272D01*
G01X41690133Y-69456927D01*
G01X41649749Y-69605052D01*
G01X41609649Y-69753630D01*
G01X41569832Y-69902646D01*
G01X41530297Y-70052082D01*
G01X41491042Y-70201922D01*
G01X41452066Y-70352150D01*
G01X41413369Y-70502750D01*
G01X41374948Y-70653704D01*
G01X41336803Y-70804997D01*
G01X41298933Y-70956611D01*
G01X41261335Y-71108531D01*
G01X41224010Y-71260740D01*
G01X41186956Y-71413221D01*
G01X41150171Y-71565958D01*
G01X41113654Y-71718934D01*
G01X41077404Y-71872134D01*
G01X41041421Y-72025540D01*
G01X41005702Y-72179136D01*
G01X40970246Y-72332905D01*
G01X40935053Y-72486832D01*
G01X40900121Y-72640899D01*
G01X40865448Y-72795090D01*
G01X40831035Y-72949389D01*
G01X40796878Y-73103779D01*
G01X40762978Y-73258244D01*
G01X40729333Y-73412767D01*
G01X40695941Y-73567332D01*
G01X40662802Y-73721922D01*
G01X40629914Y-73876520D01*
G01X40597277Y-74031111D01*
G01X40564888Y-74185678D01*
G01X40532747Y-74340204D01*
G01X40500852Y-74494673D01*
G01X40469203Y-74649068D01*
G01X40437798Y-74803374D01*
G01X40406635Y-74957572D01*
G01X40375714Y-75111648D01*
G01X40345033Y-75265584D01*
G01X40314592Y-75419364D01*
G01X40284388Y-75572972D01*
G01X40254421Y-75726391D01*
G01X40224690Y-75879604D01*
G01X40195193Y-76032595D01*
G01X40165929Y-76185348D01*
G01X40136896Y-76337846D01*
G01X40108095Y-76490073D01*
G01X40079523Y-76642012D01*
G01X40051179Y-76793646D01*
G01X40023062Y-76944960D01*
G01X39995170Y-77095937D01*
G01X39967504Y-77246559D01*
G01X39940060Y-77396812D01*
G01X39912839Y-77546678D01*
G01X39885838Y-77696141D01*
G01X39859058Y-77845184D01*
G01X39832495Y-77993791D01*
G01X39806150Y-78141945D01*
G01X39780021Y-78289630D01*
G01X39754107Y-78436830D01*
G01X39754107Y-78436830D01*
G01X39754107Y-78436830D01*
G01X39728422Y-78583515D01*
G01X39702983Y-78729655D01*
G01X39677788Y-78875232D01*
G01X39652839Y-79020225D01*
G01X39628136Y-79164618D01*
G01X39603679Y-79308389D01*
G01X39579468Y-79451521D01*
G01X39555504Y-79593995D01*
G01X39531787Y-79735792D01*
G01X39508317Y-79876893D01*
G01X39485094Y-80017279D01*
G01X39462119Y-80156932D01*
G01X39439392Y-80295832D01*
G01X39416913Y-80433960D01*
G01X39394682Y-80571298D01*
G01X39372701Y-80707828D01*
G01X39350968Y-80843529D01*
G01X39329485Y-80978383D01*
G01X39308251Y-81112371D01*
G01X39287267Y-81245475D01*
G01X39266533Y-81377675D01*
G01X39246049Y-81508953D01*
G01X39225816Y-81639290D01*
G01X39205834Y-81768667D01*
G01X39186103Y-81897064D01*
G01X39166623Y-82024464D01*
G01X39147395Y-82150847D01*
G01X39128419Y-82276195D01*
G01X39109695Y-82400488D01*
G01X39091224Y-82523708D01*
G01X39073005Y-82645836D01*
G01X39055040Y-82766853D01*
G01X39037327Y-82886739D01*
G01X39019868Y-83005477D01*
G01X39002663Y-83123048D01*
G01X38985712Y-83239432D01*
G01X38969016Y-83354610D01*
G01X38952574Y-83468565D01*
G01X38936387Y-83581276D01*
G01X38920455Y-83692725D01*
G01X38904778Y-83802893D01*
G01X38889357Y-83911762D01*
G01X38874192Y-84019312D01*
G01X38859284Y-84125525D01*
G01X38844631Y-84230381D01*
G01X38830236Y-84333862D01*
G01X38816097Y-84435949D01*
G01X38802216Y-84536624D01*
G01X38788592Y-84635866D01*
G01X38775226Y-84733658D01*
G01X38762118Y-84829980D01*
G01X38749269Y-84924814D01*
G01X38736678Y-85018141D01*
G01X38724346Y-85109941D01*
G01X38712273Y-85200197D01*
G01X38700460Y-85288888D01*
G01X38688906Y-85375997D01*
G01X38677612Y-85461505D01*
G01X38666578Y-85545392D01*
G01X38655805Y-85627639D01*
G01X38645293Y-85708229D01*
G01X38635041Y-85787141D01*
G01X38625051Y-85864357D01*
G01X38615322Y-85939859D01*
G01X38605855Y-86013627D01*
G01X38596651Y-86085642D01*
G01X38587708Y-86155886D01*
G01X38579028Y-86224340D01*
G01X38570611Y-86290985D01*
G01X38562458Y-86355801D01*
G01X38554567Y-86418771D01*
G01X38546940Y-86479875D01*
G01X38539578Y-86539095D01*
G01X38532479Y-86596411D01*
G01X38525645Y-86651804D01*
G01X38519076Y-86705257D01*
G01X38512771Y-86756749D01*
G01X38506732Y-86806263D01*
G01X38500958Y-86853778D01*
G01X38495451Y-86899277D01*
G01X38490209Y-86942741D01*
G01X38485234Y-86984150D01*
G01X38480525Y-87023485D01*
G01X38476083Y-87060729D01*
G01X38471908Y-87095862D01*
G01X38468001Y-87128864D01*
G01X38464361Y-87159718D01*
G01X38460990Y-87188405D01*
G01X38457886Y-87214904D01*
G01X38455051Y-87239199D01*
G01X38452485Y-87261269D01*
G01X38450187Y-87281096D01*
G01X38448159Y-87298662D01*
G01X38446401Y-87313946D01*
G01X38444912Y-87326931D01*
G01X38443694Y-87337597D01*
G01X38442745Y-87345926D01*
G01X38442068Y-87351898D01*
G01X38441661Y-87355496D01*
G01X38441525Y-87356699D01*
G01X38441525Y-87356699D01*
G01X41918317Y-87747372D01*
G01X41918317Y-87747372D01*
G01X41918450Y-87746198D01*
G01X41918848Y-87742690D01*
G01X41919512Y-87736864D01*
G01X41920441Y-87728740D01*
G01X41921635Y-87718337D01*
G01X41923093Y-87705671D01*
G01X41924815Y-87690762D01*
G01X41926802Y-87673629D01*
G01X41929052Y-87654289D01*
G01X41931565Y-87632761D01*
G01X41934342Y-87609063D01*
G01X41937381Y-87583214D01*
G01X41940683Y-87555232D01*
G01X41944247Y-87525135D01*
G01X41948073Y-87492942D01*
G01X41952161Y-87458671D01*
G01X41956511Y-87422340D01*
G01X41961121Y-87383969D01*
G01X41965993Y-87343574D01*
G01X41971125Y-87301175D01*
G01X41976517Y-87256790D01*
G01X41982169Y-87210438D01*
G01X41988082Y-87162136D01*
G01X41994253Y-87111903D01*
G01X42000684Y-87059758D01*
G01X42007374Y-87005719D01*
G01X42014323Y-86949803D01*
G01X42021529Y-86892031D01*
G01X42028994Y-86832419D01*
G01X42036717Y-86770986D01*
G01X42044698Y-86707752D01*
G01X42052935Y-86642733D01*
G01X42061430Y-86575948D01*
G01X42070181Y-86507417D01*
G01X42079189Y-86437157D01*
G01X42088453Y-86365186D01*
G01X42097973Y-86291523D01*
G01X42107748Y-86216186D01*
G01X42117779Y-86139194D01*
G01X42128065Y-86060565D01*
G01X42138606Y-85980318D01*
G01X42149401Y-85898470D01*
G01X42160450Y-85815040D01*
G01X42171753Y-85730047D01*
G01X42183310Y-85643509D01*
G01X42195121Y-85555444D01*
G01X42207184Y-85465870D01*
G01X42219500Y-85374807D01*
G01X42232069Y-85282272D01*
G01X42244890Y-85188284D01*
G01X42257963Y-85092861D01*
G01X42271288Y-84996021D01*
G01X42284864Y-84897783D01*
G01X42298691Y-84798165D01*
G01X42312770Y-84697186D01*
G01X42327098Y-84594864D01*
G01X42341678Y-84491217D01*
G01X42356507Y-84386264D01*
G01X42371586Y-84280023D01*
G01X42386914Y-84172513D01*
G01X42402492Y-84063751D01*
G01X42418319Y-83953757D01*
G01X42434394Y-83842548D01*
G01X42450717Y-83730143D01*
G01X42467289Y-83616560D01*
G01X42484109Y-83501818D01*
G01X42501176Y-83385935D01*
G01X42518490Y-83268929D01*
G01X42536052Y-83150819D01*
G01X42553860Y-83031624D01*
G01X42571914Y-82911361D01*
G01X42590215Y-82790049D01*
G01X42608761Y-82667706D01*
G01X42627553Y-82544350D01*
G01X42646591Y-82420001D01*
G01X42665873Y-82294676D01*
G01X42685401Y-82168394D01*
G01X42705172Y-82041173D01*
G01X42725188Y-81913032D01*
G01X42745448Y-81783988D01*
G01X42765952Y-81654061D01*
G01X42786699Y-81523268D01*
G01X42807689Y-81391628D01*
G01X42828921Y-81259160D01*
G01X42850397Y-81125881D01*
G01X42872114Y-80991811D01*
G01X42894074Y-80856967D01*
G01X42916275Y-80721368D01*
G01X42938718Y-80585032D01*
G01X42961402Y-80447977D01*
G01X42984327Y-80310223D01*
G01X43007492Y-80171787D01*
G01X43030898Y-80032687D01*
G01X43054543Y-79892943D01*
G01X43078429Y-79752572D01*
G01X43102554Y-79611593D01*
G01X43126918Y-79470024D01*
G01X43151521Y-79327884D01*
G01X43176363Y-79185190D01*
G01X43201443Y-79041962D01*
G01X43201443Y-79041962D01*
G01X43201443Y-79041962D01*
G01X43226776Y-78898206D01*
G01X43252376Y-78753932D01*
G01X43278241Y-78609159D01*
G01X43304370Y-78463909D01*
G01X43330761Y-78318202D01*
G01X43357411Y-78172060D01*
G01X43384320Y-78025502D01*
G01X43411486Y-77878550D01*
G01X43438906Y-77731224D01*
G01X43466580Y-77583545D01*
G01X43494505Y-77435533D01*
G01X43522680Y-77287211D01*
G01X43551103Y-77138597D01*
G01X43579773Y-76989714D01*
G01X43608687Y-76840581D01*
G01X43637844Y-76691219D01*
G01X43667242Y-76541650D01*
G01X43696880Y-76391893D01*
G01X43726756Y-76241970D01*
G01X43756868Y-76091902D01*
G01X43787214Y-75941708D01*
G01X43817793Y-75791410D01*
G01X43848603Y-75641029D01*
G01X43879643Y-75490585D01*
G01X43910910Y-75340100D01*
G01X43942402Y-75189592D01*
G01X43974119Y-75039085D01*
G01X44006059Y-74888597D01*
G01X44038219Y-74738151D01*
G01X44070598Y-74587766D01*
G01X44103195Y-74437463D01*
G01X44136007Y-74287264D01*
G01X44169033Y-74137188D01*
G01X44202271Y-73987257D01*
G01X44235720Y-73837492D01*
G01X44269377Y-73687912D01*
G01X44303242Y-73538539D01*
G01X44337312Y-73389394D01*
G01X44371586Y-73240497D01*
G01X44406061Y-73091869D01*
G01X44440737Y-72943531D01*
G01X44475611Y-72795503D01*
G01X44510682Y-72647807D01*
G01X44545949Y-72500462D01*
G01X44581408Y-72353490D01*
G01X44617060Y-72206911D01*
G01X44652901Y-72060746D01*
G01X44688931Y-71915017D01*
G01X44725147Y-71769743D01*
G01X44761548Y-71624945D01*
G01X44798132Y-71480644D01*
G01X44834898Y-71336861D01*
G01X44871843Y-71193617D01*
G01X44908966Y-71050931D01*
G01X44946266Y-70908826D01*
G01X44983740Y-70767322D01*
G01X45021388Y-70626438D01*
G01X45059206Y-70486197D01*
G01X45097194Y-70346619D01*
G01X45135349Y-70207725D01*
G01X45173671Y-70069535D01*
G01X45212157Y-69932070D01*
G01X45250806Y-69795351D01*
G01X45289615Y-69659399D01*
G01X45328584Y-69524233D01*
G01X45367710Y-69389876D01*
G01X45406992Y-69256348D01*
G01X45446428Y-69123669D01*
G01X45486017Y-68991860D01*
G01X45525756Y-68860942D01*
G01X45565644Y-68730936D01*
G01X45605680Y-68601863D01*
G01X45645861Y-68473743D01*
G01X45686186Y-68346596D01*
G01X45726653Y-68220444D01*
G01X45767260Y-68095308D01*
G01X45808006Y-67971207D01*
G01X45848889Y-67848163D01*
G01X45889908Y-67726197D01*
G01X45931060Y-67605330D01*
G01X45972343Y-67485581D01*
G01X46013757Y-67366972D01*
G01X46055300Y-67249523D01*
G01X46096969Y-67133256D01*
G01X46138763Y-67018191D01*
G01X46180681Y-66904348D01*
G01X46222720Y-66791749D01*
G01X46264879Y-66680414D01*
G01X46307156Y-66570364D01*
G01X46349550Y-66461619D01*
G01X46392059Y-66354201D01*
G01X46434680Y-66248130D01*
G01X46477413Y-66143426D01*
G01X46520256Y-66040112D01*
G01X46563207Y-65938206D01*
G01X46606263Y-65837731D01*
G01X46649425Y-65738706D01*
G01X46692689Y-65641153D01*
G01X46736054Y-65545092D01*
G01X46779519Y-65450543D01*
G01X46779519Y-65450543D01*
G01X46779519Y-65450543D01*
G01X46824580Y-65354165D01*
G01X46871058Y-65256194D01*
G01X46918936Y-65156644D01*
G01X46968194Y-65055530D01*
G01X47018813Y-64952867D01*
G01X47070775Y-64848668D01*
G01X47124060Y-64742947D01*
G01X47178651Y-64635721D01*
G01X47234527Y-64527001D01*
G01X47291671Y-64416804D01*
G01X47350064Y-64305144D01*
G01X47409686Y-64192034D01*
G01X47470519Y-64077489D01*
G01X47532543Y-63961524D01*
G01X47595742Y-63844152D01*
G01X47660094Y-63725389D01*
G01X47725583Y-63605248D01*
G01X47792188Y-63483745D01*
G01X47859891Y-63360893D01*
G01X47928673Y-63236706D01*
G01X47998516Y-63111200D01*
G01X48069400Y-62984388D01*
G01X48141307Y-62856284D01*
G01X48214217Y-62726904D01*
G01X48288113Y-62596262D01*
G01X48362975Y-62464371D01*
G01X48438785Y-62331247D01*
G01X48515523Y-62196903D01*
G01X48593172Y-62061355D01*
G01X48671711Y-61924615D01*
G01X48751122Y-61786700D01*
G01X48831387Y-61647622D01*
G01X48912487Y-61507397D01*
G01X48994402Y-61366039D01*
G01X49077115Y-61223562D01*
G01X49160605Y-61079981D01*
G01X49244855Y-60935309D01*
G01X49329845Y-60789562D01*
G01X49415557Y-60642754D01*
G01X49501972Y-60494898D01*
G01X49589071Y-60346010D01*
G01X49676836Y-60196104D01*
G01X49765246Y-60045194D01*
G01X49854285Y-59893294D01*
G01X49943932Y-59740419D01*
G01X50034170Y-59586584D01*
G01X50124978Y-59431802D01*
G01X50216339Y-59276088D01*
G01X50308234Y-59119456D01*
G01X50400643Y-58961921D01*
G01X50493549Y-58803497D01*
G01X50586931Y-58644199D01*
G01X50680772Y-58484040D01*
G01X50775053Y-58323035D01*
G01X50869754Y-58161199D01*
G01X50964857Y-57998546D01*
G01X51060343Y-57835090D01*
G01X51156193Y-57670846D01*
G01X51252389Y-57505828D01*
G01X51348911Y-57340050D01*
G01X51445742Y-57173527D01*
G01X51542861Y-57006273D01*
G01X51640251Y-56838302D01*
G01X51737892Y-56669630D01*
G01X51835765Y-56500269D01*
G01X51933852Y-56330235D01*
G01X52032135Y-56159542D01*
G01X52130593Y-55988204D01*
G01X52229209Y-55816236D01*
G01X52327963Y-55643652D01*
G01X52426837Y-55470466D01*
G01X52525812Y-55296693D01*
G01X52624869Y-55122347D01*
G01X52723989Y-54947443D01*
G01X52823154Y-54771994D01*
G01X52922344Y-54596016D01*
G01X53021541Y-54419522D01*
G01X53120726Y-54242527D01*
G01X53219880Y-54065046D01*
G01X53318985Y-53887092D01*
G01X53418021Y-53708680D01*
G01X53516970Y-53529825D01*
G01X53615813Y-53350540D01*
G01X53714532Y-53170841D01*
G01X53813106Y-52990741D01*
G01X53911518Y-52810255D01*
G01X54009749Y-52629397D01*
G01X54107779Y-52448182D01*
G01X54205591Y-52266624D01*
G01X54303165Y-52084737D01*
G01X54400482Y-51902536D01*
G01X54497524Y-51720035D01*
G01X54594271Y-51537248D01*
G01X54690706Y-51354191D01*
G01X54786809Y-51170876D01*
G01X54882561Y-50987319D01*
G01X54977944Y-50803534D01*
G01X55072939Y-50619535D01*
G01X55167526Y-50435337D01*
G01X55261688Y-50250954D01*
G01X55261688Y-50250954D01*
G01X55261688Y-50250954D01*
G01X55287103Y-50201004D01*
G01X55312485Y-50151035D01*
G01X55337834Y-50101045D01*
G01X55363151Y-50051035D01*
G01X55388436Y-50001007D01*
G01X55413690Y-49950959D01*
G01X55438911Y-49900893D01*
G01X55464101Y-49850809D01*
G01X55489261Y-49800707D01*
G01X55514389Y-49750588D01*
G01X55539487Y-49700452D01*
G01X55564555Y-49650299D01*
G01X55589593Y-49600130D01*
G01X55614601Y-49549946D01*
G01X55639580Y-49499746D01*
G01X55664530Y-49449531D01*
G01X55689451Y-49399301D01*
G01X55714344Y-49349057D01*
G01X55739208Y-49298800D01*
G01X55764044Y-49248529D01*
G01X55788852Y-49198245D01*
G01X55813633Y-49147948D01*
G01X55838386Y-49097639D01*
G01X55863113Y-49047318D01*
G01X55887813Y-48996985D01*
G01X55912486Y-48946642D01*
G01X55937134Y-48896288D01*
G01X55961755Y-48845923D01*
G01X55986351Y-48795549D01*
G01X56010922Y-48745165D01*
G01X56035467Y-48694771D01*
G01X56059988Y-48644370D01*
G01X56084484Y-48593959D01*
G01X56092644Y-48577154D01*
G37*
G36*
G01X19094903Y-48583357D02*
G01X15830503Y-49881469D01*
G01X15830503Y-49881469D01*
G01X15852785Y-49925776D01*
G01X15874965Y-49970135D01*
G01X15897080Y-50014524D01*
G01X15919170Y-50058925D01*
G01X15941270Y-50103316D01*
G01X15963420Y-50147677D01*
G01X15985656Y-50191988D01*
G01X16008017Y-50236227D01*
G01X16015505Y-50250954D01*
G01X16015505Y-50250954D01*
G01X16109667Y-50435338D01*
G01X16204254Y-50619536D01*
G01X16299250Y-50803535D01*
G01X16394633Y-50987320D01*
G01X16490387Y-51170877D01*
G01X16586491Y-51354192D01*
G01X16682928Y-51537249D01*
G01X16779677Y-51720036D01*
G01X16876722Y-51902537D01*
G01X16974041Y-52084738D01*
G01X17071618Y-52266625D01*
G01X17169433Y-52448183D01*
G01X17267466Y-52629398D01*
G01X17365701Y-52810256D01*
G01X17464116Y-52990742D01*
G01X17562695Y-53170842D01*
G01X17661417Y-53350541D01*
G01X17760264Y-53529826D01*
G01X17859218Y-53708681D01*
G01X17958259Y-53887093D01*
G01X18057369Y-54065047D01*
G01X18156528Y-54242528D01*
G01X18255719Y-54419523D01*
G01X18354921Y-54596017D01*
G01X18454117Y-54771995D01*
G01X18553288Y-54947444D01*
G01X18652414Y-55122348D01*
G01X18751477Y-55296694D01*
G01X18850458Y-55470467D01*
G01X18949338Y-55643653D01*
G01X19048099Y-55816237D01*
G01X19146721Y-55988205D01*
G01X19245187Y-56159543D01*
G01X19343476Y-56330236D01*
G01X19441570Y-56500270D01*
G01X19539451Y-56669631D01*
G01X19637099Y-56838303D01*
G01X19734495Y-57006274D01*
G01X19831622Y-57173528D01*
G01X19928460Y-57340051D01*
G01X20024990Y-57505829D01*
G01X20121193Y-57670847D01*
G01X20217051Y-57835091D01*
G01X20312545Y-57998547D01*
G01X20407655Y-58161200D01*
G01X20502364Y-58323036D01*
G01X20596652Y-58484041D01*
G01X20690501Y-58644200D01*
G01X20783891Y-58803498D01*
G01X20876804Y-58961922D01*
G01X20969222Y-59119457D01*
G01X21061124Y-59276089D01*
G01X21152493Y-59431803D01*
G01X21243309Y-59586585D01*
G01X21333554Y-59740420D01*
G01X21423209Y-59893295D01*
G01X21512255Y-60045195D01*
G01X21600674Y-60196105D01*
G01X21688446Y-60346011D01*
G01X21775552Y-60494899D01*
G01X21861975Y-60642755D01*
G01X21947694Y-60789563D01*
G01X22032692Y-60935310D01*
G01X22116949Y-61079982D01*
G01X22200447Y-61223563D01*
G01X22283166Y-61366040D01*
G01X22365088Y-61507398D01*
G01X22446195Y-61647623D01*
G01X22526466Y-61786701D01*
G01X22605884Y-61924616D01*
G01X22684430Y-62061356D01*
G01X22762085Y-62196904D01*
G01X22838829Y-62331248D01*
G01X22914645Y-62464372D01*
G01X22989513Y-62596263D01*
G01X23063415Y-62726905D01*
G01X23136332Y-62856285D01*
G01X23208244Y-62984389D01*
G01X23279133Y-63111201D01*
G01X23348981Y-63236707D01*
G01X23417768Y-63360894D01*
G01X23485476Y-63483746D01*
G01X23552086Y-63605249D01*
G01X23617578Y-63725390D01*
G01X23681935Y-63844153D01*
G01X23745137Y-63961525D01*
G01X23807166Y-64077490D01*
G01X23868002Y-64192035D01*
G01X23927628Y-64305145D01*
G01X23986023Y-64416805D01*
G01X24043170Y-64527002D01*
G01X24099049Y-64635722D01*
G01X24153642Y-64742948D01*
G01X24206929Y-64848669D01*
G01X24258893Y-64952868D01*
G01X24309513Y-65055531D01*
G01X24358772Y-65156645D01*
G01X24406651Y-65256195D01*
G01X24453130Y-65354166D01*
G01X24498191Y-65450545D01*
G01X24498191Y-65450545D01*
G01X24498191Y-65450545D01*
G01X24541656Y-65545094D01*
G01X24585022Y-65641156D01*
G01X24628287Y-65738710D01*
G01X24671449Y-65837736D01*
G01X24714507Y-65938212D01*
G01X24757458Y-66040119D01*
G01X24800301Y-66143434D01*
G01X24843035Y-66248138D01*
G01X24885657Y-66354210D01*
G01X24928166Y-66461629D01*
G01X24970560Y-66570375D01*
G01X25012838Y-66680426D01*
G01X25054997Y-66791761D01*
G01X25097037Y-66904361D01*
G01X25138955Y-67018204D01*
G01X25180749Y-67133270D01*
G01X25222419Y-67249538D01*
G01X25263962Y-67366987D01*
G01X25305376Y-67485596D01*
G01X25346660Y-67605346D01*
G01X25387812Y-67726214D01*
G01X25428831Y-67848180D01*
G01X25469714Y-67971224D01*
G01X25510460Y-68095325D01*
G01X25551068Y-68220462D01*
G01X25591535Y-68346614D01*
G01X25631860Y-68473761D01*
G01X25672041Y-68601881D01*
G01X25712077Y-68730955D01*
G01X25751965Y-68860961D01*
G01X25791704Y-68991879D01*
G01X25831293Y-69123688D01*
G01X25870729Y-69256367D01*
G01X25910011Y-69389895D01*
G01X25949138Y-69524253D01*
G01X25988107Y-69659418D01*
G01X26026916Y-69795370D01*
G01X26065565Y-69932090D01*
G01X26104051Y-70069554D01*
G01X26142372Y-70207744D01*
G01X26180528Y-70346639D01*
G01X26218516Y-70486217D01*
G01X26256334Y-70626457D01*
G01X26293981Y-70767340D01*
G01X26331455Y-70908845D01*
G01X26368755Y-71050950D01*
G01X26405878Y-71193635D01*
G01X26442823Y-71336879D01*
G01X26479589Y-71480662D01*
G01X26516173Y-71624963D01*
G01X26552574Y-71769760D01*
G01X26588790Y-71915034D01*
G01X26624819Y-72060764D01*
G01X26660660Y-72206928D01*
G01X26696312Y-72353506D01*
G01X26731771Y-72500478D01*
G01X26767037Y-72647823D01*
G01X26802108Y-72795519D01*
G01X26836982Y-72943546D01*
G01X26871658Y-73091884D01*
G01X26906133Y-73240512D01*
G01X26940407Y-73389409D01*
G01X26974476Y-73538554D01*
G01X27008341Y-73687926D01*
G01X27041998Y-73837505D01*
G01X27075446Y-73987270D01*
G01X27108684Y-74137201D01*
G01X27141710Y-74287276D01*
G01X27174522Y-74437475D01*
G01X27207118Y-74587777D01*
G01X27239497Y-74738162D01*
G01X27271657Y-74888608D01*
G01X27303596Y-75039095D01*
G01X27335313Y-75189602D01*
G01X27366806Y-75340109D01*
G01X27398072Y-75490595D01*
G01X27429111Y-75641038D01*
G01X27459921Y-75791419D01*
G01X27490500Y-75941716D01*
G01X27520846Y-76091909D01*
G01X27550958Y-76241978D01*
G01X27580833Y-76391900D01*
G01X27610471Y-76541656D01*
G01X27639869Y-76691225D01*
G01X27669026Y-76840586D01*
G01X27697940Y-76989719D01*
G01X27726609Y-77138602D01*
G01X27755032Y-77287215D01*
G01X27783207Y-77435538D01*
G01X27811132Y-77583549D01*
G01X27838805Y-77731227D01*
G01X27866226Y-77878553D01*
G01X27893391Y-78025505D01*
G01X27920300Y-78172062D01*
G01X27946950Y-78318205D01*
G01X27973340Y-78463911D01*
G01X27999469Y-78609161D01*
G01X28025334Y-78753933D01*
G01X28050934Y-78898208D01*
G01X28076267Y-79041963D01*
G01X28076267Y-79041963D01*
G01X28076267Y-79041963D01*
G01X28101347Y-79185192D01*
G01X28126189Y-79327887D01*
G01X28150792Y-79470030D01*
G01X28175156Y-79611603D01*
G01X28199281Y-79752587D01*
G01X28223166Y-79892964D01*
G01X28246812Y-80032716D01*
G01X28270217Y-80171824D01*
G01X28293382Y-80310269D01*
G01X28316307Y-80448034D01*
G01X28338991Y-80585100D01*
G01X28361434Y-80721449D01*
G01X28383635Y-80857061D01*
G01X28405594Y-80991920D01*
G01X28427312Y-81126005D01*
G01X28448787Y-81259300D01*
G01X28470020Y-81391786D01*
G01X28491010Y-81523443D01*
G01X28511757Y-81654255D01*
G01X28532260Y-81784201D01*
G01X28552520Y-81913265D01*
G01X28572536Y-82041427D01*
G01X28592308Y-82168670D01*
G01X28611835Y-82294974D01*
G01X28631118Y-82420322D01*
G01X28650155Y-82544695D01*
G01X28668947Y-82668074D01*
G01X28687494Y-82790442D01*
G01X28705794Y-82911779D01*
G01X28723849Y-83032068D01*
G01X28741657Y-83151290D01*
G01X28759218Y-83269427D01*
G01X28776533Y-83386460D01*
G01X28793600Y-83502370D01*
G01X28810419Y-83617140D01*
G01X28826991Y-83730751D01*
G01X28843315Y-83843185D01*
G01X28859390Y-83954423D01*
G01X28875217Y-84064447D01*
G01X28890794Y-84173239D01*
G01X28906123Y-84280779D01*
G01X28921202Y-84387050D01*
G01X28936031Y-84492034D01*
G01X28950610Y-84595711D01*
G01X28964939Y-84698064D01*
G01X28979017Y-84799074D01*
G01X28992845Y-84898722D01*
G01X29006421Y-84996991D01*
G01X29019746Y-85093862D01*
G01X29032819Y-85189316D01*
G01X29045640Y-85283336D01*
G01X29058208Y-85375902D01*
G01X29070525Y-85466996D01*
G01X29082588Y-85556601D01*
G01X29094398Y-85644696D01*
G01X29105955Y-85731265D01*
G01X29117259Y-85816289D01*
G01X29128308Y-85899749D01*
G01X29139103Y-85981627D01*
G01X29149644Y-86061905D01*
G01X29159930Y-86140563D01*
G01X29169961Y-86217585D01*
G01X29179736Y-86292951D01*
G01X29189256Y-86366642D01*
G01X29198520Y-86438642D01*
G01X29207528Y-86508930D01*
G01X29216279Y-86577489D01*
G01X29224774Y-86644301D01*
G01X29233012Y-86709347D01*
G01X29240992Y-86772608D01*
G01X29248715Y-86834066D01*
G01X29256180Y-86893703D01*
G01X29263387Y-86951501D01*
G01X29270335Y-87007440D01*
G01X29277025Y-87061504D01*
G01X29283456Y-87113672D01*
G01X29289628Y-87163927D01*
G01X29295540Y-87212251D01*
G01X29301192Y-87258624D01*
G01X29306585Y-87303029D01*
G01X29311717Y-87345448D01*
G01X29316588Y-87385861D01*
G01X29321199Y-87424251D01*
G01X29325548Y-87460598D01*
G01X29329636Y-87494886D01*
G01X29333462Y-87527094D01*
G01X29337027Y-87557205D01*
G01X29340329Y-87585201D01*
G01X29343368Y-87611063D01*
G01X29346144Y-87634773D01*
G01X29348658Y-87656312D01*
G01X29350908Y-87675661D01*
G01X29352894Y-87692803D01*
G01X29354617Y-87707720D01*
G01X29356075Y-87720391D01*
G01X29357269Y-87730801D01*
G01X29358198Y-87738929D01*
G01X29358861Y-87744757D01*
G01X29359260Y-87748268D01*
G01X29359393Y-87749442D01*
G01X29359393Y-87749442D01*
G01X32836185Y-87356700D01*
G01X32836185Y-87356700D01*
G01X32836049Y-87355497D01*
G01X32835642Y-87351899D01*
G01X32834964Y-87345927D01*
G01X32834016Y-87337598D01*
G01X32832797Y-87326932D01*
G01X32831309Y-87313947D01*
G01X32829550Y-87298663D01*
G01X32827522Y-87281097D01*
G01X32825225Y-87261270D01*
G01X32822659Y-87239200D01*
G01X32819823Y-87214905D01*
G01X32816720Y-87188405D01*
G01X32813348Y-87159719D01*
G01X32809708Y-87128865D01*
G01X32805801Y-87095862D01*
G01X32801626Y-87060730D01*
G01X32797184Y-87023486D01*
G01X32792476Y-86984150D01*
G01X32787500Y-86942741D01*
G01X32782258Y-86899278D01*
G01X32776751Y-86853779D01*
G01X32770977Y-86806263D01*
G01X32764938Y-86756750D01*
G01X32758633Y-86705257D01*
G01X32752064Y-86651805D01*
G01X32745230Y-86596411D01*
G01X32738131Y-86539095D01*
G01X32730768Y-86479875D01*
G01X32723142Y-86418771D01*
G01X32715251Y-86355802D01*
G01X32707097Y-86290985D01*
G01X32698680Y-86224340D01*
G01X32690000Y-86155886D01*
G01X32681058Y-86085642D01*
G01X32671853Y-86013627D01*
G01X32662386Y-85939859D01*
G01X32652657Y-85864357D01*
G01X32642667Y-85787141D01*
G01X32632416Y-85708228D01*
G01X32621903Y-85627639D01*
G01X32611130Y-85545391D01*
G01X32600096Y-85461504D01*
G01X32588802Y-85375997D01*
G01X32577248Y-85288888D01*
G01X32565435Y-85200196D01*
G01X32553362Y-85109940D01*
G01X32541030Y-85018140D01*
G01X32528439Y-84924813D01*
G01X32515589Y-84829979D01*
G01X32502481Y-84733657D01*
G01X32489115Y-84635865D01*
G01X32475492Y-84536623D01*
G01X32461610Y-84435948D01*
G01X32447472Y-84333861D01*
G01X32433076Y-84230380D01*
G01X32418424Y-84125524D01*
G01X32403515Y-84019311D01*
G01X32388350Y-83911761D01*
G01X32372929Y-83802892D01*
G01X32357253Y-83692724D01*
G01X32341321Y-83581275D01*
G01X32325134Y-83468563D01*
G01X32308692Y-83354609D01*
G01X32291995Y-83239430D01*
G01X32275044Y-83123047D01*
G01X32257839Y-83005476D01*
G01X32240380Y-82886738D01*
G01X32222668Y-82766851D01*
G01X32204702Y-82645835D01*
G01X32186484Y-82523707D01*
G01X32168012Y-82400487D01*
G01X32149288Y-82276194D01*
G01X32130312Y-82150846D01*
G01X32111084Y-82024463D01*
G01X32091605Y-81897063D01*
G01X32071874Y-81768666D01*
G01X32051892Y-81639289D01*
G01X32031659Y-81508952D01*
G01X32011175Y-81377674D01*
G01X31990441Y-81245474D01*
G01X31969457Y-81112370D01*
G01X31948223Y-80978382D01*
G01X31926740Y-80843528D01*
G01X31905007Y-80707827D01*
G01X31883026Y-80571298D01*
G01X31860795Y-80433960D01*
G01X31838316Y-80295831D01*
G01X31815589Y-80156931D01*
G01X31792614Y-80017279D01*
G01X31769392Y-79876893D01*
G01X31745922Y-79735792D01*
G01X31722205Y-79593995D01*
G01X31698241Y-79451521D01*
G01X31674030Y-79308389D01*
G01X31649573Y-79164618D01*
G01X31624870Y-79020226D01*
G01X31599921Y-78875232D01*
G01X31574727Y-78729656D01*
G01X31549287Y-78583516D01*
G01X31523602Y-78436831D01*
G01X31523602Y-78436831D01*
G01X31523602Y-78436831D01*
G01X31497688Y-78289631D01*
G01X31471559Y-78141946D01*
G01X31445215Y-77993792D01*
G01X31418652Y-77845185D01*
G01X31391872Y-77696143D01*
G01X31364872Y-77546680D01*
G01X31337650Y-77396814D01*
G01X31310207Y-77246562D01*
G01X31282541Y-77095939D01*
G01X31254649Y-76944963D01*
G01X31226533Y-76793650D01*
G01X31198189Y-76642015D01*
G01X31169617Y-76490077D01*
G01X31140815Y-76337850D01*
G01X31111783Y-76185353D01*
G01X31082519Y-76032600D01*
G01X31053022Y-75879609D01*
G01X31023291Y-75726396D01*
G01X30993325Y-75572978D01*
G01X30963121Y-75419371D01*
G01X30932680Y-75265591D01*
G01X30901999Y-75111655D01*
G01X30871079Y-74957580D01*
G01X30839916Y-74803382D01*
G01X30808511Y-74649077D01*
G01X30776862Y-74494682D01*
G01X30744968Y-74340213D01*
G01X30712827Y-74185687D01*
G01X30680438Y-74031121D01*
G01X30647801Y-73876530D01*
G01X30614913Y-73721932D01*
G01X30581775Y-73567342D01*
G01X30548383Y-73412778D01*
G01X30514738Y-73258255D01*
G01X30480838Y-73103791D01*
G01X30446682Y-72949401D01*
G01X30412269Y-72795103D01*
G01X30377597Y-72640912D01*
G01X30342665Y-72486845D01*
G01X30307472Y-72332919D01*
G01X30272016Y-72179149D01*
G01X30236297Y-72025554D01*
G01X30200314Y-71872148D01*
G01X30164065Y-71718949D01*
G01X30127548Y-71565973D01*
G01X30090763Y-71413236D01*
G01X30053709Y-71260755D01*
G01X30016384Y-71108547D01*
G01X29978787Y-70956627D01*
G01X29940916Y-70805013D01*
G01X29902771Y-70653721D01*
G01X29864351Y-70502767D01*
G01X29825654Y-70352167D01*
G01X29786678Y-70201939D01*
G01X29747424Y-70052099D01*
G01X29707888Y-69902663D01*
G01X29668071Y-69753648D01*
G01X29627972Y-69605069D01*
G01X29587588Y-69456945D01*
G01X29546918Y-69309290D01*
G01X29505962Y-69162122D01*
G01X29464718Y-69015458D01*
G01X29423185Y-68869312D01*
G01X29381362Y-68723703D01*
G01X29339248Y-68578646D01*
G01X29296840Y-68434159D01*
G01X29254139Y-68290256D01*
G01X29211143Y-68146956D01*
G01X29167850Y-68004274D01*
G01X29124260Y-67862227D01*
G01X29080371Y-67720831D01*
G01X29036182Y-67580104D01*
G01X28991692Y-67440060D01*
G01X28946900Y-67300717D01*
G01X28901803Y-67162092D01*
G01X28856402Y-67024200D01*
G01X28810695Y-66887059D01*
G01X28764681Y-66750684D01*
G01X28718358Y-66615092D01*
G01X28671725Y-66480300D01*
G01X28624782Y-66346325D01*
G01X28577526Y-66213181D01*
G01X28529957Y-66080887D01*
G01X28482074Y-65949459D01*
G01X28433874Y-65818912D01*
G01X28385358Y-65689264D01*
G01X28336523Y-65560531D01*
G01X28287369Y-65432730D01*
G01X28237894Y-65305876D01*
G01X28188097Y-65179987D01*
G01X28137977Y-65055079D01*
G01X28087533Y-64931168D01*
G01X28036763Y-64808271D01*
G01X27985667Y-64686404D01*
G01X27934243Y-64565585D01*
G01X27882489Y-64445828D01*
G01X27830405Y-64327151D01*
G01X27777989Y-64209571D01*
G01X27725241Y-64093103D01*
G01X27672158Y-63977764D01*
G01X27672158Y-63977764D01*
G01X27672158Y-63977764D01*
G01X27619131Y-63864225D01*
G01X27564899Y-63749568D01*
G01X27509479Y-63633803D01*
G01X27452887Y-63516940D01*
G01X27395141Y-63398988D01*
G01X27336257Y-63279957D01*
G01X27276253Y-63159857D01*
G01X27215145Y-63038698D01*
G01X27152950Y-62916488D01*
G01X27089685Y-62793239D01*
G01X27025367Y-62668960D01*
G01X26960013Y-62543660D01*
G01X26893639Y-62417349D01*
G01X26826263Y-62290037D01*
G01X26757902Y-62161734D01*
G01X26688571Y-62032449D01*
G01X26618289Y-61902192D01*
G01X26547072Y-61770973D01*
G01X26474937Y-61638801D01*
G01X26401901Y-61505687D01*
G01X26327981Y-61371639D01*
G01X26253193Y-61236669D01*
G01X26177555Y-61100785D01*
G01X26101083Y-60963997D01*
G01X26023794Y-60826315D01*
G01X25945706Y-60687748D01*
G01X25866834Y-60548307D01*
G01X25787197Y-60408001D01*
G01X25706810Y-60266840D01*
G01X25625692Y-60124833D01*
G01X25543857Y-59981991D01*
G01X25461324Y-59838322D01*
G01X25378110Y-59693838D01*
G01X25294231Y-59548546D01*
G01X25209704Y-59402458D01*
G01X25124546Y-59255583D01*
G01X25038774Y-59107930D01*
G01X24952405Y-58959510D01*
G01X24865455Y-58810331D01*
G01X24777942Y-58660405D01*
G01X24689882Y-58509740D01*
G01X24601293Y-58358346D01*
G01X24512191Y-58206234D01*
G01X24422593Y-58053412D01*
G01X24332516Y-57899890D01*
G01X24241977Y-57745679D01*
G01X24150993Y-57590787D01*
G01X24059580Y-57435225D01*
G01X23967756Y-57279002D01*
G01X23875538Y-57122129D01*
G01X23782942Y-56964614D01*
G01X23689984Y-56806468D01*
G01X23596683Y-56647700D01*
G01X23503055Y-56488320D01*
G01X23409117Y-56328337D01*
G01X23314886Y-56167762D01*
G01X23220378Y-56006604D01*
G01X23125610Y-55844873D01*
G01X23030600Y-55682579D01*
G01X22935365Y-55519731D01*
G01X22839920Y-55356339D01*
G01X22744284Y-55192413D01*
G01X22648472Y-55027962D01*
G01X22552503Y-54862997D01*
G01X22456392Y-54697526D01*
G01X22360156Y-54531560D01*
G01X22263813Y-54365109D01*
G01X22167380Y-54198181D01*
G01X22070873Y-54030788D01*
G01X21974308Y-53862938D01*
G01X21877704Y-53694642D01*
G01X21781077Y-53525908D01*
G01X21684444Y-53356747D01*
G01X21587821Y-53187169D01*
G01X21491226Y-53017183D01*
G01X21394675Y-52846799D01*
G01X21298185Y-52676027D01*
G01X21201774Y-52504875D01*
G01X21105458Y-52333356D01*
G01X21009254Y-52161477D01*
G01X20913179Y-51989248D01*
G01X20817249Y-51816680D01*
G01X20721483Y-51643782D01*
G01X20625895Y-51470564D01*
G01X20530504Y-51297035D01*
G01X20435327Y-51123205D01*
G01X20340380Y-50949084D01*
G01X20245679Y-50774682D01*
G01X20151243Y-50600009D01*
G01X20057087Y-50425073D01*
G01X19963230Y-50249885D01*
G01X19869687Y-50074455D01*
G01X19776475Y-49898792D01*
G01X19683612Y-49722907D01*
G01X19591114Y-49546808D01*
G01X19498998Y-49370505D01*
G01X19407281Y-49194009D01*
G01X19315980Y-49017328D01*
G01X19225112Y-48840473D01*
G01X19134694Y-48663454D01*
G01X19134694Y-48663454D01*
G01X19134694Y-48663454D01*
G01X19114780Y-48623408D01*
G01X19094904Y-48583354D01*
G01X19094904Y-48583354D01*
G37*

G04 Pad flashes *
%LPD*%
D11*

G04 end of program *
M02*
