<?xml version="1.0" encoding="UTF-8" standalone="no"?>
<!-- Created with Inkscape (http://www.inkscape.org/) -->

<svg
   xmlns:dc="http://purl.org/dc/elements/1.1/"
   xmlns:cc="http://creativecommons.org/ns#"
   xmlns:rdf="http://www.w3.org/1999/02/22-rdf-syntax-ns#"
   xmlns:svg="http://www.w3.org/2000/svg"
   xmlns="http://www.w3.org/2000/svg"
   xmlns:sodipodi="http://sodipodi.sourceforge.net/DTD/sodipodi-0.dtd"
   xmlns:inkscape="http://www.inkscape.org/namespaces/inkscape"
   width="210mm"
   height="297mm"
   viewBox="0 0 210 297"
   version="1.1"
   id="svg8"
   inkscape:version="0.92+devel (unknown)"
   sodipodi:docname="bulb.svg">
  <defs
     id="defs2" />
  <sodipodi:namedview
     id="base"
     pagecolor="#ffffff"
     bordercolor="#666666"
     borderopacity="1.0"
     inkscape:pageopacity="0.0"
     inkscape:pageshadow="2"
     inkscape:zoom="0.52382155"
     inkscape:cx="396.85039"
     inkscape:cy="561.25984"
     inkscape:document-units="mm"
     inkscape:current-layer="g1146"
     inkscape:document-rotation="0"
     showgrid="false"
     inkscape:window-width="1440"
     inkscape:window-height="848"
     inkscape:window-x="0"
     inkscape:window-y="0"
     inkscape:window-maximized="1" />
  <metadata
     id="metadata5">
    <rdf:RDF>
      <cc:Work
         rdf:about="">
        <dc:format>image/svg+xml</dc:format>
        <dc:type
           rdf:resource="http://purl.org/dc/dcmitype/StillImage" />
        <dc:title></dc:title>
      </cc:Work>
    </rdf:RDF>
  </metadata>
  <g
     inkscape:label="Layer 1"
     inkscape:groupmode="layer"
     id="layer1">
    <g
       id="g1146"
       transform="translate(-106.12125,0.360323)">
      <path
         sodipodi:nodetypes="cccsscccccccccccsccc"
         inkscape:connector-curvature="0"
         id="path78"
         d="m 211.12125,40.535134 c -35.25468,2.7e-5 -63.83425,28.254306 -63.83435,63.107776 0.02,11.59167 3.26905,22.95395 9.39065,32.84037 6.31416,11.52215 17.3365,29.63705 18.68258,38.0814 1.34858,8.46001 1.51458,14.60866 4.10776,18.32808 2.59317,3.71942 4.78885,9.24904 4.78885,9.24904 v 32.29777 c 0.17629,3.17029 0.14403,3.13925 2.1978,5.92057 l 13.46119,13.4612 c 1.73496,1.73774 1.81332,1.91765 3.38946,1.92288 h 15.63264 c 1.57613,-0.005 1.65399,-0.18514 3.38894,-1.92288 l 13.46119,-13.4612 c 2.05377,-2.78132 2.02151,-2.75028 2.1978,-5.92057 V 202.1418 c 0,0 2.19568,-5.52962 4.78885,-9.24904 2.59319,-3.71942 2.75919,-9.86808 4.10776,-18.32808 1.34609,-8.44435 12.36843,-26.55926 18.68259,-38.0814 6.1216,-9.88642 9.37064,-21.2487 9.39064,-32.84037 -1e-4,-34.853467 -28.57967,-63.107749 -63.83435,-63.107776 z"
         style="color:#000000;overflow:visible;fill:#ffff00;stroke:none;stroke-width:0.26458332;stroke-linecap:square" />
      <path
         id="path78-6"
         transform="scale(0.26458333)"
         d="m 696.4043,765.05859 v 121.01172 c 0.66629,11.9822 0.54436,11.86488 8.30664,22.37696 l 50.87695,50.87695 c 6.55733,6.56783 6.85348,7.24781 12.81055,7.26758 h 59.08398 c 5.95703,-0.0189 6.2513,-0.69975 12.8086,-7.26758 l 50.87695,-50.87695 c 7.76228,-10.51208 7.64035,-10.39476 8.30664,-22.37696 V 765.05859 Z"
         style="color:#000000;overflow:visible;fill:#d4af37;fill-opacity:1;stroke:none;stroke-width:0.99999994;stroke-linecap:square"
         inkscape:connector-curvature="0" />
      <g
         style="fill:#ffffff;fill-opacity:1"
         id="g1110">
        <path
           style="color:#000000;font-style:normal;font-variant:normal;font-weight:normal;font-stretch:normal;font-size:medium;line-height:normal;font-family:sans-serif;font-variant-ligatures:normal;font-variant-position:normal;font-variant-caps:normal;font-variant-numeric:normal;font-variant-alternates:normal;font-variant-east-asian:normal;font-feature-settings:normal;font-variation-settings:normal;text-indent:0;text-align:start;text-decoration:none;text-decoration-line:none;text-decoration-style:solid;text-decoration-color:#000000;letter-spacing:normal;word-spacing:normal;text-transform:none;writing-mode:lr-tb;direction:ltr;text-orientation:mixed;dominant-baseline:auto;baseline-shift:baseline;text-anchor:start;white-space:normal;shape-padding:0;clip-rule:nonzero;display:inline;overflow:visible;visibility:visible;opacity:1;isolation:auto;mix-blend-mode:normal;color-interpolation:sRGB;color-interpolation-filters:linearRGB;solid-color:#000000;solid-opacity:1;vector-effect:none;fill:#ffffff;fill-opacity:1;fill-rule:evenodd;stroke:none;stroke-width:7.45028067;stroke-linecap:round;stroke-linejoin:miter;stroke-miterlimit:4;stroke-dasharray:none;stroke-dashoffset:0;stroke-opacity:1;color-rendering:auto;image-rendering:auto;shape-rendering:auto;text-rendering:auto;enable-background:accumulate"
           d="m 234.14062,201.79688 a 3.7251403,3.7251403 0 0 0 -0.63281,0.0488 l -45.97851,7.54102 a 3.7251403,3.7251403 0 0 0 -3.07227,4.2793 3.7251403,3.7251403 0 0 0 4.2793,3.07226 l 45.97656,-7.54101 a 3.7251403,3.7251403 0 0 0 3.07227,-4.2793 3.7251403,3.7251403 0 0 0 -3.64454,-3.12109 z"
           id="path1093"
           inkscape:connector-curvature="0" />
        <path
           style="color:#000000;font-style:normal;font-variant:normal;font-weight:normal;font-stretch:normal;font-size:medium;line-height:normal;font-family:sans-serif;font-variant-ligatures:normal;font-variant-position:normal;font-variant-caps:normal;font-variant-numeric:normal;font-variant-alternates:normal;font-variant-east-asian:normal;font-feature-settings:normal;font-variation-settings:normal;text-indent:0;text-align:start;text-decoration:none;text-decoration-line:none;text-decoration-style:solid;text-decoration-color:#000000;letter-spacing:normal;word-spacing:normal;text-transform:none;writing-mode:lr-tb;direction:ltr;text-orientation:mixed;dominant-baseline:auto;baseline-shift:baseline;text-anchor:start;white-space:normal;shape-padding:0;clip-rule:nonzero;display:inline;overflow:visible;visibility:visible;opacity:1;isolation:auto;mix-blend-mode:normal;color-interpolation:sRGB;color-interpolation-filters:linearRGB;solid-color:#000000;solid-opacity:1;vector-effect:none;fill:#ffffff;fill-opacity:1;fill-rule:evenodd;stroke:none;stroke-width:7.45028067;stroke-linecap:round;stroke-linejoin:miter;stroke-miterlimit:4;stroke-dasharray:none;stroke-dashoffset:0;stroke-opacity:1;color-rendering:auto;image-rendering:auto;shape-rendering:auto;text-rendering:auto;enable-background:accumulate"
           d="m 234.14062,212.60547 a 3.7251403,3.7251403 0 0 0 -0.63281,0.0508 l -45.97851,7.54102 a 3.7251403,3.7251403 0 0 0 -3.07227,4.27929 3.7251403,3.7251403 0 0 0 4.2793,3.07227 l 45.97656,-7.54102 a 3.7251403,3.7251403 0 0 0 3.07227,-4.27929 3.7251403,3.7251403 0 0 0 -3.64454,-3.12305 z"
           id="path1099"
           inkscape:connector-curvature="0" />
        <path
           style="color:#000000;font-style:normal;font-variant:normal;font-weight:normal;font-stretch:normal;font-size:medium;line-height:normal;font-family:sans-serif;font-variant-ligatures:normal;font-variant-position:normal;font-variant-caps:normal;font-variant-numeric:normal;font-variant-alternates:normal;font-variant-east-asian:normal;font-feature-settings:normal;font-variation-settings:normal;text-indent:0;text-align:start;text-decoration:none;text-decoration-line:none;text-decoration-style:solid;text-decoration-color:#000000;letter-spacing:normal;word-spacing:normal;text-transform:none;writing-mode:lr-tb;direction:ltr;text-orientation:mixed;dominant-baseline:auto;baseline-shift:baseline;text-anchor:start;white-space:normal;shape-padding:0;clip-rule:nonzero;display:inline;overflow:visible;visibility:visible;opacity:1;isolation:auto;mix-blend-mode:normal;color-interpolation:sRGB;color-interpolation-filters:linearRGB;solid-color:#000000;solid-opacity:1;vector-effect:none;fill:#ffffff;fill-opacity:1;fill-rule:evenodd;stroke:none;stroke-width:7.45028067;stroke-linecap:round;stroke-linejoin:miter;stroke-miterlimit:4;stroke-dasharray:none;stroke-dashoffset:0;stroke-opacity:1;color-rendering:auto;image-rendering:auto;shape-rendering:auto;text-rendering:auto;enable-background:accumulate"
           d="m 234.14062,223.41602 a 3.7251403,3.7251403 0 0 0 -0.63281,0.0488 l -45.97851,7.54297 a 3.7251403,3.7251403 0 0 0 -3.07227,4.2793 3.7251403,3.7251403 0 0 0 4.2793,3.07227 l 45.97656,-7.54102 a 3.7251403,3.7251403 0 0 0 3.07227,-4.2793 3.7251403,3.7251403 0 0 0 -3.64454,-3.12304 z"
           id="path1105"
           inkscape:connector-curvature="0" />
      </g>
      <path
         sodipodi:nodetypes="csssszssssc"
         inkscape:connector-curvature="0"
         d="m 219.2649,197.84041 c 0,0 3.2061,-28.49162 8.99062,-40.95894 5.78461,-12.46743 27.45961,-41.28647 22.3545,-57.639868 -5.1052,-16.353502 -20.21895,-24.413206 -32.8979,5.341998 -12.67887,29.7551 17.50312,43.58935 15.26333,16.56327 -2.23979,-27.025986 -14.23068,-35.928248 -21.85423,-35.927746 -7.62345,4e-4 -19.61444,8.90266 -21.85414,35.928736 -2.23979,27.02599 27.9422,13.19184 15.26325,-16.56335 -12.67885,-29.755213 -27.79271,-21.695409 -32.89782,-5.342006 -5.10521,16.353406 16.56979,45.172436 22.35441,57.639866 5.78461,12.46743 8.99063,40.95895 8.99063,40.95895"
         style="fill:none;fill-rule:evenodd;stroke:#d4af37;stroke-width:5;stroke-linecap:butt;stroke-linejoin:miter;stroke-miterlimit:4;stroke-dasharray:none;stroke-opacity:1"
         id="path22-6" />
      <path
         style="color:#000000;overflow:visible;fill:#7e7037;fill-opacity:1;stroke:none;stroke-width:0.99999994;stroke-linecap:square"
         d="M 342.28125 948.4668 L 354.5 960.68555 C 361.05733 967.25338 361.35348 967.93336 367.31055 967.95312 L 426.39453 967.95312 C 432.35156 967.93423 432.64583 967.25338 439.20312 960.68555 L 451.42188 948.4668 L 342.28125 948.4668 z "
         transform="matrix(0.26458333,0,0,0.26458333,106.12125,-0.360323)"
         id="path78-6-0" />
    </g>
    <path
       style="color:#000000;overflow:visible;fill:#ffffff;fill-opacity:1;stroke:none;stroke-width:5;stroke-linecap:round;stroke-miterlimit:4;stroke-dasharray:none;stroke-opacity:1"
       d="M 54.700501,85.847461 C 50.827679,96.228041 49.959586,111.46227 48.237388,110.8281 46.515189,110.19393 44.665565,97.508243 49.805157,83.55091 54.944748,69.593578 64.270367,60.842205 65.992564,61.476382 67.71476,62.110559 58.573321,75.46688 54.700501,85.847461 Z"
       id="path1150"
       inkscape:connector-curvature="0"
       sodipodi:nodetypes="zsssz" />
  </g>
</svg>
